<?xml version="1.0" encoding="UTF-8" standalone="no"?>
<svg
   version="1.0"
   viewBox="0 0 3583.3 542"
   preserveAspectRatio="xMidYMid"
   id="svg58436"
   sodipodi:docname="aircraftcarrierBig.svg"
   inkscape:version="1.2.1 (9c6d41e410, 2022-07-14, custom)"
   width="3583.3"
   height="542"
   xmlns:inkscape="http://www.inkscape.org/namespaces/inkscape"
   xmlns:sodipodi="http://sodipodi.sourceforge.net/DTD/sodipodi-0.dtd"
   xmlns="http://www.w3.org/2000/svg"
   xmlns:svg="http://www.w3.org/2000/svg">
  <defs
     id="defs58440" />
  <sodipodi:namedview
     id="namedview58438"
     pageopacity="0"
     bordercolor="#000000"
     borderopacity="0.25"
     inkscape:showpageshadow="2"
     inkscape:pageopacity="0.0"
     inkscape:pagecheckerboard="0"
     inkscape:deskcolor="#d1d1d1"
     inkscape:document-units="pt"
     showgrid="false"
     inkscape:current-layer="g58434"
     pagecolor="#ffffff"
     inkscape:zoom="0.245"
     inkscape:cx="1808.1633"
     inkscape:cy="242.85714"
     inkscape:window-width="1920"
     inkscape:window-height="1011"
     inkscape:window-x="1920"
     inkscape:window-y="32"
     inkscape:window-maximized="1" />
  <metadata
     id="metadata29238">
Created by potrace 1.12, written by Peter Selinger 2001-2015
</metadata>
  <g
     transform="matrix(0.1,0,0,-0.1,-889.87201,1188.5169)"
     fill="#000000"
     stroke="none"
     id="g58434">
    <path
       d="m 25933.72,11867.169 -50,-17 -46,-31 -46,-31 -13,-16 -12,-15 h -17 -18 l -22,24 -23,24 -66,34 -67,33 h -70 -70 l -80,-18 -80,-18 -75,-31 -75,-30 -46,-34 -47,-34 h -16 -17 l -6,-15 -5,-16 -42,-20 -41,-19 -245,-5 -245,-5 -104,-10 -104,-9 h -106 -106 l -75,-9 -75,-9 -42,5 -42,4 -26,23 -25,24 6,16 6,15 -31,11 -31,11 v 13 13 l -15,6 -15,5 v 14 14 l -38,27 -38,26 h -15 -15 l -11,11 -10,10 -72,10 -72,10 -57,-26 -56,-26 -16,-13 -15,-13 -27,-5 -27,-5 -5,13 -5,14 h -15 -15 l -26,24 -26,24 -52,6 -52,6 -52,-19 -53,-19 -31,-29 -30,-28 -24,-50 -24,-50 -7,-42 -7,-43 -31,-15 -31,-16 -55,1 -55,1 -300,-6 -300,-6 -50,-9 -50,-10 -240,1 -240,1 -43,-12 -42,-13 -38,11 -37,11 -90,7 -90,7 -20,2 -20,2 -30,6 -30,6 -90,17 -90,17 -47,44 -48,43 -64,30 -64,30 h -24 -23 l -60,-40 -60,-39 -18,-1 h -19 l -25,20 -26,20 h -36 -37 l -12,12 -12,12 -20,-12 -20,-12 -24,6 -24,6 -36,-17 -36,-17 -51,-59 -51,-59 h -8 -7 l -28,40 -28,41 -46,31 -46,31 -35,1 -35,1 -12,8 -12,8 -10,-20 -10,-19 -26,-6 -25,-6 v -11 -10 l -27,-10 -28,-10 -28,-39 -28,-40 h -15 -14 l -9,23 -9,22 -28,27 -29,27 -37,15 -37,16 h -63 -63 l -40,-19 -40,-18 -21,-24 -21,-24 -14,-29 -14,-29 -18,-11 -17,-11 -40,47 -41,47 -42,19 -42,20 -28,11 -28,11 h -20 -20 l -65,-30 -65,-31 -5,-13 -5,-12 -54,-59 -55,-58 -87,-9 -88,-8 -490,-9 -490,-10 -120,-12 -120,-12 -150,6 -150,6 -95,-9 -95,-9 -125,-11 -125,-10 -223,-2 -223,-2 -6,-9 -5,-8 -46,1 -47,2 -170,-7 -170,-6 -180,-3 -180,-4 -75,-10 -75,-11 -196,-1 h -195 l -55,-9 -54,-9 -170,-7 -170,-6 -18,14 -19,13 -3,83 -3,84 -25,24 -24,25 -91,2 -91,1 -30,23 -30,22 h -9 -10 l -11,14 -12,15 -59,30 -59,31 h -25 -25 l -25,10 -26,10 v -15 -15 l -22,-4 -23,-4 -58,-11 -58,-10 -45,-28 -45,-28 -41,-33 -41,-33 h -56 -56 l -214,-5 -215,-5 -8,16 -9,15 -62,40 -61,40 h -16 -16 l -20,15 -19,14 -92,1 h -91 l -34,-17 -33,-16 -15,-9 -15,-8 -39,-20 -40,-20 h -10 -11 l -44,-41 -44,-41 -86,3 -86,3 -32,-13 -33,-13 v -59 -59 l -36,-15 -36,-15 -11,7 -11,7 -320,6 -321,6 -46,27 -46,27 h -71 -71 l -11,-12 -11,-13 -15,-20 -15,-20 -5,11 -5,11 -13,18 -13,18 -94,3 -94,3 -77,6 -77,6 -18,-20 -18,-20 -12,-14 -12,-15 -48,6 -48,5 -93,48 -91.9999,47 -63,21 -62,20 -41,6 -42,6 -63,-12 -64,-12 -47,-23 -47,-24 h -35 -35 l -3,-22 -3,-22 -42,-25 -41,-26 -46,-30 -46,-30 -51,-32 -51,-33 h -11 -11 l -53,-37 -53,-36 -6,-36 -7,-36 -12,-15 -13,-15 -17,-40 -17,-40 -14,-45 -13,-45 9,-9 10,-10 v -23 -24 l 14,-28 15,-27 15,-13 16,-13 v -26 -26 l -23,-25 -24,-26 -10,-37 -11,-38 5,-42 5,-43 18,-50 19,-50 15,-90 16,-90 1,-80 2,-79.9999 -7,-760 -7,-760 -24,-25 -23,-25 -21,-62 -21,-62 v -31 -30 h 10 10 v -36 -36 l 19,-26 18,-27 6,-27 7,-26 -6,-30 -6,-30 -34,-36 -34,-36 v -15 -15 h -8 -8 l -12,-45 -12,-45 v -13 -14 l 45,-59 44,-59 18,-24 18,-25 68,-71 68,-72 34,-19 35,-19 v -7 -8 l 38,-19 38,-20 45,-36 44,-36 23,-21 23,-21 51,-13 51,-14 13,-19 14,-19 29,-7 30,-6 12,-15 11,-14 h 65 65 l 36,17 37,17 23,17 23,18 32,-6 32,-5 54.9999,22 55,22 190,3 190,3 27,7 28,7 26,-6 25,-7 15,-34 14,-34 v -27 -28 l 40,-60 39,-61 52,-29 52,-29 82,6 82,6 34,23 34,23 46,45 46,45 37,54 36,53 v 14 13 l 20,11 21,11 225,-4 226,-3 9,-15 9,-14 v -32 -33 h -10 -10 v -28 -29 l 24,-23 25,-23 123,6 123,6 45,-44 45,-45 h 7 7 l 44,-31 44,-31 78,-13 78,-14 18,10 18,9 h 38 38 l 44,21 45,20 45,37 45,37 94,3 93,4 187,-11 187,-12 25,-24 25,-25 38,-25 38,-25 h 8 9 l 11,-14 12,-14 32,-16 33,-15 89,-2 90,-2 66,31 66,31 52,42 53,42 17,-10 17,-11 28,5 27,5 20,-18 20,-18 5,22 6,21 23,15 22,15 -3,75 -4,75 20,11 21,11 207,-5 207,-6 640,-5 640,-6 19,-12 18,-12 14,-40 14,-40 v -17 -17 l 32,-34 33,-33 41,-27 41,-27 52,3 52,4 12,12 11,11 h 22 22 l 12,15 12,15 h 14 14 l 38,24 37,23 18,21 18,20 181,1 181,2 23,-16 24,-15 v -14 -13 l 59,-46 58,-46 43,-10 43,-9 61,9 61,10 11,14 11,15 h 21 20 l 33,41 34,40 23,26 22,26 v 17 18 l 13,10 12,10 300,-4 300,-4 310,-5 310,-4 10,-17 10,-16 44,-54 43,-54 h 10 10 l 40,-40 39,-41 25,-9 25,-10 h 51 51 l 45,22 44,23 5,12 5,13 h 14 15 l 35,35 35,35 h 24 24 l 26,-12 25,-11 v -13 -13 l 20,-11 19,-10 28,-26 28,-26 23,-9 23,-9 h 56 55 l 34,16 33,16 50,49 50,49 h 10 10 l 35,-21 35,-20 6,-17 6,-17 39,-31 39,-32 67,-7 66,-7 59,22 59,22 36,40 36,40 58,5 58,6 21,-41 21,-41 v -17 -17 l 27,-36 27,-36 25,-26 26,-25 26,-16 26,-17 61,-15 60,-16 h 36 36 l 42,30 41,30 h 12 11 l 39,29 38,28 18,34 17,34 20,40 19,40 16,14 17,13 42,-5 43,-5 39,-15 40,-15 28,-33 27,-34 1,-10 v -10 l 21,-40 21,-40 41,-37 40,-38 16,-1 16,-1 54,-3 53,-3 52,30 51,31 42,40 42,40 25,-16 25,-17 h 15 15 l 48,-17 48,-16 60,-2 60,-2 85,-22 85,-22 70,-16 70,-16 120,11 120,11 h 415 415 140 140 l 46,-49 47,-49 29,-14 28,-15 45,-13 45,-13 140,-2 140,-3 h 30 30 30 30 l 70,1 70,1 15,-1 h 15 l 150,-6 150,-6 120,1 120,2 15,-1 15,-1 1610,-5 1610,-5 485,-7 485,-8 50,-2 50,-3 h 15 15 l 145,8 145,9 100,-10 100,-9 235,2 235,3 1320,-6 1320,-5 68,-13 68,-12 57,17 57,18 37,20 37,20 51,62 50,63 v 20 20 l 18,32 17,31 39,-5 39,-5 40,-41 41,-41 30,-16 30,-15 29,-9 29,-8 47,23 46,24 46,44 46,45 104,7 104,7 195,5 195,4 170,6 170,6 60,2 60,2 92,8 92,8 77,-68 78,-69 50,-46 51,-45 35,-22 35,-21 53,-7 53,-7 42,17 42,18 43,20 43,21 20,29 20,28 h 33 33 l 36,-35 36,-35 58,-18 58,-18 48,13 48,12 43,21 43,21 18,19 18,20 h 18 18 l 5,-9 6,-8 69,-23 70,-22 38,5 38,4 35,13 35,13 30,15 30,16 17,10 17,10 29,-27 29,-27 51,-19 51,-19 73,13 73,13 38,16 38,17 6,15 5,15 39,19 38,20 h 33 33 l 40,-24 40,-25 44,-20 44,-21 h 35 35 l 91,36 91,36 15,12 15,13 19,7 19,7 36,-24 36,-24 60,-28 60,-29 115,-4 115,-4 25,-22 25,-23 50,-20 50,-21 52,-7 51,-7 79,12 78,12 40,20 40,20 16,21 17,21 303,-3 304,-2 71,-35 71,-35 77,-11 77,-10 75,18 76,17 44,30 44,29 52,-5 53,-5 28,-7 28,-7 20,18 20,18 -5,20 -5,20 23,31 23,30 7,22 7,21 14,12 15,12 v 24 24 h 10 10 l 10,26 10,26 28,-7 29,-6 459,-4 459,-4 h 380 380 l 375,3 375,3 57,21 58,22 h 18 18 l 10,10 10,10 73,16 73,15 15,14 14,15 h 25 25 l 22,12 22,12 50,8 50,7 32,7 32,6 7,-26 6,-25 14,-12 14,-11 82,-3 83,-4 92,-2 92,-2 16,13 17,14 -3,90 -3,90 29,8 30,9 50,16 50,16 10,8 9,9 h 21 20 l 29,15 28,15 h 32 32 l 21,15 21,15 24,-1 23,-1 21,7 22,7 13,-17 14,-17 26,-28 26,-29 57,-16 56,-16 38,12 37,12 48,40 48,40 24,48 25,48 -5,108 -6,108 v 35 35 l 4,264 5,264 51,51 50,51 75,80 75,80 25,26 26,27 v 10 10 l 34,41 35,41 21,56 21,56 41,80 41,79 -5,72 -5,72 -23,65 -23,65 -18,20 -18,20 -21,47 -20,46 -8,4 -7,3 -43,85 -42,85 -28,34 -27,34 -18,16 -18,16 -28,25 -28,25 -55,43 -56,43 -6,117 -6,117 1,254.9999 2,255 -8,45 -7,44 -27,50 -27,50 -50,34 -49,34 -43,-6 -43,-6 -44,-25 -44,-26 -31,-49 -31,-49 -12,-4 -12,-4 -25,9 -25,8 -75,26 -75,27 -35,7 -35,8 -35,12 -35,12 -30,11 -30,10 -55,5 -55,4 -8,14 -8,14 h -18 -17 l -50,16 -49,15 -25,14 -25,13 -70,17 -70,17 -115,38 -115,38 -38,7 -37,7 -6,9 -5,9 h -21 -22 l -120,41 -121,41 -20,9 -20,9 -1240,3 -1240,2 -22,40 -22,40 -31,65 -30,65 -8,15 -9,15 -24,12 -24,13 h -78 -78 l -22,12 -22,11 -10,13 -10,12 -63,21 -62,21 h -43 -42 l -27,-14 -27,-14 -29,-7 -30,-6 -33,-25 -33,-24 -272,1 -271,2 -74,6 -74,6 -40,32 -40,32 -64,21 -64,21 -91,-13 -91,-12 -44,-41 -44,-40 -147,3 -147,2 -26,-20 -25,-20 h -11 -10 l -8,-13 -8,-12 -27,-12 -28,-13 v -10 -10 h -18 -18 l -20,-15 -19,-14 -18,-1 h -19 l -5,20 -5,19 -24,16 -24,15 v 59 58 l -11,32 -11,31 -57,59 -56,58 -30,15 -30,15 -30,8 -30,8 -50,-2 -50,-3 -25,-13 -25,-13 -29,-31 -29,-30 -29,30 -30,29 h -16 -17 l -29,15 -28,15 h -69 -68 l -38,-22 -38,-21 -17,-15 -16,-14 -21,12 -21,11 v 9 10 l -62,30 -62,30 h -47 -47 l -44,-19 -44,-19 -29,-31 -30,-31 h -15 -15 l -37,35 -37,36 -9,15 -8,15 -86,6 -86,6 -39,-16 -39,-15 -33,-31 -33,-31 h -24 -23 l -12,23 -12,22 -16,13 -16,13 -22,9 -22,9 -131,2 -130,2 -20,-19 -19,-19 -15,-12 -15,-13 h -31 -31 l -18,-10 -19,-9 -67,-81 -68,-80 h -61 -62 l -119,14 -120,14 -155,6 -155,6 -35,10 -35,10 -110,1 h -110 l -75,10 -75,9 -175,10 -175,10 -48,10 -48,10 h -107 -107 l -90,10 -90,10 -155,5 -155,6 -145,10 -145,10 -250,4 -250,5 -660,5 -660,5 -135,6 -135,6 -445,2 -445,2 -165,-9 -165,-9 -185,-7 -185,-7 -35,15 -35,15 -29,24 -30,24 -20,9 -21,9 -50,29 -50,30 h -13 l -13,1 -32,22 -32,22 -26,17 -27,18 -53,7 -54,6 -49,16 -48,15 -54,-17 -53,-17 -55,-45 -56,-45 -54,40 -54,40 -28,7 -29,6 -12,15 -12,15 -47,9 -48,9 -51,-6 -50,-7 -28,-21 -28,-21 -35,-32 -35,-33 h -14 -14 l -6,20 -6,20 h -15 -15 l -32,24 -32,24 -60,21 -61,21 -54,-4 -55,-4 -17,-7 -18,-7 v -13 -12 l -50,-42 -50,-42 -20,6 -19,6 -18,22 -18,23 -50,21 -50,22 -77,2 -76,2 -48,-31 -49,-31 -33,-27 -33,-27 -55,56 -55,56 -37,6 -37,6 -35,9 -35,9 -30,4 -30,5 z m 1155,-90 39,-20 6,-10 6,-10 h 18 17 l 21,-28 20,-27 35,-19 35,-19 26,7 27,6 15,30 15,29 27,26 28,25 h 12 13 v 11 12 l 55,-7 55,-6 47,-16 48,-16 45,-44 46,-44 h 48 48 l 55,48 56,47 71,-1 h 71 l 40,-9 40,-8 35,-27 35,-26 49,-27 49,-27 h 17 17 l 43,-31 44,-32 58,-34 58,-34 133,1 132,1 15,-1 15,-1 185,8 185,9 450,-1 450,-2 1070,-7 1070,-6 45,-10 45,-10 285,-10 285,-10 90,-11 90,-11 65,1 65,1 180,-16 180,-16 103,1 104,2 33,-7 34,-6 -6,-14 -5,-14 h 19 19 l 10,10 10,10 89,-11 89,-11 32,5 32,5 38,-10 39,-9 145,-9 145,-9 140,-12 140,-12 38,-1 39,-1 44,50 45,50 38,41 39,41 40,7 41,6 15,21 15,21 37,23 37,22 19,-4 18,-5 v -64 -63 l -10,-6 -10,-6 v -19 -19 l -20,-11 -20,-11 -10,6 -10,6 v 29 29 l -8,4 -7,5 -23,-18 -22,-18 v -31 -30 l 18,-10 19,-10 20,5 20,6 17,-17 16,-16 v -50 -49 l -18,-17 -17,-18 -50,2 -50,2 -50,10 -50,10 h -131 l -130,1 -55,10 -54,10 -280,9 -280,9 -61,21 -60,20 -86,11 -86,10 -49,-19 -49,-19 -120,13 -119,14 -180,11 -180,11 -215,9 -215,10 -61,10 -61,10 h -82 -82 l -27,27 -27,28 -84,4 -85,3 -12,-17 -13,-17 -535,4 -536,4 -12,12 -12,12 h -79 -78 l -22,-12 -22,-13 -545,-1 -545,-2 -63,14 -63,14 h -88 -88 l -39,-13 -39,-12 -150,2 -150,2 -459,6 -459,6 -23,9 -24,10 v 44 45 l 28,3 27,3 3,27 3,27 -11,21 -11,20 h -32 -32 l -14,9 -15,10 -18,-10 -18,-10 -48,-1 h -47 l -7,-12 -8,-11 v -32 -33 l 28,-6 27,-6 23,-14 22,-14 v -10 -9 l -16,-15 -15,-16 h -38 -38 l -43,-15 -43,-15 h -122 -122 l -6,7 -7,6 13,15 12,15 v 21 21 l 48,22 47,23 v 34 35 l -17,4 -18,5 -36,6 -37,7 -12,14 -12,15 h -15 -15 l -25,-20 -26,-20 h -20 -20 l -19,-17 -18,-16 v -12 -12 l 23,-21 22,-21 24,-9 23,-8 14,-39 13,-39 -4,-6 -4,-6 -208,2 -208,2 -16,1 -16,1 15,46 15,46 24,11 24,11 -3,40 -3,40 -35,7 -34,7 -4,12 -4,11 -23,26 -22,27 -7,-35 -6,-35 -30,-23 -30,-22 v -17 -17 l 24,-36 24,-36 -8,-13 -9,-14 11,-13 11,-13 -4,-5 -4,-4 -197,-2 -198,-3 -3,5 -4,4 5,43 4,44 29,10 29,10 11,19 10,20 -7,22 -7,22 -11,7 -11,8 h -34 -34 l -18,15 -17,16 -43,-22 -44,-23 -7,-10 -8,-11 v -22 -23 l 24,-15 24,-16 5,-19 5,-20 -4,-18 -5,-17 -107,3 -108,4 -13,-16 -13,-16 h -92 -91 l 22,18 21,17 7,33 7,33 23,11 23,10 4,28 4,28 -8,22 -8,22 -35,-6 -35,-7 v 14 13 l -12,12 -12,12 -33,-26 -33,-25 -9,5 -9,6 -17,-6 -17,-7 -9,-25 -10,-25 15,-23 15,-22 19,-6 19,-6 10,-45 10,-45 -4,-4 -5,-5 -201,6 -202,5 -12,10 -13,10 4,32 4,31 1,6 1,6 31,32 30,32 -3,10 -3,9 -50,38 -50,38 1,23 1,22 -15,-3 -16,-3 -7,-29 -8,-29 -13,-8 -13,-9 h -27 -27 l -10,-37 -11,-37 15,-23 15,-23 h 18 17 l 15,-10 15,-9 -13,-13 -12,-12 v -22 -22 l -15,-12 -14,-12 -19,6 -20,7 -213,4 -214,4 -50,15 -50,15 -60,1 -60,1 h -27 -28 l -31,-23 -31,-23 -196,-1 -197,-1 -65,-12 -65,-12 -295,-5 -295,-4 -49,-11 -49,-12 -106,7 -106,7 -345,-16 -345,-15 -140,-5 -140,-5 -62,-6 -62,-6 -43,15 -43,16 -94,5 -94,5 -62,-23 -62,-24 -24,5 -24,4 -41,-9 -41,-9 -58,8 -59,8 -12,-10 -12,-10 -353,-9 -354,-10 -26,-5 -26,-6 -32,26 -31,27 v 17 18 l 25,11 24,11 6,28 6,28 7,25 8,25 63,-4 63,-3 26,-14 27,-14 h 60 60 l 85,-17 85,-17 h 50 50 l 310,2 310,1 20,1 h 20 l 125,11 125,11 105,2 105,2 208,2 209,2 5,19 5,19 21,9 22,10 -23,12 -22,12 v 17 18 l 20,42 20,41 v 14 13 l 32,25 32,24 21,12 20,12 21,1 h 21 l 34,-16 34,-17 19,-16 18,-16 h 77 76 l 53,33 52,32 h 50 50 v -9 -9 l 29,-10 29,-10 55,-44 55,-43 7,-47 7,-46 16,-15 17,-14 39,-13 38,-12 9,13 8,14 263,7 263,6 150,10 150,11 h 168 l 168,1 39,20 39,20 6,10 6,10 44,20 44,20 h 11 10 l 43,38 42,38 30,14 30,14 95,11 95,11 74,-12 75,-13 27,-20 28,-21 h 9 9 l 23,-20 23,-20 h 18 18 l 5,9 6,9 36,7 36,6 33,33 33,33 56,7 55,7 48,-7 48,-7 37,-18 37,-19 34,-35 34,-35 h 31 31 l 23,9 23,9 27,27 27,27 73,19 73,19 30,-6 30,-6 48,-35 47,-35 v -7 -7 l 33,-12 33,-12 h 17 16 l 70,70 69,70 h 47 46 z m -6573,-199 15,-44 -13,-24 -12,-23 h -32 -31 l -18,-13 -17,-13 7,-28 7,-27 21,-9 22,-8 13,-16 13,-16 -5,-14 -5,-13 -28,-7 -28,-7 -25,-18 -26,-18 -49,-6 -50,-5 -28,30 -28,30 v 12 11 l 31,38 31,38 -6,22 -5,23 -33,9 -33,10 -7,45 -8,45 14,14 15,14 29,-12 30,-12 23,-37 24,-37 h 35 35 l 3,35 3,35 27,23 27,22 24,-2 23,-3 z m -379,-14 3,-49 -12,-14 -11,-14 h -22 -21 l -14,-9 -15,-9 13,-41 12,-41 h 15 14 l 10,-26 10,-25 -6,-25 -6,-24 -12,-7 -11,-7 -157,-2 -158,-1 -16,11 -16,12 7,42 7,41 28,9 28,10 11,20 10,19 -17,16 -17,15 -42,14 -43,13 v 28 28 l -10,20 -11,19 24,11 24,11 46,-32 47,-31 v -15 -14 l 25,-12 25,-11 v -9 -8 h 24 25 l 6,10 6,10 h 20 20 l 5,28 6,27 11,16 12,16 30,16 30,15 30,-1 30,-2 z m 490,6 33,-28 2,-30 2,-30 -12,1 -13,1 -29,2 -29,1 -6,45 -7,45 6,10 6,10 h 7 8 z m -1409,3 11,-13 3,-39 2,-39 -57,-19 -58,-18 v -23 -24 l 16,-15 16,-16 19,-10 19,-11 v -28 -27 l -40,-26 -40,-27 -124,-3 -125,-3 -10,10 -10,10 -3,34 -3,34 40,21 40,21 3,18 4,18 -16,24 -16,25 h -33 -32 l -14,9 -13,9 4,13 5,14 -8,16 -9,17 15,12 15,12 29,-12 29,-12 13,-29 12,-30 28,-14 28,-15 h 37 38 l 23,22 23,21 v 11 10 l 42,43 42,43 h 22 22 z m 156,-61 26,-44 19,-6 19,-6 41,11 41,11 19,32 19,32 10,12 10,11 41,7 41,7 5,-5 5,-4 -7,-41 -6,-42 -45,-26 -44,-26 13,-16 13,-16 23,-22 22,-23 v -31 -31 l -23,-22 -22,-23 -107,1 -108,1 -25,24 -25,23 v 22 22 l 20,18 21,19 -3,30 -3,31 -37,9 -38,10 -1,10 -1,11 -2,35 -3,35 4,17 4,18 29,-15 29,-15 z m 16051,35 39,-39 21,-21 21,-20 h 25 24 l 20,15 19,14 25,1 25,1 40,24 40,25 h 11 12 l 6,-32 6,-33 -9,-30 -8,-30 -14,4 -14,4 -22,4 -21,5 -10,-19 -10,-18 5,-31 5,-32 29,-6 29,-5 2,-33 2,-33 1,-23 1,-22 23,-17 24,-16 36,9 36,9 3,50 2,50 5,23 5,22 h 19 19 l 13,16 13,16 -10,16 -10,15 -38,14 -39,13 -13,17 -13,18 -1,42 v 42 l 10,6 10,6 33,-20 33,-20 14,-26 14,-25 38,-12 38,-11 41,12 40,12 21,25 22,24 h 16 16 l 20,15 19,14 20,1 h 20 l 38,-14 38,-13 56,-46 55,-47 h 29 28 l 11,21 11,20 32,19 32,20 h 50 50 l 34,-10 35,-10 30,-29 31,-28 31,-6 31,-6 29,19 29,20 18,12 17,13 18,-11 17,-11 3,-19 4,-19 16,-12 15,-13 14,11 13,11 v 29 28 l 12,7 11,7 13,-17 12,-17 14,2 13,1 16,-1 16,-1 29,-57 29,-58 4,-73 3,-74 29,-10 29,-10 v -38 -38 l 6,-16 6,-16 h 19 18 l 98,49 98,50 28,10 27,11 v 10 10 l 42,21 43,22 118,-6 119,-5 71,36 72,37 90,-1 h 90 l 35,-18 35,-18 30,-23 30,-22 135,-2 134,-1 17,-5 17,-6 6,-31 6,-31 v -77 -78 l -22,-14 -23,-15 -55,8 -55,8 h -132 l -132,1 -15,16 -16,15 v 47 47 l -6,23 -6,22 h -8 -7 l -9,-82 -9,-83 -27,-3 -27,-3 -9,18 -10,18 -7,38 -7,37 h -10 -9 l 6,-20 6,-19 -11,-20 -10,-20 -49,3 -49,4 -11,6 -11,7 v 14 14 l 12,7 12,8 32,-2 32,-3 7,11 6,10 -14,6 -14,5 -48,-8 -49,-8 -8,-30 -8,-30 -14,-18 -15,-19 -18,6 -18,6 -12,37 -12,38 15,22 14,23 30,15 30,15 82,5 82,5 10,10 9,9 -28,7 -27,7 -84,-7 -83,-6 -25,-25 -25,-25 h -16 -15 v -37 l -1,-38 -3,-95 -4,-95 -1,-13 -1,-13 -107,4 -108,4 -90,12 -90,11 -93,3 -93,3 -9,14 -10,15 v 38 38 l -14,27 -14,27 -31,23 -31,22 4,73 4,72 1,6 1,6 26,11 25,12 -3,27 -3,27 -32,10 -33,9 -5,17 -6,18 -26,7 -26,6 -26,-24 -26,-23 -27,-12 -28,-12 v -26 -26 l 30,-11 29,-11 7,-42 6,-43 -12,-36 -12,-37 -167,5 -166,6 -220,15 -220,15 -95,10 -95,10 -90,6 -90,6 h -20 -20 l -30,-2 -30,-2 -78,11 -77,10 -14,11 -13,11 -62,8 -62,9 -11,11 -12,12 17,18 17,18 -13,13 -12,12 30,25 30,24 13,11 12,10 v 34 35 h -29 -28 l -32,11 -31,11 1,59 2,59 h 22 22 z m -21781,-1 45,-20 10,-19 11,-20 h 15 16 l 16,-20 17,-20 65,-9 65,-9 26,-10 26,-10 6,-83 5,-84 24,-18 23,-19 105,7 105,7 120,3 120,3 230,7 230,8 50,2 50,2 322,11 322,10 9,6 10,6 268,5 269,6 210,10 210,11 280,4 280,4 135,10 135,11 245,4 245,5 155,6 155,6 35,2 35,1 30,11 30,12 75,13 75,13 31,31 31,30 7,20 6,20 35,24 35,23 14,-5 13,-5 7,-35 6,-34 -6,-17 -6,-16 h -45 -46 l -13,-17 -13,-18 -1,-21 v -20 l 12,-12 12,-12 h 27 28 l 5,-9 6,-8 6,-57 7,-56 h -238 -238 l -19,17 -18,16 -96,-2 -96,-2 -34,-14 -33,-13 -118,-7 -118,-6 -75,-9 -75,-10 -251,-3 -251,-4 -11,-7 -11,-7 -58,21 -58,21 h -76 l -76,-1 -64,-21 -64,-20 -145,-5 -145,-4 -220,-6 -220,-7 -50,2 -50,1 -127,6 -127,5 -28,-14 -28,-14 -125,-2 -125,-2 -145,-11 -145,-11 -310,-1 -310,-1 -25,-17 -24,-18 h -269 -268 l -19,10 -18,10 -1,125 v 124 l -11,21 -11,21 -10,-6 -9,-6 v -25 -25 l -10,-20 -11,-19 h -13 -14 l -5,19 -5,19 15,31 15,31 -6,15 -6,15 -15,7 -16,6 -23,-13 -23,-12 -21,11 -21,11 h -110 -110 l -5,-9 -6,-9 -4,-67 -4,-68 -14,-9 -13,-8 -201,1 -201,2 -10,-6 -11,-7 -5,-19 -5,-20 13,-11 13,-11 89,-1 88,-1 100,3 100,3 28,-11 27,-12 v -34 -35 l -17,-3 -18,-4 -80,19 -80,18 -75,-15 -75,-15 -55,-3 -55,-2 -125,2 -125,2 -15,10 -15,9 -1,106 -1,106 -11,11 -11,11 -5,-14 -5,-14 -11,-28 -10,-29 -13,5 -12,4 1,29 2,29 12,44 13,43 -13,8 -13,8 -168,-3 -168,-3 -9,-6 -9,-6 4,-24 5,-24 -11,-6 -10,-7 9,-24 10,-25 -9,-23 -9,-23 -13,-9 -14,-10 -150,5 -150,5 -3,61 -3,62 16,16 17,16 9,-6 10,-6 17,8 17,7 80,2 80,2 28,11 27,12 21,35 21,35 h 21 20 l 17,15 17,16 63,10 64,10 55,-6 56,-7 54,-24 55,-25 37,-40 38,-41 78,9 78,8 230,-3 231,-2 44,45 45,45 h 9 9 l 11,14 11,14 45,16 45,15 h 83 l 83,-1 z m 11203,-155 9,-16 314,-4 314,-5 350,-1 350,-1 60,12 60,13 28,5 27,5 51,-22 51,-21 166,1 167,2 467,-5 467,-5 8,-5 8,-5 70,8 70,8 67,12 67,11 35,-16 36,-17 h 22 23 l 369,1 369,1 7,-5 8,-5 148,1 h 149 l 130,4 130,4 90,5 90,5 40,-10 40,-10 565,-3 565,-4 27,14 27,14 44,1 44,2 24,-17 24,-16 295,-1 295,-1 280,2 280,2 5,8 5,7 37,12 38,12 58,-36 58,-35 170,-11 169,-10 115,-9 115,-10 h 90 91 l 119,-15 120,-15 275,1 275,1 35,-15 36,-15 201,-6 202,-5 20,-10 20,-11 143,-1 h 143 l 55,-10 55,-9 222,-6 222,-6 80,11 80,12 43,-22 43,-22 136,-7 136,-7 9,-6 10,-6 189,-7 190,-7 65,-2 65,-2 50,-12 50,-12 90,2 90,2 h 155 155 l 60,-1 60,-2 22,-11 22,-12 10,-26 10,-26 -2,-59 -2,-59 28,-21 27,-20 113,-3 112,-4 180,-2 180,-3 36,-8 37,-8 22,12 21,11 13,-10 12,-10 104,-6 105,-5 h 475 l 475,-1 h 290 l 290,-1 507,-3 506,-3 20,-6 19,-6 66,15 66,15 48,-18 48,-17 514,2 514,3 22,20 21,20 h 17 16 l 6,-10 6,-10 h 28 27 l 11,-11 12,-12 173,-4 173,-3 55,-17 55,-16 38,-13 37,-14 h 21 21 l 71,-21 72,-20 15,-8 16,-9 53,-7 54,-7 31,-18 31,-18 41,-6 41,-6 29,-15 29,-15 h 18 18 l 52,-17 52,-16 10,-7 10,-7 40,-8 39,-7 38,-19 37,-19 h 34 33 l 10,-10 10,-10 79,-21 80,-21 50,-10 50,-10 8,-14 8,-14 h 32 l 32,-1 25,-14 25,-14 43,-1 h 42 l 37,-20 38,-20 h 10 11 l 11,-32 12,-33 5,-175 6,-174.9999 5,-320 5,-320 v -250 -250 l -5,-330 -5,-330 -5,-155 -5,-154 -13,-20 -13,-19 -55,-20 -54,-19 -42,-5 -42,-5 -12,-14 -11,-14 h -32 -32 l -20,-15 -19,-14 -41,-1 h -42 l -12,-15 -12,-15 h -42 -42 l -20,-15 -19,-14 -32,-1 h -33 l -57,-19 -58,-19 -55,-15 -55,-16 -35,-7 -35,-6 -35,-18 -35,-17 -51,-7 -51,-6 -51,-25 -52,-25 h -27 -28 l -29,-15 -28,-15 h -27 -28 l -159,-46 -159,-45 -80,-10 -80,-9 -308,-1 h -308 l -36,12 -35,11 -59,-6 -58,-7 -148,1 -148,2 -132,1 -132,2 -32,-24 -32,-24 -93,-5 -94,-5 -36,28 -36,27 -61,-7 -62,-7 -620,-3 -620,-3 -130,10 -130,9 -405,-2 -405,-3 -65,-2 -65,-2 -325,-6 -325,-6 -70,-10 -70,-9 -74,-6 -75,-6 -16,-14 -17,-15 h -59 l -59,1 -20,15 -20,15 -290,-8 -290,-7 -42,2 -42,2 -5,-9 -6,-9 -327,-1 -328,-2 -24,-6 -24,-6 -41,-23 -41,-24 h -22 -22 l -13,13 -13,12 -28,12 -27,13 -133,-6 -132,-6 -480,-9 -480,-9 -57,-6 -56,-6 -18,-19 -17,-19 h -39 -40 l -25,20 -26,20 -261,-5 -261,-6 -80,-4 -80,-4 -3,-9 -3,-9 -13,-19 -14,-18 -17,14 -17,14 -9,23 -8,22 -33,16 -33,15 -15,9 -15,9 -39,17 -39,18 -63,-6 -63,-6 -18,-10 -18,-10 -46,-20 -46,-21 -27,-49 -26,-49 -16,-6 -17,-6 -2,2 -2,3 -42,71 -42,72 -10,38 -10,39 -8,20 -8,20 -34,69 -34,69 -60,61 -61,61 -56,38 -57,37 -6,9 -5,9 -30,7 -30,7 v 8 9 l -57,16 -57,17 -55,9 -55,9 -14,13 -14,14 12,42 11,42 -13,30 -13,29 -15,-5 -15,-5 -14,9 -14,9 -31,-9 -31,-9 -53,15 -53,16 -87,44 -87,43 -40,17 -39,16 -28,-12 -28,-11 -85,4 -85,4 -7,8 -8,8 2,96 3,97 -8,10 -7,10 -20,11 -21,11 -53,-5 -53,-5 -9,-26 -10,-26 1,-50 2,-50 -1,-38 -1,-37 -25,-10 -25,-9 -55,-2 -55,-2 -25,23 -25,23 v 78 77 l -17,13 -16,14 h -73 -73 l -17,-17 -17,-17 -6,-38 -6,-37 -283,3 -282,3 v -11 -11 l -41,-29 -41,-30 -46,-6 -47,-7 -32,-9 -31,-10 -26,-34 -26,-34 v -14 -15 l -15,-6 -15,-5 -10,-26 -10,-25 h -24 -24 l -12,-15 -12,-15 h -18 -17 l -12,40 -12,39 -10,7 -11,7 -280,-2 -281,-1 -24,-25 -25,-25 -32,-5 -31,-6 -135,-2 -135,-2 -3,39 -3,39 -15,22 -15,23 -44,11 -43,11 -14,13 -13,13 -36,22 -36,22 h -51 -51 l -59,-57 -60,-58 -7,-45 -7,-45 -14,-16 -15,-16 16,-13 16,-13 24,11 25,12 v 15 16 l 24,48 25,48 24,16 25,16 25,6 25,7 51,-22 51,-22 20,-33 20,-32 v -17 -17 l 10,-20 11,-19 19,10 19,10 5,-9 6,-8 31,-7 32,-6 -36,-24 -35,-24 -189,-2 -188,-2 -613,2 -612,1 -11,-6 -10,-7 -9,-24 -10,-24 h -10 -10 l -10,24 -9,24 -10,6 -10,7 -289,2 -289,1 -42,-28 -41,-29 v -10 -10 l -15,-17 -15,-17 9,-232 9,-232 25,-42 25,-43 44,-21 43,-21 h 300 300 l 35,7 35,8 30,-9 30,-8 200,-1 h 200 l 295,1 295,2 50,-7 50,-8 18,-13 19,-12 -22,-12 -22,-12 21,-19 21,-20 v -23 -24 l 15,-12 15,-12 v -19 -19 l 43,-27 42,-28 h 46 47 l 19,18 20,17 h 26 27 v 15 14 l 18,10 19,10 11,-11 12,-12 v -22 -23 l -10,-26 -10,-25 -24,-10 -24,-9 -7,-21 -7,-21 12,-15 13,-14 38,-6 39,-7 v -17 -18 l -32,-3 -33,-4 -175,5 -175,5 v 20 20 l 40,3 40,3 13,16 12,17 v 22 22 l -15,12 -14,12 -33,1 -33,2 -8,30 -9,30 -8,15 -7,15 -25,3 -25,3 -10,-13 -11,-13 -4,-30 -3,-30 -44,-7 -45,-8 -12,-12 -12,-13 -6,-27 -6,-27 19,-11 20,-10 h 49 50 l 11,-14 11,-13 -13,-11 -12,-11 -187,1 -187,1 -11,7 -12,7 4,19 3,19 39,6 39,6 14,19 13,18 v 22 23 l -36,10 -37,10 -33,37 -34,36 -15,-12 -15,-12 v -15 -14 l -45,-19 -45,-19 v -10 -9 l -6,-16 -6,-16 45,-19 45,-20 7,-21 7,-22 -7,-6 -7,-7 -135,-3 -135,-4 -26,7 -25,6 29,19 29,19 24,19 23,19 10,44 10,44 5,53 5,53 -12,14 -12,15 -9,-6 -9,-5 v -55 -55 l -25,-43 -25,-43 -20,-18 -21,-19 -47,-6 -47,-7 -16,-7 -15,-7 -30,30 -29,30 -22,1 h -23 v 14 14 l -14,29 -14,28 -13,27 -12,27 7,48 6,48 21,18 22,18 141,-6 141,-5 14,-20 13,-20 h 9 9 v 14 14 l 14,5 14,6 108,8 109,8 -100,6 -100,6 -235,-3 -235,-3 h -154 l -154,-1 4,-4 5,-5 144,-1 145,-2 23,-14 22,-14 v -14 -14 l -15,-12 -15,-12 v -52 -51 l 16,-44 15,-43 14,-28 14,-28 32,-11 32,-11 -6,-7 -7,-6 -502,2 -503,2 -260,4 -260,5 -480,6 -480,6 -204,-2 -203,-2 -30,-9 -29,-8 -15,6 -14,5 v 15 15 l 25,20 25,19 v 18 17 l 15,20 14,19 1,45 1,45 14,19 15,20 v 54 55 l -34,61 -34,61 -22,23 -21,22 h -19 -20 l -17,20 -17,20 h -12 -12 l -28,15 -29,15 h -65 l -65,-1 -19,-14 -20,-15 h -16 -16 l -32,-30 -33,-30 -20,-10 -19,-11 v -19 -19 l -18,-13 -18,-13 v -30 l 1,-30 -45,3 -45,2 -270,10 -270,10 h -519 -519 l -3,3 -4,3 -6,72 -7,71 -19,18 -19,17 -34,-2 -33,-3 -16,23 -16,22 v 31 31 l -20,22 -21,22 -27,14 -27,14 -452,-2 -451,-1 -24,-22 -23,-22 -42,-7 -43,-7 -23,16 -24,15 -51,16 -52,15 -317,1 -318,1 -146,3 -147,3 -9,6 -10,6 -46,-17 -46,-18 -7,-7 -7,-7 h -48 -48 l -38,22 -37,22 -163,4 -163,4 -15,-12 -15,-12 -13,10 -12,11 -300,6 -300,6 -37,-15 -37,-16 h -26 -26 l -27,14 -27,14 -125,11 -125,12 -392,3 -393,4 -11,-14 -11,-14 h -16 -15 l -18,-16 -18,-16 -20,7 -19,6 -39,26 -38,26 -385,3 -385,4 h -33 l -32,-1 -40,11 -40,11 -57,-17 -58,-16 -43,-5 -43,-5 -38,26 -37,26 -215,6 -214,6 -115,2 -115,1 -163,4 -163,3 -27,-18 -27,-18 -69,3 -69,3 -41,14 -41,15 -394,-1 h -393 l -7,-4 -6,-3 -175,13 -175,13 -27,-30 -27,-29 h -6 -6 l -62,27 -62,28 -285,2 -285,1 -250,7 -250,7 -33,-1 -33,-1 -29,-21 -29,-22 -62,7 -63,7 -29,25 -29,24 h -431 l -432,1 -583,5 -583.9999,6 -18,18 -18,18 3,128 3,129 v 195 195 l -3,88 -4,88 -6,18 -5,18 -23,12 -22,12 -120,7 -120,7 2,345 2,345 6,465 6,463.9999 12,9 12,8 132,-6 131,-6 8,23 8,23 2,90 1,90 2,19 1,19 35,-6 35,-6 10,19 10,19 -6,15 -6,15 -36,3 -37,3 -3,288 -2,288 10,19 10,19 82,-4 83,-4 512.9999,-3 514,-2 12,-18 12,-17 22,15 21,14 373,-5 373,-6 80,11 80,11 29,9 29,9 17,-9 18,-10 36,-4 35,-4 11,-7 12,-7 647,-3 648,-2 12,-7 12,-8 117,1 117,1 120,-3 120,-4 327,-7 326,-7 9,16 9,15 307,5 307,5 43,9 42,10 h 210 209 l 13,-10 12,-11 21,7 20,6 v 14 13 l 16,6 16,6 h 42 42 l 20,15 19,14 16,1 h 16 l 28,-26 29,-26 55,7 56,7 130,4 130,3 240,6 240,6 35,3 35,2 66,21 66,22 39,-11 39,-10 41,-7 40,-7 200,7 199,6 13,-6 13,-7 82,13 82,14 205,3 205,4 45,17 45,17 37,5 37,5 33,-20 33,-20 185,5 185,6 12,9 12,10 128,-1 h 128 l 85,4 85,5 85,9 85,9 42,13 42,13 51,-13 51,-13 232,1 232,2 120,15 120,16 52,-12 51,-13 46,12 45,11 h 94 95 l 12,15 12,15 h 62 62 l 20,-15 19,-14 170,-1 h 170 l 160,10 160,9 250,6 250,6 35,23 35,24 40,6 39,5 23,-21 23,-22 58,2 57,1 300,6 300,5 170,8 170,8 31,-6 31,-7 17,9 17,10 327,4 327,4 65,9 65,10 55,-1 h 55 l 220,11 220,11 50,9 50,9 45,-5 45,-4 35,20 35,20 h 52 l 52,1 z m -12567,-19 v -10 l -19,-3 -19,-3 -9,-62 -9,-62 -26,-3 -26,-3 -15,14 -15,15 4,58 3,58 13,8 12,8 53,-2 52,-3 z m -2388.9999,-19 53,-24 35,-16 34.9999,-17 85,-45 85,-46 40,-3 40,-3 3,-31 3,-30 -35,-15 -35,-15 -93,4 -93,5 -376.9999,2 -378,3 -1,10 -1,9 63,34 63,33 43,30 44,29 h 8 8 l 44,30 44,30 h 20 l 20,1 45,24 45,24 67,1 h 68 z m 2485.9999,17 -18,-4 -22,4 -23,4 h 40 l 40,1 z m 1029,-31 12,-39 -6,-24 -6,-24 -9,-6 -10,-6 -31,6 -32,7 -3,48 -3,48 5,14 5,14 h 33 33 z m 141,-14 12,-12 v -13 -13 h -39 -39 l -6,15 -6,16 23,9 22,9 h 11 l 10,1 z m -1151,-14 6,-15 -11,-11 -11,-11 -39,-3 -40,-3 -12,14 -12,15 6,15 5,15 h 51 51 z m -1917,-8 25,-14 33,14 33,13 19,-19 20,-20 v -68 -68 l -13,-18 -13,-18 -65,1 h -64 l -44,3 -44,3 -19,25 -19,26 8,64 8,65 38,6 37,6 7,6 6,7 h 11 l 11,-1 z m 25326,-32 -5,-14 h -11 -10 v 23 24 l 7,7 7,7 9,-16 9,-16 z m 3579,15 60,-30 50,-14 50,-15 h 40 l 40,-1 15,-12 15,-12 37,-62 36,-61 7,-24 8,-23 13,-20 14,-19 v -14 -14 l -145,4 -144,3 -15,15 -15,15 -7,83 -7,83 -35,14 -34,15 h -34 -33 l -7,-11 -6,-11 10,-10 9,-9 49,-7 49,-8 -1,-73 -2,-73 -11,-11 -11,-11 -60,-2 -61,-1 -20,28 -20,29 h -33 -33 l -6,7 -7,6 11,14 11,13 h 19 19 v 15 15 h -24 -25 l -6,10 -6,10 h -14 -14 l -7,-22 -8,-23 3,-18 2,-18 -11,-15 -12,-14 h -22 -21 l -12,62 -12,62 5,8 5,8 h 90 89 v 14 13 l -37,7 -38,6 h -43 -43 l -20,-10 -19,-11 v -23 -24 l -15,-35 -15,-36 v -53 -53 l 9,-37 9,-37 -22,-20 -22,-21 h -102 -102 l -12,28 -11,27 2,135 2,135 5,43 6,42 h 156 156 l 46,17 45,17 35,22 35,23 h 60 l 60,1 z m -28546,15 31,-6 v -88 -88 l -16,-6 -16,-6 h -22 -22 l -12,12 -12,12 v 69 68 l 10,20 11,19 h 8 9 z m 769,-95 13,-19 32,-16 31,-17 101,6 100,5 88,-7 88,-8 21,-20 20,-21 -7,-12 -7,-11 -131,7 -132,7 -27,13 -27,14 h -69 -70 l -11,-14 -12,-14 h -312 -311 l -18,9 -17,9 -10,37 -10,36 9,18 10,18 33,3 32,3 290,-4 290,-3 z m -908,-34 v -45 h -9 -10 l -3,18 -4,17 4,28 4,27 h 9 9 z m 2703,-48 9,-39 -10,-10 -11,-11 -26,7 -26,7 -10,26 -10,26 7,19 6,19 31,-3 31,-3 z m -1195,14 14,-8 -4,-19 -3,-19 -23,-3 -22,-3 -6,15 -6,16 6,15 5,15 h 13 13 z m 168,-50 -7,-11 -27,6 -27,7 -10,6 -10,6 35,6 35,5 9,-7 8,-7 z m 1284,9 v -20 h -14 -15 l -6,10 -6,10 6,10 6,10 h 15 14 z m -97,4 6,-7 -10,-18 -10,-19 h -24 -23 l -16,6 -16,6 v 19 19 h 43 44 z m -4179.9999,-83 12,-12 -3,-277 -2,-276 -8,-8 -8,-8 -19,20 -18,20 h -22 -23 l -36,45 -37,45 h -19 -19 l -7,-12 -8,-12 2,-27 2,-26 -19,-25 -19,-24 13,-30 14,-29 8,-34 9,-34 18,-11 17,-11 22,26 22,26 11,18 10,18 37,-1 36,-1 6,9 6,10 h 14 15 l -6,-77 -5,-78 -5,-21 -4,-21 -67,-6 -68,-6 -44,7 -44,7 -7,15 -8,15 -22,65 -23,65 -1,47 -1,46 -7,8 -8,7 v 16 16 l 37,73 37,72 -17,54 -17,53 v 26 27 h 14 14 l 10,-13 10,-12 8,-30 7,-30 10,-12 9,-13 h 20 19 l 18,43 19,42 21,13 22,13 10,-7 10,-6 14,12 15,12 v 23 23 l -15,12 -14,12 -11,-7 -10,-6 -19,6 -18,5 -16,40 -15,40 -18,7 -17,6 -16,-10 -16,-10 -11,-43 -10,-44 -16,-10 -16,-10 -16,13 -16,13 v 15 15 l 23,30 22,30 22,21 22,22 53,12 53,12 43,-3 44,-4 z m 32858.9999,-76 47,-15 h 31 31 l 27,-14 27,-13 140,-33 140,-33 20,-14 19,-13 h 27 27 l 29,-14 28,-14 40,-10 40,-10 100,-31 100,-31 35,-6 35,-7 27,-13 27,-14 h 29 30 l 42,-19 41,-18 -16,-7 -17,-6 -11,7 -11,6 -50,3 -51,2 -110,12 -110,11 -17,9 -17,10 -43,6 -43,7 -20,13 -19,14 h -25 -25 l -41,14 -40,14 -55,16 -55,15 -96,30 -96,30 -154,-2 -154,-2 -30,20 -29,20 h -76 -75 l -40,-18 -40,-18 -459,3 -459,3 -5,13 -4,12 h -91 -92 l -40,-10 -40,-10 -320,-6 -320,-6 -41,39 -41,38 -7,26 -6,26 4,4 4,4 1149,-3 1148,-2 z m -4088,-21 16,-6 v -33 -34 l -11,-6 -10,-7 -25,6 -24,6 v 28 28 l 12,12 12,12 h 7 7 z m 494,-27 3,-29 -15,-17 -15,-17 -187,-2 -187,-2 -13,11 -14,11 v 39 39 l 213,-2 212,-3 z m -775,-7 5,-19 -14,-12 -14,-11 -15,6 -15,5 v 19 19 l 7,6 6,7 h 18 17 z m 1947,-3 25,-13 3,-21 3,-22 -190,-1 h -191 v 29 29 l 13,5 12,5 150,1 150,1 z m -1784,-18 7,-11 -14,-9 -14,-9 h -31 -32 l -11,13 -11,14 7,6 6,7 h 43 43 z m 1039,2 5,-9 -16,-17 -16,-16 -14,12 -14,11 v 14 14 h 24 25 z m 209,0 6,-9 -6,-16 -6,-16 h -52 -52 l -12,12 -12,12 v 7 8 l 38,4 37,4 27,1 27,2 z m 121,-11 v -15 l -19,-3 -18,-4 -10,10 -10,10 7,12 7,11 21,-3 22,-3 z m 4680,-236 24,-26 7,-20 6,-20 -11,-11 -12,-12 20,-15 19,-15 7,-75 6,-75 -9,-13 -8,-12 -55,11 -54,11 -20,8 -20,7 -40,11 -40,10 -100,32 -100,32 -46,8 -47,8 -18,11 -19,10 -25,5 -25,6 -15,9 -14,10 -1,23 -1,24 -8,13 -8,12 6,6 5,6 38,-17 38,-17 16,-9 17,-9 38,-7 39,-7 20,-13 19,-14 h 23 22 l 6,-10 6,-10 h 34 34 l 26,10 26,10 14,32 13,33 33,30 34,30 15,7 15,7 h 23 l 23,1 z m 228,-1063.9999 55,-60 7,-21 7,-21 -13,-9 -14,-9 h -31 -32 l -6,-15 -5,-15 h -20 -20 l -7,12 -8,12 3,85 2,85 5,8 5,8 h 9 8 z m 125,-179 37,-19 13,-21 12,-21 15,-64 15,-63 v -229 l 1,-229 -20,-50 -19,-50 -35,-29 -36,-28 -45,-5 -46,-6 -45,24 -44,23 -12,23 -13,23 12,12 11,11 41,-13 40,-13 15,-24 15,-23 h 21 20 l 19,10 18,9 6,25 6,25 20,6 20,6 v 15 15 l -25,23 -25,23 v 20 20 l -25,11 -26,12 h -10 -10 l -27,-29 -27,-28 -26,-6 -26,-7 -14,13 -14,12 3,182 3,181 40,4 41,4 9,-18 9,-17 v -22 -22 l 17,-19 16,-18 h 22 23 l 10,13 10,12 7,40 7,40 -1,65 -2,65 -22,23 -21,23 -25,-3 -24,-3 -11,-39 -11,-39 -35,-13 -35,-12 -12,-1 -13,-1 v 45 45 l 13,22 12,21 30,28 30,28 43,1 h 43 z m 176,-406 -1,-60 -15,-35 -16,-35 v 130 130 l 16,-35 16,-35 z m -328,-446 6,-11 28,6 28,5 12,-14 12,-15 -33,-37 -33,-38 -27,-27 -27,-28 h -16 -16 v 66 65 l 10,20 11,19 h 19 19 z m -34973.9999,-122 36,-5 11,-6 10,-7 -2,-407 -2,-407 -45,-6 -45,-6 -12,9 -11,9 -24,-6 -23,-5 -40,23 -40,23 -15,32 -15,32 -23,16 -22,15 v 25 25 l 33,-3 32,-3 10,-42 10,-42 11,-11 11,-11 17,7 17,6 14,34 14,34 h 30 30 l 15,15 15,15 7,22 6,21 -18,14 -18,13 h -28 -29 l -21,36 -21,35 -26,-3 -26,-3 -3,-32 -3,-33 -26,-20 -26,-20 h -19 -19 l -6,17 -7,17 40,74 39,75 -1,56 v 56 l -11,55 -11,55 9,18 10,17 h 20 20 l -2,-38 -3,-38 8,-12 7,-12 h 23 22 l 18,40 17,40 22,5 22,4 25,3 25,3 3,23 4,23 -12,14 -12,14 -32,6 -31,6 -17,30 -17,29 h -16 -16 l -20,-10 -19,-11 v -19 -19 l -20,-11 -20,-11 -10,6 -10,6 v 32 32 l 8,11 7,11 30,17 30,16 60,-5 60,-4 z m 21672.9999,-354 8,-88 7,-21 8,-21 167,-6 166,-7 52,-24 52,-24 35,-16 35,-16 38,-23 38,-23 27,-34 26,-35 39,-44 39,-43 -4,-197 -5,-197 -25,-40 -26,-40 -37,-30 -37,-29 -26,-25 -27,-25 -70,-34 -70,-33 -20,-11 -20,-11 h -80 l -80,-1 -40,-25 -40,-24 -62,-50 -62,-49 -3,-71 -3,-71 h -15 -15 l -6,73 -5,72 -11,11 -11,11 -38,10 -39,10 -15,-1 -15,-1 -53,-6 -53,-6 -16,14 -16,13 -13,32 -13,31 -43,8 -43,8 -74,-2 -74,-2 -14,11 -13,11 v 27 27 l 11,11 11,11 197,-5 196,-5 46,31 46,31 52,-16 51,-15 168,4 167,3 50,20 50,20 34,19 34,20 26,25 27,25 29,40 30,40 15,30 16,30 -2,112 -1,112 -29,42 -29,42 -12,20 -12,21 -48,28 -48,29 -80,41 -80,41 -157,2 -157,3 -17,-19 -17,-19 h -14 -14 l -29,-22 -30,-22 -45,22 -46,22 h -12 -12 l -47,46 -48,46 v 9 8 l 22,15 22,16 h 94 93 l 19,10 18,10 11,50 11,51 v 44 45 h 14 14 z m -393,20 1,-38 2,-43 1,-43 -16,-8 -15,-9 -255,4 -255,4 -44,5 -44,5 -13,11 -14,11 v 23 23 l 13,5 12,4 255,-5 255,-5 28,22 27,22 v 18 18 l 7,6 6,7 h 24 23 z m -836,-135 7,-11 -15,-11 -15,-11 -45,-56 -46,-56 -10,-19 -11,-20 -43,-22 -43,-21 -47,-20 -47,-21 h -20 -20 l -5,-9 -6,-8 -42,-7 -42,-7 -11,-9 -11,-9 -120,-14 -119,-14 -17,11 -18,10 -12,-12 -12,-12 h -32 -33 l -27,11 -28,10 -28,-30 -27,-29 -21,5 -20,5 v 32 31 l -27,28 -28,28 -51,49 -51,50 h 102 102 l 29,23 29,22 208,2 208,1 25,6 24,6 6,-17 6,-18 8,-20 8,-20 6,-18 6,-17 15,-6 16,-6 19,17 19,17 30,-7 31,-7 v 20 20 l 30,5 29,6 26,23 26,23 15,31 15,32 37,26 37,26 h 12 12 z m 818,-64 16,-6 v -17 -18 l 23,-20 22,-20 60,-31 60,-31 18,-5 18,-6 -6,-10 -6,-10 h -60 -59 v -10 -9 l -46,-32 -46,-31 -34,-33 -33,-32 6,-109 5,-109 21,-31 20,-31 35,-24 36,-24 18,-20 19,-20 80,-5 80,-5 13,7 12,7 14,-9 13,-8 -12,-31 -13,-30 -17,-5 -16,-5 -80,-1 -80,-2 -149,5 -149,5 -24,-24 -23,-23 v -31 -31 l -27,-35 -28,-34 h -52 -51 l -26,46 -26,47 v 13 13 l 55,43 54,42 12,28 11,28 h 22 21 l 48,49 47,50 v 18 l 1,18 3,62 4,61 -19,31 -19,31 -25,10 -25,10 v 9 10 l -17,5 -18,6 -53,49 -52,50 -29,23 -29,23 -41,78 -41,77 v 5 5 l 273,3 272,2 2,3 1,2 z m -623,-35 29,-31 v -10 -9 l 22,-42 21,-42 9,-15 8,-15 26,-50 25,-50 23,-41 24,-41 7,-24 7,-24 15,-17 15,-17 1,-38 v -38 l -16,-41 -16,-42 -26,-37 -25,-38 v -17 -18 l -15,-12 -15,-12 v -13 -12 l -19,-17 -19,-17 -21,-59 -22,-59 -30,-25 -31,-26 h -68 -69 l -70,86 -71,85 v 10 9 h -14 -14 l -26,34 -26,35 v 7 8 l -22,23 -22,24 -3,37 -2,37 -1,119 v 118 l 25,24 25,23 v 11 11 l 63,79 62,78 48,61 48,61 h 65 66 z m 1317,-91 12,-10 v -292 -292 l -12,-17 -13,-17 -125,7 -124,6 -28,31 -28,30 v 8 7 l 30,28 31,29 15,54 16,55 -2,83 -1,82 -15,28 -14,27 v 16 17 l -25,16 -25,16 v 23 22 l 32,27 33,28 115,-1 115,-1 z m -2632,-43 27,-25 h 8 9 v -15 -14 l 21,-11 20,-11 -3,-37 -3,-37 -26,-3 -26,-3 -17,26 -17,26 -9,-6 -10,-6 v -29 -29 l 12,-7 12,-7 120,-4 121,-4 53,-2 54,-2 17,-22 18,-21 -3,-99 -4,-98 -21,-18 -22,-18 -28,6 -27,6 -6,-9 -5,-8 -138,1 -138,1 -22,12 -22,12 -3,103 -3,102 -10,-5 -10,-5 2,-81 2,-80 -9,-15 -9,-14 -18,11 -18,12 2,23 2,24 5,118 5,117 6,10 6,10 h 18 18 l 11,38 12,37 -25,18 -25,19 v 19 19 h 34 35 z m 2771,-7 28,-13 38,-30 37,-30 v -21 -21 l 35,-36 35,-36 -6,-86 -7,-87 -29,-28 -28,-28 v -27 -27 l -20,-5 -19,-5 -16,-24 -15,-24 h -15 -15 l -20,-12 -20,-13 -14,15 -15,15 -2,253 -1,253 12,14 12,15 h 8 8 z m -607,-68 15,-9 3,-140 4,-141 h -10 -11 l -3,-42 -3,-43 -26,-9 -26,-9 -27,7 -26,6 -58,52 -57,52 -3,66 -2,65 5,22 5,22 55,56 55,55 h 47 48 z m 105,4 16,-6 27,-52 27,-51 -2,-105 -1,-105 -39,-32 -38,-33 -15,3 -15,2 -1,185 -1,185 4,8 4,7 h 9 8 z m -2906,-21 43,-5 35,-24 36,-24 23,-24 24,-24 -1,-46 -2,-46 18,-20 17,-19 -6,-27 -7,-26 -15,-24 -16,-23 -19,-6 -18,-6 5,-28 6,-27 -15,-13 -16,-12 -20,10 -20,11 h -5 -6 v -20 -21 l -17,-5 -18,-5 -29,-15 -29,-15 -46,18 -46,17 -33,28 -33,28 h -9 -8 l -7,28 -6,27 -35,23 -35,23 -29,-21 -30,-21 -6,15 -6,16 7,36 6,36 15,-6 15,-6 20,11 20,10 15,-12 14,-11 v 11 11 h -10 -10 v 21 21 l 25,30 25,30 v 12 12 l 35,34 35,34 43,22 42,22 20,-5 20,-5 z m 1501,3 v -14 l -43,-39 -43,-38 -8,-13 -8,-13 22,-17 23,-18 4,-87 5,-87 -17,-7 -18,-6 -34,36 -33,37 6,28 5,27 16,38 16,37 -5,5 -5,5 -39,-22 -40,-21 -10,-33 -11,-33 8,-13 9,-13 v -22 -21 l 38,-29 39,-28 48,-42 48,-43 h -47 -47 l -21,11 -21,11 -51,8 -51,8 -37,10 -36,9 -38,19 -39,19 -8,45 -8,45 6,58 6,58 5,14 6,14 36,11 37,11 55,16 55,16 65,20 65,21 20,18 19,18 h 28 28 z m 2352,0 33,-14 80,-33 80,-33 30,-20 30,-20 60,-49 60,-49 12,-28 12,-28 18,-7 18,-6 38,-76 38,-76 -9,-9 -9,-9 -25,21 -26,20 -64,-6 -63,-5 -52,-16 -52,-17 -38,-34 -38,-35 -35,-8 -35,-9 h -58 -57 l -9,23 -9,23 1,200 v 201 l -6,10 -7,11 11,33 11,34 4,13 3,12 h 10 10 z m 12292,-92 v -99 l -17,-32 -17,-33 -28,-14 -27,-13 -47,1 -48,2 -19,20 -18,20 -11,20 -10,20 -25,13 -25,13 -87,-31 -86,-31 h -19 -19 l -83,-26 -83,-26 -43,-14 -43,-13 -19,19 -20,20 v 18 19 l 24,22 23,22 37,6 36,6 6,8 5,9 h 27 27 l 28,15 28,14 37,7 37,6 30,8 30,9 100,30 100,30 65,16 65,17 35,13 35,13 10,-2 10,-3 z m -16843,80 31,-7 10,-22 10,-23 24,-11 24,-11 v -14 -14 l 25,-30 24,-29 10,-46 11,-45 -15,-29 -14,-28 -18,-23 -18,-24 -25,-24 -25,-24 -20,-19 -20,-18 -38,-13 -38,-12 -43,6 -43,7 -22,25 -21,24 -25,-6 -25,-6 v 28 29 l -8,11 -7,11 -14,4 -13,5 -14,39 -14,40 6,61 7,62 -16,30 -15,31 6,5 5,6 h 23 22 l 43,25 44,25 h 35 35 l 15,10 15,11 28,-6 27,-5 z m -716,-34 26,-10 40,-32 39,-31 v -27 -26 l -12,-12 -12,-12 21,-15 22,-15 -10,-29 -10,-29 -20,-18 -19,-17 v -18 -17 l -30,-7 -30,-7 -10,-19 -11,-19 h -23 -24 l -12,16 -13,15 -36,-5 -36,-6 -33,42 -34,42 6,27 5,26 -16,22 -15,22 17,45 17,45 51,39 52,39 h 42 l 42,1 z m 1093,-22 -3,-21 -10,-4 -10,-3 -14,9 -15,9 13,16 13,16 h 15 14 z m -18157.9999,-55 75,-3 230,-4 229.9999,-3 247,-2 247,-1 15,-16 16,-15 v -39 -39 l -15,-14 -14,-15 -188,5 -188,4 -97,-15 -97.9999,-16 h -42 -41 l -73,-45 -72,-45 h -14 -14 l -40,19 -39,19 -34,36 -35,36 h -30 -29 l -66,37 -66,36 -3,9 -4,9 -40,20 -39,20 4,12 4,12 59,5 59,5 10,-5 10,-5 z m 1783.9999,-28 190,-6 32,-19 31,-20 h 27 26 v -4 -4 l -15,-35 -14,-35 -143,-5 -143,-6 -93,1 h -93 l -18,-16 -18,-16 -12,-53 -12,-52 -27,-31 -27,-30 -35,-26 -35,-26 -42,-11 -43,-12 -38,11 -39,10 -42,50 -43,50 -5,123 -4,122 10,26 10,27 213,-4 213,-3 z m 18979,-17 24,-33 2,-46 1,-47 -39,-40 -39,-40 -7,-21 -6,-21 h -16 -15 l 7,23 7,22 5,36 5,37 22,10 22,10 -1,43 -1,44 -12,22 -12,22 v 5 6 h 14 15 z m -2686,7 3,-10 -9,-14 -9,-14 -11,7 -11,7 v 20 20 l 17,-3 16,-3 z m -15563,-1 16,-6 v -18 -19 l -22,-7 -23,-8 -115,2 -115,2 -18,6 -19,6 49,23 48,23 92,1 91,1 z m 850,-36 30,-22 76,-6 75,-7 56,24 56,25 29,-4 29,-3 3,-32 3,-32 -18,-9 -18,-9 -215,-1 -215,-2 -18,-22 -18,-21 19,-19 18,-19 195,-4 194,-3 32,-7 32,-7 10,-29 10,-28 -11,-30 -12,-29 17,-26 17,-26 43,-1 42,-1 85,-3 85,-2 10,-4 10,-4 33,14 34,14 31,31 31,31 1,128 1,127 14,15 15,14 55,2 55,1 213,-7 212,-8 11,-13 11,-14 h 122 l 121,1 40,14 40,15 70,-5 70,-5 360,-5 360,-6 38,-19 38,-20 h 100 100 l 22,14 22,14 h 58 58 l 31,-8 31,-9 18,9 18,10 5,-8 5,-9 -14,-19 -14,-19 -1,-32 v -31 l -42,-14 -43,-13 v -45 -44 l 47,-14 48,-13 10,-20 11,-19 -7,-35 -6,-34 -14,-12 -15,-12 -40,39 -40,39 -10,40 -11,40 -15,32 -16,32 -14,5 -15,6 -91,11 -92,11 -280,3 -280,3 -543,4 -543,3 -19,-25 -19,-25 -3,-70 -3,-70 -86,-10 -86,-11 -39,-38 -39,-39 -32,-13 -32,-14 -6,-10 -6,-10 -32,-1 -32,-1 h -57 -58 l -34,21 -33,21 h -19 -18 l -28,27 -28,27 v 13 14 l -37,15 -36,16 -55,8 -55,9 -242,7 -243,6 -14,-21 -15,-21 -38,-25 -38,-26 -48,-26 -49,-25 -16,6 -15,6 -18,-9 -17,-10 -64,18 -65,18 -46,20 -45,21 -26,30 -26,31 -36,19 -36,19 -96,2 -95,1 -19,10 -18,10 -3,37 -4,38 3,32 3,33 18,9 18,10 123,-9 124,-10 16,-5 17,-5 11,-26 12,-25 v -48 -49 l 13,-11 14,-11 159,-1 160,-2 22,12 22,11 12,23 12,22 2,95 1,95 7,32 7,32 37,4 37,5 140,-4 140,-4 z m 461,2 v -15 l -19,-3 -18,-4 -10,10 -10,10 7,12 7,11 21,-3 22,-3 z m 170,0 v -15 l -47,-3 -48,-3 v 14 14 l 7,7 7,7 41,-3 40,-3 z m 95,-9 10,-20 -6,-16 -7,-16 -15,3 -15,3 -10,17 -11,16 13,16 13,16 h 9 8 z m 2445,-31 6,-10 47,1 47,1 230,-7 230,-7 35,-16 35,-17 h 65 65 l 38,-29 39,-30 18,24 18,23 6,-21 7,-22 -6,-10 -7,-11 -16,4 -17,3 -46,-22 -45,-22 -14,-17 -13,-16 11,-24 12,-25 h 27 28 l 23,-6 22,-6 v -17 -17 l -12,-12 -12,-12 12,-12 12,-12 v -13 -13 l -23,-11 -23,-10 -45,19 -46,20 -12,28 -12,29 -33,21 -32,21 -231,7 -231,7 -31,-27 -31,-26 v -19 -20 l -17,-6 -18,-7 -14,-13 -14,-14 -26,3 -26,3 v 45 l -1,45 8,16 7,17 38,7 38,7 18,10 18,9 -3,26 -3,25 -40,22 -40,23 -6,36 -6,37 -16,18 -17,19 v 6 7 h 9 10 z m 27242,-135 2,-129 -16,-18 -16,-18 h -117 -118 l -10,13 -10,12 v 85 85 l 14,28 15,27 h 32 33 l 70,24 69,25 25,-2 25,-2 z m -25952,110 340,-6 78,-4 77,-4 34,-20 33,-21 h 94 l 94,1 19,14 20,15 h 285 l 286,-1 -20,-15 -20,-15 v -47 -47 l -14,3 -15,3 -20,-5 -21,-5 -17,-29 -17,-29 22,-21 22,-20 28,5 28,5 19,-17 20,-18 6,-34 7,-34 -10,-10 -10,-10 -29,11 -28,11 -16,14 -15,15 -74,64 -74,64 -36,7 -36,6 -110,8 -110,9 -497,1 -497,2 -24,-6 -23,-6 -32,-68 -32,-67 -30,-23 -31,-22 -27,3 -27,3 -3,30 -2,30 13,25 12,25 40,5 40,5 3,23 4,23 -16,24 -16,24 -22,3 -23,3 v 37 37 l -12,12 -13,13 v 12 12 l 13,5 12,5 15,-3 15,-4 z m 10205,-30 v -15 h -9 -10 l -5,9 -5,8 6,7 6,6 h 9 8 z m -8453,-21 42,-24 h 19 20 l 10,-13 10,-12 7,-28 7,-27 h -33 -33 l -23,-22 -23,-21 v -12 -12 l 25,-23 24,-23 30,6 30,6 20,-17 20,-17 3,-37 2,-38 -11,-11 -12,-12 -53,17 -53,16 -11,8 -12,7 -3,19 -4,19 -30,18 -30,18 h -37 l -37,1 -38,-37 -38,-38 -38,-26 -39,-27 -26,7 -27,7 v 55 54 l 40,13 40,13 19,18 18,19 -10,18 -10,18 -34,12 -33,11 -6,44 -6,44 -8,18 -7,17 148,-1 149,-1 z m 619,-5 12,-10 5,-27 5,-27 -16,-27 -15,-26 -24,-11 -23,-11 v -15 -16 l 10,-20 11,-19 h 23 23 l 27,-21 26,-20 v -54 -53 l -15,-6 -15,-6 -53,24 -53,23 -22,29 -22,29 -17,18 -16,17 h -31 -31 l -37,-13 -38,-13 -22,-20 -23,-19 -31,-17 -30,-17 -22,6 -22,5 v 22 l 1,21 17,35 17,35 33,2 33,1 14,12 15,12 v 18 17 l -40,28 -40,28 1,16 1,16 7,30 6,30 70,5 70,5 110,-3 110,-4 z m 658,-24 71,-23 55,-6 55,-7 28,28 27,29 404,-2 405,-2 33,-7 33,-8 7,-11 8,-11 v -47 -46 l 31,-11 32,-11 h 23 23 l 15,-22 16,-22 v -25 -25 l 16,-42 16,-42 36,-7 37,-7 55,-2 55,-2 746,-2 745,-2 16,-12 16,-13 4,-68 3,-68 -745,1 -744,1 -23,14 -22,15 h -43 l -43,1 -25,14 -25,14 -38,1 h -39 l -26,14 -27,14 -85,17 -85,16 -28,-10 -29,-11 -5,-20 -5,-20 -46,-30 -45,-30 h -33 -33 l -5,9 -6,9 -27,7 -28,7 -7,11 -8,12 v 23 22 h -10 -10 l -6,28 -7,27 -13,27 -14,26 -32,10 -33,11 -55,6 -55,6 -47,10 -46,11 -16,39 -16,39 h -14 -14 l -6,-16 -6,-16 v -19 -20 l -16,-52 -16,-52 -16,-33 -17,-33 -40,-38 -40,-38 -34,-12 -34,-11 h -52 -53 l -38,16 -39,16 -37,29 -37,30 -31,64 -32,65 1,43 v 42 l 3,20 3,20 -23,3 -23,4 -12,-32 -12,-31 -20,-4 -20,-4 -50,-6 -49,-7 -26,-19 -25,-20 -39,-30 -39,-30 -11,4 -11,4 -3,52 -3,52 23,18 23,19 32,-5 32,-5 7,26 6,27 -17,19 -18,20 h -18 -18 l -11,20 -10,19 6,40 6,40 22,3 21,3 199,-3 199,-3 z m -7934,-33 v -27 l -6,-22 -6,-22 -14,-5 -14,-5 -15,5 -15,6 10,18 10,19 v 20 20 l 16,15 16,16 9,-5 9,-6 z m 30490,18 11,-21 -3,-31 -3,-32 -65,-19 -65,-19 -120,-40 -120,-40 -37,-8 -38,-7 -12,-11 -13,-10 -50,-7 -50,-8 -16,-8 -17,-9 -623,1 h -624 -35 -35 l -450,-2 -450,-1 -103,1 -103,1 -27,28 -27,27 -197,3 -197,3 -11,14 -11,13 -52,-5 -52,-5 -19,21 -19,21 18,20 18,20 h 23 24 l 16,-25 16,-25 h 14 14 v 9 10 l 15,14 14,15 213,-4 213,-4 310,-4 310,-4 42,-15 42,-16 53,-2 53,-2 85,7 85,7 42,15 43,16 252,1 253,1 h 130 l 130,-1 h 60 60 l 75,-4 75,-3 55,2 55,2 h 35 35 l 148,5 148,5 22,12 22,11 55,13 55,12 80,23 80,22 15,13 15,13 40,4 40,4 12,1 12,2 z m -30753,-12 10,-13 -13,-32 -14,-33 h -14 -14 l -12,15 -12,14 8,23 7,23 11,7 11,8 h 11 12 z m 137,6 16,-6 v -13 -13 l -29,-7 -30,-6 -22,12 -23,12 19,13 19,14 h 17 17 z m 6966,-34 v -20 h -9 -9 l -5,14 -6,14 6,6 6,6 h 9 8 z m -5673,-16 6,-15 -9,-42 -9,-42 -78,1 -77,1 v 9 l 1,9 h 51 51 l 7,26 7,25 12,22 12,22 h 10 10 z m 14938,-4 6,-19 -7,-38 -6,-38 -20,-33 -20,-32 -56,-38 -57,-37 -37,-39 -38,-38 v -14 -14 l -40,-25 -40,-25 h -38 -38 l -20,15 -19,14 -17,1 h -18 l -18,38 -19,37 -6,47 -6,46 12,10 12,10 168,5 167,5 23,16 22,15 27,23 27,23 3,40 4,40 8,13 7,12 h 14 14 z m -15195,-9 10,-20 v -24 -25 l -15,-12 -14,-12 -19,7 -20,6 -6,33 -6,33 6,17 6,16 h 24 23 z m 158,7 12,-12 v -13 -13 l -25,-6 -25,-6 -25,6 -26,7 -6,15 -6,16 14,9 14,9 h 31 30 z m 15198,-20 8,-13 -3,-32 -3,-33 h 10 10 l 16,6 16,6 v 19 19 l 20,20 20,20 168,-3 168,-4 31,-17 32,-16 h 35 35 l 28,-12 28,-11 50,-8 50,-8 52,-13 52,-13 33,-31 33,-30 53,-61 52,-62 v -10 -11 l 25,-16 25,-16 v -24 -24 h -26 -27 l -42,27 -43,27 -12,55 -12,56 -17,16 -18,17 -20,6 -21,7 -58,9 -58,10 -8,-13 -8,-12 v -21 -22 l -15,-6 -16,-6 -6,16 -6,15 6,40 5,40 -21,10 -22,10 -250,-8 -249,-8 -12,-40 -11,-40 -30,-2 -31,-1 -22,-12 -21,-11 -15,12 -14,11 v 19 19 l -12,1 -13,1 -32,-2 -33,-2 v 7 6 l 16,24 15,24 -3,43 -3,43 45,12 45,11 12,1 12,1 z m -4925,-14 50,-17 10,-18 10,-19 h 18 18 l 39,-72 39,-73 v -81 -80 l -28,-33 -27,-33 v -18 -19 l -44,-35 -43,-36 h -17 -17 l -35,-15 -36,-15 -54,16 -54,15 -5,10 -6,9 h -15 -15 l -35,26 -34,26 -30,62 -29,61 3,85 4,85 34,55 33,56 22,27 22,28 51,-2 50,-3 12,12 12,12 h 24 23 z m 8514,-14 7,-11 39,-16 40,-15 10,-19 10,-19 h 15 15 l 10,-30 11,-30 h 8 8 l 11,-31 11,-32 v -76 -76 l -15,-55 -15,-55 v -2 -2 l 42,-3 42,-3 17,-30 18,-30 11,-17 10,-17 -7,-4 -8,-5 -55,-3 -55,-2 -26,1 -27,2 -5,20 -5,20 h -29 -28 v 61 60 l 20,11 20,11 4,3 4,4 -10,12 -10,13 -7,26 -6,27 15,12 15,12 v 10 10 l -31,45 -30,46 10,29 10,29 -19,19 -20,20 h -37 -37 l -23,-22 -23,-21 v -22 -21 l -12,-17 -13,-16 -64,-3 -64,-3 -12,-34 -11,-35 6,-43 7,-44 11,-11 12,-12 61,-4 60,-5 10,-24 9,-24 v -39 -38 l 16,-6 16,-6 h 41 42 l 13,-8 12,-8 -35,-17 -36,-17 h -24 -24 l -56,15 -57,14 -31,20 -32,20 -28,29 -28,29 2,119 3,119 -8,27 -8,27 18,40 17,40 19,5 19,5 6,20 5,21 h 33 33 l 23,20 24,19 57,1 h 57 z m 5720,-15 v -20 l -34,-3 -34,-3 -10,10 -10,10 7,16 6,16 37,-3 38,-3 z m 135,10 13,-16 -11,-24 -12,-25 h -15 -15 l -20,20 -20,20 v 14 14 l 13,5 12,5 21,1 22,1 z m -385,-15 18,-20 -12,-13 -11,-14 7,-6 6,-7 h 13 13 l 6,20 6,20 h 20 20 l 5,-15 6,-15 -12,-15 -11,-14 -27,-3 -27,-3 -3,-45 -3,-45 -10,-11 -9,-11 15,-13 15,-12 -10,-18 -10,-19 10,-6 10,-6 v -29 -28 l 26,-6 26,-7 18,6 18,6 6,-16 5,-15 h 58 l 58,1 53,-1 52,-1 18,10 17,10 -28,10 -28,11 -14,33 -13,33 7,34 7,35 28,3 27,3 26,-16 25,-17 -6,-38 -6,-38 13,-11 14,-11 6,7 7,6 v 47 48 l 13,9 12,9 37,12 37,13 150,2 150,2 12,-12 12,-12 -5,-89 -4,-89 -18,-28 -18,-28 -102,5 -102,6 -39,-14 -38,-13 -21,-25 -21,-25 -28,-10 -27,-11 -93,-6 -93,-7 -34,18 -35,18 -8,13 -8,14 h -13 -14 l -14,21 -14,22 -118,4 -117,4 -57,21 -57,21 -16,13 -16,14 h -10 -10 l -23,20 -23,20 h -23 -23 l -26,-12 -26,-12 -15,-28 -15,-29 -24,-9 -23,-9 -57,-5 -56,-5 -42,15 -41,15 -21,19 -20,19 -90,-9 -90,-10 h -22 -21 l -52,-44 -51,-44 -38,-6 -39,-6 -46,6 -46,7 -45,39 -44,39 -42,2 -43,1 -4,-12 -4,-12 -26,-30 -26,-30 h -37 -36 l -6,7 -7,6 10,12 10,12 -16,32 -16,32 6,23 6,24 33,6 33,6 22,16 22,15 v 18 18 l -21,19 -21,19 -20,28 -20,28 13,30 12,31 24,9 24,9 h 124 125 l 6,-25 6,-25 -6,-24 -6,-24 -37,-19 -38,-20 -3,-22 -4,-22 15,-23 15,-23 h 31 32 l 10,-10 11,-11 2,-49 1,-48 h 25 25 l -3,45 -3,46 20,18 20,19 31,-6 30,-7 21,21 20,20 -3,27 -3,26 -32,7 -33,6 -15,13 -15,12 v 37 36 l 8,11 7,12 60,7 61,6 82,-21 83,-21 41,11 41,11 22,-5 23,-6 5,-20 5,-20 -5,-20 -5,-20 h -44 -43 l -11,-21 -12,-21 5,-12 5,-13 35,-16 35,-17 h 30 31 l 7,-11 7,-11 2,-47 2,-46 h 19 19 l 6,42 5,41 13,16 14,16 18,-5 19,-6 30,17 29,18 5,12 5,13 -20,25 -20,26 h -23 -22 l -12,12 -12,12 v 52 51 l 178,7 177,8 40,8 40,8 41,1 41,1 z m 853,8 12,-12 v -20 -21 l -9,-13 -8,-14 -144,-5 -144,-6 -53,27 -52,26 v 15 14 l 18,10 17,10 176,1 h 175 z m 362,-13 9,-24 1,-143 2,-143 14,-22 14,-23 h 59 58 l 6,7 7,6 -12,14 -12,15 15,9 14,10 72,-5 72,-4 11,13 11,14 -11,22 -12,22 13,23 12,24 19,6 18,5 30,-6 30,-7 -5,-21 -5,-22 -4,-40 -5,-40 v -7 l -1,-6 -30,-7 -30,-7 v -8 -8 l 43,-4 42,-5 12,9 11,9 -3,78 -3,79 22,21 22,20 144,-2 145,-2 13,-8 12,-8 -7,-27 -6,-26 -49,-80 -49,-81 -22,-12 -22,-12 -76,-1 h -76 l -36,-24 -36,-24 -47,-21 -47,-21 h -67 -68 l -37,16 -37,15 -42,27 -41,26 -158,4 -158,4 -14,22 -15,22 3,180 4,181 7,11 7,12 h 130 129 z m 274,6 17,-18 -13,-10 -13,-10 -47,5 -48,4 v 23 22 l 44,1 44,1 z m -175,-5 11,-13 -6,-17 -6,-16 h -14 -15 l -5,15 -6,15 6,15 5,15 h 9 10 z m -7356,-68 -5,-63 -26,-24 -26,-23 -37,5 -37,5 -11,-11 -10,-10 -26,11 -25,11 6,14 5,14 39,22 39,22 6,19 6,20 h 14 14 l 18,25 18,24 22,1 h 21 z m 1177,45 45,-17 27,-22 27,-22 9,-4 8,-3 31,-45 30,-45 9,-25 8,-25 -2,-16 -3,-16 10,-26 10,-27 -20,-66 -20,-66 -57,-54 -57,-55 -25,-5 -25,-4 -47,-11 -46,-10 -61,17 -61,17 -55,52 -55,53 v 24 l -1,23 -14,25 -14,25 -1,32 v 31 l 12,54 12,53 13,20 13,19 v 22 22 l 29,12 30,12 5,14 5,14 h 19 19 l 7,8 7,7 32,12 32,11 35,1 34,1 z m 3234,-54 6,-31 v -25 -24 l -45,-19 -45,-19 v -15 -15 l 12,-26 11,-25 h 26 27 l 22,-16 22,-15 v -49 -49 l 10,-6 10,-6 v -10 -9 h -32 l -33,1 -39,29 -40,30 h -32 -32 l -65,-45 -66,-45 h -75 -75 l -45,45 -46,45 h -46 -46 l -83,-50 -83,-50 h -15 -16 l -23,-11 -24,-10 -44,21 -45,21 -22,12 -23,12 v 17 18 h -19 -18 l -62,59 -61,60 v 10 9 l -45,17 -44,17 -188,-11 -188,-11 -450,-11 -450,-11 -33,-16 -34,-17 -14,-27 -14,-26 -33,-21 -34,-21 h -26 -25 l -45,52 -45,52 -62,3 -62,2 -15,13 -15,13 6,64 6,64 4,5 5,5 168,-1 168,-1 105,8 105,8 40,-20 40,-21 h 97 l 97,-1 28,26 28,27 485,6 485,7 55,8 55,9 14,-8 14,-8 29,10 28,10 16,-13 16,-13 -23,-19 -23,-18 12,-19 11,-18 -14,-12 -15,-12 v -20 -20 l -19,5 -20,5 -16,-18 -16,-18 12,-40 12,-41 38,2 38,1 19,-18 20,-17 -5,-39 -6,-40 17,-6 17,-6 4,4 5,5 6,49 6,49 16,13 16,12 h 26 26 l 12,12 12,12 v 20 19 l -17,19 -16,18 h -18 -18 l -11,19 -10,20 v 27 27 l -17,19 -16,18 h 118 118 l 19,17 19,17 95,4 94,4 v -9 -9 l -10,-10 -11,-11 -12,-48 -12,-49 -25,-6 -25,-6 -3,-46 -3,-45 23,-7 23,-6 h 22 22 l 27,-36 28,-36 -14,-8 -14,-9 24,-19 25,-20 7,5 8,4 v 37 38 l 16,22 15,22 h 28 29 l 10,13 10,12 -5,31 -5,31 -44,37 -44,37 v 29 30 h -12 -13 l -15,10 -15,10 13,8 13,9 153,2 153,2 z m 511,-39 -7,-12 -10,10 -10,10 7,12 7,12 10,-10 10,-10 z m -7422,13 38,-6 16,-23 15,-23 -6,-19 -6,-19 -196,-2 -196,-2 -19,17 -19,17 v 23 23 l 18,10 17,11 150,-1 h 150 z m 2659,-47 28,-6 30,-30 30,-29 v -64 -63 l -44,-22 -43,-22 h -24 -24 l -29,19 -28,19 -19,42 -19,42 v 32 l 1,31 17,21 18,21 29,10 30,10 10,-3 10,-2 z m -2373,-6 h 17 l 13,-50 13,-51 22,-27 23,-27 6,-16 5,-16 34,-7 33,-7 45,-6 45,-5 12,-10 13,-10 -6,-9 -6,-10 -106,3 -107,2 -23,-8 -22,-7 -17,38 -17,38 -1,63 -2,63 -21,15 -22,15 v 14 13 l 13,5 12,5 13,-4 14,-4 z m 6292,-3 -1,-7 -7,-1 h -7 l -4,12 -4,12 12,-4 12,-4 z m -7046,-27 6,-10 42,-22 42,-21 281,-1 281,-1 18,-15 17,-14 -4,-83 -4,-84 20,-4 21,-4 56,-6 55,-6 17,-20 17,-20 30,-6 30,-5 v -13 -13 l -342,2 -341,1 -5,13 -4,13 41,16 42,16 -7,31 -6,31 -29,27 -29,27 v 24 24 l -33,18 -34,18 -26,-18 -27,-17 v -35 -35 l -30,-26 -30,-26 v -17 -16 l 19,-17 20,-18 19,6 20,7 6,-17 6,-16 -6,-9 -5,-9 h -215 -215 l 3,17 3,18 38,18 37,17 v 29 29 l -34,20 -33,20 -7,28 -7,29 -19,20 -18,20 -6,22 -7,22 11,20 10,20 108,4 107,3 47,2 47,2 z m 1347,-20 22,-30 h 23 24 l 6,-16 6,-15 -11,-11 -11,-11 -38,-14 -38,-15 -25,-5 -25,-6 -20,-13 -19,-14 h -23 -22 l -7,11 -6,11 27,28 27,28 -6,11 -7,11 32,40 32,40 h 18 18 z m 9000,4 12,-25 -19,-31 -18,-31 17,-9 16,-9 v -9 -10 h -21 -20 l -15,35 -14,34 v 25 24 l 6,16 6,16 h 19 19 z m -1222,-39 v -55 h 18 18 l 20,14 19,14 -24,26 -24,25 26,12 27,12 32,-9 31,-9 5,-13 4,-12 -31,-17 -31,-18 v -12 -13 h 10 10 v -14 -14 l -14,-5 -15,-6 -37,6 -37,6 -17,16 -17,16 -18,10 -18,11 8,42 7,42 h 24 24 z m 1355,45 26,-10 -3,-28 -3,-27 h -54 -54 l -11,18 -11,18 24,20 23,19 h 18 19 z m -7739,-44 157,-1 7,-15 8,-15 18,-57 18,-58 21,-6 20,-7 10,-12 10,-13 58,-21 58,-21 h 37 37 l 25,-15 25,-15 18,-6 18,-7 -3,-21 -3,-21 -410,2 -410,1 -80,9 -80,8 -5,83 -5,83 5,13 5,14 59,48 59,48 36,7 36,7 47,-5 48,-6 z m -913,-3 17,-4 v -24 -23 l 19,-23 19,-23 81,1 80,2 6,-9 6,-10 h 29 29 l 7,-11 7,-12 3,-61 3,-61 -5,-17 -5,-18 h -285 -284 l -25,-6 -25,-6 -25,6 -25,6 v 15 15 l 34,17 34,16 6,20 5,20 -40,36 -39,36 v 11 10 l 28,26 27,26 45,20 45,21 25,4 25,4 h 80 l 80,1 z m -695,-86 3,-17 h -20 -21 v 21 20 l 17,-3 18,-3 z m 171,-81 -13,-35 12,-26 12,-25 27,-11 26,-10 -9,-9 -9,-9 -171,-2 -172,-2 -10,7 -11,7 6,14 5,15 h 28 27 l 18,20 18,19 21,7 21,6 59,29 58,29 h 29 29 v 12 11 l 6,-6 6,-6 z"
       id="path51646" />
    <path
       d="m 13592.654,10188.554 -32,-8 -33,-21 -34,-21 -31,-33 -31,-33 -27,-47 -27,-46.9999 -9,-248 -9,-248 -7,-360 -6,-360 2,-151 2,-152 -11,-6 -11,-7 v -41 -40 l 16,-54 15,-54 10,-5 9,-6 v -18 -17 l 28,-25 27,-25 45,-23 45,-24 13,-10 12,-10 183,-5 182,-5 25,1 25,1 h 580 580 l 37,-6 37,-5 39,20 38,19 32,8 33,7 54,51 53,52 26,51 26,50 -5,796 -4,795 -26,51 -26,50.9999 -23,18 -23,18 -12,23 -12,22 h -13 -13 l -27,21 -27,21 -177,3 -177,2 -89,13 -89,12 -51,-5 -51,-5 -475,9 -475,8 -40,5 -40,5 z m 681,-117 490,-5 241,-8 242,-8 51,-33 51,-32.9999 1,-11 1,-11 2,-12 1,-12 17,-13 18,-13 v -735 -735 -52 -52 l -44,-44 -44,-44 -33,-25 -34,-26 -53,-12 -54,-12 -61,7 -62,7 -720,3 -720,4 -38,16 -38,16 -6,17 -5,17 -18,40 -17,40 8,180 7,180 2,310 1,310 10,250 10,250 5,64 6,64 36,53.9999 36,54 25,15 26,14 85,-5 85,-5 z"
       id="path52096" />
    <path
       d="m 37224.48,10197.111 -30,-7 -165,5 -165,5 -365,-12 -364,-12 h -217 -217 l 2,-17 1,-17 -33,-3 -33,-3 -48,-67 -49,-67 -8,-54.9999 -7,-55 -2,-35 -2,-35 -8,-260 -8,-260 -2,-80 -3,-80 1,-20 v -20 l 1,-475 1,-475 14,-35 13,-35 18,-35 18,-35 45,-38 44,-38 54,-17 54,-16 792,-3 792,-4 18,21 17,20 h 21 21 l 12,-12 12,-12 v 16 17 l 19,13 18,13 35,45 34,45 14,35 15,35 v 920 920 l -23,49.9999 -24,50 -9,20 -10,21 -43,26 -42,27 -85,21 -84,20 -5,-1 -5,-1 z m 0,-100 80,-9 28,-5 28,-4 47,-43 47,-42.9999 17,-43 17,-42 -3,-891 -4,-891 -14,-17 -14,-17 -13,-27 -14,-27 -39,-27 -38,-27 -717,-1 -716,-1 -5,13 -4,13 -58,-7 -57,-6 -59,17 -59,16 -18,22 -18,22 -21,45 -21,44 8,71 7,70 -3,40 -3,40 v 40 l 1,40 5,608 5,608 22,15 21,15 v 32 32 l -20,13 -21,13 7,77 7,77 26,41 26,41.9999 68,31 67,31 h 18 18 l 9,-8 10,-8 230,7 230,8 334,5 334,5 6,7 6,6 65,-6 65,-6 z"
       id="path52274" />
    <path
       d="m 20149.034,10196.864 -65,-8 -50,-26 -50,-27 -41,-52 -41,-53 -16,-48.9999 -16,-50 -7,-535 -7,-535 2,-180 2,-180 9,-75 10,-75 15,-54 14,-53 23,-25 23,-25 40,-31 39,-32 86,-7 85,-7 125,-6 125,-7 668,-4 669,-5 56,26 57,26 37,25 36,26 20,51 21,52 11,36 11,36 -2,64 -2,64 8,717 7,717 -17,50 -17,50.9999 -59,54 -60,53 -54,21 -54,21 -383,1 -383,1 -255,5 -255,6 -20,-1 -20,-1 -104,-1 h -104 l -26,4 -26,5 z m 485,-94 330,-2 120,-9 120,-8 285,-2 285,-2 27,-2 27,-1 46,-46 46,-45.9999 10,-26 11,-27 -2,-135 -1,-135 -1,-510 -1,-510 -2,-70 -2,-70 -12,-104 -11,-105 -48,-43 -47,-43 -55,-12 -55,-13 -430,3 -430,4 -9,5 -8,6 -333,3 -333,4 -42,15 -42,15 -36,29 -37,29 -18,59 -19,58 -1,380 -1,380 7,370 7,370 9,39 9,38 40,37.9999 39,37 24,13 24,13 45,13 45,12 45,-5 45,-4 z"
       id="path52616" />
    <path
       d="m 25557.106,8861.3421 -3,-8 -47,-22 -48,-23 -30,-47 -30,-48 v -43 -43 l -16,-6 -17,-6 -18,11 -18,12 -43,9 -43,10 -240,1 -240,2 -82,9 -81,9 -57,26 -57,26 -46,-6 -46,-6 -25,-17 -25,-16 -94,2 -93,2 -45,-22 -45,-21 -9,-22 -9,-21 -36,-25 -37,-25 -44,-44 -44,-44 v -13 -13 l -47,-7 -46,-7 -104,7 -104,7 -33,-20 -32,-20 -13,-48 -14,-48 -1,-20 -1,-20 -28,-3 -27,-3 -6,15 -6,15 -64,36 -65,35 h -33 -33 l -47,-37 -48,-37 -19,-37 -19,-37 16,-49 16,-48 17,-35 16,-34 25,-12 25,-12 40,-9 40,-8 8,-40 8,-40 -1,-10 v -10 l -5,-35 -4,-35 -7,-130 -7,-130 20,-24 20,-24 224,3 224,3 82,1 82,1 13,13 13,13 -1,77 -1,77 -7,26 -7,26 15,6 16,7 33,-14 32,-14 52,-21 52,-21 h 20 20 l 6,-10 6,-10 h 20 20 l 38,-39 38,-39 6,-24 6,-23 32,-17 31,-18 h 51 52 l 30,20 30,20 h 18 19 l 96,-31 97,-31 28,-14 29,-14 h 27 28 l 17,19 18,20 -9,15 -8,15 -38,25 -38,26 h -12 -13 l -38,20 -38,19 -19,17 -19,17 11,14 11,13 17,1 16,1 -43,15 -43,15 -9,24 -10,24 h -12 -13 l -22,50 -23,49 -1,38 -1,38 -7,25 -8,25 -7,-56 -8,-57 12,-55 13,-56 28,-27 29,-28 v -11 -12 l -20,-18 -20,-18 v -11 -11 l -33,-26 -32,-26 -67,-6 -68,-6 -6,24 -6,24 -21,3 -21,3 -8,35 -7,35 -3,115 -2,115 7,110 8,110 5,41 5,41 -23,28 -23,27 -34,39 -33,39 12,15 12,15 h 9 9 l 30,33 29,32 1,48 v 49 l 36,38 37,39 38,6 37,6 31,-16 31,-16 378,-2 378,-2 29,-20 30,-20 20,-5 20,-6 v -29 l 1,-30 63,-3 63,-3 -4,12 -4,12 -34,11 -35,11 -3,44 -3,44 5,22 6,23 46,51 46,51 39,10 39,11 34,-10 35,-9 36,-28 36,-29 21,-35 21,-35 2,-50 2,-50 -10,-12 -9,-13 h -39 -38 l -5,8 -5,8 9,14 8,13 -5,13 -5,13 -59,-6 -59,-6 -6,17 -7,17 11,25 12,24 h 35 35 l 10,-25 10,-25 h 9 10 l 6,10 6,10 -8,13 -8,12 3,18 3,17 -28,11 -28,11 -50,-9 -50,-8 -3,-63 -3,-64 12,-15 13,-15 30,6 31,5 20,-9 20,-8 -15,-6 -15,-5 -45,-3 -45,-3 v -10 -10 l 82,-2 82,-3 57,-9 58,-9 24,16 23,15 -14,15 -15,14 5,60 6,59 -19,61 -19,61 -31,13 -32,13 -5,14 -5,15 -48,16 -48,16 h -47 -47 z m -1280,-295 1,-43 -19,-42 -19,-43 h -16 -16 l -24,-16 -24,-15 -64,-1 h -64 l -22,11 -21,12 v 29 29 l 28,16 27,15 55,44 55,45 61,1 h 62 z m -435,-205 18,-5 -6,-41 -7,-42 -9,-11 -8,-10 -5,-58 -5,-58 -5,-6 -6,-5 -7,6 -6,7 -2,18 -1,17 -8,13 -7,12 h -84 -83 l -26,31 -26,31 1,21 v 22 l 8,19 7,18 35,19 34,19 90,-6 90,-6 z m 359,-86 58,-62 v -90 -90 l -6,-22 -6,-22 -47,-31 -48,-30 h -84 -84 l -33,18 -32,17 -20,40 -20,39 v 88 87 l 9,5 9,6 6,33 6,34 23,20 22,20 15,5 14,4 81,-4 80,-4 z m -902,-7 19,-10 11,-41 11,-41 -6,-27 -6,-28 -33,-16 -34,-16 -36,25 -36,25 v 42 43 l 13,16 12,16 20,10 20,11 13,1 h 13 z m 149,-56 21,-27 v -23 -23 l 30,-21 30,-21 10,-19 10,-19 -6,-15 -6,-16 h -19 -20 l -23,16 -24,15 -7,27 -7,27 -13,-19 -14,-19 -16,7 -15,6 5,22 5,23 3,40 3,40 7,13 8,12 h 9 9 z m 291,-75 v -21 l -12,4 -13,5 -3,16 -3,17 h 15 16 z m -44,-110 34,-21 -11,-20 -11,-20 -31,6 -32,6 -13,14 -14,14 7,21 6,21 h 16 16 z m -263,-61 22,-11 30,-8 30,-8 80,-29 80,-29 15,-6 15,-5 39,-13 39,-12 52,-23 51,-24 23,-31 23,-31 -16,-17 -16,-18 v -34 -34 l -7,-23 -6,-24 -206,7 -206,7 -43,2 -42,2 -10,10 -10,10 -2,161 -1,162 13,15 12,16 h 10 9 z m 375,-16 3,-22 h -20 -20 l -6,10 -7,11 13,15 12,15 11,-4 11,-4 z m 460,-55 3,-17 h -20 -21 v 13 14 l 7,7 7,6 10,-3 11,-4 z m -170,-64 4,-13 h -21 -21 v 16 15 l 17,-3 16,-3 z"
       id="path53756" />
  </g>
</svg>
