<?xml version="1.0" encoding="UTF-8" standalone="no"?>
<svg
   version="1.0"
   width="90pt"
   height="100pt"
   viewBox="0 0 3846.000000 1602.000000"
   preserveAspectRatio="xMidYMid meet"
   id="svg72838"
   sodipodi:docname="battleship.svg"
   inkscape:version="1.2.1 (9c6d41e410, 2022-07-14, custom)"
   xmlns:inkscape="http://www.inkscape.org/namespaces/inkscape"
   xmlns:sodipodi="http://sodipodi.sourceforge.net/DTD/sodipodi-0.dtd"
   xmlns="http://www.w3.org/2000/svg"
   xmlns:svg="http://www.w3.org/2000/svg">
  <defs
     id="defs72842" />
  <sodipodi:namedview
     id="namedview72840"
     pagecolor="#ffffff"
     bordercolor="#000000"
     inkscape:showpageshadow="2"
     inkscape:pageopacity="0.0"
     inkscape:pagecheckerboard="0"
     inkscape:deskcolor="#d1d1d1"
     showgrid="false"
     inkscape:current-layer="g72836" />
  <metadata
     id="metadata65740">
Created by potrace 1.12, written by Peter Selinger 2001-2015
</metadata>
  <g
     transform="matrix(0.1,0,0,-0.1,5.5521708,1599.481)"
     fill="#000000"
     stroke="none"
     id="g72836">
    <path
       d="m 17864.578,9124.6215 -5,-5 -325,-8 -325,-7 -85,1 -85,1 -65,3 -65,3 -210,-17 -210,-18 -890,-2 -890,-1 -18,-9 -18,-9 -16,12 -15,13 -669,3 -669,4 -83,-12 -82,-11 -285,-9 -285,-10 -75,-3 -75,-3 -9,-1 -8,-2 -267,-5 -266,-5 -185,-15 -185,-15 h -120 -120 l -180,-15 -180,-14 -125,-1 h -125 l -125,-10 -125,-10 -180,-11 -180,-11 -50.0001,-4 -50,-4 -205,-9 -205.0006,-8 -45,-7 -45,-7 -160,-9 -160,-8 -243,-16 -244,-16 -62,-10 -62,-10 -120,-1 h -119 l -110,-15 -110,-14 h -70 -70 l -140,-15 -140,-14 -120,-12 -120,-11 -90,-3 -90,-3 -80,-11 -80,-11 -65,-4 -65,-5 -120,-10 -120,-10 -118,-10 -118,-10 -8,-6 -9,-5 -158,-16 -159,-15 -95,-9 -95,-9 -45,-10 -45,-11 h -55 -55 l -110,-15 -110,-16 -40,-10 -40,-11 -105,-14 -105,-14 -104,-9 -104,-10 -61,-15 -61,-15 -80,-15 -80,-15 -30,-6 -30,-6 -70,-9 -70,-9 -115,-22 -115,-21 -50,-7 -50,-7 -15,-9 -14,-9 -86,-13 -85,-14 -60,-8 -60,-9 -100,-17 -100,-16 -65,-19 -65,-20 -85,-16 -85,-16 -18,-10 -17,-9 -88,-20 -87,-20 -60,-15 -60,-15 -55,-13 -55,-14 -80,-21 -80,-22 -20,-8 -20,-8 -50,-17 -50,-17 -40,-10 -40,-10 -10,-10 -9,-9 h -36 l -35,-1 -25,-14 -25,-14 -20,-1 h -20 l -29,-15 -28,-15 h -18 -19 l -13,-13 -13,-13 -60,-13 -59,-13 -24,-16 -24,-15 -26,-3 -27,-3 -120,-41 -120,-41 -66,-34 -67,-35 h -21 -21 l -108,-54 -107,-53 -40,-13 -40,-13 -25,-16 -25,-16 -60,-59 -60,-60 -17,-25 -18,-26 1,-55 v -55 l 8,-48 8,-48 39,-40 39,-40 97,-66 98,-65 92,-33 93,-33 35,-15 35,-15 50,-7 50,-7 66,-19 67,-20 17,-19 18,-20 h 44 44 l 5,-15 6,-15 h 16 16 l 86,-21 85,-20 18,-10 17,-9 43,-14 42,-14 57,-16 56,-16 h 22 23 l 31,-19 31,-19 40,-7 40,-7 33,-19 33,-19 h 33 33 l 77,-25 77,-25 h 19 19 l 77,-25 77,-25 h 37 38 l 28,-15 29,-15 h 42 42 l 33,-14 33,-14 105,-16 105,-16 55,-9 55,-9 75,-20 75,-20 65,-7 65,-7 70,-18 70,-18 155,-22 155,-22 33,-14 33,-14 h 63 64 l 11,-14 11,-14 58,-5 57,-5 65,-11 65,-10 160,-16 160,-17 44,-14 45,-14 h 26 26 l 11,-11 11,-11 102,-8 102,-9 12,-10 11,-9 130,-16 130,-16 145,-16 145,-17 55,-8 55,-9 140,-6 140,-6 12,-10 13,-10 102,-5 103,-4 50,-14 50,-13 190,-7 190,-6 75,-9 75,-9 220,-15 220,-15 140,-8 140,-7 105,-2 105,-1 110,-11 110,-11 455,-15 455,-15 95,-10 95.0002,-11 185.0004,-7 185.0001,-7 65,-3 65,-3 285,-10 285,-10 55,-10 55,-10 180,-1 180,-1 90,-9 90,-9 460,-10 460,-9 49,-11 48,-11 254,2 253,1 10,-6 10,-7 108,-5 108,-6 80,-3 80,-2 230,-2 230,-2 904,1 h 903 l 41,-11 40,-11 h 51 l 51,-1 50,18 50,17 260,-7 260,-6 83,-10 84,-10 16,5 17,5 442,-8 443,-8 57,9 58,8 515,5 515,6 305,9 305,10 595,10 595,10 80,-6 80,-5 105,10 105,11 480,15 480,15 161,4 162,5 45,-25 46,-24 h 69 70 l 63,29 64,30 504,5 504,6 76,5 76,5 345,4 345,5 130,10 130,11 265,4 265,3 175,8 175,8 220,1 220,2 330,8 330,8 16,14 16,14 h 17 17 l 30,-16 31,-15 16,6 17,7 185,4 185,4 105,15 105,14 310,16 310,16 45,11 45,10 215,9 215,8 45,10 45,10 195,1 195,1 70,10 70,10 170,11 170,11 200,2 200,2 25,8 25,8 32,26 33,26 v 22 23 l -25,16 -26,17 -57,-7 -57,-7 -75,-9 -75,-9 -150,-10 -150,-11 -145,-11 -144,-11 -91,-4 -90,-3 -100,-11 -100,-10 -170,-11 -170,-12 -80,-2 -80,-2 -200,-12 -200,-12 -225,-15 -225,-15 -190,-9 -190,-9 -80,-10 -80,-10 -85,-6 -85,-6 -53,-11 -53,-11 -9,9 -9,9 -1,140 -2,140 1,97 1,97 14,14 14,14 168,-3 167,-3 71,30 71,31 47,50 47,50 223,-7 223,-7 43,-44 42,-44 h 15 15 l 12,-20 13,-20 105,-40 105,-41 35,-16 35,-16 35,-8 35,-7 65,-17 65,-16 121,-8 122,-8 48,8 49,8 h 55 l 55,1 74,15 73,16 39,19 38,20 h 14 14 l 76,40 76,40 h 13 14 l 59,30 60,29 14,1 h 14 l 113,50 114,50 29,6 30,6 5,14 5,14 h 20 19 l 44,20 43,20 15,8 15,9 35,16 35,16 46,19 47,20 33,7 34,7 25,16 25,17 35,12 35,13 h 12 12 l 73,34 73,33 40,16 40,16 20,5 21,6 69,9 70,8 60,-8 60,-8 80,-1 80,-1 45,6 45,6 23,5 23,5 19,19 20,20 v 40 40 l 28,11 27,11 55,8 55,9 155,16 155,16 13,17 14,17 -4,135 -3,134 25,13 25,13 h 282 282 l 7,-11 7,-12 -1,-119 -1,-119 -20,-40 -21,-40 -11,-12 -10,-12 -33,-50 -32,-50 -44,-65 -43,-65 -56,-83 -55,-82 -18,-17 -18,-16 v -14 -14 l -40,-48 -41,-48 -50,-74 -50,-74 -41,-62 -40,-61 -62,-12 -61,-11 -145,-9 -145,-10 -100,-10 -100,-10 -135,-11 -135,-11 -135,-3 -135,-3 -74,-10 -74,-10 -15,-15 -15,-15 7,-35 7,-35 14,-12 15,-13 138,12 137,11 50,4 50,3 200,17 200,17 55,4 55,3 75,11 75,11 110,11 110,11 75,8 75,9 70,5 70,5 36,9 37,9 11,7 11,7 63,4 62,4 135,11 135,11 90,14 90,14 80,5 80,6 79,15 78,15 h 58 59 l 28,11 28,11 75,8 75,9 130,15 129,16 56,11 55,12 10,7 10,7 54,7 54,7 28,14 27,15 64,-1 63,-1 28,-16 27,-16 29,32 30,32 h 16 16 l 47,14 47,14 115,17 115,18 33,13 34,14 81,10 82,10 85,16 85,15 80,9 80,9 45,10 45,10 80,11 80,12 50,9 50,10 52,9 53,8 34,21 33,21 h 25 24 l 95,21 94,21 61,9 61,8 58,26 58,25 41,6 41,6 72,20 71,19 99,39 98,40 h 12 13 l 67,26 68,27 55,20 55,21 11,8 11,8 49,9 49,10 60,36 60,36 55,15 55,14 79,26 79,25 38,20 38,19 h 18 18 l 27,14 27,14 33,7 33,7 20,13 20,12 90,48 90,48 23,21 24,21 9,17 9,17 -6,14 -5,15 -35,6 -34,7 -6,24 -6,25 -31,26 -30,25 -86,45 -86,45 -40,25 -40,24 -45,21 -45,20 -30,14 -30,13 -130,60 -130,61 -50,16 -50,15 -20,10 -20,9 -90,26 -90,27 -80,30 -80,30 -45,18 -45,17 -55,16 -55,16 -52,15 -52,16 h -12 -12 l -86,41 -86,41 -80,4 -80,4 -50,15 -50,14 -64,7 -64,7 -26,13 -26,14 h -55 -55 l -50,15 -50,16 -70,14 -70,15 h -27 -27 l -58,15 -57,15 h -37 -37 l -59,14 -58,14 -80,16 -80,15 -150,17 -150,17 -100,7 -100,8 -55,10 -55,11 -66,10 -66,11 h -44 -44 l -40,10 -40,10 -50,5 -50,5 -52,10 -53,9 -92,6 -93,7 -30,9 -30,10 -95,9 -95,10 -110,11 -110,11 -86,3 -86,3 -69,10 -69,11 -90,11 -90,11 -232,9 -232,8 -10,7 -11,6 -197,9 -198,10 -140,11 -140,11 -125,8 -125,9 -194,10 -194,10 -9,-5 -8,-5 -57,11 -58,12 -180,8 -180,8 -245,16 -245,15 -50,7 -50,6 -240,9 -240,8 -30,5 -30,5 -65,6 -65,6 -215,9 -215,9 -320,15 -320,15 -255,10 -255,11 -185,5 -185,6 h -205 -205 l -145,8 -145,8 -35,-17 -36,-18 -222,4 -223,3 -10,6 -9,6 -353,16 -352,16 -155,3 -155,3 -320,7 -320,6 -65,3 -65,2 -90,3 -90,2 -387,-1 -386,-1 -57,30 -57,30 h -68 -69 l -6,-9 -5,-10 -58,-12 -57,-13 h -110 l -110,-1 -250,7 -250,8 -345,10 -345,10 -74,16 -74,17 -81,-14 -81,-14 -355,1 -355,1 -150,6 -150,7 -260,3 -260,2 -375,-4 -375,-4 -95,7 -95,8 z m 2174,-120 60,-2 -63,-65 -63,-65 -33,-60 -33,-60 -11,-42 -12,-42 -10,-7 -10,-6 -130,1 -130,2 -31,-31 -30,-31 7,-57 7,-57 1,-90 2,-90 -130,-7 -130,-6 -77,-1 h -78 l -20,-6 -20,-6 v -13 -14 l -45,-58 -45,-57 v -10 -9 l -41,-41 -40,-41 -31,12 -31,11 -16,-7 -16,-8 -335,4 -335,3 -290,1 -290,2 -25,-3 -26,-3 -55,26 -56,26 h -12 -11 l -18,9 -17,10 -46,20 -45,21 h -32 -31 l -25,23 -25,22 -29,57 -30,57 -20,28 -19,28 -11,32 -11,33 -28,35 -28,36 -32,20 -31,20 -109,-20 -108,-20 -50,-17 -50,-17 -27,-13 -26,-14 h -18 -17 l -90,-46 -90,-46 -11,-9 -11,-9 -50,-41 -50,-41 -25,-22 -24,-21 -17,-10 -17,-10 -63,-55 -63,-55 -21,-22 -21,-22 -318,-2 -317,-2 -73,75 -73,75 -36,27 -36,28 -183,-8 -183,-9 -15,3 -15,2 -65,3 -65,2 v 125 125 l -13,229 -13,229 6,24 5,23 h 23 22 l 13,-9 14,-8 1,-185 2,-185 14,-16 13,-17 h 424 424 l 14,-34 14,-34 49,-22 48,-22 67,1 67,1 46,20 46,20 17,30 17,30 25,8 25,9 282,-5 281,-5 26,7 25,6 13,23 13,22 5,190 5,190 265,-1 265,-1 655,-2 655,-2 224,6 225,6 2,2 2,2 539,-3 538,-2 z m 1181,1 5,-5 -16,-38 -16,-38 5,-149 5,-148 13,-16 13,-15 412,3 412,3 24,-21 23,-21 40,-23 40,-24 70,-1 h 70 l 45,27 45,26 18,22 18,21 328,-7 329,-6 12,22 12,22 -4,154 -3,155 15,10 15,10 55,-5 55,-5 195,-11 195,-11 50,-9 50,-9 409,-6 409,-5 9,-7 10,-6 172,-3 171,-3 345,-5 345,-6 h 6 7 l 7,-17 6,-18 10,-114 10,-114 -22,-24 -23,-24 -55,7 -56,6 -47,-20 -46,-21 -10,-16 -9,-17 5,-69 5,-69 h -17 -16 l -1,18 -1,17 -4,119 -3,118 -16,24 -15,24 h -16 -15 l -14,-34 -14,-33 9,-94 9,-94 6,-88 6,-87 -45,-45 -44,-45 h -14 -15 l -23,-25 -23,-25 h -39 -38 v 10 10 l -37,17 -38,16 -165,-2 -165,-2 -195,10 -195,9 -84,-8 -84,-9 -36,16 -36,17 -75,16 -75,15 -22,34 -23,34 v 24 23 l -9,18 -8,17 -17,32 -16,31 v 20 20 l -15,12 -15,12 v 18 18 l -26,31 -26,31 h -31 -32 l -90,-15 -90,-16 -30,-11 -30,-10 -70,-25 -70,-25 -10,-8 -10,-8 -62,-26 -62,-26 -76,-52 -77,-53 -36,-32 -37,-33 h -11 -11 l -59,-61 -59,-62 -24,-23 -24,-24 -41,-12 -41,-11 -130,2 -130,2 h -60 -60 l -265,-2 -265,-2 -278,5 -278,5 -10,10 -10,10 -4,139 -4,139 -6,15 -5,16 13,18 13,18 80,3 79,4 47,9 48,9 20,18 20,18 v 13 13 l -15,14 -15,15 -134,-5 -135,-6 -25,16 -25,17 -7,37 -6,38 -18,55 -17,56 -34,54 -33,55 -53,54 -54,54 8,8 8,8 120,3 120,3 48,-1 47,-1 z m -517,-14 57,-17 35,-22 35,-22 49,-54 50,-54 28,-40 28,-40 21,-64 21,-63 -11,-24 -11,-24 h -72 -73 l -11,8 -12,7 -38,70 -38,70 -10,23 -11,22 -19,6 -18,6 -45,32 -45,31 h -112 -113 l -24,-12 -24,-12 -45,-20 -45,-20 -36,-38 -37,-38 -13,-25 -12,-25 -7,-30 -6,-30 -24,-12 -25,-12 -12,-17 -13,-18 v -41 -42 l 24,-23 25,-23 15,-43 15,-43 31,-46 31,-45 54,-41 54,-41 38,-10 38,-11 83,-4 83,-4 47,22 47,23 5,6 5,5 59,50 59,50 24,53 23,53 v 23 24 l 14,11 14,12 98,-3 99,-3 2,-200 2,-200 20,-16 19,-16 219,-6 218,-7 h 278 277 v -5 -5 l -25,-75 -26,-75 9,-18 9,-17 6,-53 6,-53 23,-29 23,-29 32,-6 32,-7 3,-22 3,-21 35,-17 35,-18 h 46 47 l 38,15 39,16 23,11 23,12 34,46 33,45 11,39 10,39 32,33 31,32 -36,28 -36,29 v 12 12 l -20,34 -20,34 15,13 15,12 27,-8 28,-9 h 345 345 l 45,32 45,33 99,40 100,41 45,5 46,6 46,14 45,14 59,-20 58,-20 h 21 l 21,-1 19,-14 20,-15 h 35 36 l 28,-19 29,-19 291,4 292,3 212,5 213,5 5,-10 6,-9 h -20 -19 l -17,-6 -16,-6 -14,-29 -15,-28 v -53 -53 l 20,-30 19,-30 63,-10 63,-11 13,-27 14,-28 -16,-25 -16,-24 h -36 -36 l -26,-13 -27,-14 -46,-23 -46,-23 -15,9 -15,9 -67,61 -66,61 -6,61 -7,61 -18,17 -18,16 h -23 -23 l -47,-8 -47,-7 -17,-26 -18,-26 13,-155 13,-155 9,-16 8,-17 36,-6 36,-7 22,7 22,7 28,19 27,19 v 29 29 l 10,6 10,6 30,-30 30,-29 1,-19 1,-18 -2,-32 -1,-32 19,-19 19,-19 47,-6 46,-7 31,-15 30,-16 -3,-17 -3,-17 -65,-3 -65,-3 -110,11 -110,11 -275,10 -275,10 -70,7 -70,7 -1,118 v 118 l -17,16 -16,16 -48,9 -48,9 -120,14 -120,14 -70,10 -70,9 -47,13 -48,12 -24,-11 -25,-11 -16,-25 -16,-25 12,-114 13,-113 -7,-17 -6,-17 h -74 -74 l -15,-17 -16,-18 -17,-34 -17,-33 7,-48 7,-48 13,-19 13,-18 86,3 85,3 10,-19 10,-18 -6,-132 -6,-131 17,-27 18,-26 56,7 57,7 85,9 85,9 95,6 95,5 70,11 70,10 13,11 14,11 -7,141 -7,141 14,11 14,12 298,5 299,5 24,16 24,16 33,-11 33,-11 104,9 104,8 55,-14 55,-14 9,-8 9,-9 -39,-10 -39,-10 -45,-10 -45,-11 -30,-2 -30,-3 -3,-27 -3,-27 25,-44 26,-44 v -24 -24 l -8,-10 -7,-10 -28,-18 -29,-19 -13,5 -13,5 -7,94 -7,94 -8,14 -8,13 -38,-7 -39,-8 -20,-1 -20,-2 -25,-18 -24,-17 -1,-151 v -151 l 18,-12 17,-13 v -9 -9 l -97,-2 -97,-2 -38,-17 -38,-17 -5,-18 -6,-19 h -13 -14 l -13,-16 -14,-17 -40,-26 -40,-25 -63,-33 -63,-33 h -11 -10 l -26,-19 -27,-18 -80,-27 -80,-26 h -108 -109 l -85,30 -85,30 h -17 -18 l -99,58 -100,57 -84,83 -84,82 h -21 -21 l -54,-41 -55,-41 -3,-9 -4,-9 h -16 -17 l -44,-30 -44,-30 h -12 -12 l -18,-20 -18,-20 -38,-12 -39,-11 -16,-19 -17,-18 h -12 -12 l -27,-21 -27,-21 -15,6 -15,6 30,52 30,53 26,8 25,9 v 23 23 l -24,15 -23,16 -6,36 -6,36 -37,50 -36,50 -52,29 -51,30 h -57 -58 l -42,-16 -43,-17 -38,-36 -39,-36 -23,-46 -24,-47 4,-92 5,-93 20,-14 20,-14 v -19 -19 l 20,-11 20,-11 v -9 -10 h -34 -35 l -15,-16 -16,-15 v -9 -9 l 19,-10 19,-10 203,2 204,3 58,32 57,32 h 14 14 l 11,14 12,14 h 35 36 l 72,-73 71,-73 40,-25 40,-25 70,-51 70,-51 15,-6 15,-6 80,-38 80,-39 45,-11 45,-11 35,-11 35,-11 32,-14 31,-13 h 70 71 l 24,-9 25,-10 35,10 34,9 17,19 16,18 16,54 15,54 13,60 14,60 19,49 19,50 49,13 50,13 h 22 21 l 71,38 71,37 28,15 27,15 51,32 52,31 30,29 30,28 27,22 27,23 h 31 l 32,1 238,5 237,6 15,-12 15,-12 v -18 -17 l 73,-67 72,-66 30,-19 30,-18 57,-56 58,-57 -8,-152 -7,-153 v -55 -55 l 15,-2 15,-3 20,16 20,15 v 152 152 h 15 15 l 5,-97 5,-97 13,-13 13,-13 108,2 109,3 10,-13 11,-13 -9,-133 -8,-134 -17,-16 -16,-16 -187,-2 -187,-3 -340,-3 -340,-4 -225,-7 -225,-7 -85,-10 -85,-9 -190,-1 -190,-1 -95,-9 -95,-9 -115,-9 -115,-9 -23,21 -24,22 4,143 3,143 -15,9 -15,10 -25,7 -24,6 -56,-11 -55,-11 -230,-1 -230,-1 -64,43 -64,43 h -98 -98 l -28,-23 -28,-22 -45,-22 -45,-22 -382,-1 -383,-1 -9,-9 -10,-10 -5,-156 -5,-156 -12,-26 -11,-25 -22,-6 -21,-6 h -87 -86 l -16,6 -16,6 v 13 12 l 53,60 52,59 32,65 32,64 16,52 15,52 v 19 20 l 17,13 16,14 144,1 144,1 25,24 25,25 -6,16 -7,16 -13,6 -14,5 -151,2 -152,2 -13,13 -13,14 5,82 5,83 7,29 7,30 29,8 30,8 142,-1 142,-2 27,-28 28,-29 h 18 17 l 11,20 11,21 -10,32 -11,32 1,65 v 65 l 11,35 10,35 10,10 9,10 152,-3 152,-2 25,13 25,13 -1,29 -2,30 -6,533 -7,533 -12,37 -12,36 -23,6 -24,5 -421,-2 -422,-2 -293,-1 h -292 l -11,-27 -11,-28 11,-118 11,-118 -16,-32 -17,-32 -27,-40 -27,-40 -18,-86 -17,-87 16,-72 17,-72 21,-42 21,-41 23,-28 24,-29 v -135 -135 l 16,-34 16,-34 352,1 h 351 l 18,-6 17,-7 v -78 -78 l -37,-15 -38,-14 -37,-7 -38,-7 -10,-19 -10,-19 -1,-125 -1,-125 -12,-11 -13,-10 -55,-1 -54,-2 -22,7 -22,7 v 23 23 l -26,48 -27,47 -49,49 -49,49 h -14 -13 l -29,14 -28,14 -50,15 -50,16 -30,-5 -30,-5 -57,-11 -58,-11 -11,-13 -11,-14 h -14 -14 l -55,-57 -56,-57 -6,-25 -6,-26 -25,-32 -24,-33 h -23 -23 l -11,-14 -12,-15 -6,-53 -5,-54 13,-11 14,-11 30,-4 30,-3 15,-30 15,-30 37,-48 37,-49 43,-37 43,-38 45,-12 45,-12 45,-11 45,-11 60,12 59,13 42,24 42,25 56,53 55,53 7,29 7,29 12,15 13,15 4,20 3,20 52,3 51,3 34,-9 33,-8 3,-37 3,-38 -46,-84 -46,-84 -57,-58 -58,-59 -34,-20 -35,-20 -40,-11 -40,-11 -140,-12 -140,-11 -35,6 -35,7 -60,20 -60,21 -29,20 -29,20 -46,47 -46,47 -31,44 -32,44 -27,80 -27,80 -3,201 -3,202 -7,32 -7,31 29,42 28,42 6,5 6,5 19,40 20,40 -2,168 -2,168 -18,20 -17,19 h -14 -13 l -1,13 v 12 l 1,239 1,239 31,29 31,29 -6,117 -7,118 11,36 10,37 -33,48 -33,48 -20,39 -20,39 v 321 321 l 28,56 27,56 78,81 77,81 50,20 50,19 183,1 184,1 z m -6261,-13 8,-6 28,-41 28,-41 -1,-373 v -373 l -10,-12 -11,-13 -65,-33 -65,-32 -147,2 -147,3 -75,1 -75,1 -160,-7 -160,-7 -280,-1 h -280 l -108,6 -108,5 -39,-10 -40,-11 -10,-18 -10,-19 18,-20 17,-20 730,-8 730,-7 65,1 h 65 l 57,20 57,20 37,36 37,36 h 13 13 l 13,18 13,18 36,21 37,21 222,-2 223,-1 42,-43 42,-42 h 7 8 l 41,-44 42,-45 29,-11 29,-11 30,11 30,10 h 66 66 l 95,-16 95,-16 95,7 95,8 243,-1 243,-1 78,9 79,9 68,35 69,34 55,23 55,22 70,8 70,8 83,12 83,12 22,-10 22,-10 70,-21 70,-20 110,-47 110,-46 318,1 317,1 15,5 15,6 23,-6 24,-6 11,-37 11,-38 6,-115 5,-115 6,-65 6,-65 -20,-26 -20,-25 -12,-65 -12,-64 -8,-15 -7,-15 -152,1 h -151 l -13,13 -12,12 3,78 3,77 -20,18 -20,18 -101,-4 -100,-4 -23,-22 -22,-23 2,-53 3,-53 -14,-19 -14,-19 -90,-3 -90,-4 -21,11 -21,12 v 101 101 l -12,39 -11,38 -21,4 -21,4 -95,11 -95,12 -169,14 -169,15 -22,-14 -23,-15 -6,-46 -7,-45 6,-19 5,-18 9,-64 8,-64 8,-19 8,-19 -74,6 -74,7 -30,-8 -29,-8 -21,-53 -21,-52 4,-29 4,-29 25,-27 24,-26 57,3 57,2 34,-1 34,-2 -8,-112 -8,-113 1,-29 2,-30 19,-19 19,-19 h 23 l 24,-1 66,11 66,10 32,17 32,16 27,-3 27,-2 110,8 110,8 43,18 42,19 v 114 114 l 19,17 18,17 99,-3 99,-3 3,-91 3,-92 18,-16 18,-17 85,-6 84,-6 38,13 37,12 -2,99 -2,99 7,8 7,7 151,10 150,10 9,-6 9,-5 16,-85 15,-84 19,-40 19,-40 -8,-93 -8,-93 -15,-16 -16,-15 -243,-4 -244,-5 -64,-3 -64,-2 -47,-52 -48,-52 h -9 -10 l -24,-26 -24,-25 -23,4 -23,4 -10,-18 -10,-19 h -12 -12 l -60,-29 -60,-28 -51,-17 -52,-16 h -138 l -139,1 -50,17 -50,18 -60,28 -60,29 -35,16 -35,17 -42,28 -43,29 v 8 8 l -19,6 -19,6 -6,24 -6,24 -28,19 -27,19 -63,11 -63,11 -26,-10 -26,-10 -271,1 -271,2 -15,-6 -15,-6 -14,9 -14,9 26,31 25,31 7,30 7,30 9,5 9,6 v 37 37 l -11,44 -10,45 -31,47 -31,48 -31,16 -31,16 -25,15 -25,14 h -75 -75 l -50,-26 -49,-27 -18,-21 -19,-21 -29,-50 -30,-50 v -73 -73 l 15,-36 16,-37 16,-18 16,-18 -5,-6 -6,-5 -23,-1 -24,-2 -702,2 -703,2 v 33 33 l -12,12 -12,12 h -81 -80 l -22,6 -22,6 -5,17 -5,16 7,55 8,55 58,63 59,62 13,26 13,25 6,47 6,47 -19,60 -20,60 -15,40 -15,39 -21,10 -21,9 -5,18 -6,17 -24,16 -25,16 v 34 34 l 95,7 95,7 15,28 14,28 -3,89 -2,89 -7,11 -7,11 -69,13 -70,12 -143,-11 -143,-10 -17,-7 -16,-6 -7,-27 -7,-27 -9,-12 -10,-11 -102,3 -102,3 -205,7 -205,7 -12,10 -13,10 v 25 24 l -37,15 -37,16 -57,-11 -57,-12 -47,12 -46,12 -82,-6 -82,-5 -30,-16 -30,-15 -7,-18 -7,-18 v -70 l -1,-71 17,-24 17,-25 16,-13 15,-12 70,1 70,1 11,-1 12,-1 7,-55 6,-55 -20,-33 -20,-32 -25,-22 -25,-22 -6,-28 -6,-28 -12,-20 -12,-20 v -90 -90 h -221 -221 l -16,-13 -16,-14 v -166 -165 l -11,-11 -10,-10 -102,-7 -103,-8 -52,-15 -51,-14 -19,-11 -20,-10 -104,-6 -104,-7 -36,-23 -37,-24 -60,-7 -61,-6 -25,-27 -25,-26 -27,-75 -26,-75 -48,-100 -48,-100 -11,-37 -12,-36 -14,-12 -14,-12 -143,12 -143,11 -250,9 -250.0001,9 -86,11 -85.0004,10 h -135.0002 -134 l -55,9 -55,9 -285,7 -285,7 -11,9 -11,9 -119,36 -119,35 -85,30 -85,30 -55,15 -55,14 -20,10 -20,10 -40,9 -40,10 -55,14 -55,15 -75,25 -75,26 -135,41 -135,40 -30,11 -30,11 -35,9 -35,9 -55,17 -55,16 -20,8 -20,8 -90,29 -90,30 -65,17 -65,18 -25,13 -25,13 -27,5 -27,6 -5,18 -5,17 -3,153 -2,152 11,11 10,10 38,-3 38,-3 7,-15 8,-15 26,-66 27,-66 42,-39 42,-40 25,-15 25,-16 53,-17 52,-18 h 53 l 54,-1 39,13 39,12 50,23 50,23 42,41 43,41 15,54 16,54 17,15 17,15 63,7 63,7 14,29 15,28 v 31 30 l -20,20 -20,20 h -59 -59 l -30,53 -30,52 -43,42 -44,43 -48,25 -48,25 -83,9 -82,10 -35,-8 -34,-8 -40,-21 -40,-22 h -10 -10 l -47,-52 -48,-53 v -18 -18 l -15,-29 -15,-29 -18,-9 -17,-9 -50,6 -50,6 v 150 l 1,150 6,26 7,25 69,27 70,27 h 14 13 l 115,41 115,41 65,19 65,18 45,15 45,15 75,21 75,22 55,20 55,20 36,8 35,9 30,16 29,15 h 12 12 l 56,25 56,24 13,-5 13,-5 74,24 74,25 59,26 58,26 h 24 24 l 37,20 38,20 h 15 l 15,1 19,14 20,15 h 20 21 l 95,31 95,32 20,8 20,8 82,11 81,12 10,-6 10,-6 48,9 49,10 90,1 90,2 235,14 235.0002,14 220.0004,14 220.0001,15 115,-1 h 115 l 102,12 103,11 35,-7 35,-6 16,-37 16,-36 14,-25 15,-25 35,-70 35,-70 22,-37 23,-37 17,-19 18,-19 107,-7 107,-6 145,-11 145,-12 65,-4 65,-5 585,-1 585,-2 13,9 12,8 v 18 17 l -21,19 -21,19 3,240 3,240 -4,203 -4,202 17,18 18,17 57,-3 57,-2 h 285 285 l 460,8 460,9 h 77 77 z m 1487,-10 56,-20 22,-15 22,-16 h 24 23 l 20,-10 19,-11 v -12 -13 l -50,-54 -51,-53 -45,-7 -46,-7 -48,38 -48,38 -7,10 -6,11 11,19 10,20 -10,27 -11,27 16,23 15,24 h 14 13 z m -251,-48 5,-48 -9,-17 -9,-17 32,-3 33,-3 v -15 -15 l -28,-3 -27,-3 -6,18 -7,18 -28,25 -29,25 10,34 10,35 12,8 13,8 h 11 11 z m -3136,-308 3,-330 10,-85 9,-85 6,-21 6,-20 -38,-12 -38,-11 -410,-2 -410,-2 h -25 l -25,-1 -185,13 -185,12 -105,11 -105,11 -72,4 -73,5 -34,51 -34,52 -21,47 -21,47 v 9 10 l -14,11 -15,12 -6,32 -7,32 -26,35 -26,35 -10,8 -11,8 -142,-5 -142,-6 -26,-10 -26,-10 h -147 -147 l -135.0001,-11 -135,-11 -90.0004,-3 -90.0002,-2 -125,-7 -125,-6 -205,-11 -205,-10 -109,-15 -110,-14 -52,15 -53,15 -158,3 -159,2 -26,-17 -27,-18 h -17 -16 l -52,-16 -51,-17 -25,-10 -25,-11 -45,-14 -45,-13 -50,-9 -50,-8 -45,-15 -45,-15 -115,-27 -115,-27 -10,-8 -10,-7 -46,-6 -47,-6 -33,-15 -34,-14 -40,-11 -40,-10 -203,-51 -202,-50 h -23 -23 l -19,-14 -20,-13 -65,-6 -65,-6 -53,-20 -53,-20 -57,-6 -57,-7 -31,-14 -31,-15 -54,-10 -54,-10 -40,-8 -40,-8 -70,-22 -70,-23 -123,-40 -123,-40 -16,-24 -15,-24 6,-28 7,-27 9,-110 9,-110 10,-45 10,-45 v -185 l 1,-185 -10,-67 -10,-67 6,-15 6,-15 25,-16 26,-17 66,-20 66,-20 45,-14 45,-13 110,-31 110,-31 30,-13 30,-14 40,-6 40,-7 40,-13 40,-14 52,-17 52,-17 58,-13 58,-14 122,-35 122,-35 20,-10 20,-11 h 30 30 l 53,-21 53,-22 60,-13 60,-13 56,-14 55,-14 22,-12 21,-11 h 22 22 l 16,-13 16,-13 55,-14 55,-13 59,-18 59,-19 h 29 29 l 52,-24 52,-23 45,-7 44,-7 73,-25 73,-25 50,-8 50,-8 143,14 142,13 90,12 90,11 h 55 55 l 165,-13 165,-13 35,-2 35,-3 285,-11 285.0006,-11 100,-10 100.0001,-9 85,-1 h 85 l 40,-10 40,-10 170,-5 170,-5 41,-6 41,-6 57,63 57,63 5,26 5,25 23,50 24,50 36,77 36,77 v 20 21 l 19,19 19,19 58,22 59,22 17,15 17,15 15,-5 15,-6 81,20 81,19 h 28 27 l 9,9 10,9 60,23 60,22 245,4 245,4 24,-6 23,-6 -5,-20 -6,-20 19,-19 18,-18 224,-7 225,-7 21,6 22,7 2,-498 3,-498 -10,-13 -9,-14 -111,6 -110,7 -90,9 -90,10 -339,5 -339,5 -8,5 -8,5 -168,6 -168,6 -130,4 -130,5 -105,4 -105,4 -235,10 -235,11 -205.0001,10 -205,11 -235.0006,9 -235,9 -46,6 -45,6 -320,9 -319,9 -100,10 -100,11 -200,10 -200,11 -100,10 -100,10 -120,4 -120,4 -140,10 -140,11 -105,10 -106,10 h -103 -102 l -20,11 -21,11 -136,8 -137,9 -35,10 -35,11 h -76 -76 l -97,15 -97,14 -102,6 -102,6 -50,9 -50,9 -60,12 -60,12 -65,8 -65,8 -80,15 -79,15 -41,-5 -40,-5 -44,15 -44,16 h -49 -50 l -31,15 -32,14 -85,4 -85,5 -90,17 -90,17 -80,14 -80,14 -95,11 -95,11 -49,14 -50,14 h -40 -41 l -90,25 -90,25 h -24 -25 l -30,9 -31,9 -60,12 -60,12 -95,18 -95,19 -64,15 -64,15 -10,10 -11,11 h -45 -45 l -41,14 -40,14 -80,17 -80,16 -25,11 -25,11 -35,7 -35,8 -55,16 -55,17 -65,10 -65,11 -33,14 -33,14 h -32 -33 l -19,13 -18,14 7,11 7,12 h 16 15 l 67,68 66,69 34,56 33,57 3,71 3,72 -12,41 -13,42 -26,26 -25,26 -13,41 -12,42 31,32 31,32 16,44 15,44 v 66 67 l -15,59 -16,60 -24,37 -25,37 -59,48 -60,48 -23,17 -23,16 12,12 11,12 59,14 58,14 100,24 100,24 161,41 161,41 70,10 69,9 39,17 39,16 45,8 46,7 50,13 50,12 50,13 50,14 55,10 55,10 90,20 90,20 33,-6 34,-6 26,20 27,20 85,6 85,6 28,10 28,11 87,11 87,11 90,8 90,9 75,21 75,21 98,9 99,10 10,6 10,7 117,13 116,14 160,25 160,25 110,11 110,10 135,19 135,19 105,11 105,11 38,10 38,10 122,9 122,9 142,15 142,14 12,7 11,7 67,4 66,3 95,10 95,11 190,10 190,10 61,10 61,10 h 126 125 l 79,15 78,15 h 57 56 l 129,15 128,15 35,-1 35,-1 90,12 90,13 120,3 120,2 85,11 85,11 220,10 220.0002,10 19,6 18,6 232.0004,9 231.0001,9 355,14 355,14 180,11 180,11 185,16 185,15 200,5 200,4 160,8 160,9 95,-1 95,-1 z m 9702,322 11,-14 -7,-6 -6,-7 h -24 -23 v 13 14 l 7,6 6,7 h 12 13 z m 4039,-32 13,-12 9,-124 8,-124 v -122 l 1,-122 -17,-5 -17,-6 -180,-6 -180,-7 -194,2 -193,2 -24,10 -24,9 -11,27 -11,28 10,15 9,15 34,12 34,12 h 56 l 57,1 22,18 22,18 5,164 5,164 9,22 8,23 33,4 33,4 235,-4 235,-5 z m 373,-14 71,-9 32,5 31,5 195,-16 196,-16 h 89 l 90,1 230,-16 230,-15 360,-15 360,-15 200,-15 200,-14 95,-6 95,-6 185,-14 185,-14 195,-11 195,-11 140,-10 140,-11 180,-8 180,-8 50,-6 50,-6 299,-16 299,-15 28,-22 28,-22 11,-37 11,-37 9,-6 9,-6 52,-97 52,-97 34,-52 33,-53 33,-52 34,-53 47,-78 46,-77 35,-46 35,-46 v -11 -11 l 19,-20 19,-21 42,-75 42,-75 26,-21 25,-21 1,-89 1,-89 h -70 l -70,1 -230,7 -230,7 -12,17 -13,17 v 116 117 l -18,16 -18,17 -110,14 -109,15 -102,4 -103,3 -24,23 -25,23 -3,36 -3,35 -40,15 -40,15 -230,5 -230,4 -27,14 -27,14 h -20 -20 l -43,29 -44,30 -29,7 -30,7 -29,14 -28,15 -47,13 -46,13 -55,22 -55,22 -40,11 -39,10 -65,34 -65,33 h -12 -12 l -60,30 -61,30 h -24 -24 l -49,21 -49,20 -25,11 -25,10 -30,13 -30,14 -107,45 -107,46 h -6 -7 l -31,14 -32,15 -85,21 -85,21 -75,25 -75,24 -113,9 -113,9 -102,-9 -102,-9 -75,-20 -75,-21 -36,-9 -35,-9 -70,-31 -69,-31 -43,-20 -43,-19 -65,-56 -66,-55 -24,-9 -24,-9 h -234 -234 l -13,15 -12,15 -70,47 -71,47 h -210 -211 l -8,238 -8,238 11,14 12,14 94,-5 94,-5 z m -4450,-41 19,-11 v -14 -15 h -14 -14 l -12,-15 -12,-15 h -9 -8 l -11,20 -11,20 11,20 11,20 h 15 15 z m -6891,-66 v -34 h -14 -14 l -6,15 -5,15 9,26 10,25 10,-6 10,-6 z m 132,34 15,-13 13,-48 13,-48 -4,-4 -4,-3 -35,7 -35,7 -3,23 -4,24 7,33 6,34 h 8 7 z m 106,-21 4,-18 -12,-14 -12,-15 h -19 -19 v 23 23 l 12,12 13,13 15,-3 15,-3 z m 750,0 3,-17 -16,-6 -16,-7 -11,11 -11,11 7,16 6,16 17,-3 18,-3 z m 4278,-13 52,-15 18,-20 18,-20 -14,-10 -15,-9 -155,5 -155,6 -8,8 -8,8 6,14 5,14 43,22 42,22 60,-5 60,-5 z m -4858,-51 -10,-13 -9,6 -9,5 11,21 11,21 9,-14 8,-13 z m 4611,-103 44,-12 -16,-15 -15,-16 -62,2 -62,1 -9,6 -9,5 v 24 24 l 17,10 18,9 25,-14 25,-13 z m 415,8 16,-22 v -13 -12 l -21,-11 -20,-11 -105,7 -105,7 3,21 3,21 75,5 75,5 20,12 20,12 12,1 h 12 z m 10986,-43 175,-14 40,-10 40,-11 h 46 46 l 49,-15 49,-15 h 70 70 l 140,-15 140,-16 75,-10 75,-10 75,-9 75,-8 75,-10 75,-11 47,-10 47,-11 103,-6 103,-6 80,-13 80,-14 27,-10 27,-10 93,-6 93,-7 79,-14 78,-14 h 42 41 l 105,-16 105,-16 70,-14 70,-13 85,-11 85,-10 55,-11 55,-11 55,-9 55,-10 65,-14 65,-15 h 32 32 l 28,-12 28,-11 55,-8 55,-7 86,-15 86,-16 119,-32 119,-32 45,-9 45,-9 30,-9 30,-8 50,-7 50,-6 75,-30 75,-30 17,-9 18,-10 h 12 13 l 38,-11 37,-10 v -14 -14 l -8,-5 -8,-5 -149,-11 -150,-12 -22,-4 -21,-4 -47,-45 -46,-45 3,-38 3,-37 50,-34 50,-33 85,7 85,8 105,1 105,1 35,14 35,14 27,26 27,26 1,32 v 32 l -12,26 -11,26 10,10 10,10 49,-12 49,-11 41,-19 41,-19 h 11 11 l 43,-19 43,-19 74,-31 74,-31 h 8 9 l 132,-65 133,-66 15,-8 15,-9 77,-36 78,-35 12,-27 12,-26 -23,-19 -24,-19 -26,-6 -26,-5 -50,-21 -50,-21 -75,-25 -75,-25 -80,-30 -80,-30 -94,-34 -94,-33 -11,-9 -11,-8 -55,-18 -55,-18 -47,-25 -46,-26 -16,13 -15,13 -3,40 -3,41 -25,18 -25,18 -115,11 -115,11 -40,9 -40,10 h -76 -76 l -26,-20 -25,-20 h -11 -11 l -20,-39 -20,-40 9,-23 9,-23 34,-31 33,-31 34,-12 34,-11 h 72 72 l 47,-6 47,-7 -3,-16 -3,-15 -75,-27 -75,-27 -75,-16 -75,-17 -45,-15 -45,-16 -40,-8 -40,-8 -65,-21 -65,-22 -65,-15 -65,-15 -45,-8 -45,-8 -60,-11 -60,-12 -100,-16 -100,-17 -45,-4 -45,-4 -20,-9 -20,-8 -70,-13 -70,-12 -90,-3 -90,-3 -50,-11 -50,-12 -85,-14 -85,-15 -105,-21 -105,-21 -40,-8 -40,-8 -78,-15 -78,-15 -13,5 -14,5 -53,-16 -54,-17 -20,-8 -20,-7 -60,-12 -60,-12 -65,-14 -65,-13 -100,-17 -100,-16 -97,-20 -97,-19 h -43 -43 l -70,-15 -70,-15 h -51 -51 l -43,-15 -43,-15 h -46 -46 l -70,-15 -70,-15 h -55 -55 l -60,-10 -60,-10 -120,-15 -120,-15 -60,-9 -60,-9 -35,-7 -35,-6 -18,13 -17,13 49,70 49,70 45,55 44,55 13,25 13,25 32,40 32,40 16,30 15,30 36,37 36,37 21,40 21,41 h 9 10 l 12,28 12,28 45,58 45,58 38,39 37,40 1,22 1,22 v 125 l -1,125 11,12 10,13 h 60 59 l 34,14 33,14 11,20 11,21 v 16 15 l -24,10 -24,9 -7,10 -6,11 -20,-10 -19,-11 -68,3 -67,3 3,50 2,50 -6,83 -6,82 -15,16 -16,16 -23,31 -23,32 -17,30 -17,30 -31,37 -31,37 -28,38 -27,38 -43,55 -43,55 -30,42 -29,42 -64,91 -64,90 h -9 -9 l -6,18 -7,17 -37,45 -37,45 -15,30 -15,30 -21,19 -21,19 v 20 20 l 83,-7 82,-7 z m -11842,-146 3,-126 -15,-12 -14,-12 -106,-1 -106,-1 -7,7 -7,7 3,127 3,127 5,8 5,8 116,-3 117,-3 z m 3740,65 22,-15 v -13 -14 l 15,-28 15,-29 -2,-41 -1,-40 26,-39 26,-38 -5,-9 -5,-8 h -38 -39 l -98,-25 -97,-26 -26,-14 -26,-13 -45,-22 -45,-21 -45,-24 -45,-25 -45,7 -45,6 -152,-2 -151,-2 -7,11 -7,12 43,45 44,45 65,53 65,52 30,17 30,17 30,19 30,20 28,11 27,11 v 8 9 l 23,6 22,6 30,14 30,14 85,25 85,25 52,6 53,7 6,9 5,9 h 7 8 z m 4917,-49 110,-27 51,-24 51,-24 h 19 19 l 30,-20 30,-20 h 16 15 l 43,-21 42,-20 67,-23 67,-24 65,-25 65,-25 55,-23 55,-22 45,-20 44,-19 184,-69 185,-69 h 8 9 l 85,-40 85,-40 h 11 11 l 76,-32 77,-32 250,-6 250,-5 3,-16 3,-16 -16,-7 -16,-6 -17,9 -17,9 -85,-8 -85,-8 -122,-12 -122,-12 -43,15 -43,15 -147,11 -147,11 -69,35 -70,35 h -15 -15 l -12,14 -12,15 -36,12 -37,12 -91,47 -90,46 -111,47 -111,47 -124,58 -123,59 -97,47 -98,46 h -491 -491 l 4,13 4,12 71,36 71,36 77,18 76,18 82,13 82,12 125,-3 125,-3 z m -11627,-28 11,-13 37,-74 36,-75 18,-20 18,-20 6,-22 7,-22 -21,-11 -20,-11 -21,11 -20,11 -46,-15 -47,-16 h -36 -36 l -74,-26 -75,-25 -20,-6 -20,-6 -15,-12 -15,-13 -37,-15 -37,-16 -201,-2 -200,-2 -8,7 -7,7 50,47 50,47 60,50 60,51 55,34 55,33 58,34 59,33 h 11 12 l 30,16 30,15 50,11 50,11 45,7 45,7 46,2 47,1 z m 3845,6 5,-8 -5,-32 -5,-33 h -22 l -21,1 -19,14 -20,15 h -37 -37 l -12,15 -12,14 7,11 6,10 h 84 84 z m -395,-25 3,-17 -25,-6 -26,-5 -25,-5 -25,-5 v -24 -24 l 31,-13 32,-13 173,1 173,1 5,-13 5,-13 -22,-20 -22,-19 -46,-27 -46,-26 h -69 -69 l -41,15 -42,14 -33,19 -34,19 -48,61 -48,61 11,21 11,21 22,8 22,9 65,-2 65,-1 z m -11831.0007,-102 7,-6 -10,-10 -9,-9 -135,-46 -135,-46 -40,-8 -40,-7 -20,-11 -20,-11 -70,-20 -70,-21 -45,-15 -45,-16 -16,-9 -17,-10 -38,-7 -39,-7 -10,-7 -10,-8 -45,-10 -45,-10 -85,-31 -85,-32 -85,-23 -85,-24 -30,-10 -30,-10 -60,-18 -60,-17 -30,-13 -30,-13 -140,-46 -140,-47 -15,-13 -15,-13 -120,-15 -120,-16 -122,-6 -122,-6 -141,-14 -141,-15 -57,-19 -56,-19 -8,-19 -7,-18 6,-87 6,-88 -13,-15 -12,-15 h -14 -14 v 143 142 l 8,11 7,11 50,16 50,16 95,22 95,21 50,13 50,14 95,24 95,25 120,27 120,27 40,14 41,14 h 26 27 l 28,11 28,12 60,14 60,14 55,14 55,14 55,15 55,15 55,15 55,15 120,32 120,31 40,8 40,7 60,19 60,19 3,7 4,8 h 37 37 l 20,15 19,14 25,1 h 26 l 57,20 57,20 h 18 18 l 64,25 64,25 h 26 26 l 19,14 20,14 20,4 20,5 88,-3 88,-2 z m 18277.0007,-17 45,-21 26,-26 27,-27 15,-28 14,-28 -3,-27 -3,-27 h -20 -20 l -6,39 -6,38 -14,9 -14,9 -15,-3 -14,-2 -9,-43 -8,-42 h -24 -24 l -11,20 -11,20 h -20 -20 l -42,-28 -42,-29 -18,-6 -18,-7 -34,27 -34,28 -11,26 -11,26 -50,22 -49,23 -39,-7 -40,-7 -19,11 -20,11 -10,-13 -10,-12 -11,-42 -12,-43 -18,-9 -17,-10 -335,-1 -334,-2 -45,-2 -45,-2 -32,12 -33,13 v 30 30 l 9,23 9,24 48,38 49,38 110,-7 110,-7 h 45 45 l 265,9 265,8 222,-2 223,-3 z m 1694,-53 213,-5 32,-19 32,-20 158,-81 157,-81 h 13 12 l 135,-66 135,-65 20,-11 19,-11 46,-25 45,-24 25,-14 25,-14 h 13 12 l 79,-40 79,-39 119,-11 118,-10 111,-16 112,-16 103,16 104,15 75,7 76,6 13,-16 13,-15 4,-376 5,-377 -11,-13 -10,-12 -48,8 -47,9 -60,16 -60,16 -165,-5 -165,-4 -80,-11 -81,-10 -49,-26 -50,-25 -45,-21 -45,-20 -25,-14 -25,-14 -30,-15 -30,-15 -69,-33 -68,-34 -31,-17 -30,-17 -10,-10 -11,-11 h -17 -16 l -46,-25 -46,-24 -68,-26 -68,-26 -60,-26 -60,-25 -22,-14 -22,-14 h -14 -15 l -12,-15 -12,-15 h -17 -16 l -25,-15 -25,-14 -33,-15 -34,-16 -530,-1 -530,-2 -32,-7 -32,-7 -19,7 -20,8 -30,31 -30,30 -22,1 h -22 l -6,11 -7,10 -207,-3 -206,-3 3,105 4,105 3,3 3,4 h 46 l 45,1 19,21 19,21 12,89 11,89 -5,7 -4,7 -5,480 -4,479 -22,45 -23,44 -11,7 -11,8 h -42 -43 l -6,24 -6,25 -1,88 -2,88 240,-3 240,-3 55,30 55,30 340,-5 340,-4 z m -8625,-35 10,-10 -6,-14 -5,-14 -39,-6 -38,-6 -292,-2 -291,-1 -12,7 -11,7 7,21 7,22 7,5 8,5 323,-2 323,-3 z m 6580,-128 72,-77 43,-43 43,-44 25,-10 25,-9 h 193 194 l 12,-15 13,-15 5,-538 5,-537 -18,-15 -18,-15 h -194 -194 l -51,-55 -50,-55 -25,-37 -26,-38 h -8 -8 l -6,-19 -6,-19 -37,-26 -38,-26 h -41 -41 l -4,13 -5,12 8,250 8,249 -5,7 -4,7 v 315 315 l 11,26 12,25 -17,35 -16,34 v 119 l -1,118 -8,41 -8,41 9,24 9,23 12,8 12,8 h 23 23 z m -7339,-65 v -87 l -8,-8 -8,-8 h -390 -391 l -11,17 -11,17 11,11 11,11 h 294 294 l 43,11 43,11 52,58 52,59 9,-3 9,-3 z m 739,58 27,-6 v -17 -17 l 21,-45 21,-46 14,-27 14,-26 3,-139 2,-138 -140,-2 -140,-2 -140,-5 -140,-6 -80,-5 -80,-5 -25,13 -25,13 2,223 2,224 8,8 9,9 174,2 175,3 136,-1 136,-1 z m 6338,-26 h 36 v -32 l 1,-33 3,-102 3,-103 -16,-16 -16,-16 -87,-2 -86,-2 -6,9 -6,9 73,67 73,67 -7,22 -7,22 h -10 -10 l -35,-15 -34,-14 -85,-85 -84,-85 -35,-6 -35,-7 -9,6 -10,6 -203,1 h -204 l -17,16 -18,16 v 127 127 l 24,11 25,11 332,1 h 333 l 5,6 6,6 35,-6 35,-6 z m -899,-75 7,-50 -2,-83 -2,-83 -15,-9 -15,-10 h -27 -28 v 113 112 l 20,33 21,33 17,-3 17,-3 z m 1508,30 12,-14 -7,-11 -6,-10 h -24 -24 l -7,12 -7,11 18,14 19,13 h 7 7 z m 135,-4 v -14 l -17,-11 -17,-11 -12,12 -12,12 7,16 6,16 22,-3 23,-3 z m -4540,-23 31,-21 18,-30 17,-30 -13,-13 -13,-12 -45,7 -45,6 -10,40 -10,40 -8,12 -8,13 -19,-13 -20,-12 v -18 -18 l -10,-20 -11,-19 -27,-14 -27,-14 -30,-2 -30,-2 -19,1 -18,1 6,26 7,26 31,39 32,39 30,10 31,9 65,-5 65,-5 z m 2691,3 9,-9 25,-4 25,-3 v -25 -25 h -21 l -22,-1 -15,-13 -16,-13 -11,7 -10,6 v 38 38 l 7,6 6,7 h 7 6 z m -12628,-139 4,-13 -12,-14 -12,-14 -61,5 -62,6 -18,-14 -19,-14 -7,-34 -7,-35 -49,-8 -49,-8 -23,6 -23,5 1,38 1,37 7,30 6,30 30,6 30,7 129,-2 130,-2 z m 6648,-13 16,-17 6,-127 5,-127 28,-26 29,-27 2,-50 3,-50 h -40 -40 l -13,45 -13,45 -17,38 -16,38 -30,22 -31,21 -18,17 -18,17 -42,10 -42,11 -60,7 -60,6 -28,15 -29,14 -55,9 -56,9 -75,-15 -76,-16 -58,-29 -59,-30 -9,6 -10,6 v 82 82 l 6,20 5,20 389,-5 389,-5 z m 5565,-22 12,-42 v -84 l -1,-84 -13,-8 -14,-9 -10,3 -10,4 -3,114 -3,114 6,23 6,23 9,-6 9,-6 z m -11063,21 13,-11 -3,-56 -3,-56 -40,-3 -40,-3 -11,-10 -11,-9 -16,6 -16,6 -22,46 -23,47 -10,7 -11,8 h -58 -58 l 3,17 3,18 29,5 29,5 116,-3 116,-4 z m 8267,-20 7,-6 4,-121 3,-120 -8,-5 -8,-5 -44,32 -44,32 -13,12 -13,13 h -48 -48 l -35,28 -34,27 -17,17 -17,17 -21,6 -20,7 -40,-28 -40,-27 -72,17 -72,16 h -295 -295 l -30,-8 -30,-9 -52,-23 -53,-22 -15,12 -16,13 7,61 7,61 4,7 4,8 669,-3 668,-2 z m -19405.0007,-19 45,-10 47,-31 48,-30 31,-39 31,-39 18,-51 19,-51 2,-51 1,-52 -7,-40 -8,-40 -12,-15 -13,-15 -21,-42 -21,-42 v -11 -11 l 45,-95 45,-94 v -87 -86 l -15,-16 -15,-16 -49,-61 -50,-60 -38,-26 -38,-26 -47,-11 -47,-11 -82,20 -82,19 -11,11 -10,10 h -12 -12 l -34,33 -33,32 -22,45 -23,45 v 20 20 l 8,12 7,11 h 48 l 47,-1 9,-11 8,-11 8,-50 7,-50 10,-12 10,-13 h 9 8 l 15,16 16,15 v 33 33 l 6,6 7,6 28,-14 28,-15 33,6 33,6 12,15 11,15 74,12 73,12 3,18 4,19 -14,8 -13,9 h -45 -45 l -39,20 -38,21 -56,-3 -57,-3 -1,52 -1,52 -13,16 -12,15 h -19 -18 l -15,-22 -16,-22 v -53 -53 l -22,-9 -23,-8 -38,5 -37,4 -6,10 -6,9 13,52 12,52 39,56 38,56 v 19 19 l -39,38 -39,38 -10,29 -11,29 12,9 12,10 49,-1 49,-2 8,-15 9,-15 10,-27 10,-28 h 19 20 l 6,19 6,19 13,11 14,12 40,-9 40,-10 42,19 42,19 47,1 46,1 25,7 25,7 3,21 3,22 -19,10 -19,10 -44,2 -44,3 -51,28 -51,28 h -12 -13 l -25,-20 -25,-20 -9,6 -9,5 v 29 30 l -27,30 -28,31 -18,-13 -17,-13 -8,-60 -7,-60 -55,-6 -55,-6 -12,4 -11,5 -6,13 -5,14 23,63 22,63 23,37 22,37 22,7 22,6 20,18 20,17 20,6 20,6 55,20 55,20 h 15 l 15,1 z m 19720.0007,1 h 39 l 33,-30 32,-30 h 53 52 l 21,30 21,30 h 10 9 v -21 -21 l -30,-35 -30,-34 v -8 -7 l -57,-24 -56,-23 -44,11 -43,12 h -18 -18 l -38,67 -38,66 18,14 18,13 14,-5 14,-5 z m 13868,-36 22,-4 v -20 -19 l -52,-15 -53,-14 -126,-5 -125,-6 -13,8 -13,8 4,19 3,19 40,3 40,3 12,10 12,10 48,8 48,7 65,-3 65,-4 z m -23058,-15 h 265 l 53,-6 53,-5 9,-22 8,-21 10,-435 10,-434 -5,-14 -6,-13 -71,1 -71,1 -325,-7 -325,-6 -112,-2 -112,-1 -12,12 -11,11 -4,284 -3,283 -6,177 -6,176 23,17 23,17 175,-6 175,-6 z m -10930.0007,-57 v -7 l -27,-40 -28,-40 -4,-30 -4,-30 -1,-80 -1,-80 27,-56 27,-56 16,-13 15,-12 v -16 -15 l -31,-63 -30,-63 -2,-98 -2,-98 9,-40 9,-40 14,-8 13,-8 v -19 -20 h -22 l -23,1 -50,24 -50,25 h -10 -10 l -38,20 -37,20 h -17 -18 l -83,40 -83,40 h -20 -20 l -23,25 -23,25 h -19 -19 l -30,20 -30,20 h -29 -29 l -42,21 -43,21 -21,47 -22,46 -10,17 -9,18 v 23 23 l 19,40 19,39 22,23 21,22 h 14 15 l 37,33 38,34 95,47 95,48 59,19 59,19 h 15 15 l 106,54 106,54 35,15 35,16 h 13 l 12,1 z m 23693.0007,-10 88,-9 55,-39 56,-38 16,-24 17,-24 22,-23 23,-22 21,-49 22,-48 8,-73 8,-73 -25,-77 -25,-77 -46,-54 -46,-54 -46,-28 -45,-29 -181,-1 -180,-1 -162,-8 -161,-8 -57,9 -58,9 -21,11 -21,11 -62,55 -63,56 v 21 21 l 12,12 12,12 h 42 42 l 16,-6 16,-6 v -35 -34 l 10,-18 9,-19 63,-15 63,-16 275,-4 276,-4 21,-13 20,-13 17,6 16,6 11,28 10,27 -2,298 -2,298 -15,12 -15,13 -66,-2 -66,-1 -140,-6 -140,-5 -163,-5 -164,-5 -14,-18 -13,-18 -1,-31 v -32 l -16,-13 -16,-13 h -46 l -46,-1 -4,16 -3,16 26,31 26,31 61,41 61,40 21,5 21,5 50,4 50,3 15,-8 15,-7 25,13 25,14 190,-4 190,-4 z m 4931,-89 6,-108 4,-48 3,-47 -13,-18 -14,-17 -10,15 -10,15 -2,60 -2,60 -1,80 -1,80 4,18 3,17 h 14 13 z m -4464,72 9,-24 2,-310 1,-310 -6,-10 -7,-10 -66,2 -67,3 -4,13 -4,13 21,29 21,28 v 11 11 l 19,42 19,42 7,45 7,46 -16,84 -16,85 -21,41 -20,42 -50,57 -50,57 4,11 3,11 25,7 24,7 78,1 77,1 z m -2645,-5 6,-10 h 19 19 l 11,-20 11,-20 h 20 20 l 6,-16 6,-17 -11,-18 -12,-19 v -11 -11 l 21,-17 21,-17 -17,-14 -18,-15 -14,22 -14,21 -27,-14 -27,-14 h -22 -22 l -12,21 -11,21 -3,79 -3,79 h 23 24 z m -1942,-86 87,-87 v -22 -23 l -24,-6 -25,-6 -25,12 -26,11 v 7 7 l -56,83 -55,83 5,13 5,14 h 13 13 z m -14879.0007,58 5,-8 6,-140 6,-139 -8,-12 -8,-11 -135,-5 -135,-5 -18,-7 -18,-7 -9,-19 -10,-18 v -24 -25 l 28,-18 27,-18 132,-1 h 132 l 10,-10 10,-10 2,-149 1,-148 -28,-19 -29,-19 h -28 -29 l -25,19 -24,20 -15,-6 -14,-5 -14,11 -14,12 -73,9 -74,9 -55,10 -55,10 -65,11 -65,10 -75,5 -75,5 -17,21 -18,21 v 97 96 l -11,185 -10,185 16,11 16,12 87,7 87,6 165,9 165,9 93,11 94,11 21,9 22,9 h 12 l 12,1 z m 14428.0007,-14 15,-13 17,-25 16,-24 v -8 -8 l -23,5 -23,6 -12,-25 -12,-26 h -10 -10 v -15 -15 l 43,6 43,6 12,-15 13,-15 -7,-26 -6,-27 -47,3 -46,3 -3,-32 -3,-33 h -14 -14 l -26,33 -26,32 -16,-22 -15,-23 h -19 -19 v 18 19 l -6,6 -6,6 -14,-6 -14,-5 6,-23 6,-23 -19,-10 -18,-10 -37,3 -38,2 -22,16 -23,16 19,16 20,15 h -12 -12 v 19 20 l 21,6 21,7 9,-13 8,-13 -10,-18 -10,-18 h 13 13 l 24,19 24,18 -6,17 -6,16 h -16 -16 l 3,17 3,18 18,3 17,3 10,-26 10,-26 17,-6 18,-7 11,-14 11,-15 37,29 36,29 v 13 12 l -25,12 -25,11 v 15 15 l -17,20 -18,20 10,4 10,4 40,18 40,19 36,1 35,1 z m 10790,-125 3,-58 h -15 -15 l 1,23 v 22 l 3,78 3,77 8,-42 9,-42 z m -10674,105 -4,-12 -12,-4 -12,-4 v 16 16 h 16 16 z m -2618,-23 9,-24 41,-27 40,-27 v -22 -23 l -15,-12 -15,-12 v -12 -11 l -68,1 h -68 l -11,7 -11,7 11,30 12,30 -11,18 -10,17 4,18 3,17 h 10 9 l 22,25 22,25 h 8 8 z m 2248,7 13,-9 -7,-16 -6,-17 h -13 -13 l -12,15 -12,14 7,11 6,10 h 12 12 z m 882,-32 31,-40 -3,-27 -3,-28 h -24 -24 l -24,44 -23,44 v 17 17 l 7,6 6,7 h 13 12 z m 3681,10 217,-1 15,-12 16,-12 v -80 l 1,-80 v -50 -50 l 6,-102 5,-102 -33,-5 -33,-5 -287,-5 -287,-6 -16,6 -15,6 v 23 23 l 38,13 37,13 h 96 l 95,1 27,18 27,17 1,28 2,27 -2,65 -3,65 -9,38 -10,38 -19,19 -18,18 -116,1 -116,1 -15,6 -15,6 v 38 38 l 13,5 12,4 85,-3 85,-2 z m -7042,-24 28,-15 26,-35 27,-35 v -20 -21 h -24 -25 l -3,22 -3,23 -16,3 -15,3 -12,-26 -12,-26 -18,3 -17,3 -3,23 -3,22 26,10 26,10 -6,10 -6,10 h -25 -24 v 15 14 l 18,10 17,10 8,1 h 8 z m -11031.0007,-30 48,-24 13,-16 12,-15 -18,-8 -18,-9 -160,1 -160,1 -12,7 -13,8 v 9 8 l 62,31 61,31 h 69 69 z m 11580.0007,12 12,-12 v -19 -18 l 16,-50 17,-50 22,-15 23,-15 49,-12 48,-12 3,-42 3,-42 -11,-21 -11,-20 h -32 -33 l -16,-12 -16,-13 -27,-81 -26,-82 -45,-46 -44,-47 -26,-9 -25,-10 h -24 -24 l -6,21 -7,21 29,32 30,31 20,30 20,30 8,40 8,40 2,90 1,90 8,95 8,95 4,13 3,12 h 14 13 z m 879,0 11,-9 1,-192 1,-192 1,-15 2,-15 -1,-37 -2,-37 -37,-10 -38,-11 h -266 -266 l -15,18 -15,17 -2,228 -1,228 10,18 10,19 h 297 298 z m 808,-20 -7,-23 -1,-19 -2,-19 30,-17 30,-17 3,-23 4,-24 -15,12 -14,12 -17,-6 -18,-7 -9,-24 -9,-24 -28,3 -27,3 -3,23 -3,22 h -14 -14 l -11,-20 -11,-20 h -19 -20 v 20 20 l 25,10 25,10 v 9 10 l 20,6 20,6 -6,23 -5,22 38,26 38,26 14,1 13,1 z m 703,-55 3,-33 h 10 9 l 17,35 17,35 10,-3 11,-4 3,-21 3,-22 -25,-12 -26,-11 v -9 -10 l -29,-29 -29,-29 -37,15 -36,16 -6,16 -6,16 22,18 23,18 -7,11 -7,11 6,15 6,15 32,-3 33,-3 z m -3654,20 38,-6 -7,-51 -6,-51 -11,-12 -10,-13 h -27 -26 l -38,11 -38,10 7,37 6,37 4,17 5,17 22,4 22,4 10,2 10,1 z m -4225,-41 20,-29 17,-44 18,-44 v -51 -50 l -33,-57 -32,-57 h -14 -13 l -4,173 -4,172 4,8 3,7 h 9 9 z m -6423.0007,-47 6,-25 -12,-15 -12,-15 h -24 -24 v 13 13 l 13,27 12,27 h 17 18 z m 5179.0007,-18 7,-44 1,-89 2,-89 h -20 -20 l -13,28 -13,27 -1,69 v 68 l 12,37 12,36 h 13 14 z m 13026,27 14,-17 3,-71 4,-72 -14,-12 -14,-11 -65,-3 -65,-2 -31,13 -31,13 -6,21 -5,22 -7,52 -6,51 28,16 29,15 76,1 h 77 z m -8361,-27 v -22 l -10,15 -10,15 v 13 13 l 10,-6 10,-6 z m 4547,8 3,-10 -10,-15 -10,-15 -15,19 -15,20 v 9 8 l 22,-3 21,-3 z m 9411,7 13,-9 -7,-16 -6,-17 h -24 -24 v 18 19 l 7,6 6,7 h 11 11 z m -12415,-52 37,-50 h 11 10 l -3,-27 -3,-28 -22,-3 -22,-3 -6,-20 -6,-19 h -16 -16 l -19,17 -19,17 -20,-12 -19,-12 -20,10 -20,11 v 14 15 h 13 12 l 15,10 15,10 -30,26 -30,25 19,12 19,12 20,23 21,22 h 21 21 z m 3400,7 21,-37 -15,-15 -14,-15 -55,-12 -55,-12 -40,1 -39,1 -18,22 -18,22 v 28 28 l 13,10 12,11 45,4 45,4 48,-1 48,-1 z m -677,22 6,-11 -10,-10 -10,-10 -11,6 -10,7 6,14 5,15 h 8 9 z m -4446,-19 v -20 h -10 -10 v 4 4 l -6,16 -6,16 h 16 16 z m 1928,-27 20,-28 24,23 24,22 h 12 12 l 6,-24 6,-25 14,-5 14,-5 v -26 -26 l -17,-6 -18,-6 -8,-14 -8,-13 h -23 -24 l -12,15 -12,15 h -15 -14 l -6,18 -6,17 -19,24 -18,24 v 23 24 h 24 24 z m -1978,9 v -8 l -13,-19 -14,-18 -11,7 -12,7 v 14 13 l 13,5 12,5 13,1 12,1 z m 7110,-35 v -23 l -11,-11 -11,-11 -14,5 -14,5 v 22 23 l 7,6 6,7 h 19 18 z m -2908,-18 11,-31 31,5 31,4 13,-4 12,-5 v -13 -13 l -17,-6 -16,-7 38,-33 38,-34 -7,-17 -6,-17 -18,5 -17,5 -14,3 -15,4 -5,-25 -6,-25 -18,-32 -18,-33 h -19 -19 l -16,30 -16,30 h -19 -20 v 19 20 l 25,27 25,27 v 18 17 l 13,5 12,5 -12,1 -12,1 -6,-10 -6,-10 h -15 -14 v 19 19 l 14,5 14,6 12,35 12,36 h 9 10 z m 9787,14 9,-18 1,-131 1,-131 -16,-14 -16,-13 -9,15 -9,14 v 132 131 l 6,16 6,16 h 9 8 z m 1298,-76 2,-83 -9,-14 -9,-15 -10,10 -9,10 -4,88 -3,87 h 20 20 z m -10648,41 21,-21 -6,-24 -6,-23 h 21 21 v -9 -10 l -12,-7 -11,-7 -12,16 -12,17 h -22 -22 l -8,23 -8,22 10,23 10,22 h 8 8 z m -592,-14 33,-14 v -15 -15 h -14 -14 l -6,15 -5,15 -26,-12 -25,-11 v -22 -21 l 12,-12 12,-12 -8,-7 -7,-7 -8,13 -8,13 -19,-4 -19,-3 -10,-23 -10,-22 h -22 -22 l -11,20 -11,20 6,10 6,10 h 14 14 l 6,19 5,18 23,11 22,12 -36,-6 -35,-6 -12,15 -12,14 15,13 16,13 11,-11 12,-12 h 17 17 l 12,15 13,15 20,-6 20,-6 z m 675,9 18,-16 v -19 -18 h -17 -16 l -18,16 -18,17 10,18 10,19 h 6 6 z m -907,-30 6,-23 h -21 -21 l -5,15 -6,15 12,16 13,15 7,-8 8,-8 z m -2747,-21 12,-16 v -48 -48 l -26,-10 -25,-10 h -32 -33 l -21,15 -22,15 -7,46 -6,45 16,18 16,18 58,-5 57,-4 z m 3392,7 41,-22 -3,-16 -4,-16 -27,2 -26,2 -22,20 -22,20 6,15 6,16 h 5 5 z m -13942.0007,-5 43,-5 6,-15 5,-14 -12,-15 -12,-15 h -49 -48 l -28,-24 -28,-25 11,-18 11,-18 54,-1 54,-2 127,-5 127,-5 11,-7 11,-7 -58,-39 -58,-38 -28,-1 h -28 l -20,-10 -19,-11 -73,22 -72,21 -48,52 -47,51 -20,38 -20,38 v 16 16 l 17,19 16,18 66,-5 66,-6 z m 310,-10 52,-7 v -23 -22 l -17,-31 -18,-31 h -6 -6 l -37,35 -37,35 h -38 -39 l -12,15 -12,15 13,4 14,5 20,4 20,5 25,1 25,1 z m -1633,-36 6,-23 -9,-40 -8,-40 -18,27 -18,28 6,35 7,35 h 14 15 z m 9521.0007,6 49,-17 39,-36 38,-36 19,-40 19,-40 v -28 -28 l -25,-47 -24,-47 -28,-26 -28,-27 -36,-10 -35,-9 -53,5 -52,5 -9,17 -10,18 23,14 22,15 35,5 36,6 67,37 68,37 -3,22 -3,21 -34,17 -33,17 -19,20 -20,21 -22,2 -22,1 -23,1 -23,1 -12,25 -13,25 h -19 -19 l -11,-46 -12,-47 -7,-11 -7,-11 h -19 -19 l -6,21 -7,20 16,18 16,18 v 9 10 l 33,32 32,31 40,15 40,15 h 6 l 5,1 z m 6278,0 16,-6 v -20 -20 l -37,-50 -38,-49 -41,-52 -40,-52 h -29 -30 l -3,18 -3,17 51,70 51,71 11,25 12,25 25,14 26,14 7,1 h 6 z m -252,-29 -4,-20 -9,-9 -9,-10 -11,11 -11,11 7,22 7,21 16,-3 17,-4 z m -2265,0 21,-15 -5,-42 -5,-43 -30,-26 -30,-25 -10,-100 -10,-99 -8,-8 -8,-9 -48,-6 -49,-6 -30,2 -30,1 -313,4 -313,4 -10,10 -10,10 3,64 3,64 30,-2 29,-2 26,-19 25,-19 50,-13 50,-13 130,2 130,2 40,-14 40,-14 21,8 22,8 7,10 6,11 h 18 17 l 52,48 52,47 35,68 35,68 v 11 11 l 17,19 16,18 h 6 7 z m 4362,-23 10,-18 -9,-13 -8,-14 -16,6 -16,6 v 19 19 l 7,6 6,7 h 8 8 z m 12451,-17 30,-29 v -14 -14 l -117,5 -118,6 -53,9 -53,9 -21,20 -20,21 7,11 7,12 153,-3 154,-4 z m -19066,16 6,-9 -6,-16 -6,-16 h -19 -19 v 18 19 l 7,6 6,7 h 13 13 z m 4366,-16 v -26 l -22,-29 -22,-30 h -13 -14 l -29,22 -30,22 v 16 16 l 12,12 12,12 18,-17 19,-17 22,22 21,22 h 13 13 z m 68,9 32,-15 v -7 -7 l -10,-15 -9,-14 -25,14 -26,13 v 24 23 h 3 4 z m -2936,-11 19,-17 19,12 20,12 h 15 16 l 5,-14 6,-15 -18,-31 -19,-30 13,-21 13,-20 -6,-9 -6,-10 h -12 -12 l -58,59 -57,60 v 8 9 l 12,12 12,12 h 10 9 z m 286,-27 42,-43 v -12 -11 h -15 -14 l -27,12 -26,12 -13,-17 -12,-17 h -16 -16 l -6,10 -6,9 21,21 20,20 v 14 14 l 6,16 6,16 h 7 6 z m 3100,13 3,-26 -31,-27 -32,-26 h -14 -14 v 12 11 l 26,44 26,44 16,-3 17,-3 z m 2859,19 10,-13 6,-91 7,-91 -13,-17 -12,-17 -18,13 -17,13 -5,94 -6,93 12,14 11,14 h 8 8 z m -12450,-30 31,-33 16,-39 16,-38 v -22 -22 l -12,-12 -12,-12 h -30 -31 l -13,9 -14,8 -3,89 -2,89 4,8 4,7 h 8 7 z m 8897,10 6,-23 v -12 -13 h -15 -15 l -16,25 -16,24 7,11 6,10 h 18 19 z m -9025,-66 15,-73 -18,-34 -19,-35 -18,-5 -19,-6 v -23 -24 l -15,-12 -15,-13 -123,7 -122,7 -4,5 -4,4 -8,47 -8,48 v 86 l -1,86 7,7 7,6 165,-2 166,-3 z m 4751,58 v -20 h -19 -20 l -6,10 -6,10 6,10 6,10 h 20 19 z m 138,-59 -3,-26 h -15 -15 l -3,23 -4,23 6,16 6,15 16,-13 15,-12 z m 4910,-87 3,-109 -5,-21 -6,-21 -87,-12 -88,-13 -460,-3 -460,-3 -127,7 -127,7 -6,6 -7,6 -1,80 -2,80 7,8 8,7 54,-26 55,-27 h 33 33 l 35,-10 35,-11 215,-4 215,-5 70,11 70,10 37,6 38,5 35,-31 36,-31 h 27 28 l 53,54 53,54 55,7 55,7 29,17 28,17 22,28 21,27 12,-4 11,-4 z m 3091,25 46,-20 15,-8 15,-8 3,-18 4,-18 -48,-45 -47,-46 -41,-5 -41,-6 -68,3 -68,4 -6,15 -6,14 14,26 13,25 46,23 45,23 29,31 30,31 h 10 10 z m -5031,-14 12,-4 v -130 -130 l -20,-19 -21,-19 -107,-6 -107,-6 -230,5 -230,4 -22,5 -22,5 -11,21 -11,20 v 121 l 1,121 9,11 9,11 369,-3 368,-3 z m 6279,1 8,-8 2,-152 2,-151 -7,-11 -7,-12 -345,-8 -345,-8 h -88 -89 l -6,11 -7,11 1,84 2,83 1,38 1,38 25,23 26,24 52,-3 52,-3 195,-7 195,-8 36,-36 37,-36 33,-27 34,-28 h 12 11 l 31,-26 31,-25 22,3 23,3 3,28 3,28 -65,68 -66,68 v 20 21 l 13,5 12,4 77,-1 78,-2 z m 4460,-31 3,-11 -14,-19 -14,-19 -48,-1 h -49 l -5,10 -5,9 34,7 33,7 17,16 16,17 14,-3 14,-3 z m -15437,-16 v -20 l 11,-21 11,-20 -12,-12 -11,-11 -25,28 -24,28 v 25 24 h 25 25 z m 14921,7 33,-14 39,15 38,16 42,-6 42,-6 53,-11 53,-12 -6,-6 -7,-7 -126,-6 -127,-6 -77,-11 -77,-11 -38,-19 -38,-19 -25,-8 -25,-7 -30,-13 -30,-14 -45,-19 -45,-20 -45,-15 -45,-15 -30,-16 -30,-16 h -13 -12 l -18,-9 -17,-9 -105,-43 -105,-42 -75,-32 -75,-32 -60,-23 -60,-22 -16,-8 -15,-8 -80,-32 -79,-32 -30,-14 -30,-13 -75,-31 -75,-31 -30,-14 -30,-15 -65,-14 -65,-15 -90,-17 -90,-16 -110,7 -110,6 -35,9 -35,9 -45,5 -45,5 -55,22 -55,22 -63,22 -63,23 3,8 3,9 80,2 80,1 h 300 300 l 90,2 90,1 66,9 65,8 63,31 63,31 h 8 9 l 88,41 88,41 35,13 35,13 116,56 117,56 h 7 7 l 26,19 27,18 24,8 24,7 150,73 150,74 6,9 6,9 52,16 52,17 53,1 53,1 35,13 35,13 16,1 17,1 z m -24136.0007,-12 70,-6 19,-10 19,-10 86,-8 86,-8 60,-12 60,-11 62,-15 61,-14 h 74 73 l 120,-30 120,-30 h 15 l 15,-1 50,-24 50,-25 90,-25 90,-26 70,-20 70,-20 25,-11 25,-10 55,-13 55,-13 55,-22 55,-22 35,-5 35,-5 10,-8 10,-9 93,-30 92,-31 h 18 18 l 19,-13 20,-13 120,-39 120,-38 60,-19 60,-19 25,-17 25,-16 45,-6 45,-5 -3,-10 -2,-10 -28,-8 -27,-8 -106,-6 -106,-6 -92,32 -91,31 h -28 l -27,1 -25,14 -25,14 -35,1 -35,1 -25,14 -25,14 -32,1 h -32 l -6,9 -5,10 -53,15 -52,15 -85,21 -85,21 -20,9 -20,10 -40,9 -40,9 -30,10 -30,11 -60,17 -60,17 -38,13 -37,14 h -30 -29 l -5,9 -6,9 -58,17 -57,17 -45,15 -45,14 -25,6 -25,5 -45,13 -45,13 -80,17 -80,18 -32,13 -31,14 h -15 -15 l -64,15 -63,16 -55,15 -55,15 -25,11 -25,11 -45,8 -45,8 -83,17 -83,16 -16,25 -17,25 20,15 19,14 30,-5 30,-5 z m 16315.0007,-21 35,-15 23,-27 24,-26 15,-28 14,-29 -5,-14 -5,-14 h -43 -43 l -11,8 -12,7 -3,20 -4,20 h -60 -60 l -3,-22 -3,-22 -45,-7 -44,-6 -15,6 -15,5 v 28 l 1,28 27,31 27,31 48,26 49,25 36,-5 37,-5 z m 2794,-3 -9,-9 -15,9 -15,10 15,10 15,9 9,-9 10,-10 z m 140,5 16,-24 v -25 -25 l -10,-25 -9,-26 10,-55 10,-55 -15,-15 -15,-15 h -20 -20 l -7,12 -7,11 -3,121 -2,121 10,13 10,12 h 18 18 z m -13003,-80 34,-44 35,-2 35,-3 37,3 37,2 11,-21 11,-20 -5,-8 -4,-7 -161,2 -161,2 -20,11 -20,11 -6,26 -7,26 9,26 9,26 50,6 50,6 16,1 17,2 z m 1333,9 16,-6 v -37 -36 l -9,-14 -8,-13 -162,-2 -162,-1 3,20 3,20 79,10 79,10 5,15 5,15 10,13 9,12 h 58 58 z m -649,-67 h 200 l 28,-14 27,-14 v -23 -24 l 19,-23 19,-23 199,-1 h 198 l 39,42 38,42 251,-1 252,-2 123,3 123,3 7,-7 7,-6 3,-262 3,-262 15,-73 14,-73 -11,-21 -12,-22 6,-165 6,-166 -7,-40 -7,-40 h -105 l -105,1 -95,12 -95,12 -702,4 -703,3 -24,16 -24,16 -3,38 -4,38 5,260 5,260 -7,110 -7,110 -7,139 -7,139 19,14 19,14 50,-7 50,-7 z m 13829,-13 16,-15 v -30 -30 l -10,-20 -11,-19 -45,26 -45,26 -29,-4 -30,-5 v 12 11 l 13,16 12,16 30,16 30,15 27,1 h 27 z m -10946,-19 12,-4 v -22 -21 l 45,-46 45,-45 v -14 -14 l 45,-47 44,-47 39,-40 39,-40 64,-48 64,-49 50,-34 50,-34 45,-20 45,-21 40,-18 40,-19 55,-17 55,-18 40,-8 40,-8 115,-26 115,-25 29,6 30,6 38,40 38,40 v 14 15 l 29,59 29,58 7,24 8,23 19,54 20,53 56,25 57,25 45,15 45,15 80,54 80,53 41,40 40,40 205,5 204,5 235,5 235,5 200,1 200,1 83,-5 83,-5 25,-15 24,-16 v -115 -114 l 19,-11 20,-10 h 345 345 l 15,-16 16,-15 -1,-72 v -72 l 10,-125 10,-125 10,-48 11,-48 66,-94 65,-95 h 8 8 l 36,-31 37,-32 v -13 -14 l -7,-1 -8,-2 -55,-2 -55,-3 -254,-5 -254,-5 -53,8 -52,9 -64,-9 -63,-8 -860,-6 -860,-7 -106,-10 -107,-11 -123,4 -124,5 -255,-9 -254,-9 -13,5 -12,5 15,30 15,31 -7,168 -7,169 -34,23 -34,23 -192,-2 -192,-1 -90,-6 -90,-6 -85,43 -85,44 -72,-1 h -72 l -78,-40 -77,-39 -371,4 -371,3 -36,-15 -36,-15 -11,-21 -11,-21 6,-152 7,-153 14,-28 14,-29 -5,-6 -6,-5 -34,-4 -33,-3 -12,14 -12,14 -4,129 -3,128 13,285 13,285 -6,137 -5,138 11,12 10,13 388,3 388,3 2,2 2,2 224,-3 223,-2 z m 11100,-28 3,-38 -12,-15 -11,-14 h -23 -23 l -4,48 -5,47 5,8 4,8 31,-3 32,-3 z m -10636,6 23,-25 55,-42 55,-42 40,-24 40,-24 5,-7 5,-7 30,-7 30,-7 35,-16 35,-15 30,-13 30,-12 59,-17 59,-17 114,1 113,2 v -6 -7 l -24,-61 -25,-62 -21,-65 -22,-65 -4,-4 -3,-4 -41,-7 -40,-7 -52,8 -53,9 -60,12 -60,11 -27,14 -27,13 h -21 -20 l -18,10 -17,9 -47,21 -47,20 h -13 -13 l -60,45 -60,45 h -6 -6 l -64,55 -64,55 -35,34 -35,34 -35,47 -35,46 -27,31 -28,32 v 17 17 h 164 164 z m 8838,11 v -15 l -17,3 -16,3 -5,13 -4,12 h 21 21 z m -2094,-21 34,-28 50,-42 51,-43 h 12 l 12,-1 39,-29 40,-30 h 14 15 l 61,-29 61,-29 94,-16 95,-16 h 44 45 l -7,-50 -7,-51 -11,-27 -10,-27 -11,-22 -10,-21 7,-25 6,-25 -15,-12 -14,-12 -44,-4 -43,-5 -119,31 -119,31 -11,9 -10,8 -39,8 -39,7 -67,38 -67,39 h -6 -7 l -57,37 -58,37 -55,45 -55,44 -42,44 -43,44 v 15 15 l 18,6 17,6 80,37 80,38 20,16 20,15 9,1 h 8 z m -1559,5 7,-13 -1,-59 -1,-58 -16,-16 -16,-16 -53,-6 -52,-6 -28,9 -28,9 -10,25 -9,24 v 48 47 l 12,12 12,12 h 87 88 z m 730,-49 43,-19 6,-25 6,-24 19,-6 19,-6 10,6 10,6 v 25 25 l 10,20 11,19 h 39 40 v -17 -17 l -22,-33 -23,-32 -49,-21 -49,-20 h -39 -39 l -37,19 -38,19 -12,26 -12,26 h -10 -10 v 24 24 l 12,4 11,4 31,-4 31,-4 z m -2379,-74 12,-5 -6,-27 -7,-28 -4,-5 -5,-5 -321,4 -322,3 -6,4 -6,3 5,30 4,30 32,3 31,3 290,-3 290,-3 z m 6397,-45 15,-30 30,-15 29,-15 h 24 23 l 50,17 49,16 33,29 33,28 h 18 19 l 43,-20 44,-20 h 27 28 l 41,16 41,17 9,-14 9,-14 v -30 l 1,-30 14,-19 14,-19 -9,-17 -9,-17 -43,-16 -43,-16 -195,-6 -195,-6 -120,-4 -120,-3 -120,-5 -120,-5 -54,15 -54,15 -36,-5 -36,-6 -68,-11 -68,-10 -26,6 -26,7 -56,50 -56,50 -12,21 -12,21 -1,13 v 12 l 33,21 32,20 75,-6 75,-5 h 75 l 75,1 240,7 240,8 12,2 12,2 z m 673,-23 3,-27 h -8 -9 l -12,12 -12,12 v 19 18 l 18,-3 17,-3 z m -6326,-93 63,-16 18,-16 17,-15 v -12 -13 l -16,-6 -16,-6 h -121 -122 l -37,11 -38,10 v 8 8 l 19,17 18,16 44,14 44,14 32,1 31,1 z m 5706,-381 2,-230 -12,-10 -13,-11 -55,-12 -55,-11 -196,-5 -195,-5 -16,18 -16,18 -16,45 -16,45 v 29 30 l 22,23 21,23 h 18 18 l 10,-38 11,-38 28,-27 29,-28 52,-19 51,-20 h 33 l 32,1 40,23 40,23 23,34 23,34 h 17 17 l 14,9 13,8 -6,31 -6,30 17,19 17,19 -19,35 -19,35 2,38 3,37 -19,17 -18,16 -54,1 h -55 l -105,1 h -106 l -17,-19 -17,-18 -7,-54 -8,-54 -27,-16 -27,-15 -15,15 -15,15 -1,30 v 30 l 2,62 1,62 16,8 16,8 250,5 250,5 20,-11 20,-11 z m -5516,230 18,-16 v -18 -18 l -12,-7 -11,-7 -81,-4 -81,-3 -45,14 -44,13 34,11 35,11 62,6 62,7 12,14 11,14 h 11 10 z m 4856,-5 10,-13 4,-30 3,-30 -35,-18 -35,-18 -39,6 -39,6 -19,10 -19,10 3,22 3,22 30,3 29,4 24,19 25,19 h 22 23 z m -5324,-24 34,7 8,-12 7,-11 -13,-8 -13,-8 -41,6 -41,5 -7,11 -7,10 6,9 5,8 14,-12 14,-11 z m 488,-179 11,-26 -20,-27 -20,-27 -21,-3 -20,-3 -14,19 -13,19 -50,2 -50,2 -53,7 -53,7 -2,10 -2,10 42,3 41,3 12,15 12,14 h 94 94 z m -445,-6 11,-11 -5,-14 -5,-14 h -29 -28 l -26,-12 -26,-11 -10,10 -11,11 11,20 11,21 22,4 23,4 26,2 25,1 z m 5676,-33 6,-15 -13,-10 -13,-11 -6,7 -7,6 v 19 18 h 14 14 z m -9743,-92 v -14 h -15 -15 v 13 14 l 6,6 7,6 8,-5 9,-5 z m -1000,-55 v -18 l 35,-27 35,-26 -11,-19 -10,-19 h -13 -13 l -33,41 -33,41 -7,32 -7,31 5,13 4,13 24,-22 24,-22 z m 5406,50 5,-8 -13,-21 -13,-20 -40,-14 -40,-14 -48,-11 -48,-11 -19,10 -19,10 h -26 -26 l -27,17 -27,17 -17,20 -16,20 3,7 4,6 h 181 l 180,1 z m 1869,-9 v -15 l -20,-3 -20,-2 -14,9 -14,9 8,11 7,12 26,-3 27,-3 z m -6690,-20 v -25 l -22,-3 -23,-3 v 24 24 l 7,7 7,7 16,-3 15,-3 z m -401,-46 6,-16 v -51 -52 l -17,-57 -18,-57 -41,-7 -42,-6 -21,12 -22,11 -34,-11 -35,-12 v -8 -9 l -36,-7 -35,-7 -11,11 -11,11 13,16 12,15 h 25 24 l 23,25 24,25 26,-10 26,-10 31,7 31,6 10,22 10,22 -22,47 -23,47 5,4 4,4 34,25 35,24 11,1 12,1 z m 366,-9 v -15 h -20 -20 v 8 9 l 7,6 6,7 h 14 13 z m 5569,-26 -10,-19 h -8 -9 l -6,16 -6,17 11,13 12,14 13,-11 14,-11 z m -5334,-9 6,-9 -35,-7 -35,-6 -12,-14 -11,-14 h -14 -13 l -11,21 -12,21 4,3 4,4 34,14 34,15 28,-10 28,-10 z m -941,0 8,-8 -21,-12 -22,-11 -22,3 -22,3 -3,24 -4,24 39,-8 38,-7 z m 1035,-14 23,-24 -10,-6 -10,-6 -36,15 -36,15 v 9 10 l 18,4 17,5 6,1 6,1 z m -1189,-36 v -20 h -9 -9 l -5,14 -6,14 6,6 6,6 h 9 8 z m 255,-10 6,-9 -26,-17 -26,-17 -5,6 -6,5 12,21 11,21 h 14 14 z m 1010,-29 5,-10 -9,-5 -9,-6 -16,6 -16,6 6,9 5,9 h 14 14 z m -113,-36 11,-26 -11,-11 -11,-11 -16,6 -15,7 -6,15 -6,15 12,15 12,15 h 9 9 z m -1023,-74 10,-18 -6,-7 -6,-6 h -23 -23 l -6,10 -7,11 12,14 12,15 h 14 13 z m 1360,-10 14,-9 -7,-11 -7,-11 h -42 -42 -109 l -110,1 -18,10 -19,10 6,10 6,9 h 157 157 z"
       id="path72784" />
    <path
       d="m 15274.578,7860.6215 -55,-14 -24,-22 -23,-22 -44,-66 -44,-66 v -11 -11 l -19,-6 -19,-6 -6,-26 -7,-25 3,-2 3,-2 27,-17 26,-16 20,-43 20,-43 6,-17 5,-18 h 16 16 l 27,-31 26,-32 41,-18 40,-19 30,1 h 30 l 70,19 70,18 43,49 43,48 24,51 24,51 -9,61 -8,61 -24,40 -24,40 -37,40 -36,39 -55,16 -54,16 -34,-1 -33,-1 z m 149,-69 49,-15 32,-34 32,-33 9,-43 10,-44 -6,-56 -7,-57 -49,-50 -49,-50 -58,-7 -58,-6 -41,16 -40,16 -21,24 -21,24 -16,32 -17,31 9,8 8,7 27,7 27,6 16,-16 16,-16 -6,-17 -5,-18 20,-18 20,-19 28,22 27,22 40,21 40,21 17,15 17,15 19,-6 19,-6 13,15 13,16 -11,24 -12,25 h -26 -27 l -17,15 -17,16 -54,21 -54,20 -25,2 -24,1 -11,-39 -11,-40 -11,-3 -10,-4 -26,10 -26,10 11,33 11,33 25,28 26,27 h 15 l 16,1 25,14 25,14 23,1 h 23 z"
       id="path72786" />
    <path
       d="m 10769.578,7768.6215 -21,-9 -14,-17 -14,-17 3,-126 3,-127 3,-260 4,-260 8,-97 8,-97 18,-18 18,-18 226,-1 h 226 l 20,16 20,17 -10,30 -11,30 10,49 9,49 -6,80 -6,80 -4,230 -4,230 -7,103 -6,103 -21,13 -22,14 -205,5 -205,6 z m 376,-97 13,-16 2,-182 2,-181 7,-242 6,-242 -22,-12 -23,-12 -144,7 -144,6 -9,6 -10,6 1,316 1,317 -7,113 -7,114 14,9 14,9 h 146 147 z"
       id="path72788" />
    <path
       d="m 9914.5779,7668.6215 -45,-8 -80,-12 -80.0004,-12 -45.0002,-9 -45,-10 -93,-6 -93,-7 -25,-19 -24,-19 v -10 -9 l 20,-20 20,-20 41,2 40,1 25,-24 25,-25 6,-37 5,-36 -30,-31 -30,-30 h -40 -39 l -50,-9 -50,-10 -372,-2 -373,-1 -11,11 -12,12 v 124 124 l -13,13 -13,13 h -159 -159 l -11,-23 -10,-23 v -183 -183 l 7,-137 6,-138 23,-8 22,-9 4,-13 5,-13 h 136 137 l 20,28 21,27 -3,123 -3,122 80,-1 80,-1 326,-5 325,-5 12,-7 12,-7 v -123 -124 l 19,-23 19,-23 78,-8 79,-7 155.0006,-11 155,-10 26,-11 27,-10 33,3 34.0001,3 1,153 1,154 14,9 14,9 82,-2 82,-3 15,15 14,15 11,94 10,95 -12,14 -12,15 -101,-6 -102,-7 -12,15 -13,16 7,128 7,128 -13,11 -13,10 -25.0001,5 -25,5 z m -1446.0006,-160 6,-9 1,-45 2,-46 7,-12 7,-11 -9,-41 -9,-42 -12,-7 -12,-8 h -27 -27 l -11,-19 -10,-20 v -20 -20 l 22,-15 22,-16 h 26 26 l 12,-12 12,-12 v -56 -55 l -10,-36 -10,-36 -81,-8 -81,-7 -10,10 -10,10 -4,88 -3,89 -3,170 -3,170 8,13 8,12 h 84 84 z m 1303.0006,-172 11,-11 34,-7 33,-7 v -34 -35 h -39 -39 l -4,-12 -5,-13 h -8 -9 l -6,54 -7.0004,54 7.0004,11 6,11 h 8 7 z m 63,-164 v -15 h -19 -20 l -5,9 -5,8 6,7 6,6 h 19 18 z"
       id="path72790" />
    <path
       d="m 14003.578,7482.6215 -26,-14 -5,-18 -5,-18 11,-192 11,-192 23,-23 23,-23 301,3 301,3 38,16 39,15 7,26 6,25 -6,186 -6,186 -21,17 -22,18 -322,-1 -321,-1 z m 607,-88 3,-3 10,-121 10,-121 -6,-20 -5,-21 -13,-4 -12,-5 -244,-2 -244,-2 -11,1 -11,1 -11,39 -12,38 v 107 106 l 3,2 2,1 155,7 155,8 114,-4 115,-4 z"
       id="path72792" />
    <path
       d="m 11432.578,7308.6215 -87,-6 -17,-17 -17,-16 7,-25 6,-24 32,-14 32,-13 h 110 111 l 71,8 72,9 50,-12 50,-13 31,17 32,16 12,26 11,25 -27,24 -28,24 -182,-2 -182,-1 z"
       id="path72794" />
    <path
       d="m 11634.578,8693.6215 -65,-12 -45,-27 -46,-26 -34,-38 -34,-38 -18,-49 -18,-49 -20,-22 -20,-21 v -17 -17 l 20,-17 20,-17 v -13 -13 l 22,-50 22,-50 h 8 8 l 14,-35 15,-35 h 12 13 l 20,-18 21,-18 53,-18 53,-18 67,4 67,4 56,34 55,35 20,11 19,11 32,64 33,64 1,70 2,70 -8,45 -7,45 -24,23 -24,23 v 13 12 l -28,27 -28,27 h -16 -17 l -6,10 -6,9 -37,10 -37,10 -25,5 -25,4 z m 100,-59 35,-12 42,-20 42,-20 1,-10 1,-10 29,-35 30,-34 v -23 -23 h -8 -8 l -20,15 -19,14 -16,1 h -16 l -18,-20 -18,-20 h -19 -19 l -31,16 -31,16 -28,-6 -28,-5 -5,17 -5,17 -6,40 -6,39 -16,18 -16,18 7,8 8,7 36,11 37,12 15,1 15,1 z m -190,-75 v -27 l 10,-34 10,-34 -11,-14 -11,-13 h -44 -44 v 23 22 l 30,53 30,52 h 15 15 z m 10,-221 10,-20 v -35 -34 l 6,-16 6,-16 h 14 13 l 16,30 16,30 h 25 25 l 29,15 29,15 11,20 11,20 h 18 19 l 12,-15 12,-15 h 16 15 l 18,16 18,16 15,-5 15,-6 -11,-33 -11,-33 -21,-28 -21,-29 -23,-23 -23,-24 -62,-20 -61,-21 h -21 -21 l -45,21 -44,22 -33,25 -33,25 -25,50 -25,49 5,13 5,14 33,4 33,4 12,1 12,2 z"
       id="path72796" />
    <path
       d="m 5614.5773,7666.6215 -45,-9 -80,-9 -80,-10 h -72 l -72,-1 -52,-11 -51,-11 -20,-20 -21,-21 7,-61 6,-61 7,-72 6,-73 -314,-2 -314,-2 -95,-3 -95,-4 -87,2 -86,1 -22,-12 -21,-11 3,-31 3,-31 39,-31 38,-31 292,5 291,5 h 167 167 l 13,-13 13,-13 -3,-97 -3,-97 6,-42 6,-43 18,-10 19,-9 78,-6 79,-6 105,-9 105,-8 76,-13 77,-13 27,18 27,18 -7,112 -8,111 -4,170 -4,170 -3,95 -4,95 -1,33 -1,32 -20,20 -20,20 -12,-1 -13,-2 z m -266,-475 6,-16 v -44 -44 h 11 11 l 5,19 5,20 15,5 16,6 47,-6 48,-6 -5,-34 -6,-34 27,-10 27,-10 h 29 28 l 6,-16 6,-16 v -13 -13 l -17,-7 -18,-6 -22,27 -22,28 -16,-14 -16,-13 -24,23 -25,24 -14,-19 -13,-18 -17,6 -16,6 v 21 20 h -10 -10 v -10 -10 h -20 -20 v 18 18 l -25,34 -25,34 v 7 8 l 10,25 10,26 h 14 14 z"
       id="path72798" />
    <path
       d="m 11604.578,6559.6215 -25,-7 -35,-19 -35,-18 -43,-42 -44,-41 -17,-35 -18,-35 -7,-27 -6,-28 h -20 -20 l -20,-20 -20,-20 v -15 -15 l 40,-20 40,-20 7,-28 6,-27 18,-41 18,-40 41,-38 40,-37 68,-26 67,-26 25,1 h 25 l 62,7 63,7 6,9 6,10 38,15 38,15 33,41 34,42 12,20 12,21 1,32 v 32 l 11,7 11,7 -4,46 -5,46 -28,70 -28,70 -41,38 -40,39 -40,26 -41,26 -80,2 -80,3 z m 192,-88 52,-26 20,-26 21,-26 17,-45 18,-45 1,-56 2,-55 -11,-26 -10,-26 -50,-60 -50,-59 -68,-12 -69,-13 -60,22 -59,21 -33,36 -32,37 -1,11 v 12 l -15,12 -15,12 v 23 23 l 16,6 16,6 h 28 29 l 12,-21 11,-22 -5,-43 -4,-43 21,-20 22,-21 h 12 12 l 5,23 6,24 -3,39 -3,39 15,-4 15,-4 33,-5 32,-4 25,16 24,16 h 45 45 l 20,26 21,27 v 17 17 l -20,26 -20,25 -52,7 -53,6 -60,2 -60,2 -7,10 -8,10 6,17 5,17 -11,21 -11,21 -22,-3 -22,-3 -3,-65 -3,-64 -12,-8 -12,-8 h -31 -32 l -12,15 -12,14 14,38 13,37 40,40 40,39 30,13 30,13 63,1 h 63 z"
       id="path72800" />
    <path
       d="m 3712.5773,6355.6215 11,-11 23,11 23,11 h -34 l -35,1 z"
       id="path72802" />
    <path
       d="m 25875.578,8867.6215 -8,-5 -21,-50 -20,-50 -6,-83 -6,-84 14,-32 13,-32 32,-27 33,-27 h 84 85 l 32,15 32,14 48,44 48,44 -13,28 -12,27 28,23 29,23 -6,16 -6,16 -25,12 -25,11 -17,43 -16,43 -20,18 -20,18 h -124 l -125,1 z"
       id="path72804" />
    <path
       d="m 32879.578,7711.6215 -30,-15 -22,-21 -23,-21 v -49 -49 l 33,-34 33,-34 25,-10 25,-9 42,8 42,7 15,13 15,13 16,54 16,55 -17,32 -18,32 -31,22 -32,22 h -30 -29 z"
       id="path72806" />
    <path
       d="m 33354.578,7535.6215 -35,-9 -35,-35 -36,-34 -13,-58 -13,-58 24,-49 23,-49 49,-31 49,-30 h 52 52 l 49,30 49,30 23,45 23,45 -6,35 -7,34 -18,37 -19,37 -42,36 -43,36 -45,-1 -46,-1 z m 109,-108 18,-9 13,-30 12,-31 -6,-25 -7,-26 -34,-15 -34,-14 h -19 -18 l -22,20 -22,21 v 49 49 l 18,10 17,10 33,1 h 33 z"
       id="path72808" />
    <path
       d="m 32903.578,7256.6215 -44,-31 -12,-16 -13,-16 v -32 -32 l 38,-30 37,-29 22,-12 22,-11 h 31 31 l 29,15 28,15 17,44 17,45 -18,38 -19,38 -34,22 -34,23 h -27 -27 z"
       id="path72810" />
    <path
       d="m 34903.578,7022.6215 -47,-24 -26,-47 -26,-46 15,-27 14,-27 14,-12 14,-12 44,-16 44,-17 65,-9 65,-9 110,-8 110,-8 57,25 58,25 6,20 6,19 -22,46 -23,47 -29,23 -29,24 -52,14 -52,14 h -31 -32 l -12,15 -12,15 h -92 l -91,-1 z m 261,-96 105,-21 18,-20 17,-20 v -14 -14 l -23,-5 -22,-6 -60,11 -60,11 -75,10 -75,10 -22,15 -23,14 v 15 14 l 18,10 17,10 40,1 h 39 z"
       id="path72812" />
    <path
       d="m 27830.578,7741.6215 -16,-15 v -27 -27 l 10,-94 10,-94 -15,-24 -15,-23 h -59 -59 l -27,-31 -26,-32 6,-16 7,-16 5,-55 6,-55 10,-12 9,-13 h 62 62 l 18,-37 17,-36 -7,-111 -6,-111 21,-19 21,-19 113,12 112,12 60,8 60,9 148,7 148,7 14,22 14,21 -9,70 -9,70 -1,63 v 62 l 27,11 27,10 171,-2 170,-2 60,3 60,3 215,-4 215,-3 32,17 32,17 11,20 11,20 -11,21 -12,21 -33,14 -34,14 h -26 -26 l -17,-9 -17,-9 -105,10 -105,9 -320,2 -320,2 -3,126 -3,126 -19,18 -20,18 -102,7 -103,8 -70,11 -70,11 -102,15 -102,15 h -40 -40 z m 314,-554 v -20 h -8 -9 l -6,6 -6,6 6,14 5,14 h 9 9 z"
       id="path72814" />
    <path
       d="m 12754.578,7573.6215 -25,-14 -44,-21 -44,-21 -33,-38 -33,-37 -1,-13 v -13 l -16,-25 -17,-25 -1,-107 v -107 l 14,-26 15,-26 50,-61 50,-61 25,-7 25,-7 14,-11 13,-10 37,-13 36,-13 h 55 55 l 45,14 45,14 29,15 28,15 37,39 36,39 19,40 19,39 9,19 10,18 5,53 6,53 -18,67 -18,66 -9,5 -8,5 v 19 18 l -52,46 -53,46 h -12 -13 l -37,20 -38,20 h -90 -90 z m 202,-145 45,-29 26,-33 25,-34 7,-28 7,-27 -7,-56 -7,-55 -46,-44 -47,-45 -53,-16 -54,-15 -42,20 -41,19 -42,44 -43,44 -6,59 -6,60 21,47 21,47 42,35 42,36 h 56 56 z m 90,-389 -11,-3 -36,-25 -36,-24 -27,1 -27,2 38,10 37,11 v 8 8 h 13 13 l 19,22 19,22 4,-14 5,-14 z"
       id="path72816" />
    <path
       d="m 21127.578,7430.6215 -13,-5 v -9 -9 h 20 20 v 15 15 l -7,-1 -8,-1 z"
       id="path72818" />
    <path
       d="m 18664.578,7512.6215 -12,-15 h 21 21 v 15 15 h -9 -9 z"
       id="path72820" />
    <path
       d="m 20898.578,7073.6215 -7,-17 11,-11 11,-11 7,17 7,17 -11,11 -11,11 z"
       id="path72822" />
    <path
       d="m 7751.5773,6400.6215 -7,-6 v -9 -8 h 20 20 v 15 15 h -13 -14 z"
       id="path72824" />
    <path
       d="m 37224.578,7527.6215 v -10 h 14 15 l 6,10 6,10 h -20 -21 z"
       id="path72826" />
    <path
       d="m 4269.5773,6057.6215 6,-10 h 19 19 l 6,10 6,10 h -31 -31 z"
       id="path72828" />
    <path
       d="m 4184.5773,6002.6215 v -16 l 23,3 22,3 v 10 10 l -22,3 -23,3 z"
       id="path72830" />
    <path
       d="m 4390.5773,6009.6215 -6,-10 13,-4 12,-4 35,7 35,6 -20,2 -20,1 -21,6 -22,6 z"
       id="path72832" />
  </g>
</svg>
