<?xml version="1.0" encoding="UTF-8" standalone="no"?>
<svg
   version="1.0"
   width="80pt"
   height="100pt"
   viewBox="0 0 3741.000000 1671.000000"
   preserveAspectRatio="xMidYMid meet"
   id="svg87618"
   sodipodi:docname="cruiser.svg"
   inkscape:version="1.2.1 (9c6d41e410, 2022-07-14, custom)"
   xmlns:inkscape="http://www.inkscape.org/namespaces/inkscape"
   xmlns:sodipodi="http://sodipodi.sourceforge.net/DTD/sodipodi-0.dtd"
   xmlns="http://www.w3.org/2000/svg"
   xmlns:svg="http://www.w3.org/2000/svg">
  <defs
     id="defs87622" />
  <sodipodi:namedview
     id="namedview87620"
     pagecolor="#ffffff"
     bordercolor="#000000"
     borderopacity="0.25"
     inkscape:showpageshadow="2"
     inkscape:pageopacity="0.0"
     inkscape:pagecheckerboard="0"
     inkscape:deskcolor="#d1d1d1"
     inkscape:document-units="pt"
     showgrid="false"
     inkscape:zoom="0.26523657"
     inkscape:cx="2492.1149"
     inkscape:cy="1291.3001"
     inkscape:window-width="1920"
     inkscape:window-height="1011"
     inkscape:window-x="1920"
     inkscape:window-y="32"
     inkscape:window-maximized="1"
     inkscape:current-layer="g87616" />
  <metadata
     id="metadata80262">
Created by potrace 1.12, written by Peter Selinger 2001-2015
</metadata>
  <g
     transform="translate(0.000000,1671.000000) scale(0.100000,-0.100000)"
     fill="#000000"
     stroke="none"
     id="g87616">
    <path
       d="m 25253.1,10193.554 -15,-15 h -2178 -2179 l -13,-17 -13,-18 -6,18 -7,17 h -14 -15 l -5,-15 -6,-15 h -48 -48 l -6,15 -5,15 h -16 -16 l -5,-15 -6,-15 h -488 -488 l -6,-15 -5,-15 h -51 -51 l -5,15 -6,15 h -44 -45 l -5,-15 -6,-15 h -650 -651 l -11,-15 -11,-14 -133,-2 -133,-1 -18,16 -18,16 h -275 -276 l -6,-15 -5,-15 h -850 -849 l -6,-15 -5,-15 h -1075 -1074 l -7,-17 -6,-18 -13,18 -13,17 h -12 -12 l -5,-15 -6,-15 h -78 -78 l -6,15 -5,15 h -16 -16 l -5,-15 -6,-15 h -518 -518 l -6,-15 -5,-15.0002 h -385 -384 l -7,-17 -6,-18 -13,17 -13,18 h -11 -10 l -7,-17 -6,-18 -13,18 -13,17 h -72 -72 l -5,-15 -6,-15 h -848 -848.0013 l -6,-15 -5,-15 h -655 -654 l -7,-17 -6,-18 -13,18 -13,17 h -26 -25 l -6,-15 -5,-15 h -475 -474 l -6,-15 -5,-15 h -385 -384 l -7,-17 -6,-18 -14,19 -14,19 -16,-6 -15,-6 v -11 -10 h -79 -79 l -6,15 -5,15 h -16 -16 l -5,-15 -6,-15 h -473 -473 l -6,-15 -5,-15 h -36 -36 l -5,15 -6,15 h -13 -13 l -6,-15 -5,-15 h -274 -273 l -29,30 -29,30 h -16 -16 l -29,30 -29,30 h -16 -17 l -57,60 -57,60.0002 h -20 -20 l -5,15 -6,15 h -23 -23 l -6,15 -5,15 h -39 -40 l -163,-165.0002 -163,-165 h -127 -127 l -6,-15 -5,-15 h -311 -311 l -5,-15 -6,-15 h -399 -398 l -8,-15 -9,-15 -354,-2 -355,-3 -3,-28 -3,-28 -15,-6 -14,-5 v -69 -70 l -15,-5 -15,-6 v -99 -100 l -14.99999,-5 -15,-6 v -129 -130 l -15,-5 -14.99998,-6 v -402.9996 -403 l 14.99998,-6 15,-5 v -160 -159 l 15,-6 14.99999,-5 v -115 -114 l 15,-6 15,-5 v -70 -70 l 14,-8 14,-8 4,-25 3,-25 70,-3 70,-3 8,-15 8,-14 h 278 279 l 6,-15 5,-15 h 325 324 l 6,-15 5,-15 h 356 356 l 5,-15 6,-15 h 127 127 l 59,-60 59,-60 h 16 16 l 31,-33 31,-32 4,-25 3,-25 28,-3 27,-3 v -18 -17 l 55,-57 55,-57 h 26 25 l 5,15 6,15 h 21 20 l 44,45 43,45 h 13 13 l 58,55 58,56 -6,14 -5,15 h -16 -16 l -5,-15 -6,-15 h -19 -18 l -9,17 -10,16 -16,-6 -16,-6 v -38 -37 l -51,-48 -51,-48 h -14 -15 l 3,142 3,143 45,-4 45,-3 16,-14 16,-14 h 13 13 l 16,14 16,15 73,2 72,2 5,-5 6,-6 -31,-25 -30,-26 v -26 -26 l 16,-6 16,-6 25,32 24,31 h 20 20 l 26,30 25,30 h 93 93 l 6,-15 5,-15 h 310 309 l 6,-15 5,-15 h 326 325 v -10 -11 l 15,-6 16,-6 14,19 14,19 6,-18 7,-17 h 398 398 l 6,-15 5,-15 h 280 279 l 6,-15 5,-15 h 385 384 l 6,-15 5,-15 h 295 294 l 6,-15 5,-15 h 340 339 l 6,-15 5,-15 h 461 461.0013 l 5,-15 6,-15 h 428 428 l 6,-15 5,-15 h 30 29 l 7,18 6,17 13,-17 13,-18 h 367 367 l 5,-15 6,-15 h 384 385 l 5,-15 6,-15 h 414 415 l 5,-15 6,-15 h 534 535 l 5,-15 6,-15 h 28 28 l 7,18 6,17 13,-17 13,-18 h 366 365 l 6,-15 5,-15 h 595 594 l 6,-15 5,-15 h 415 414 l 6,-15 5,-15 h 15 14 l 6,16 6,17 18,-17 19,-16 h 466 467 v -10 -11 l 15,-6 16,-6 14,19 14,19 6,-18 7,-17 h 73 73 l 7,18 6,17 13,-18 13,-17 h 576 575 l 6,-15 5,-15 h 30 29 l 7,18 6,17 13,-17 13,-18 h 2778 2779 l 24,23 24,22 18,-23 18,-22 h 10 10 l 6,15 5,15 h 761 761 l 5,15 6,15 h 519 520 l 5,15 6,15 h 294 295 l 5,15 6,15 h 294 295 l 5,15 6,15 h 204 205 l 5,15 6,15 h 249 250 l 5,15 6,15 h 158 158 l 7,18 6,17 13,-18 13,-17 h 27 27 l 5,15 6,15 h 144 145 l 5,15 6,15 h 129 130 l 5,15 6,15 h 129 130 l 5,15 6,15 h 129 130 l 5,15 6,15 h 129 130 l 5,15 6,15 h 69 70 l 5,15 6,15 h 84 85 l 5,15 6,15 h 84 85 l 5,15 6,15 h 114 115 l 5,15 6,15 h 84 85 l 5,15 6,15 h 54 55 l 5,15 6,15 h 84 85 l 5,15 6,15 h 84 85 l 5,15 6,15 h 84 85 l 5,15 6,15 h 84 85 l 5,15 6,15 h 54 55 l 5,15 6,15 h 54 55 l 5,15 6,15 h 69 70 l 5,15 6,15 h 69 70 l 5,15 6,15 h 54 55 l 5,15 6,15 h 69 70 l 5,15 6,15 h 53 53 l 6,15 5,15 h 40 39 l 6,15 5,15 h 70 69 l 6,15 5,15 h 55 54 l 6,15 5,15 h 40 39 l 6,15 5,15 h 55 54 l 6,15 5,15 h 41 41 l 5,15 6,15 h 39 40 l 5,15 6,15 h 39 40 l 5,15 6,15 h 39 40 l 5,15 6,15 h 24 25 l 5,15 6,15 h 39 40 l 5,15 6,15 h 54 55 l 5,15 6,15 h 39 40 l 5,15 6,15 h 39 40 l 5,15 6,15 h 22 22 l 24,30 25,29 38,1 h 38 l 5,15 6,15 h 19 19 l 70,72 70,73 v 63 63 l 15,5 15,6 v 28 28 l -15,6 -15,5 v 39 38 l -29,22 -30,22 -3,27 -3,28 -23,3 -23,4 -58,59 -58,59 h -20 -21 l -6,15 -5,14.9996 h -25 -24 l -6,15 -5,15 h -40 -39 l -6,15 -5,15 h -25 -24 l -6,15 -5,15 h -40 -39 l -6,15 -5,15 h -40 -39 l -6,15 -5,15 h -40 -39 l -6,15 -5,15 h -40 -39 l -6,15 -5,15 h -40 -39 l -6,15 -5,15 h -40 -39 l -6,15 -5,15 h -40 -39 l -6,15 -5,15 h -56 -56 l -5,15 -6,15 h -39 -40 l -5,15 -6,15 h -39 -40 l -5,15 -6,15 h -39 -40 l -5,15 -6,15 h -54 -55 l -5,15 -6,15 h -54 -55 l -5,15 -6,15 h -54 -55 l -5,15 -6,15 h -39 -40 l -5,15 -6,15 h -54 -55 l -5,15 -6,15 h -53 -53 l -6,15 -5,15 h -85 -84 l -6,15 -5,15 h -55 -54 l -6,15 -5,15 h -55 -54 l -6,15 -5,15 h -70 -69 l -6,15 -5,15 h -70 -69 l -6,15 -5,15 h -115 -114 l -6,15 -5,15 h -85 -84 l -6,15 -5,15 h -55 -54 l -6,15 -5,15 h -70 -69 l -6,15 -5,15 h -85 -84 l -6,15 -5,15 h -115 -114 l -6,15 -5,15 h -85 -84 l -6,15 -5,15 h -100 -99 l -6,15 -5,15 h -85 -84 l -6,15 -5,15 h -100 -99 l -6,15 -5,15 h -100 -99 l -6,15 -5,15 h -116 -116 l -5,15 -6,15 h -128 -128 l -6,15 -5,15 h -100 -99 l -6,15 -5,15 h -160 -159 l -6,15 -5,15 h -175 -174 l -6,15 -5,15 h -145 -144 l -6,15.0002 -5,15 h -160 -159 l -6,15 -5,15 h -205 -204 l -6,15 -5,15 h -235 -234 l -6,15 -5,15 h -385 -384 l -6,15 -5,15 h -265 -264 l -6,15 -5,15 h -16 -16 l -5,-15 -6,-15 h -49 -50 l -5,15 -6,15 h -966 -965 l -17,15 -17,15 h -14 -15 z m 715,-93 5,-8 -20,-17 -19,-17 h -10 -10 v 18 19 l 7,6 6,7 h 18 18 z m 1237,-18 11,-14 h 498 498 l 6,-15 5,-15 h 355 354 l 6,-15 5,-15 h 15 15 l 10,18 10,17 6,-17 7,-18 h 203 203 l 6,-15.0002 5,-15 h 145 144 l 6,-15 5,-15 h 130 129 l 6,-15 5,-15 h 160 159 l 6,-15 5,-15 h 145 144 l 6,-15 5,-15 h 160 159 l 6,-15 5,-15 h 116 116 l 5,-15 6,-15 h 66 65 l 19,-17 18,-16 v -17 -18 l 45,-45 45,-46 v -18 -18 l 25,-24 25,-23 15,6 15,5 v 29 28 l -30,24 -29,25 -1,21 v 22 l -15,6 -15,5 v 21 20 h 80 81 l 5,-15 6,-15 h 113 113 l 6,-15 5,-15 h 100 99 l 6,-15 5,-15 h 115 114 l 6,-15 5,-15 h 100 99 l 6,-15 5,-15 h 70 69 l 6,-15 5,-15 h 70 69 l 6,-15 5,-15 h 26 26 l 5,-15 6,-15 h 28 28 l 6,15 5,15 h 51 51 l 5,-15 6,-15 h 98 98 l 6,-15 5,-15 h 54 54 l 16,-17 15,-18 4,-25 3,-25 h 20 20 l 3,28 3,27 h 49 48 l 6,-15 5,-15 h 55 54 l 6,-15 5,-15 h 85 84 l 6,-15 5,-15 h 55 54 l 6,-15 5,-15 h 70 69 l 6,-15 5,-15 h 55 54 l 6,-15 5,-15 h 70 69 l 6,-15 5,-15 h 71 71 l 5,-15 6,-15 h 54 55 l 5,-15 6,-15 h 39 40 l 5,-15 6,-15 h 68 68 l 12,-15 12,-15 h 33 33 l 12,-15 12,-15 h 31 30 l 19,-17 18,-16 v -34 -34 l -15,-5 -15,-6 v -14 -15 l 14,-5 14,-5 26,26 26,26 v 16 16 l 17,19 16,18 h 32 33 l 12,-15 12,-15 h 16 15 l 19,-17 18,-16 v -164 -162.9996 l -19,-19 -19,-19 -24,-4 -23,-3 v -20 -20 l 30,-3 29,-4 11,15 11,15 24,4 25,3 3,177.9996 2,177 h 81 80 l 5,-15 6,-15 h 38 38 l 6,-15 5,-15 h 40 39 l 6,-15 5,-15 h 40 39 l 6,-15 5,-15 h 40 39 l 6,-15 5,-15 h 40 39 l 6,-15 5,-15 h 40 39 l 6,-15 5,-15 h 40 39 l 6,-15 5,-14.9996 h 25 24 l 6,-15 5,-15 h 25 24 l 6,-15 5,-15 h 38 l 38,-1 25,-29 24,-30 h 18 17 l 36,-35 35,-36 v -17 -18 l 30,-22 30,-23 v -23 -24 l 15,-6 15,-5 v -21 -21 l -15,-5 -15,-6 v -39 -40 l -15,-5 -15,-6 v -22 -23 l -49,-46 -50,-47 h -21 -21 l -5,-15 -6,-15 h -24 -25 l -5,-15 -6,-15 h -39 -40 l -5,-15 -6,-15 h -39 -40 l -5,-15 -6,-15 h -39 -40 l -5,-15 -6,-15 h -39 -40 l -5,-15 -6,-15 h -39 -40 l -5,-15 -6,-15 h -24 -25 l -5,-15 -6,-15 h -54 -55 l -5,-15 -6,-15 h -39 -40 l -5,-15 -6,-15 h -38 -38 l -6,-15 -5,-15 h -55 -54 l -6,-16 -6,-17 -20,18 -19,17 -3,27 -3,26 h -20 -20 l -3,-57 -3,-58 h -33 -34 l -12,-15 -12,-15 h -49 -48 l -3,58 -3,57 -222,3 -223,2 v 121 120 l 31,29 32,28 -6,16 -6,16 h -28 -28 l -23,-24 -23,-24 3,-164 3,-163 204,-3 205,-2 18,-17 18,-16 v -34 -33 h -34 -34 l -12,-15 -12,-15 h -38 -38 l -6,-15 -5,-15 h -40 -39 l -6,-15 -5,-15 h -56 -56 l -5,-15 -6,-15 h -54 -55 l -5,-15 -6,-15 h -69 -70 l -5,-15 -6,-15 h -54 -55 l -5,-15 -6,-15 h -54 -55 l -5,-15 -6,-15 h -84 -85 l -5,-15 -6,-15 h -84 -85 l -5,-15 -6,-15 h -69 -70 l -5,-15 -6,-15 h -69 -70 l -5,-15 -6,-15 h -34 -34 v 25 26 l -16,6 -15,6 -44,-47 -45,-46 h -65 -66 l -5,-15 -6,-15 h -99 -100 l -5,-15 -6,-15 h -33 -33 l -6,15 -5,15 h -29 -28 l -24,-30 -25,-29 -53,-1 h -53 l -5,-15 -6,-15 h -99 -100 l -5,-15 -6,-15 h -99 -100 l -5,-15 -6,-15 h -99 -100 l -5,-15 -6,-15 h -129 -130 l -5,-15 -6,-15 h -114 -115 l -5,-15 -6,-15 h -94 -94 v 25 26 l -16,6 -16,6 -28,-32 -29,-31 h -21 -21 l -5,-15 -6,-15 h -144 -145 l -5,-15 -6,-15 h -219 -220 l -5,-15 -6,-15 h -219 -220 l -5,-15 -6,-15 h -159 -160 l -5,-15 -6,-15 h -234 -235 l -5,-15 -6,-15 h -338 -338 l -7,-17 -6,-18 -10,18 -10,17 h -15 -15 l -5,-15 -6,-15 h -485 -486 l -13,-17 -13,-18 -6,18 -7,17 h -29 -28 l -9,-15 -8,-15 -200,2 -199,3 v 15 15 l 37,3 36,3 12,15 12,14 h 19 18 l 26,25 25,26 v 25 25 l -16,6 -16,6 -25,-32 -24,-31 h -24 -23 l -6,-15 -5,-15 h -455 -455 l -25,-24 -26,-23 v -11 -10 l 14,-5 15,-6 12,15 12,15 17,-16 17,-16 109,5 109,5 3,10 4,11 h 13 13 l 4,-11 4,-12 h 53 52 l 12,12 11,11 h 30 l 31,-1 18,-13 17,-13 v -10 -10 l -287,3 -288,2 -16,-14 -16,-15 -13,16 -12,15 h -78 -78 l -12,-15 -13,-16 -17,16 -17,15 -78,-7 -78,-6 5,13 4,13 165,-2 166,-2 12,15 13,15 -7,11 -6,10 h -383 -384 l -12,15 -12,15 h -18 -18 l -25,30 -26,30 h -20 -20 l -23,30 -22,30 h -18 -18 l -58,60 -59,60 h -35 -36 l -6,15 -5,15 h -23 l -23,1 -25,29 -24,30 h -21 l -20,1 -25,29 -24,30 h -17 -18 l -38,35 -38,35 h 25 25 l 24,25 23,25 -6,15 -5,15 h -16 -16 l -5,-15 -6,-15 h -19 -19 v 24 24 l -16,6 -17,6 18,20 18,20 h 18 18 l 24,-31 25,-32 16,6 16,6 v 27 26 l -22,24 -23,24 h -58 -58 l -5,-15 -6,-15 h -24 -25 l -6,-16 -6,-17 16,-12 17,-12 v -17 -16 h -21 -22 l -11,-14 -11,-15 -102,-2 -103,-3 -5,6 -6,5 31,7 32,6 -4,17 -3,18 -59,3 -60,3 -8,-15 -9,-16 h -95 -95 l -26,-30 -25,-30 h -53 -53 l -6,-15 -5,-15 h -55 -54 l -6,-15 -5,-15 h -81 -80 v 34 35 l 31,24 32,25 -6,16 -6,16 h -61 -61 l -6,-16 -6,-17 16,-12 17,-12 v -45 -44 l -32,-32 -33,-31 -70,-3 -70,-3 v -20 -20 l 88,-3 87,-3 v -139 -139 l -27,-3 -28,-3 v -20 -20 h 110 110 v 20 20 l -40,3 -40,3 -17,16 -18,16 v 47 48 l 15,6 15,5 v 12 12 l -17,13 -18,13 18,6 17,7 v 54 54 h 54 54 l 6,15 5,15 h 70 69 l 6,15 5,15 h 100 99 l 6,15 5,15 h 175 174 l 6,15 5,15 h 66 66 l 5,-15 6,-15 h 23 23 l 25,-30 26,-30 h 18 l 18,-1 25,-29 24,-30 h 21 l 20,-1 25,-29 24,-30 h 18 18 l 43,-45 44,-45 h 20 21 l 6,-15 5,-15 h 25 24 l 25,-30 26,-30 h 19 20 l 25,-30 26,-30 h 18 19 l 29,-30 29,-30 h 16 17 l 22,-24 23,-25 -7,-10 -6,-11 h -1310 -1309 v 64 65 l 43,3 42,3 v 20 20 l -78,3 -77,3 -7,-17 -6,-17 16,-12 17,-12 v -32 -32 l -15,-5 -15,-6 v -24 -24 h -51 -52 l -13,-17 -13,-18 -6,17 -7,18 h -653 -653 l -6,15 -5,15 h -46 -46 l -5,-15 -6,-15 h -184 -185 l -5,15 -6,15 h -683 -683 l -6,15 -5,15 h -42 -42 l -13,-18 -13,-17 -6,18 -7,17 h -471 -470 l -19,17 -19,17 142,137 141,138 22,3 21,3 3,27 3,27 27,3 27,3 3,28 3,27 h 21 21 l 89,90 89,90 h 15 16 l 99,99 99,99 v 66 65 l 17,10 18,9 -20,22 -20,22 v 625 624.9996 l 19,13 19,14 -6,16 -6,15 h -11 -10 v 66 66 l -129,129 -129,129 h -16 -16 v -16 -16 l 120,-120 120,-119 v -788.9996 -789 l -156,-155 -155,-156 h -25 -24 v -30 -30 h -21 -21 l -149,-149 -149,-150 -22,-3 -23,-3 -3,-28 -3,-27 h -19 -19 l -57,-60 -57,-60 h -32 -33 l -12,16 -13,15 -31,-3 -31,-3 -5,108 -5,108 78,77 77,77 v 76 76 l -20,18 -20,18 6,9 6,9 -38,34 -37,33 6,136 5,135 -13,11 -14,11 -44,-6 -45,-7 -11,21 -12,21 h -31 -32 l -27,-26 -28,-27 6,-134 6,-134 -51,-45 -52,-46 v -38 -38 l 14,-5 15,-6 9,12 10,12 4,35 3,35 h 20 20 l 1,-52 1,-52 30,-28 30,-28 -2,-45 -3,-45 -1,-7 -1,-8 h -12 -12 l -38,37 -38,37 v 17 17 l -15,12 -14,12 -11,-7 -10,-6 v -29 -28 l 15,-6 15,-5 v -19 -18 l 12,-12 12,-12 h 15 15 l 36,-35 35,-34 -5,-106 -5,-106 -420,1 h -419 l -9,15 -8,15 h -20 -19 l -43,45 -44,45 h -16 -17 v -20 -21 l 15,-5 15,-6 v -19 -19 h -40 -41 l -5,-15 -6,-15 h -78 -78 l -6,15 -5,15 h -370 -369 l -6,15 -5,15 h -325 -324 l -6,15 -5,15 h -12 -12 l -13,-18 -13,-17 -6,18 -7,17 h -234 -235 l -5,15 -6,15 h -40 -41 l -13,-17 -13,-18 -6,18 -7,17 h -473 -473 l -6,15 -5,15 h -12 -12 l -13,-17 -13,-18 -6,18 -7,17 h -429 -430 l -5,15 -6,15 h -25 -26 l -13,-18 -13,-17 -6,18 -7,17 h -488 -488 l -6,15 -5,15 h -416 -416 l -5,15 -6,15 h -474.001 -475.0003 l -5,15 -6,15 h -443 -443 l -6,15 -5,15 h -27 -27 l -13,-17 -13,-18 -6,18 -7,17 h -10 -11 l -13,-18 -13,-17 -6,18 -7,17 h -308 -308 l -6,15 -5,15 h -42 -42 l -13,-17 -13,-18 -6,17 -7,18 h -264 -265 l -5,15 -6,15 h -323 -323 l -6,15 -5,15 h -341 -340 v 10 11 l -15,6 -16,6 -14,-19 -14,-19 -6,17 -7,18 h -354 -355 l -5,15 -6,15 h -338 -338 l -6,15 -5,15 h -279 -280 l -12,15 -12,15 h -34 -33 l -3,88 -3,87 -29,3 -28,4 -11,-11 -11,-11 18,-19 17,-19 -3,-62 -3,-62 -180,2 -179,1 -16,14 -17,15 h -16 -17 v 33 34 l 18,16 18,17 175,2 174,3 v 20 20 h -215 -215 l -3,-72 -3,-73 h -318 -319 l -6,15 -5,15 h -340 -339 l -6,15 -5,15 h -296 -295 v 10 11 l -15,6 -16,6 -14,-19 -14,-19 -6,17 -7,18 h -54 -54 v 39 39 l -15,6 -15,5 v 85 84 l -15,6 -15,5 v 130 129 l -15,6 -15,5 v 49 49 l 45,39 45,38 v 13 14 l -16,6 -16,6 -10,-17 -10,-17 -19,17 -19,17 v 142 143 l -15,6 -15,5 v 111 111 l 15,5 15,6 v 23.9996 24 h 20 20 v -24 -23.9996 l 14,-5 15,-6 3,-58 3,-58 h 20 20 l 3,73 3,72.9996 -39,40 -40,39 h -21 -21 v 110 111 l 15,5 15,6 v 114 115 l 15,5 15,6 v 84 85 l 15,5 15,6 v 21 20 l 17,19 16,18 h 112 113 l 6,15 5,15 h 340 339 l 7,17 6,18 14,-19 14,-19 16,6 15,6 v 11 10 h 384 384 l 6,15 5,15 h 154 154 l 16,-18 16,-17 3,-70 3,-70 33,-3 32,-3 7,17 6,17 -16,12 -17,12 v 62 61 h 214 215 l 3,-27 3,-28 h 20 20 l 3,26 3,27 18,16 18,17 433,-1 h 433 l 24,22 23,21 23,-21 23,-22 h 61 61 l 12,15 12,15 h 308 308 l 6,15 5,15 h 281 281 l 5,15 6,15 h 543 543 l 12,15 12,15 h 35 34 l 5,-15 6,-15 h 13 13 l 6,15 5,15 h 595 594 l 6,15 5,15 h 21 20 v -10 -11 l 15,-6 16,-6 14,19 14,19 6,-17 7,-18 h 14 15 l 5,15 6,15 h 713 713.0003 l 6,15 5,15 h 625.001 624 l 6,15 5,15 h 141 141 l 5,-15 6,-15 h 28 28 l 6,15 5,15 h 682 682 l 13,18 13,17 6,-17 7,-18 h 28 28 l 6,15 5,15 h 35 34 l 6,-15 5,-15 h 12 12 l 13,18 13,17 6,-17 7,-18 h 28 28 l 6,15 5,15 h 487 487 l 13,18 13,17 6,-17 7,-18 h 10 11 l 13,18 13,17 6,-17 7,-18 h 118 118 l 6,15 5,15 h 170 169 l 6,-15 5,-15 h 16 16 l 5,15 6,15 h 488 488 l 6,15 5,15.0002 h 35 34 l 6,-15.0002 5,-15 h 16 16 l 5,15 6,15.0002 h 214 214 v -40.0002 -41 l 15,-5 15,-6 42,46 43,46.0002 419,1 h 418 l 5,-5 6,-5.0002 1,-86 1,-87 -63,-60 -63,-61 5,-13 5,-14 h 11 10 l 34,38 35,37 11,-11 12,-12 5,-88 5,-88 -15,-11 -15,-11 -4,-24 -3,-25 h -20 -20 l -3,20 -4,20 -13,15 -14,15 -3,40 -3,40 h -20 -20 l -3,-44 -3,-44 15,-9 16,-9 v -18 -19 l 51,-45 52,-46 -7,-117 -8,-117 43,-43 43,-44 h 46 47 l 24,26 24,26 v 141 142 l 25,3 25,4 23,21 22,20 v 18 17 l -14,11 -14,12 -15,-21 -15,-22 -19,4 -18,3 -3,55 -3,55 -15,8 -14,8 v 23 24 l -15,6 -15,5 4,33 4,33 1,8 1,7 h 27 27 l 38,-37 38,-37 v -62 -62 l 15,-12 14,-12 11,7 10,6 v 70 70 l -30,26 -30,25 v 17 17 l -12,12 -12,12 h -15 l -16,1 -22,18 -23,19 v 21 21 h -10 -10 v 14 14 l 16,6 17,6 -6,45 -5,45 11,7.0002 11,6 115,-2 116,-1 71,-75.0002 71,-75 h 12 12 l 5,15 6,15 -46,41 -46,41 v 19 19.0002 h 309 309 l 6,15 5,15 h 955 954 l 6,15 5,15 h 485 485 l 6,-11 7,-10 -21,-23 -21,-22 v -22.0002 -23 l 15,-5 15,-6 41,46 41,46.0002 h 32 32 l 31,-32 32,-33.0002 3,-55 3,-55 h 20 20 l 3,59 3,60 -15,8 -16,9 v 34.0002 35 h 19 19 l 12,15 12,15 h 256 255 l 19,-17 18,-16 v -30 -30 l -17,-12.0002 -16,-12 6,-17 6,-16 h 61 61 l 6,16 6,17 -16,12 -17,12.0002 v 47 46 h 1235 1235 v -32 -31 l -17,-19 -16,-18.0002 h -18 -19 l -28,-30 -29,-30 h -18 -18 l -44,-45 -43,-45 h -18 -18 l -24,-30 -25,-29 -19,-1 h -19 l -44,-45 -43,-45 h -15 -16 l -26,-30 -25,-30 h -17 -17 l -43,-44 -44,-45 -26,-3 -26,-3 -3,-18 -4,-17 31,-6 31,-6 v -21 -20 l -18,16 -19,17 h -55 -56 l -16,-6 -16,-6 v -44 -45 l 16,-6 16,-6 25,32 24,31 h 34 33 l 6,-15 5,-15 h 22 22 l 12,-17 12,-16 17,6 16,6 v 27 27 l -17,13 -18,13 18,6 17,7 v 24 24 h 34 34 l 6,-15 5,-15 h 16 16 l 6,16 6,17 -16,12 -17,12 v 29 28 l 51,48 51,48 h 19 20 l 5,15 6,15 h 21 20 l 59,60 58,60 h 18 18 l 24,30 25,29 18,1 h 18 l 26,30 25,30 h 18 18 l 12,15 12,15.0002 h 19 18 l 10,18 10,17 17,-17 18,-18 23,22 23,21 23,-21 23,-22 h 107 108 l 5,15 6,15 h 13 13 l 6,-15 5,-15 h 126 126 l 5,15 6,15 h 13 13 l 6,-15 5,-15 h 557 l 557,1 17,-16.0002 17,-15 h 13 13 l 19,-17 18,-16 v -19 -19 l 30,-25 29,-25 3,-72 3,-72 h 20 20 l 3,117 3,117 -42,38 -42,38.0002 h -11 l -11,1 -22,14 -23,15 v 13 13 l 18,-5 19,-6 16,18 17,19 30,-5 29,-4 z m -23349.0013,-86.0002 3,-43 h 20 20 l 3,28 3,27.0002 h 18 19 l 12,-15.0002 12,-15 h 16 15 l 19,-17 18,-16 v -62 -62 l -20,-18 -20,-18 h -40 -40 l -18,16 -18,17 -16,-16 -16,-16 h -57 -56 l -12,11 -11,11 h -11 -11 l -12,-12 -11,-11 h -41 -41 l -10,10 -11,11 37,41 37,41 h 18 19 l 3,-22 3,-23 h 20 20 l 3,50 3,50 47,48 46,47.0002 h 18 17 z m 13926.0013,-66 -2,-77 -4,-9 -5,-8 -23,27 -23,27 3,31 4,31 11,4 11,4 v 22 23.0002 l 6,6 7,6 9,-5 9,-6 z m -13626.0013,-80 11,-11 -11,-13 -11,-14 -26,1 -26,2 -11,11 -11,11 11,13 11,14 26,-1 26,-2 z m 13624.0013,-145 2,-62 -5,-9 -6,-8 -23,27 -23,27 3,27 3,27 18,22 19,21 5,-5 6,-5 z m 145,-2430.9996 -2,-61 -37,-37 -36,-38 h -13 -13 l -1,8 v 7 l -4,60 -3,60 29,27 29,27 v 19 19 l 7,6 6,7 20,-21 20,-22 z m -14257.0013,-25 33,-32 12,15 13,15 -6,10 -6,10 12,7 13,8 h 22 22 l 21,-19 20,-18 v -92 -92 l -18,-16 -18,-17 -50,51 -49,50 3,25 4,25 -13,15 -12,15 -18,-17 -19,-17 -3,4 -2,4 -34,37 -34,37 11,13 11,14 26,-1 25,-2 z m 14111.0013,-49 -3,-47 -1,-7 -1,-8 h -20 -20 l -1,8 -1,7 -4,29 -3,29 22,23 21,22 8,-4 7,-5 z m -9,-161 9,-10 -5,-93 -5,-93 h -15 -15 l -3,89 -3,89 5,14 5,13 h 9 8 z"
       id="path87040" />
    <path
       d="m 23238.1,10013.554 -7,-16.0002 11,-11 11,-11 16,7 16,6 -3,17.0002 -3,18 -18,3 -17,3 z"
       id="path87042" />
    <path
       d="m 23361.1,10021.554 -7,-6 v -43.0002 -42 l 15,-6 15,-5 v -94 -94 l -18,-16 -17,-16 -70,-3 -70,-3 v -20 -20 l 55,-3 55,-3 17,-16 18,-16 v -64 -63 h -25 -25 l -6,-25 -6,-25 6,-15 6,-16 62,3 63,3 3,29 4,29 -16,9 -16,9 v 33 34 l 15,12 15,12 v 19 19 h 19 19 l 12,-15 12,-15 h 65 64 l 5,-15 6,-15 h 68 68 l 12,-15 12,-15 h 64 64 v -20 -19 l -87,-3 -88,-3 v -20 -20 l 104,-3 103,-3 12,15 11,15 55,3 55,3 v 65 65 l -87,3 -86,3 -12,14 -12,15 h -125 -124 l -5,15 -6,15 h -69 -70 l -5,15 -6,15 h -24 -24 v 124 125 l 43,3 42,3 v 20 20 l -43,3 -43,3 -6,15.0002 -5,14 h -27 -28 z"
       id="path87044" />
    <path
       d="m 23568.1,9983.5538 -7,-16 10,-10 11,-11 28,4 29,3 v 20 20 l -33,3 -32,3 z"
       id="path87046" />
    <path
       d="m 23748.1,9983.5538 -7,-16 10,-10 11,-11 28,4 29,3 v 20 20 l -33,3 -32,3 z"
       id="path87048" />
    <path
       d="m 18590.1,9923.5538 -5,-15 h -19 -18 l -12,-12 -12,-12 v -18 -19 l -15,-5 -15,-6 v -43 -43 l 15,-6 15,-5 v -22 -22 l 26,-23 25,-24 h 52 52 l 23,24 22,24 v 21 20 l 30,23 30,22 v 13 14 l -15,5 -15,6 v 18 18 l -41,41 -41,41 h -38 -38 z m 84,-85 v -50 h -24 -24 l -5,-14 -6,-15 15,-11 14,-12 v -19 -19 h -35 -35 v 19 19 l 15,12 16,13 -16,17 -15,17 v 28 28 l 17,19 16,18 h 34 33 z"
       id="path87050" />
    <path
       d="m 24048.1,9923.5538 -7,-16 10,-10 11,-11 28,4 29,3 v 20 20 l -33,3 -32,3 z"
       id="path87052" />
    <path
       d="m 22214.1,9883.5538 v -25 h 25 25 v 25 25 h -25 -25 z"
       id="path87054" />
    <path
       d="m 24288.1,9833.5538 -7,-16 11,-11 11,-11 16,7 16,6 -3,17 -3,18 -18,3 -17,3 z"
       id="path87056" />
    <path
       d="m 21824.1,9793.5538 v -25 h 25 25 v 25 25 h -25 -25 z"
       id="path87058" />
    <path
       d="m 22214.1,9763.5538 v -55 h 25 25 v 55 55 h -25 -25 z"
       id="path87060" />
    <path
       d="m 25987.1,9764.5538 -53,-54 v -16 -16 h 18 18 l 24,30 25,29 20,1 h 20 l 24,25 23,25 -6,15 -5,15 h -28 l -28,-1 z"
       id="path87062" />
    <path
       d="m 18348.1,9773.5538 -7,-16 11,-11 11,-11 16,7 16,6 -3,17 -3,18 -18,3 -17,3 z"
       id="path87064" />
    <path
       d="m 19064.1,9763.5538 v -25 h 25 25 v 25 25 h -25 -25 z"
       id="path87066" />
    <path
       d="m 19184.1,9763.5538 v -26 l 128,3 127,3 v 20 20 l -127,3 -128,3 z"
       id="path87068" />
    <path
       d="m 19458.1,9773.5538 -6,-14 7,-11 6,-10 h 35 34 v 25 25 h -35 -36 z"
       id="path87070" />
    <path
       d="m 19574.1,9763.5538 v -25 h 85 85 v 25 25 h -85 -85 z"
       id="path87072" />
    <path
       d="m 24377.1,9772.5538 -6,-16 32,-28 31,-29 v -14 -15 l -15,-6 -15,-5 v -16 -16 l 16,-6 17,-6 11,15 12,16 24,4 25,3 3,26 3,27 -26,26 -26,26 h -18 -19 l -6,15 -5,15 h -16 -16 z"
       id="path87074" />
    <path
       d="m 16424.1,9703.5538 v -25 h 25 25 v 25 25 h -25 -25 z"
       id="path87076" />
    <path
       d="m 23084.1,9703.5538 v -26 l 38,3 37,3 v 20 20 l -37,3 -38,3 z"
       id="path87078" />
    <path
       d="m 27171.1,9692.5538 -7,-7 v -19 -18 h 26 25 l -3,22 -3,23 -15,3 -16,3 z"
       id="path87080" />
    <path
       d="m 7011.0987,9653.5538 -6,-14 -73,-3 -73,-3 v -20 -20 l 74,-3 75,-3 8,16 9,15 h 114 113 l 5,13 4,12 -5,13 -4,12 h -118 -118 z"
       id="path87082" />
    <path
       d="m 7279.0987,9658.5538 -6,-10 23,-30 23,-29 60,2 60,2 v 20 20 l -55,3 -55,3 -8,15 -8,14 h -14 -14 z"
       id="path87084" />
    <path
       d="m 18498.1,9653.5538 -6,-15 23,-25 24,-25 h 13 13 l 5,15 6,15 -23,25 -24,25 h -13 -13 z"
       id="path87086" />
    <path
       d="m 25844.1,9653.5538 v -15 h -15 -15 v -25 -25 h 25 25 v 15 15 h 15 15 v 25 25 h -25 -25 z"
       id="path87088" />
    <path
       d="m 16334.1,9613.5538 v -25 h 25 25 v 25 25 h -25 -25 z"
       id="path87090" />
    <path
       d="m 24348.1,9623.5538 -6,-15 h -23 -23 l -6,-15 -5,-15 h -79 -78 l -12,-12 -12,-12 v -15 l 1,-16 24,-27 24,-28 h 34 33 l 12,12 12,12 v 18 18 h 48 48 l 12,12 12,12 v 14 15 l 17,12 16,12 -6,17 -6,16 h -16 -16 z"
       id="path87092" />
    <path
       d="m 6768.0987,9593.5538 -7,-16 10,-10 11,-11 28,4 29,3 v 20 20 l -33,3 -32,3 z"
       id="path87094" />
    <path
       d="m 7458.0987,9593.5538 -6,-14 7,-11 6,-10 h 24 23 l 6,-16 6,-15 32,3 33,3 v 20 20 l -25,3 -25,4 -8,14 -8,14 h -30 -30 z"
       id="path87096" />
    <path
       d="m 10278.1,9593.5538 -7,-16 11,-11 11,-11 16,7 16,6 -3,17 -3,18 -18,3 -17,3 z"
       id="path87098" />
    <path
       d="m 10368.1,9593.5538 -7,-16 10,-10 11,-11 28,4 29,3 v 20 20 l -33,3 -32,3 z"
       id="path87100" />
    <path
       d="m 11752.1,9569.5538 -38,-39 v -36 -36 h -47 l -48,1 -25,29 -24,30 h -18 -18 v -16 -16 l 39,-39 39,-39 h 56 57 l 5,15 6,15 h 22 22 l 26,30 26,30 429,2 428,3 v 20 20 l -25,3 -25,4 -8,14 -8,14 h -15 -15 l -5,-15 -6,-15 h -33 -33 l -6,15 -5,15 h -15 -14 l -7,-17 -6,-18 -13,18 -13,17 h -87 -87 l -5,-15 -6,-15 h -18 -18 l -6,15 -5,15 h -31 -31 l -5,-15 -6,-15 h -18 -18 l -6,15 -5,15 h -16 -16 l -5,-15 -6,-15 h -78 -78 l -6,15 -5,15 h -25 -24 l -6,15 -5,15 h -13 l -13,-1 z"
       id="path87102" />
    <path
       d="m 22214.1,9583.5538 v -25 h 25 25 v 25 25 h -25 -25 z"
       id="path87104" />
    <path
       d="m 27164.1,9538.5538 v -70 h 25 25 v 70 70 h -25 -25 z"
       id="path87106" />
    <path
       d="m 3737.0987,9565.5538 -8,-15 -25,-4 -25,-3 v -20 -20 h 50 50 v 35 35 l -17,3 -16,3 z"
       id="path87108" />
    <path
       d="m 6708.0987,9563.5538 -7,-16 11,-11 11,-11 16,7 16,6 -3,17 -3,18 -18,3 -17,3 z"
       id="path87110" />
    <path
       d="m 10128.099,9563.5538 -7,-16 10,-10 11,-11 28,4 29.001,3 v 20 20 l -33.001,3 -32,3 z"
       id="path87112" />
    <path
       d="m 10548.1,9563.5538 -7,-16 10,-10 11,-11 28,4 29,3 v 20 20 l -33,3 -32,3 z"
       id="path87114" />
    <path
       d="m 28878.1,9563.5538 -7,-16 10,-10 11,-11 28,4 29,3 v 20 20 l -33,3 -32,3 z"
       id="path87116" />
    <path
       d="m 3558.0987,9533.5538 -7,-16 10,-10 10,-10 44,3 44,3 v 20 20 l -48,3 -47,3 z"
       id="path87118" />
    <path
       d="m 6648.0987,9533.5538 -7,-16 11,-11 11,-11 16,7 16,6 -3,17 -3,18 -18,3 -17,3 z"
       id="path87120" />
    <path
       d="m 6890.0987,9533.5538 -5,-15 h -40 -39 l -6,-15 -5,-15 h -26 -26 l -5,-15 -6,-15 h -24 -25 l -5,-15 -6,-15 h -20 -20 l -39,-39 -39,-39 v -16 -16 h 33 33 l 24,30 25,29 23,1 h 23 l 5,15 6,15 h 39 40 l 5,15 6,15 h 38 38 l 6,15 5,15 h 85 84 l 6,15 5,15 h 66 66 l 5,-15 6,-15 h 84 85 l 5,-15 6,-15 h 39 40 l 5,-15 6,-15 h 24 25 l 5,-15 6,-15 h 24 25 l 5,-15 6,-15 h 23 22 l 42,-45 41,-45 h 18 18 l 148,-150 148,-150 h 17 17 l 32,-33 31,-32 3,-144.9996 3,-145 h 20 20 l 3,130 3,129.9996 14,8 15,8 v 19 20 l 19,19 19,19 24,4 23,3 3,28 3,27 h 75 74 v 25 25 h -80 -79 l -8,-14 -8,-15 -40,-3 -40,-3 -3,-27 -3,-28 h -34 -33 l -55,60 -56,60 h -19 -18 l -119,120 -118,120 h -18 -17 l -25,30 -26,30 h -21 -21 l -5,15 -6,15 h -23 -23 l -25,30 -26,30 h -36 -36 l -5,15 -6,15 h -54 -55 l -5,15 -6,15 h -223 -223 z"
       id="path87122" />
    <path
       d="m 7608.0987,9533.5538 -6,-15 23,-25 24,-25 h 21 22 l 6,-15 5,-15 h 20 20 l 77,-75 77,-75 h 17 18 l 6,-15 5,-15 h 16 16 l 6,16 6,17 -16,12 -17,12 v 16 16 l 58,3 57,3 v 20 20 l -113,3 -113,3 -43,44 -43,45 h -20 -21 l -6,15 -5,15 h -25 -24 l -6,15 -5,15 h -16 -16 z"
       id="path87124" />
    <path
       d="m 10038.099,9533.5538 -7,-16 11,-11 11,-11 16,7 16,6 -3,17 -3,18 -18,3 -17,3 z"
       id="path87126" />
    <path
       d="m 10668.1,9533.5538 -7,-16 11,-11 11,-11 16,7 16,6 -3,17 -3,18 -18,3 -17,3 z"
       id="path87128" />
    <path
       d="m 28668.1,9533.5538 -7,-16 10,-10 10,-10 74,3 74,3 v 20 20 l -78,3 -77,3 z"
       id="path87130" />
    <path
       d="m 29058.1,9533.5538 -7,-16 10,-10 10,-10 44,3 44,3 v 20 20 l -48,3 -47,3 z"
       id="path87132" />
    <path
       d="m 4880.0987,9503.5538 -5,-15 h -55 -54 l -6,-15 -5,-15 h -26 -26 l -5,-15 -6,-15 h -24 -25 l -5,-15 -6,-15 h -22 -22 l -24,-30 -25,-29 -18,-1 h -19 l -99,-99 -99,-99 v -31 -31 h 20 19 l 8,14 8,14 25,4 25,3 3,23 3,22 65,65 65,65 h 18 17 l 24,30 25,29 23,1 h 23 l 5,15 6,15 h 39 40 l 5,15 6,15 h 39 40 l 5,15 6,15 h 69 70 l 5,15 6,15 h 78 78 l 6,-15 5,-15 h 70 69 l 6,-15 5,-15 h 55 54 l 6,-15 5,-15 h 25 24 l 6,-15 5,-15 h 23 l 23,-1 25,-29 24,-30 h 17 18 l 95,-96 96,-95 v -41 -41 l -17,-12 -16,-12 6,-17 6,-16 h 91 91 l 6,16 6,15 -47,44 -46,45 v 16 17 l -60,59 -60,58 v 18 17 l -24,23 -24,22 h -18 l -19,1 -25,29 -24,30 h -22 -22 l -6,15 -5,15 h -25 -24 l -6,15 -5,15 h -25 -24 l -6,15 -5,15 h -25 -24 l -6,15 -5,15 h -41 -41 l -5,15 -6,15 h -223 -223 z"
       id="path87134" />
    <path
       d="m 6530.0987,9478.5538 -38,-40 6,-15 5,-15 h 13 14 l 25,29 26,29 24,4 24,3 v 20 20 l -30,2 -30,3 z"
       id="path87136" />
    <path
       d="m 9918.0987,9504.5538 -6,-16 h -24 -25 l -5,-15 -6,-15 h -22 -21 l -24,-25 -23,-25 6,-15 5,-15 h 16 16 l 5,15 6,15 h 24 25 l 5,15 6,15 h 24 23 l 8,14 8,14 24.9999,4 25,3 v 20 20 l -33,3 -31.9999,3 z"
       id="path87138" />
    <path
       d="m 10310.1,9503.5538 -5,-15 h -100 -99.001 l -6,-15 -5,-15 h -25 -24 l -6,-15 -5,-15 h -40.0004 -39 l -5.9999,-15 -5,-15 h -25 -24 l -6,-15 -5,-15 h -19 -19 l -89,-90 -88,-90 h -17 -18 l -57,-60 -57,-60 h -16 -17 l -59,-60 -59,-60 h -15 -14 l -19,-17 -18,-16 v 16 17 l 17,20 17,20 h 16 15 l 193,192 193,191 -5,14 -6,14 -137,-3 -138,-3 v -20 -20 l 89,-5 89,-5 -16,-14 -17,-13 v -14 -13 l -50,-51 -51,-50 h -12 -13 l -104,-105 -105,-104 h -30 -30 l -25,29 -24,30 h -18 -18 v -18 -17 l 75,-70 75,-69 v -23 -22 l 15,-8 15,-9 2,-278.9996 3,-280 h 20 20 l 3,309 2,309.9996 17,18 16,18 h 18 19 l 41,45 42,45 h 17 17 l 118,120 119,120 h 18 18 l 41,45 42,45 h 22 22.9999 l 6,15 5,15 h 40.0004 39 l 6,15 5,15 h 40 39 l 6,15 5,15 h 245.001 244 l 6,-15 5,-15 h 25 24 l 6,-15 5,-15 h 40 39 l 6,-15 5,-15 h 36 35 v 16 16 l -22,24 -23,24 h -21 -22 l -6,15 -5,15 h -25 -24 l -6,15 -5,15 h -40 -39 l -6,15 -5,15 h -85 -84 l -6,15 -5,15 h -15 -14 l -7,-17 -6,-18 -13,18 -13,17 h -26 -25 z"
       id="path87140" />
    <path
       d="m 10788.1,9503.5538 -6,-15 23,-25 24,-25 h 21 22 l 6,-15 5,-15 h 25 24 l 6,-15 5,-15 h 21 20 v 18 17 l -24,23 -24,22 h -20 -20 l -6,15 -5,15 h -25 -24 l -6,15 -5,15 h -16 -16 z"
       id="path87142" />
    <path
       d="m 22544.1,9309.5538 v -209 l -15,-6 -15,-5 v -15 -15 l 14,-8 13,-8 6,-153 7,-152.9996 -15,-5 -15,-6 v -28 -28 l 15,-6 15,-5 v -21 -21 l -15,-5 -15,-6 v -163 -163 l 15,-6 15,-5 v -51 -51 l -15,-5 -15,-6 v -14 -15 l 13,-4 12,-5 -3,-138 -4,-137 -15,-17 -15,-17 -57,-3 -56,-3 v -20 -20 l 73,-3 72,-3 v -168 -169 l -15,-6 -15,-5 v -21 -20 h 55 55 v 25 25 h -15 -14 l -3,328 -3,327 4,13 3,12 h 17 17 l 24,-30 25,-29 20,-1 h 21 l 24,-30 25,-29 22,-1 h 22 l 10,-17 9,-17 35,2 36,3 9,-17 10,-17 126,2 126,2 6,-15 6,-16 h 13 13 l 6,15 5,15 h 138 139 l 17,-20 17,-20 v -5 -5 l -45,-41 -45,-42 11,-13 11,-14 h 17 17 l 12,12 12,12 v 15 16 l 49,52 48,53 h 20 21 l 6,15 5,15 h 18 19 l 19,-22 19,-22 -3,-46 -2,-45 -16,-12 -16,-12 7,-16 6,-16 32,3 33,3 v 116 116 l 89,88 89,89 -2,63 -2,63 15,6 16,6 v 88 88 l -15,6 -15,5 v 70 69 l -16,6 -15,6 6,10 7,11 16,-3 17,-3 13,9 14,8 -42,39 -42,39 h -15 -15 l -54,53.9996 -53,53 6,89 5,89 15,12 16,12 -6,16 -6,15 h -45 -45 l -6,-11 -7,-10 15,-17 15,-17 3,-65 4,-65 -18,-3 -19,-4 -44,46 -44,46 h -14 -14 l -11,13 -11,14 7,7 7,6 -29,30 -29,30 h -32 -31 l -42,46 -43,45 -26,-3 -27,-3 v -20 -20 l 28,-3 27,-3 v -33 -34 l 15,-12 15,-12 24,6 25,6 15,-15 15,-15 h 15 15 l 41,-38 40,-39 -7,-6 -6,-7 h -184 -184 l -5,15 -6,15 h -28 -28 l -6,-15 -6,-16 -141,2 -142,1 -9,-16 -9,-16 h -23 -24 l -6,-15 -5,-15 h -23 l -23,-1 -25,-29 -24,-30 h -22 -22 l -6,-16 -6,-15 -10,6 -10,6 v 24 23 l -11,4 -11,4 1,154 2,155 14,8 15,8 v 58 59 l -17,7 -18,6 18,13 17,13 v 92 91 h -40 -40 z m 1056,-595.9996 6,-15 h 24 25 l 5,-15 6,-15 h 20 20 l 24,-22 24,-23 v -21 -22 l 15,-6 15,-5 v -25 -24 l 15,-6 15,-5 v -81 -81 l -15,-5 -15,-6 v -37 -37 l -29,-25 -29,-26 -4,-24 -3,-24 -25,-3 -25,-4 -8,-14 -8,-14 h -410 -410 l -5,15 -6,15 h -35 -35 l -54,54 -54,54 v 20 20 l -15,6 -15,5 v 96 96 l 15,5 15,6 v 35 35 l 54,54 54,54 h 20 20 l 6,15 5,15 h 396 396 z"
       id="path87144" />
    <path
       d="m 28548.1,9503.5538 -7,-16 10,-10 11,-11 28,4 29,3 v 20 20 l -33,3 -32,3 z"
       id="path87146" />
    <path
       d="m 29208.1,9503.5538 -6,-14 7,-11 6,-10 h 24 23 l 6,-15 5,-15 h 40 39 l 6,-15 5,-15 h 23 l 23,-1 25,-29 24,-30 h 21 l 20,-1 25,-29 24,-30 h 18 17 l 36,-35 35,-36 v -16 -16 l 75,-74 75,-73 v -18 -17 l 25,-24 25,-23 15,6 15,5 v 11 10 h 79 79 l 6,-16 6,-15 32,3 33,3 v 20 20 l -25,3 -25,4 -8,14 -8,14 h -53 -54 l -6,15 -5,15 h -40 -39 l -6,15 -5,15 h -26 -25 v 21 21 l -114,114 -114,114 h -19 l -18,1 -25,29 -24,30 h -22 -22 l -6,15 -5,15 h -25 -24 l -6,15 -5,15 h -40 -39 l -6,15 -5,15 h -31 -31 z"
       id="path87148" />
    <path
       d="m 31551.1,9512.5538 -7,-7 v -19 -19 l 23,3 22,3 v 20 20 l -15,3 -16,3 z"
       id="path87150" />
    <path
       d="m 16124.1,9478.5538 v -10 l -75,-73 -75,-74 v -95 -95 l -20,-18 -20,-18 -6,17 -6,16 h -14 -15 l -5,-15 -6,-15 h -214 -215 l -5,15 -6,15 h -74 -75 l -6,-15 -6,-16 19,-14 19,-14 -26,-1 h -27 l -6,-15 -5,-15 h -25 -24 l -6,-15 -5,-15 h -22 -22 l -11,-14 -11,-15 -27,-3 -27,-3 -29,28 -30,28 -788,-1 -789,-1 -8,-14 -8,-15 h -20 -20 l -5,15 -6,15 h -84 -85 l -5,-15 -6,-15 h -13 -13 l -6,15 -5,15 h -66 -66 l -5,-15 -6,-15 h -13 -13 l -6,15 -5,15 h -175 -174 l -6,-16 -6,-16 -290,3 -290,2 -6,-5 -6,-6 1,-517.9996 v -517 l 23,-24 23,-24 16,20 17,21 h 106 107 l 5,-15 6,-15 h 28 28 l 6,15 5,15 h 36 36 l 5,-15 6,-15 h 43 43 l 7,18 6,17 13,-17 13,-18 h 1239 l 1239,-1 3,11 4,10 h 13 13 l 6,-15 5,-15 h 36 36 l 5,-15 6,-15 h 24 24 v -20 -20 l -262,-2 -263,-3 v -20 -20 l 604,-3 604,-2 12,-17 12,-16 17,6 16,6 v 76 76 l -16,6 -17,6 -12,-16 -12,-17 h -332 -332 l -5,15 -6,15 h -23 -23 l -12,15 -12,15 h -18 -18 l -12,15 -12,15 h -19 -18 l -81,78 -80,79 v 19 l -1,19 -29,25 -30,24 v 52 52 l -15,6 -15,5 v 96 96 l 15,5 15,6 v 54 55 l 15,5 15,6 v 22 22 l 30,24 29,24.9996 1,20 v 19 l 68,63 67,63 h 16 17 l 12,15 12,15 h 23 23 l 6,15 5,15 h 49 50 l 12,15 12,15 h 33 33 l 12,-15 12,-15 h 274 273 l 3,-27 3,-28 h 20 20 l 3,187 2,187 66,66 65,65 h 25 24 v 25 25 h -40 -40 z m -3433,-619 22,-19 3,-157.9996 3,-159 h 706 707 l 19,-17 20,-18 h 6 7 v 157 156.9996 l 37,38 37,38 h 90 90 l 23,-22 23,-21 v -15 -15 l 17,-20 18,-19 -18,-8.9996 -17,-10 v -53 -54 l 15,-6 15,-5 v -71 -70 h 14 14 l 6,15 5,15 h 108 107 l 23,-22 23,-22 -22,-23 -21,-23 h -129 -128 v -157 -157 l -22,-23 -21,-23 h -121 l -121,1 -22,18 -23,19 v 80 80 l 15,12 15,12 v 18 18 l -15,12 -15,12 v 54 54 h -7 -6 l -20,-17 -19,-18 h -707 -706 l -3,-163 -2,-162 h -56 -55 l -5,-15 -6,-15 h -24 -24 l -20,20 -20,20 v 175 175 h -14 -14 l -6,-15 -6,-15 -202,2 -203,3 v 40 40 l 220,5 220,5 3,85 3,85 14,8 15,8 v 83.9996 85 h 68 l 67,-1 z m 1347,-26 5,-15 h 56 55 v -10 -10 l -18,-18 -19,-18.9996 -305,-7 -306,-6 -381,6 -381,7 v 28.9996 28 h 625 626 l 5,15 6,15 h 13 13 z m 626,0 13,-16 17,16 17,15 h 17 17 l 5,-15 6,-15 h 13 13 l 6,15 5,15 h 49 49 l 21,-23 22,-23 -7,-7 -6,-7 h -38 -37 l -6,-15 -6,-15.9996 -142,3 -143,2.9996 -3,28 -3,27 h 26 26 l 5,15 6,15 h 23 23 z m -2190,-45 v -29.9996 h -205 -206 l -5,14.9996 -6,15 6,15 5,15 h 206 205 z m 1566,-616.9996 13,-18 6,18 7,17 h 13 13 l 6,-15 5,-15 h 26 25 v -15 -15 h -705 -705 v 30 30 l 218,3 217,4 424,-3 424,-4 z m -1566,-13 v -30 h -205 -206 l -5,15 -6,15 6,15 5,15 h 206 205 z m 2164,15 5,-15 h 124 124 l 6,-7 7,-7 -22,-23 -21,-23 h -113 -112 l -6,15 -5,15 h -41 -40 v 10 10 l 18,19 17,19 26,1 27,1 z"
       id="path87152" />
    <path
       d="m 22994.1,9463.5538 v -26 l 83,3 82,3 v 20 20 l -82,3 -83,3 z"
       id="path87154" />
    <path
       d="m 23238.1,9473.5538 -7,-16 11,-11 11,-11 16,7 16,6 -3,17 -3,18 -18,3 -17,3 z"
       id="path87156" />
    <path
       d="m 24618.1,9474.5538 -6,-15 7,-11 6,-10 h 20 20 l -3,22 -3,23 -18,3 -17,3 z"
       id="path87158" />
    <path
       d="m 25604.1,9473.5538 v -15 h -15 -15 v -25 -25 h 25 25 v 15 15 h 15 15 v 25 25 h -25 -25 z"
       id="path87160" />
    <path
       d="m 28458.1,9474.5538 -6,-16 h -22 -21 l -24,-25 -23,-25 6,-15 5,-15 h 16 16 l 5,15 6,15 h 24 23 l 8,14 8,14 25,4 25,3 v 20 20 l -33,3 -32,3 z"
       id="path87162" />
    <path
       d="m 32871.1,9482.5538 -7,-7 v -41 -41 l 25,-23 24,-23 43,3 43,3 v 20 20 l -23,3 -24,4 -18,18 -18,18 -4,24 -3,23 -15,3 -16,3 z"
       id="path87164" />
    <path
       d="m 23628.1,9443.5538 -7,-16 11,-11 11,-11 16,7 16,6 -3,17 -3,18 -18,3 -17,3 z"
       id="path87166" />
    <path
       d="m 28698.1,9443.5538 -6,-15 h -39 -40 l -5,-15 -6,-15 h -39 -40 l -5,-15 -6,-15 h -24 -25 l -5,-15 -6,-15 h -24 -25 l -5,-15 -6,-15 h -20 -20 l -40,-45 -40,-45 h -18 -19 l -55,-56 -56,-55 v -18 -18 l -18,-16 -19,-17 h -16 -16 l -57,-60 -57,-60 h -34 -33 v 19 19 l 31,26 30,26 -3,27 -3,28 -28,3 -29,3 -13,-18 -14,-18 -6,18 -7,17 h -28 -28 l -7,-17 -6,-18 -13,18 -13,17 h -47 -46 v -16 -16 l 39,-39 39,-39 h 19 19 l 47,-48 47,-48 v -22 -23 l 15,-5 15,-6 v -24 -24.9996 l 15,-5 15,-6 v -75 -74 l 23,3 22,3 3,78 3,77 -16,5.9996 -15,6 v 18 18 l 15,6 15,5 v 23 24 l 63,62 63,62 h 15 16 l 103,105 104,105 h 18 18 l 41,45 42,45 h 39 39 l 5,15 6,15 h 24 25 l 5,15 6,15 h 39 40 l 5,15 6,15 h 99 100 l 5,15 6,15 h 33 33 l 6,-15 5,-15 h 85 84 l 6,-15 5,-15 h 25 24 l 6,-15 5,-15 h 25 24 l 6,-16 6,-15 47,3 48,3 v 35 35 l -25,3 -25,4 -8,14 -8,14 h -53 -54 l -6,15 -5,15 h -55 -54 l -6,15 -5,15 h -181 -181 z"
       id="path87168" />
    <path
       d="m 30858.1,9443.5538 -6,-15 h -54 -55 l -5,-15 -6,-15 h -24 -25 l -5,-15 -6,-15 h -37 -37 l -24,-30 -25,-29 -20,-1 h -21 l -24,-30 -25,-29 -19,-1 h -18 l -84,-84 -84,-84 v -16 -16 l -46,-45 -47,-44 7,-16 6,-16 62,3 63,3 3,39 3,39 30,26 29,25 v 18 17 l 35,36 36,35 h 17 18 l 24,30 25,29 20,1 h 21 l 24,30 25,29 38,1 h 38 l 5,15 6,15 h 24 25 l 5,15 6,15 h 24 25 l 5,15 6,15 h 98 98 l 7,18 6,17 13,-17 13,-18 h 11 10 l 7,18 6,17 13,-17 13,-18 h 81 80 l 6,-15 5,-15 h 40 39 l 6,-16 6,-15 32,3 33,3 v 35 35 l -25,3 -25,4 -8,14 -8,14 h -68 -69 l -6,15 -5,15 h -181 -181 z"
       id="path87170" />
    <path
       d="m 31577.1,9442.5538 -6,-17 16,-12 17,-12 v -20 -19 l 30,-24 29,-25 1,-13 v -13 l 23,3 22,3 3,23 3,22 h -15 -16 v 21 21 l -39,39 -39,39 h -11 -12 z"
       id="path87172" />
    <path
       d="m 6376.0987,9353.5538 -72,-75 h -10 -10 v -25 -25 h 25 25 v 10 10 l 76,75 76,74 -6,16 -5,15 h -13 l -13,-1 z"
       id="path87174" />
    <path
       d="m 14181.1,9421.5538 -7,-6 v -88 -87 l 13,-5 12,-4 13,5 12,4 v 65 66 l 17,12 16,12 -6,17 -6,16 h -29 -29 z"
       id="path87176" />
    <path
       d="m 14326.1,9406.5538 3,-23 h 20 20 l 3,23 3,22 h -26 -26 z"
       id="path87178" />
    <path
       d="m 14416.1,9406.5538 3,-23 25,-3 24,-4 12,-16 11,-15 17,6 17,7 -3,32 -3,33 -53,3 -54,3 z"
       id="path87180" />
    <path
       d="m 8834.0987,9373.5538 v -25 h 25 25 v 25 25 h -25 -25 z"
       id="path87182" />
    <path
       d="m 8924.0987,9373.5538 v -25 h 25 25 v 25 25 h -25 -25 z"
       id="path87184" />
    <path
       d="m 9014.0987,9373.5538 v -25 h 25 25 v 25 25 h -25 -25 z"
       id="path87186" />
    <path
       d="m 9104.0987,9373.5538 v -25 h 40 40 v 25 25 h -40 -40 z"
       id="path87188" />
    <path
       d="m 9224.0987,9373.5538 v -25 h 25 25 v 25 25 h -25 -25 z"
       id="path87190" />
    <path
       d="m 9288.0987,9383.5538 -6,-14 7,-11 6,-10 h 20 19 v 25 25 h -20 -21 z"
       id="path87192" />
    <path
       d="m 23084.1,9382.5538 v -16 l 55,-55 55,-55 15,6 15,5 v 12 11 l -54,54 -54,54 h -16 -16 z"
       id="path87194" />
    <path
       d="m 28295.1,9373.5538 -23,-25 6,-15 5,-15 h 13 13 l 24,25 23,25 -6,15 -5,15 h -13 -13 z"
       id="path87196" />
    <path
       d="m 33381.1,9392.5538 -7,-7 v -23 -23 l -42,-3 -43,-3 v -20 -20 l 43,-3 44,-3 24,25 25,25 -3,28 -3,28 -15,3 -16,3 z"
       id="path87198" />
    <path
       d="m 21134.1,9220.5538 v -148 l 12,-12 12,-12 13,11 13,11 v 149 149 h -25 -25 z"
       id="path87200" />
    <path
       d="m 21464.1,9343.5538 v -25 h 25 25 v 25 25 h -25 -25 z"
       id="path87202" />
    <path
       d="m 33108.1,9353.5538 -7,-16 10,-10 10,-10 44,3 44,3 v 20 20 l -48,3 -47,3 z"
       id="path87204" />
    <path
       d="m 11054.1,9313.5538 v -25 h 9 10 l 65,-66 66,-65 v -100 -99 h 25 25 v 70 70 l 20,20 20,20 h 175 174 l 36,-35 35,-36 v -19 -19 l 14,-8 15,-8 3,-70 3,-70 h 20 20 l 3,40 3,40 15,8 14,8 v 15 15 l -15,5 -15,6 v 15 16 l 17,12 16,12 -6,17 -6,16 h -21 -20 l -43,45 -44,45 h -226 -226 l -65,66 -66,65 v 10 9 h -25 -25 z"
       id="path87206" />
    <path
       d="m 13217.1,9323.5538 -6,-16 10,-10 10,-10 119,3 119,3 v 20 20 l -123,3 -122,3 z"
       id="path87208" />
    <path
       d="m 20206.1,9316.5538 3,-23 h 140 140 v 20 20 l -143,3 -143,3 z"
       id="path87210" />
    <path
       d="m 28218.1,9323.5538 -7,-16 11,-11 11,-11 16,7 16,6 -3,17 -3,18 -18,3 -17,3 z"
       id="path87212" />
    <path
       d="m 13098.1,9293.5538 -7,-16 10,-10 11,-11 28,4 29,3 v 20 20 l -33,3 -32,3 z"
       id="path87214" />
    <path
       d="m 13488.1,9293.5538 -7,-16 10,-10 10,-10 44,3 44,3 v 20 20 l -48,3 -47,3 z"
       id="path87216" />
    <path
       d="m 20116.1,9286.5538 3,-23 h 20 20 l 3,23 3,22 h -26 -26 z"
       id="path87218" />
    <path
       d="m 20508.1,9293.5538 -7,-16 10,-10 10,-10 44,3 44,3 v 20 20 l -48,3 -47,3 z"
       id="path87220" />
    <path
       d="m 13008.1,9264.5538 -6,-16 h -34 -33 l -26,-26 -26,-26 5,-14 5,-14 h 9 10 l 12,15 12,15 h 33 33 l 12,14 11,15 27,3 27,3 v 20 20 l -33,3 -32,3 z"
       id="path87222" />
    <path
       d="m 13608.1,9263.5538 -7,-16 11,-11 11,-11 16,7 16,6 -3,17 -3,18 -18,3 -17,3 z"
       id="path87224" />
    <path
       d="m 23238.1,9263.5538 -7,-16 11,-11 11,-11 16,7 16,6 -3,17 -3,18 -18,3 -17,3 z"
       id="path87226" />
    <path
       d="m 31701.1,9271.5538 -7,-6 v -19 -19 l 23,3 22,3 3,23 3,22 h -19 -19 z"
       id="path87228" />
    <path
       d="m 13670.1,9231.5538 -7,-16 13,-9 13,-8 h 16 17 l 12,-15 12,-15 h 78 78 l 12,-15 12,-15 h 18 18 l 11,13 11,13 -12,12 -12,12 h -17 -17 l -12,15 -12,15 h -63 -63 l -12,15 -12,15 h -38 -38 z"
       id="path87230" />
    <path
       d="m 20718.1,9233.5538 -6,-16 27,-25 27,-25 71,3 72,3 v 20 20 l -70,3 -70,3 -8,15 -8,14 h -15 -15 z"
       id="path87232" />
    <path
       d="m 12701.1,9160.5538 -58,-59 14,-11 14,-12 28,30 29,30 h 16 16 l 28,29 28,29 -6,11 -7,11 h -22 -23 z"
       id="path87234" />
    <path
       d="m 14184.1,9203.5538 -12,-15 4,-25 5,-25 -13,-11 -14,-11 v -14 -14 h 45 45 v 14 14 l -13,11 -14,11 5,28 4,28 -15,12 -14,12 z"
       id="path87236" />
    <path
       d="m 16342.1,9179.5538 -38,-39 v -20 -21 l -57,-3 -58,-3 v -20 -20 l 43,-3 42,-3 22,-30 22,-29 h 12 12 l 6,16 6,17 18,-17 19,-16 h 32 32 l 5,-15 6,-15 h 28 28 l 6,15 5,15 h 35 35 l 26,26 26,26 -3,56 -3,57 -55,3 -55,2 -27,32 -27,31 -15,-6 -16,-6 v -24 -24 l -18,-16 -19,-17 h -13 -13 l -19,-17 -18,-16 v 21 21 l 31,24 32,25 -6,16 -6,16 h -13 l -13,-1 z"
       id="path87238" />
    <path
       d="m 28040.1,9178.5538 -38,-40 6,-15 5,-15 h 12 11 l 40,40 40,40 -6,15 -5,15 h -13 l -13,-1 z"
       id="path87240" />
    <path
       d="m 31731.1,9211.5538 -7,-6 v -19 -18 h 15 15 v -15 -15 h 25 25 v 25 25 h -15 -15 v 15 15 h -18 -19 z"
       id="path87242" />
    <path
       d="m 8058.0987,9173.5538 -6,-15 23,-25 24,-25 h 13 13 l 5,15 6,15 -23,25 -24,25 h -13 -13 z"
       id="path87244" />
    <path
       d="m 14491.1,9150.5538 -37,-38 v -12 -12 l 10,-1 10,-1 h 40 40 l 10,1 10,1 v 14 14 l -15,12 -15,12 5,8 5,8 -6,16 -6,16 h -7 -7 z"
       id="path87246" />
    <path
       d="m 19745.1,9163.5538 -23,-25 6,-15 5,-15 h 10 10 l 27,25 26,24 -6,16 -5,15 h -13 -13 z"
       id="path87248" />
    <path
       d="m 20928.1,9175.5538 -5,-14 58,-56 58,-56 13,11 12,11 -52,56 -53,56 -13,3 -12,3 z"
       id="path87250" />
    <path
       d="m 8714.0987,9133.5538 v -25 h 25 25 v 25 25 h -25 -25 z"
       id="path87252" />
    <path
       d="m 8774.0987,9133.5538 v -25 h 25 25 v 25 25 h -25 -25 z"
       id="path87254" />
    <path
       d="m 25184.1,9148.5538 v -10 l -20,-20 -20,-20 h -20 -21 l -5,-15 -6,-15 h -75 -74 l 3,-22 3,-23 30,-5 30,-6 -17,-6 -18,-7 v -21 -20 h 20 21 l 5,15 6,15 h 24 25 l 5,15 6,15 h 24 25 l 5,15 6,15 h 29 29 v 30 30 h 15 15 v 25 25 h -25 -25 z"
       id="path87256" />
    <path
       d="m 12471.1,9114.5538 -6,-15 13,-10 12,-11 11,11 11,11 -5,14 -5,14 h -13 -13 z"
       id="path87258" />
    <path
       d="m 12565.1,9114.5538 -11,-13 14,-12 13,-11 12,14 11,13 -14,12 -13,11 z"
       id="path87260" />
    <path
       d="m 14841.1,9114.5538 -6,-15 13,-10 13,-11 13,14 12,15 -7,11 -6,10 h -14 -13 z"
       id="path87262" />
    <path
       d="m 24256.1,9091.5538 3,-38 23,-3 22,-3 v 40 41 h -26 -25 z"
       id="path87264" />
    <path
       d="m 31784.1,9103.5538 v -25 h 25 25 v 25 25 h -25 -25 z"
       id="path87266" />
    <path
       d="m 9014.0987,9073.5538 v -25 h 55 55 v 25 25 h -55 -55 z"
       id="path87268" />
    <path
       d="m 21469.1,9088.5538 -7,-11 12,-14 12,-15 h 17 17 l 11,11 11,11 -5,14 -5,14 h -28 -29 z"
       id="path87270" />
    <path
       d="m 24134.1,9073.5538 v -26 l 53,3 52,3 v 20 20 l -52,3 -53,3 z"
       id="path87272" />
    <path
       d="m 27164.1,9083.5538 v -15 h -15 -15 v -25 -25 h 15 15 v -15 -15 h 40 40 v 15 15 h 45 45 v 25 25 h -60 -60 v 15 15 h -25 -25 z"
       id="path87274" />
    <path
       d="m 6137.0987,9054.5538 -8,-14 -25,-4 -25,-3 -3,-69 -3,-70 -15,-10 -15,-11 3,-75 3,-74.9996 h 20 20 l 3,69.9996 3,70 15,8 14,8 v 23 24 l 15,6 15,5 v 25 24 l 15,6 15,5 v 36 35 h -20 -19 z"
       id="path87276" />
    <path
       d="m 23185.1,9054.5538 -13,-15 4,-18 3,-18 h 20 20 l 3,21 3,21 -14,11 -14,12 z"
       id="path87278" />
    <path
       d="m 24787.1,9014.5538 -53,-54 v -20 -20 l -15,-6 -15,-5 v -25 -24 l -15,-6 -15,-5 v -55 -53.9996 l -15,-6 -15,-5 v -16 -16 l 16,-6 17,-6 12,16 12,17 h 67 67 l 6,16 6,17 -16,11.9996 -17,12 v 13 13 l 17,12 16,12 -6,17 -6,16 h -16 -16 l -5,-15 -6,-15 h -19 -19 v 30 30 l 75,73 75,74 v 17 16 h -32 l -33,-1 z"
       id="path87280" />
    <path
       d="m 25784.1,9043.5538 v -25 h 15 15 v -50 -50 h -15 -15 v -25 -25 h 15 15 v -45 -45 h 25 25 v 105 105 h 15 15 v 40 40 h -55 -55 z"
       id="path87282" />
    <path
       d="m 26264.1,9043.5538 v -25 h 25 25 v 25 25 h -25 -25 z"
       id="path87284" />
    <path
       d="m 31844.1,9013.5538 v -25 h 25 25 v 25 25 h -25 -25 z"
       id="path87286" />
    <path
       d="m 33164.1,9012.5538 v -25 l 23,3 22,3 3,23 3,22 h -25 -26 z"
       id="path87288" />
    <path
       d="m 19005.1,8977.5538 -26,-26 3,-515.9996 2,-517 h 340 341 l 5,-15 6,-15 h 28 28 l 6,15 5,15 h 681 681 l 5,-15 6,-15 h 13 13 l 6,15 5,15 h 36 36 l 5,-15 6,-15 h 28 28 l 6,15 5,15 h 81 81 l 5,-15 6,-15 h 13 13 l 6,15 5,15 h 66 66 l 5,-15 6,-15 h 13 13 l 6,15 5,15 h 51 51 l 5,-15 6,-15 h 13 13 l 7,18 6,17 13,-17 13,-18 h 26 25 l 7,18 6,17 13,-17 13,-18 h 101 100 l 6,15 5,15 h 25 25 l 3,533 3,531.9996 -9,13 -9,13 -22,-21 -21,-20 h -1032 -1033 l -5,15 -6,15 h -13 -13 l -6,-15 -5,-15 h -216 -216 l -5,15 -6,15 h -13 -13 l -6,-15 -5,-15 h -155 -155 l -8,14 -8,15 -109,3 -110,3 z m 639,-243.9996 v -116 l 15,-5 15,-6 v -13 -13 l -15,-6 -15,-5 v -21 -21 l 15,-5 15,-6 v -13 -13 l -15,-6 -15,-5 v -221 -220 h -75 -75 v 405 404.9996 h 75 75 z m 1836,92.9996 24,-23 v -22 -22.9996 h 55 56 l 5,14.9996 6,15 h 193 193 l 5,-15 6,-13.9996 68,-3 68,-3 v -25 -25 l -308,-3 -308,-2 -5,15 -6,15 h -14 -14 v -135 -135 h 24 24 l 12,15 12,15 h 68 68 l 6,-15 5,-15 h 21 21 l 5,15 6,15 h 13 13 l 6,-15 5,-15 h 176 175 v -30 -30 h -310 -311 l -5,15 -6,15 h -14 -14 v -120 -120 l 343,-2 342,-3 v -25 -25 l -342,-3 -342,-2 -3,-43 -3,-42 h -160 -160 l -3,22 -3,22 -15,11 -14,12 v 63 63 l 15,12 15,12 v 271 270.9996 l 22,23 21,23 h 120 119 z m -2036,-58 20,-19.9996 v -5 -5 l -20,-20 -20,-20 h -39 -39 l -6,15 -5,15 h -51 -51 l -5,-15 -6,-15 h -28 -28 l -6,15 -5,15 h -51 -51 l -5,15 -6,15 6,14.9996 5,15 h 186 185 z m 1644,5 5,-14.9996 h 26 25 v -7 -7 l -22,-23 -21,-23 h -679 -678 l -20,20 -20,20 v 24.9996 25 h 689 689 z m -747,-296.9996 23,-21 19,18 20,17 278,-1 278,-2 8,-15 8,-14 h 20 20 l 5,15 6,15 h 13 13 l 6,-15 5,-15 h 41 40 v -7 l -1,-8 -18,-22 -19,-23 h -23 -22 l -13,18 -13,17 -6,-17 -7,-18 h -13 -13 l -6,15 -5,15 h -21 -21 l -5,-14 -5,-13 -261,-7 -260,-7 -24,22 -24,22 -22,-20 -23,-21 -275,5 -275,6 -12,16 -12,16 -6,-17 -7,-18 h -14 -14 v 45 45 l 298,3 297,2 9,3 10,2 z m -897,-8 20,-20 v -5 -5 l -20,-20 -20,-20 h -182 -182 l -23,22 -23,22 22,23 21,23 h 184 183 z m -10,-310 v -30 l -192,2 -193,3 -3,28 -3,27 h 195 196 z m 1675,0 v -25 l -702,-3 -703,-2 v 30 30 l 703,-2 702,-3 z"
       id="path87290" />
    <path
       d="m 33044.1,8983.5538 v -25 h 40 40 v 25 25 h -40 -40 z"
       id="path87292" />
    <path
       d="m 33231.1,9001.5538 -7,-6 v -19 -18 h 10 9 l 36,-35 35,-36 v -24 -25 h 25 25 v 40 40 h -10 -9 l -36,35 -35,36 v 9 10 h -18 -19 z"
       id="path87294" />
    <path
       d="m 34944.1,8994.5538 -11,-15 -27,-3 -27,-3 v -20 -20 l 54,-3 53,-3 19,17 19,17 6,-17 6,-16 h 14 15 l 5,14 5,14 -26,26 -26,26 h -33 -34 z"
       id="path87296" />
    <path
       d="m 5658.0987,8963.5538 -7,-16 10,-10 11,-11 28,4 29,3 v 20 20 l -33,3 -32,3 z"
       id="path87298" />
    <path
       d="m 34669.1,8965.5538 -6,-13 3,-100 3,-98.9996 h 20 20 l 3,86.9996 3,87 27,3 27,3 v 20 20 l -48,3 -47,3 z"
       id="path87300" />
    <path
       d="m 5410.0987,8919.5538 -27,-28 2,-9 1,-9 -1,-12 -1,-13 h -24 -24 l -6,-15 -5,-15 h -190 -189 l -6,-15 -5,-15 h -56 -55 v -67.9996 -69 l -25,-23 -25,-23 -268,6 -269,7 -16,-17 -16,-18 -55,1 -56,1 -20,18 -20,18 v 16 l -1,16 -24,28 -25,28 -132,-3 -133,-3 v -170 -170 l 33,-3 32,-3 7,17 6,17 -16,12 -17,12 v 105 105 l 18,16 19,17 h 76 77 v -35 -34 l -57,-3 -58,-3 v -50 -50 l 55,-3 55,-3 17,-16 18,-16 v -18 -18 l -17,-9 -16,-10 6,-16 7,-17 32,3 33,3 5,42 5,42 358,6 359,7 24,-23 24,-22 v -99 -98 h 13 l 12,-1 193,1 192,1 6,-16 6,-15 h 63 62 l 17,-19 18,-20 14,6 13,5 -6,114 -6,113 16,7 17,6 v 58 58 l -15,6 -15,5 v 108 109 l 20,17 20,16.9996 v 59 60 l 17,9 16,10 -6,16 -6,16 h -24 -23 z"
       id="path87302" />
    <path
       d="m 8594.0987,8803.5538 v -144.9996 h 25 25 v 144.9996 145 h -25 -25 z"
       id="path87304" />
    <path
       d="m 32984.1,8918.5538 v -30 h -15 -15 v -85 -84.9996 h 10 10 l 20,-20 20,-20 v -10 -10 h 15 15 v -15 -15 h 25 25 v 25 25 h -15 -15 v 15 15 h -15 -15 v 25 26 l -15,4.9996 -15,6 v 49 49 h 15 15 v 40 40 h -25 -25 z"
       id="path87306" />
    <path
       d="m 30378.1,8903.5538 -6,-14 7,-11 6,-10 h 40 40 l 5,-15 6,-15 h 37 38 l 22,-24 22,-24 -3,-396.9996 -3,-397 -19,-13 -19,-14 6,-16 6,-15 h 24 23 l 12,12 12,12 v 23 23 h 24 24 l 6,15 5,15 h 160 159 l 6,15 5,15 h 141 140 l 20,20 20,20 v 78 79 l 23,21 23,22 h 64 63 l 11,14 11,14 303,-5 302,-6 v -32 -33 l -15,-6 -15,-5 v -16 -16 l 15,-5 14,-6 41,43 40,42 v 19 18 h 24 24 l 5,14 6,15 58,3 58,3 v 50 50 l -85,3 -84,3 -18,16 -18,16 v 22 23 l -15,6 -15,5 v 23 23 l -25,24 -25,23 -15,-6 -15,-5 v -16 -16 l 15,-5 15,-6 v -23 -23 l 15,-6 15,-5 v -34 -34 l -362,-6 -362,-7 -38,37 -38,37 v 98 98 h -100 -101 l -5,15 -6,15 h -129 -130 l -5,14.9996 -6,15 h -97 -96 l -43,50 -44,50 h -34 -35 l -5,15 -6,15 h -59 -60 z"
       id="path87308" />
    <path
       d="m 15378.1,8875.5538 -5,-14 3,-54 3,-53.9996 h 20 20 l 5,28.9996 5,28 17,-18 17,-19 3,-39.9996 3,-40 h 20 20 l 3,45 3,43.9996 -15,11 -15,11 -3,40 -3,39 -48,3 -47,3 z"
       id="path87310" />
    <path
       d="m 31934.1,8863.5538 v -25 h 25 25 v 25 25 h -25 -25 z"
       id="path87312" />
    <path
       d="m 34807.1,8862.5538 -23,-25 v -52 -51.9996 l 25,-24 25,-23 15,6 15,5 v 30 29 l -15,6 -15,4.9996 v 19 19 l 18,16 19,17 h 165 165 l 16,-18 17,-19 v -11 -12 l -20,-19.9996 -20,-20 h -154 -154 l -6,-16 -6,-16 6,-9 5,-9 h 161 161 l 39,40 38,40.9996 v 33 32 l -28,27 -28,27 -200,-1 -199,-1 z"
       id="path87314" />
    <path
       d="m 7514.0987,8850.5538 -105,-3 -8,-14 -8,-15 h -244 -245 l -20,-20 -20,-20 v -62.9996 -64 l -23,-21 -23,-22 h -124 -123 l -11,-13 -11,-13 -242,4 -242,4 -3,42 -3,41 h -20 -20 l -3,-42 -3,-43 h -19 -19 l -26,-25 -25,-26 v -19 -19 l 25,-26 26,-25 h 19 20 v -55 -54 l 14,-8 15,-8 3,-55 3,-55 h 20 20 l 3,59 3,60 -15,8 -16,9 v 33 33 l 18,16 18,16 228,3 228,3 5,-12 5,-13 h 149 149 v -120 -120 h 130 131 l 5,-15 6,-15 h 174 173 l 8,-14 8,-14 45,-2 45,-2 13,1 12,1 v 25 26 l 15,5 15,6 v 54 55 l 15,5 15,6 v 238 237.9996 l -15,6 -15,5 v 25 24 l -12,3 -13,4 z"
       id="path87316" />
    <path
       d="m 9957.0986,8838.5538 -16.9999,-20 h -23 -23 v -12 l -1,-13 1,-177.9996 1,-177 -16,-6 -15,-6 v -13 -13 l 15,-6 15,-5 v -100 -99 l 15,-6 15,-5 v -26 -25 h 13 l 12,-1 195.0003,1 195.001,1 8,14 8,15 h 174 175 v 83 84 l 23,21 23,22 h 81 81 l 6,15 5,15 h 135 135 l 7,-11 6,-11 2,-81 1,-82 h 20 20 l 3,71 3,72 20,18 20,18 89,-3 90,-3 6,16 6,16 h 13 13 l 6,-15 5,-15 h 40 39 l 5,14 6,15 28,3 28,3 v 50 50 l -188,1 -188,2 -19,17 -19,17 -3,72 -3,71 h -20 -20 l -5,-70 -5,-70 -15,-22 -15,-23 h -78 -78 l -5,15 -6,15 h -129 -129 l -20,20 -20,20 v 35 36 l 15,5 15,6 v 13 13 l -15,6 -15,5 v 41 39.9996 h -25 -26 l -5,15 -6,15 h -307 -307.001 l -17,20 -17.0004,20 h -10 -10 z"
       id="path87318" />
    <path
       d="m 25311.1,8852.5538 -7,-7 v -52 -51.9996 l -18,-16 -19,-17 h -19 -19 l -24,-25 -23,-25 6,-15 5,-15 h 16 16 l 5,15 6,15 h 34 34 v -64 -64 l -15,-12 -15,-12 v -20 -19 l -15,-5 -15,-6 v -28 -28 l 15,-6 15,-5 v -25 -24 l 14,-5 15,-6 3,-58 3,-58 h 20 20 l 3,28 3,27 h 20 19 v -140 -140 h -19 -19 l -6,15 -5,15 h -16 -16 l -5,-15 -6,-15 23,-25 24,-25 h 25 25 l 23,24 22,24 v 51 51 h 23 22 l 24,25 23,25 -6,15 -5,15 h -41 -40 v 65 66 l 15,5 15,6 v 24 25 l 15,5 15,6 v 43 43 l -15,6 -15,5 v 25 24 l -15,6 -15,5 v 65 65 l 28,3 27,3 v 20 20 l -27,3 -27,3 -3,71.9996 -3,72 -60,3 -61,3 z m 83,-151.9996 v -109 l -20,-18 -20,-18 v 126 126.9996 h 20 20 z m 30,-287 v -65 h -50 -50 v 24 24 l -15,6 -15,5 v 17 17 l 17,19 16,18 h 49 48 z"
       id="path87320" />
    <path
       d="m 17512.1,8804.5538 -10,-18 -30,6 -29,6 -77,-78.9996 -77,-79 -43,49 -44,49 h -24 -25 l -5,-14 -5,-14 50,-47 51,-48 v -17 -18 l 18,-7 17,-6 -19,-14 -19,-14 2,-83 2,-83 15,-8 14,-8 v -18 -18 l -35,-29 -35,-29 v -16 -16 l -18,-16 -19,-17 h -15 -16 l -12,-15 -12,-15 h -23 -23 l -5,-15 -6,-14 -88,-3 -88,-3 v -20 -20 l 104,-3 105,-3 8,16 9,15 22,1 22,1 55,63 55,63 14,1 14,1 44,-45 43,-45 h 18 18 l 24,-30 25,-29 22,-1 h 22 l 8,-15 9,-15 309,-1 309,-1 12,17 13,18 15,-6 16,-6 11,20 11,21 18,-5 18,-5 72,73 73,73 -7,25 -6,24 20,18 20,18 v 92 92 l -20,18 -20,18 6,24 7,25 -74,74 -74,73.9996 -11,-4 -12,-4.9996 -18,19.9996 -19,21 -29,-6 -29,-6 -12,16 -12,17 -292,1 -293,1 z m 238,-150.9996 6,-15 h 13 13 l 7,18 6,17 13,-17 13,-18 h 41 40 l 6,15 5,15 h 21 21 l 5,-15 6,-15 h 28 28 l 6,15 5,15 h 21 21 l 5,-15 6,-15 h 24 25 l 5,-15 6,-15 h 22 21 l 23,-24 22,-24 v -35 -35 l 15,-6 15,-5 v -36 -36 l -15,-5 -15,-6 v -35 -35 l -22,-24 -23,-24 h -21 -22 l -6,-15 -5,-15 h -246 -246 l -5,15 -6,15 h -54 -55 l -5,15 -6,15 h -20 -20 l -24,23 -24,22 v 89 88 l 54,54 54,54 h 20 20 l 6,15 5,15 h 81 81 z"
       id="path87322" />
    <path
       d="m 28415.1,8788.5538 -41,-39.9996 v -110 -111 l -15,-5 -15,-6 v -118 -118 l 15,-6 15,-5 v -111 -111 l 26,-24 27,-25 h 9 8 l 17,20 17,20 h 348 348 l 20,20 20,20 v 64 64 l -15,12 -15,12 v 23 23 l 15,6 15,5 v 26 26 l 146,-2 147,-1 8,13 7,13 214,-3 213,-3 16,-14 16,-14 h 20 21 l 5,14 6,15 43,3 43,3 3,42 3,41 -26,26 -26,26 h -18 -18 l -16,18 -16,17 -3,55 -3,55 h -20 -20 l -3,-71 -3,-71 -344,-7 -345,-7 -25,18 -24,18 -1,103 v 102 h -70 -71 l -5,15 -6,15 h -159 -160 l -5,14.9996 -6,15 h -112 -112 l -17,20 -17,20 h -9 -9 z"
       id="path87324" />
    <path
       d="m 31994.1,8772.5538 v -24.9996 l 23,3 22,3 3,22.9996 3,22 h -25 -26 z"
       id="path87326" />
    <path
       d="m 16398.1,8755.5542 -5,-14 3,-69 3,-69 h 20 20 l 3,58 3,57 h 124 124 l 23,-30 22,-30 h 10 11 l 24,25 23,25 -6,15 -5,15 h -25 -24 l -6,15 -5,14.9996 h -166 -166 z"
       id="path87328" />
    <path
       d="m 1636.0987,8671.5542 3,-68 h 20 20 l 3,23 4,24 18,18 18,18 6,-14 6,-15 32,3 33,3 v 20 20 l -27,3 -28,3 v 15 14 h -55 -56 z"
       id="path87330" />
    <path
       d="m 24918.1,8723.5542 -7,-16 11,-11 11,-11 16,7 16,6 -3,17 -3,18 -18,3 -17,3 z"
       id="path87332" />
    <path
       d="m 32028.1,8723.5542 -6,-15 23,-25 24,-25 h 13 13 l 5,15 6,15 -23,25 -24,25 h -13 -13 z"
       id="path87334" />
    <path
       d="m 33284.1,8713.5542 v -25 h 25 25 v 25 25 h -25 -25 z"
       id="path87336" />
    <path
       d="m 1818.0987,8693.5542 -6,-14 7,-11 6,-10 h 55 54 v -140 -140 h -125 -125 v 15 15 h -25 -25 v -40 -40 h 175 175 v 190 190 h -80 -81 z"
       id="path87338" />
    <path
       d="m 24978.1,8693.5542 -7,-16 11,-11 11,-11 16,7 16,6 -3,17 -3,18 -18,3 -17,3 z"
       id="path87340" />
    <path
       d="m 34668.1,8694.5542 -6,-15 4,-23 3,-23 33,-3 32,-3 6,15 6,16 -23,25 -24,25 h -13 -13 z"
       id="path87342" />
    <path
       d="m 22369.1,8688.5542 -6,-10 6,-21 7,-20 16,3 17,3 v 25 25 l -17,3 -16,3 z"
       id="path87344" />
    <path
       d="m 25518.1,8663.5542 -7,-16 11,-11 11,-11 16,7 16,6 -3,17 -3,18 -18,3 -17,3 z"
       id="path87346" />
    <path
       d="m 35094.1,8664.5542 -12,-15 -41,-3 -42,-3 v -20 -20 h 125 125 v 20 20 l -27,3 -27,3 -11,15 -12,14 h -33 -33 z"
       id="path87348" />
    <path
       d="m 16551.1,8641.5542 -7,-6 v -29 -29 l 16,-6 17,-6 12,16 12,17 h 17 16 v -49 -49 l -15,-6 -15,-5 v -46 -46 l 15,-5 15,-6 v -49 -49 h -16 -17 l -12,17 -12,16 -17,-6 -17,-7 3,-32 3,-33 45,-5 45,-5 -18,-11 -19,-11 4,-29 3,-29 84,-3 84,-3 12,-15 11,-16 29,4 30,3 v 20 20 l -23,3 -23,3 -49,46 -50,46 v 22 23 l -15,6 -15,5 v 55 54 l -17,7 -18,6 18,13 17,13 v 63 63 l 17,12 16,12 -6,17 -6,16 h -74 -74 z"
       id="path87350" />
    <path
       d="m 16866.1,8623.5542 -23,-24 3,-43 3,-43 h 20 20 l 3,27 3,27 42,3 42,3 v 20 20 l -25,3 -25,4 -8,14 -8,14 h -12 -12 z"
       id="path87352" />
    <path
       d="m 24558.1,8633.5542 -6,-15 h -19 -18 l -26,-26 -26,-26 20,-22 21,-22 -14,-19 -13,-18 -11,7 -12,7 v 18 19 l -13,11 -14,11 -31,-33 -32,-33 -27,2 -28,1 -5,28 -5,28 -11,4 -11,4 -13,-16 -12,-15 h -18 -18 l -12,-15 -12,-15 16,-6 16,-6 v -12 -11 l -22,-15 -23,-14 -9,2 -8,3 -14,-12 -15,-12 21,-22 20,-21 -6,-7 -7,-7 13,-15 12,-15 h 19 18 l 10,17 9,18 19,-18 19,-17 16,17 17,16 h 41 41 l 32,-31 33,-32 h 16 16 l 56,-61 57,-61 14,6 15,5 v 16 16 l -15,5 -15,6 v 18 18 l -15,12 -15,12 v 16 15 l -17,19 -16,18 2,73 2,72 15,16 14,16 v 28 28 l 17,12 16,12 -6,17 -6,16 h -16 -16 z"
       id="path87354" />
    <path
       d="m 25037.1,8632.5542 -6,-17 16,-12 17,-12 v -36 -35 l 15,-6 15,-5 v -66 -66 l -15,-5 -15,-6 v -38 -39 l -31,-24 -32,-25 6,-16 6,-16 h 16 16 l 5,15 6,15 h 15 16 l 12,-17 12,-16 17,6 16,6 v 30 29 l -15,6 -15,5 v 21 21 l 15,5 15,6 v 125 126 l 17,12 16,12 -6,17 -6,16 h -16 -16 l -5,-15 -6,-15 h -18 -18 l -6,15 -5,15 h -16 -16 z"
       id="path87356" />
    <path
       d="m 15471.1,8612.5542 -7,-7 v -67 -68 l -15,-12 -15,-12 v -15 -14 l 22,-29 22,-30 h 10 11 l 23,24 22,24 v 20 20 l 15,6 15,5 v 28 29 l -29,25 -29,26 -4,24 -3,24 -15,3 -16,3 z"
       id="path87358" />
    <path
       d="m 17027.1,8602.5542 -6,-17 16,-12 16,-11 3,-70 3,-69 h 20 20 l 3,72 3,71 -24,26 -24,26 h -12 -12 z"
       id="path87360" />
    <path
       d="m 34177.1,8594.5542 -23,-24 v -181 -181 h 166 166 l 24,23 24,22 v 18 17 h -20 -21 l -5,-15 -6,-15 h -139 -139 v 140 140 h 120 120 l 20,-20 20,-20 v -40 -40 h 25 26 l -3,83 -3,82 -145,3 -145,3 -8,14 -8,15 h -12 -12 z"
       id="path87362" />
    <path
       d="m 1634.0987,8563.5542 v -25 h 25 25 v 25 25 h -25 -25 z"
       id="path87364" />
    <path
       d="m 8601.0987,8581.5542 -7,-6 v -43 -43 l 14,-8 14,-8 4,-25 3,-25 88,-3 89,-3 25,25 24,24 -3,44 -3,43 -40,3 -40,3 -8,15 -8,14 h -73 -73 z m 143,-78 v -35 h -30 -31 l -21,20 -22,20 h 27 28 l 5,15 6,15 h 19 19 z"
       id="path87366" />
    <path
       d="m 15305.1,8563.5542 -23,-25 6,-16 6,-15 47,3 48,3 v 35 35 l -30,3 -30,2 z"
       id="path87368" />
    <path
       d="m 24138.1,8573.5542 -7,-16 11,-11 11,-11 16,7 16,6 -3,17 -3,18 -18,3 -17,3 z"
       id="path87370" />
    <path
       d="m 24708.1,8575.5542 -5,-14 3,-84 3,-84 h 20 20 l 3,69 3,70 16,11 16,12 -6,17 -6,16 h -31 -31 z"
       id="path87372" />
    <path
       d="m 24857.1,8572.5542 -6,-17 15,-11 16,-12 4,-24 3,-25 h 20 20 v 50 50 l -33,3 -32,3 z"
       id="path87374" />
    <path
       d="m 8181.0987,8552.5542 -7,-7 v -234 -233 h -24 -24 l -6,-15 -5,-15 h -21 -21 l -26,-30 -25,-30 h -19 -19 l -41,-45 -42,-45 h -22 -23 l -6,-15 -5,-15 h -20 -21 l -41,-45 -42,-45 h -19 -19 l -26,-30 -25,-30 h -23 -23 l -6,-15 -5,-15 h -25 -24 l -6,-15 -5,-15 h -25 -24 l -6,-15 -5,-15 h -40 -39 l -6,-15 -5,-15 h -55 -54 l -6,-15 -5,-15 h -126 -126 l -5,15 -6,15 h -69 -70 l -5,15 -6,15 h -24 -25 l -5,15 -6,15 h -24 -23 l -23,30 -22,30 h -22 -22 l -6,15 -5,15 h -46 -46 l -5,-15 -6,-15 23,-25 24,-25 h 22 21 l 25,-30 26,-30 h 36 36 l 5,-15 6,-15 h 24 25 l 5,-15 6,-15 h 39 40 l 5,-15 6,-15 h 69 70 l 5,-15 6,-15 h 73 73 l 6,15 5,15 h 85 84 l 6,15 5,15 h 40 39 l 6,15 5,15 h 25 24 l 6,15 5,15 h 25 24 l 6,15 5,15 h 25 24 l 6,15 5,15 h 20 21 l 41,45 42,45 h 19 19 l 26,30 25,30 h 20 19 l 26,30 25,30 h 23 23 l 6,15 5,15 h 20 20 l 57,60 57,60 h 49 48 v -18 -18 l -33,-32 -33,-32 h -17 -18 l -29,-30 -29,-30 h -21 -21 l -5,-15 -6,-15 h -17 -18 l -42,-40 -43,-41 6,-14 5,-15 h 16 16 l 5,15 6,15 h 19 20 l 29,30 29,30 h 19 18 l 24,30 25,29 23,1 h 23 l 5,15 6,15 h 23 23 l 6,15 5,15 h 35 34 l 6,-15 5,-15 h 31 31 l 5,15 6,15 h 18 18 l 6,-16 6,-15 32,3 33,3 3,23 3,22 h -29 -30 l -6,15 -5,15 h -52 -52 l -78,77 -79,76 -2,206 -3,206 -15,3 -16,3 z"
       id="path87376" />
    <path
       d="m 22373.1,8538.5542 -1,-10 v -25 -25 l 1,-10 1,-10 h 14 14 l 5,13 5,12 -3,25 -2,25 -2,8 -1,7 h -15 -15 z"
       id="path87378" />
    <path
       d="m 15381.1,8492.5542 -7,-7 v -24 -23 h -16 -17 l -12,17 -12,16 -17,-6 -16,-6 v -24 -24 l 40,-41 39,-42 h 8 8 l 23,25 23,24 -3,58 -3,58 -15,3 -16,3 z"
       id="path87380" />
    <path
       d="m 25634.1,8473.5542 v -25 h 25 25 v 25 25 h -25 -25 z"
       id="path87382" />
    <path
       d="m 11751.1,8402.5542 -7,-7 v -28 -27 l 13,-5 14,-5 12,8 13,7 -4,29 -3,29 -15,3 -16,3 z"
       id="path87384" />
    <path
       d="m 24891.1,8372.5542 -7,-7 v -39 -38 h -64 -65 l -3,28 -3,27 h -20 -20 v -50 -50 h 110 110 v 65 65 l -15,3 -16,3 z"
       id="path87386" />
    <path
       d="m 22344.1,8283.5542 v -85 l 21,-21 20,-20 12,4 12,4 -3,69 -4,69 -14,8 -14,8 v 24 25 h -15 -15 z"
       id="path87388" />
    <path
       d="m 11755.1,8308.5542 -13,-7 4,-29 3,-29 h 20 20 l 3,31 3,31 -14,6 -14,5 z"
       id="path87390" />
    <path
       d="m 16878.1,8303.5542 -7,-16 10,-10 10,-10 89,3 89,3 v 20 20 l -93,3 -92,3 z"
       id="path87392" />
    <path
       d="m 29958.1,8274.5542 -6,-15 4,-23 3,-23 h 20 20 v 35 35 l -18,3 -17,3 z"
       id="path87394" />
    <path
       d="m 6081.0987,8192.5542 -7,-7 v -44 -44 l 15,-5 15,-6 v -18 -18 l -15,-6 -15,-5 v -12 -11 l 23,-24 22,-24 h 18 17 l 20,-20 20,-20 v -18 -18 l 30,-24 29,-25 1,-18 v -19 l 99,-99 99,-99 h 19 l 18,-1 25,-29 24,-30 h 18 19 l 29,-30 29,-30 h 35 34 l 6,-15 5,-15 h 40 39 l 6,-15 5,-15 h 40 39 l 6,-15 6,-15 227,2 228,3 v 20 20 l -223,3 -223,2 -5,15 -6,15 h -38 -38 l -6,15 -5,15 h -40 -39 l -6,15 -5,15 h -26 -26 l -5,15 -6,15 h -23 -23 l -6,15 -5,15 h -21 -20 l -58,60 -59,60 h -16 -17 l -20,20 -20,20 v 17 16 l -60,59 -60,58 v 18 18 l -30,24 -29,25 -1,35 v 36 l -29,25 -30,26 -3,39 -3,39 -15,3 -16,3 z"
       id="path87396" />
    <path
       d="m 9291.0987,8192.5542 -7,-7 v -23 -22 l -15,-6 -15,-5 v -24 -23 l -50,-49 -49,-49 -7,17 -6,17 h -27 -26 l -24,-25 -23,-25 6,-15 5,-15 h 40 39 l 6,-15 5,-15 h 16 16 l 5,15 6,15 h 19 20 l 5,-15 6,-15 h 20 20 l 76,-75 76,-75 h 12 11 l 67,-63 66,-64 v -16 -16 l -102,-3 -103,-3 v -20 -20 l 160,-3 160,-3 8,-14 8,-15 h 23 24 l 6,-15 5,-15 h 16 16 l 5,15 6,15 -23,25 -24,25 h -21 -21 l -57,60 -57,60 h -14 -14 l -108,105 -108,105 h -11 -12 l -36,32 -36,32 v 18 18 h 33 34 l 57,-60 57,-60 h 19 19 l 3,-27 3,-28 26,-3 26,-3 88,-90 88,-89 h 17 18 l 25,-30 26,-30 h 21 21 l 5,-15 6,-15 h 23 23 l 6,-15 5,-15 h 25 23.9999 l 6,-15 5,-15 h 55.0004 54 l 6,-15 5,-15 h 101.001 101 l 5,-15 6,-15 h 43 43 l 6,15 5,15 h 115 114 l 6,15 5,15 h 41 41 l 5,15 6,15 h 24 25 l 5,15 6,15 h 20 20 l 40,40 40,40 -6,15 -5,15 h -31 -31 l -5,-15 -6,-15 h -24 -25 l -5,-15 -6,-15 h -24 -25 l -5,-15 -6,-15 h -38 -38 l -6,-15 -5,-15 h -55 -54 l -6,-15 -5,-15 h -170 -169.001 l -6,15 -5,15 h -55 -54 l -6,15 -5,15 h -40 -39.0004 l -6,15 -5,15 h -24.9999 -24 l -25,30 -26,30 h -19 -20 l -25,30 -26,30 h -18 -19 l -149,150 -148,150 h -18 -18 l -3,28 -3,27 -27,3 -27,3 -3,57 -3,57 -15,3 -16,3 z"
       id="path87398" />
    <path
       d="m 11208.1,8183.5542 -7,-16 11,-11 11,-11 16,7 16,6 -3,17 -3,18 -18,3 -17,3 z"
       id="path87400" />
    <path
       d="m 24651.1,8191.5542 -7,-6 v -55 -55 l 18,-13 17,-13 -17,-6 -18,-7 v -14 -15 l 15,-5 15,-6 v -17 -18 l 85,-86 85,-87 h 139 139 l 6,-15 5,-15 h 22 22 l 12,-17 12,-16 17,6 16,6 v 25 25 l 73,3 72,3 v 20 20 l -130,3 -130,3 -8,14 -8,15 h -20 -19 l -45,46 -44,47 -15,-6 -16,-6 v -14 -13 l 30,-24 29,-25 1,-17 v -18 h -49 -49 l -6,15 -5,15 h -23 -24 l -62,63 -62,63 v 31 32 l 43,3 42,3 v 50 50 l -58,3 -58,3 -6,15 -5,14 h -12 -13 z"
       id="path87402" />
    <path
       d="m 25158.1,8183.5542 -6,-16 26,-24 27,-25 h 19 19 l 9,-16 9,-16 29,4 29,3 v 35 35 l -43,3 -43,3 -6,15 -5,14 h -29 -30 z"
       id="path87404" />
    <path
       d="m 32075.1,8173.5542 -23,-25 6,-15 5,-15 h 13 13 l 24,25 23,25 -6,15 -5,15 h -13 -13 z"
       id="path87406" />
    <path
       d="m 33044.1,8188.5542 v -10 l -20,-20 -20,-20 h -11 -10 l 3,-22 3,-23 23,-3 22,-3 v 10 11 l 20,20 20,20 h 25 25 v 25 25 h -40 -40 z"
       id="path87408" />
    <path
       d="m 33224.1,8173.5542 v -25 h 10 9 l 36,-35 35,-36 v -24 -25 h 25 25 v 40 40 h -15 -15 v 15 15 h -15 -15 v 15 15 h -15 -15 v 15 15 h -25 -25 z"
       id="path87410" />
    <path
       d="m 24858.1,8153.5542 -7,-16 11,-11 11,-11 16,7 16,6 -3,17 -3,18 -18,3 -17,3 z"
       id="path87412" />
    <path
       d="m 34908.1,8153.5542 -6,-14 7,-11 6,-10 h 219 219 l 3,-27 3,-28 h 20 20 l 3,28 3,28 -23,24 -23,25 h -223 -223 z"
       id="path87414" />
    <path
       d="m 15453.1,8107.5542 -23,-31 -13,17 -12,18 -16,-6 -15,-6 v -25 -25 l 24,-25 23,-26 h 8 8 l 23,26 24,25 v 16 16 l 17,12 16,12 -6,17 -6,16 h -14 -14 z"
       id="path87416" />
    <path
       d="m 32954.1,7994.5542 v -86 h 15 15 v -30 -30 h 13 l 12,-1 25,-29 24,-30 h 100 99 l 44,45 43,45 h 10 10 v 40 40 h -25 -25 v -25 -24 l -35,-36 -36,-35 h -84 -85 l -20,20 -20,20 v 25 25 h -15 -14 l -3,73 -3,72 -22,3 -23,3 z"
       id="path87418" />
    <path
       d="m 5841.0987,8041.5542 -7,-6 v -23 -22 l -15,-6 -15,-5 v -20 -20 l -96,-95 -95,-96 h -18 -17 l -24,-30 -25,-29 -38,-1 h -38 l -5,-15 -6,-15 h -24 -25 l -5,-15 -6,-15 h -39 -40 l -5,-15 -6,-15 h -228 -228 l -6,15 -5,15 h -25 -24 l -6,15 -5,15 h -40 -39 l -6,15 -5,15 h -23 l -23,1 -25,29 -24,30 h -22 -22 l -6,15 -5,15 h -36 -35 v -16 -16 l 23,-24 22,-24 h 20 l 20,-1 25,-29 24,-30 h 22 22 l 6,-15 5,-15 h 25 24 l 6,-15 5,-15 h 25 24 l 6,-15 5,-15 h 55 54 l 6,-15 5,-15 h 196 196 l 5,15 6,15 h 54 55 l 5,15 6,15 h 24 25 l 5,15 6,15 h 24 25 l 5,15 6,15 h 24 25 l 5,15 6,15 h 21 20 l 44,45 43,45 h 16 16 l 39,39 39,39 v 16 16 l 45,43 45,44 v 18 18 l 17,12 16,12 -6,17 -6,16 h -44 -44 z"
       id="path87420" />
    <path
       d="m 11751.1,8042.5542 -7,-7 v -23 -23 l -30,-23 -30,-22 v -17 -18 l -50,-51 -51,-50 h -129 -130 v -16 -16 l 23,-24 22,-24 h 13 13 l 5,15 6,15 h 48 48 l 6,-15 5,-15 h 46 46 l 5,15 6,15 h 22 22 l 25,29 26,30 54,3 54,3 v 20 20 l -27,3 -28,3 v 34 34 l 16,9 15,9 -3,44 -3,44 -15,3 -16,3 z"
       id="path87422" />
    <path
       d="m 34777.1,8022.5542 -23,-25 v -18 -19 l 41,-41 41,-41 h 23 23 l 5,14 5,14 -29,28 -29,28 v 17 18 l 88,3 87,3 v 20 20 l -105,2 -105,1 z"
       id="path87424" />
    <path
       d="m 35148.1,8034.5542 -6,-15 7,-11 6,-10 h 25 24 v -35 -34 l -72,-3 -73,-3 v -20 -20 l 72,-3 71,-3 27,27 26,26 -3,56 -3,57 -48,3 -47,3 z"
       id="path87426" />
    <path
       d="m 27876.1,7993.5542 -23,-24 3,-28 3,-28 26,-3 26,-3 44,-45 43,-44 h 16 16 l 59,-60 59,-60 h 17 16 l 42,-45 41,-45 h 19 19 l 25,-30 26,-30 h 21 21 l 5,-15 6,-15 h 24 25 l 5,-15 6,-15 h 24 25 l 5,-15 6,-15 h 39 40 l 5,-15 6,-15 h 54 55 l 5,-15 6,-15 h 148 148 l 6,15 5,15 h 70 69 l 6,15 5,15 h 40 39 l 6,15 5,15 h 26 26 l 5,15 6,15 h 22 21 l 24,25 23,25 -6,15 -5,15 h -46 -46 l -5,-15 -6,-15 h -24 -25 l -5,-15 -6,-15 h -23 -23 l -6,-15 -5,-15 h -70 -69 l -6,-15 -5,-15 h -186 -186 l -5,15 -6,15 h -39 -40 l -5,15 -6,15 h -38 -38 l -25,30 -26,30 h -19 -19 l -42,45 -41,45 h -18 -18 l -59,60 -59,60 h -17 -16 l -42,45 -41,45 h -19 -19 l -55,60 -56,60 h -8 -8 z"
       id="path87428" />
    <path
       d="m 16368.1,7973.5542 -6,-14 7,-11 6,-10 h 23 24 l 12,15 12,14 -7,11 -6,10 h -30 -30 z"
       id="path87430" />
    <path
       d="m 24888.1,7973.5542 -7,-16 11,-11 11,-11 16,7 16,6 -3,17 -3,18 -18,3 -17,3 z"
       id="path87432" />
    <path
       d="m 31936.1,7966.5542 3,-23 23,-3 22,-3 v 25 26 h -26 -25 z"
       id="path87434" />
    <path
       d="m 8986.0987,7936.5542 3,-23 23,-3 24,-4 -4,24 -3,23 -23,3 -24,4 z"
       id="path87436" />
    <path
       d="m 16460.1,7943.5542 -5,-15 h -19 -20 l -12,-15 -12,-15 h -34 -33 l -9,17 -10,16 -16,-6 -16,-6 v -25 -25 l -102,-3 -103,-3 -3,-33 -3,-32 17,-7 17,-6 12,16 12,17 h 32 31 v -10 -11 l 15,-6 16,-6 12,18 13,17 42,-46 42,-46 h 24 24 l 6,15 5,15 h 21 21 l 5,-15 6,-15 h 28 28 l 5,14 6,15 58,3 58,3 v 65 65 l -42,3 -42,3 -25,30 -25,29 h -9 -10 z"
       id="path87438" />
    <path
       d="m 8571.0987,7921.5542 -7,-6 v -19 -18 h 25 25 v 25 25 h -18 -19 z"
       id="path87440" />
    <path
       d="m 8866.0987,7906.5542 3,-23 53,-3 54,-3 -4,23 -3,23 -53,3 -54,3 z"
       id="path87442" />
    <path
       d="m 31904.1,7904.5542 v -26 h 26 25 l -3,23 -3,22 -22,3 -23,3 z"
       id="path87444" />
    <path
       d="m 34911.1,7915.5542 -5,-14 7,-12 8,-12 44,3 44,3 v 20 20 l -46,3 -46,3 z"
       id="path87446" />
    <path
       d="m 8684.0987,7873.5542 v -25 h 86 85 l -3,23 -3,22 -82,3 -83,3 z"
       id="path87448" />
    <path
       d="m 27768.1,7883.5542 -6,-15 h -24 -25 l -5,-15 -6,-15 h -24 -25 l -5,-15 -6,-15 h -59 -59 v -25 -25 h 180 181 l 5,-15 6,-15 h 24 25 l 5,-15 6,-15 h 23 23 l 25,-30 26,-30 h 16 16 l 45,-45 45,-45 h 17 l 17,-1 25,-29 24,-30 h 13 14 l 5,15 6,15 -58,55 -58,55 h -13 -12 l -48,45 -48,45 h -15 -16 l -59,60 -59,60 h -17 -17 l -25,30 -26,30 h -26 -26 z m 21,-65 6,-10 h -21 -21 l 6,10 6,10 h 9 9 z"
       id="path87450" />
    <path
       d="m 30171.1,7891.5542 -7,-6 v -25 -24 l 114,-114 114,-114 h 16 16 l 43,-45 44,-45 h 19 l 19,-1 25,-29 24,-30 h 37 37 l 6,-15 5,-15 h 40 39 l 6,-15 5,-15 h 40 39 l 6,-15 5,-15 h 166 166 l 5,15 6,15 h 69 70 l 5,15 6,15 h 24 23 l 8,14 8,14 25,4 25,3 v 35 35 l -33,3 -32,3 -6,-15 -6,-16 h -39 -40 l -5,-15 -6,-15 h -54 -55 l -5,-15 -6,-15 h -153 -153 l -6,15 -5,15 h -55 -54 l -6,15 -5,15 h -25 -24 l -6,15 -5,15 h -25 -24 l -6,15 -5,15 h -25 -24 l -6,15 -5,15 h -20 -19 l -125,123 -124,124 15,10 16,9 -7,17 -6,17 h -59 -59 z"
       id="path87452" />
    <path
       d="m 12048.1,7853.5542 -6,-14 7,-11 6,-10 h 14 13 l 4,13 5,12 -4,13 -5,12 h -14 -15 z"
       id="path87454" />
    <path
       d="m 12115.1,7855.5542 -10,-13 9,-13 8,-14 16,6 16,6 v 15 14 l -14,5 -15,6 z"
       id="path87456" />
    <path
       d="m 12266.1,7856.5542 -12,-12 11,-13 11,-13 h 125 124 l 6,15 5,16 -4,4 -4,4 -125,5 -126,5 z"
       id="path87458" />
    <path
       d="m 29804.1,7844.5542 v -25 l -141,-140 -140,-141 h -20 -20 l -5,-15 -6,-15 h -22 -22 l -24,-30 -25,-29 -23,-1 h -23 l -5,-15 -6,-15 h -38 -38 l -6,-15 -5,-15 h -70 -69 l -6,-15 -5,-15 -193,-2 -193,-3 v -20 -20 l 228,-3 227,-2 6,15 6,15 h 54 55 l 5,15 6,15 h 24 25 l 5,15 6,15 h 22 22 l 24,30 25,29 35,1 h 36 l 24,30 25,29 19,1 h 18 l 84,84 84,84 v 16 16 l 20,20 20,20 h 20 21 l 5,15 6,15 h 44 44 v 25 25 h -29 -29 l -6,15 -5,15 h -36 -35 z"
       id="path87460" />
    <path
       d="m 12564.1,7845.5542 v -14 l 23,-21 23,-22 h 31 30 l 42,-45 42,-46 87,3 87,3 v 20 20 l -87,5 -87,5 -55,53 -56,52 h -40 -40 z"
       id="path87462" />
    <path
       d="m 13982.1,7827.5542 -11,-7 7,-17 6,-17 90,3 89,3 7,-6 6,-6 1,-129 2,-128 h 20 20 l 2,128 1,129 6,5 5,5 h 116 l 115,-1 10,-6 10,-6 -6,-10 -6,-10 13,-15 12,-15 33,32 34,33 60,-3 60,-2 6,16 6,16 -5,5 -5,5 -347,2 -347,2 z"
       id="path87464" />
    <path
       d="m 18985.1,7829.5542 -15,-9 13,-16 13,-16 h 50 49 l 5,-15 6,-15 h 10 9 l 24,28 23,27 -10,13 -10,12 h -77 -76 z"
       id="path87466" />
    <path
       d="m 19649.1,7822.5542 -16,-17 -37,-1 -37,-1 v -20 -20 l 82,-3 82,-3 40,-46 41,-45 15,6 15,5 v 9 9 l -75,72 -75,71 h -9 -10 z"
       id="path87468" />
    <path
       d="m 25458.1,7823.5542 -6,-14 7,-11 6,-10 h 110 109 v 25 25 h -110 -111 z"
       id="path87470" />
    <path
       d="m 25784.1,7813.5542 v -25 h 40 40 v 25 25 h -40 -40 z"
       id="path87472" />
    <path
       d="m 25874.1,7813.5542 v -25 h 130 130 v 25 25 h -130 -130 z"
       id="path87474" />
    <path
       d="m 27164.1,7823.5542 v -15 h -120 -120 v -25 -25 h 120 120 v -15 -15 h 25 25 v 15 15 h 45 45 v 25 25 h -45 -45 v 15 15 h -25 -25 z"
       id="path87476" />
    <path
       d="m 31844.1,7813.5542 v -25 h 25 25 v 25 25 h -25 -25 z"
       id="path87478" />
    <path
       d="m 20974.1,7773.5542 -54,-55 h -47 -47 l -12,-15 -12,-15 h -54 -53 l -8,-14 -8,-14 -25,-4 -25,-3 v -20 -20 l 33,-3 32,-3 6,15 6,16 h 93 93 l 83,86 84,85 -2,7 -2,7 -13,3 -13,3 z"
       id="path87480" />
    <path
       d="m 11174.1,7783.5542 v -25 l -60,-58 -60,-59 v -16 -17 h 17 16 l 59,60 58,60 h 20 19 l 9,16 9,16 6,-16 6,-16 h 21 20 v 16 16 l -22,24 -23,24 h -47 -48 z"
       id="path87482" />
    <path
       d="m 19466.1,7796.5542 -11,-14 8,-13 8,-13 24,4 24,3 v 20 20 l -21,3 -21,3 z"
       id="path87484" />
    <path
       d="m 21084.1,7794.5542 -10,-10 27,-28 27,-28 h 17 17 l 12,15 12,15 h 139 139 v -24 -24 l 13,-4 12,-5 13,4 12,5 v 23 23 l 15,12 15,13 -12,14 -11,14 -213,-2 -213,-2 z"
       id="path87486" />
    <path
       d="m 21626.1,7796.5542 -12,-12 11,-13 11,-13 h 33 33 l 11,13 11,13 -12,12 -12,12 h -31 -31 z"
       id="path87488" />
    <path
       d="m 21807.1,7797.5542 -11,-11 5,-14 5,-14 h 13 13 l 5,14 6,15 -13,10 -12,11 z"
       id="path87490" />
    <path
       d="m 21956.1,7795.5542 -12,-14 14,-12 15,-13 18,4 18,3 v 20 20 l -21,3 -21,3 z"
       id="path87492" />
    <path
       d="m 22048.1,7793.5542 -6,-14 7,-11 6,-10 h 39 39 l 6,10 7,11 -12,14 -12,15 h -35 -34 z"
       id="path87494" />
    <path
       d="m 26444.1,7783.5542 v -25 h 55 55 v 25 25 h -55 -55 z"
       id="path87496" />
    <path
       d="m 26564.1,7783.5542 v -25 h 25 25 v 25 25 h -25 -25 z"
       id="path87498" />
    <path
       d="m 26834.1,7783.5542 v -25 h 40 40 v 25 25 h -40 -40 z"
       id="path87500" />
    <path
       d="m 27314.1,7783.5542 v -25 h 40 40 v 25 25 h -40 -40 z"
       id="path87502" />
    <path
       d="m 13914.1,7763.5542 -12,-15 h -47 -46 l -14,-9 -14,-9 6,-16 6,-16 58,1 h 58 l 22,28 23,29 -14,11 -13,11 z"
       id="path87504" />
    <path
       d="m 23336.1,7766.5542 -12,-12 v -23 -24 l 16,-6 16,-6 10,16 9,17 h 24 24 l 6,10 7,11 -12,14 -12,15 h -32 -32 z"
       id="path87506" />
    <path
       d="m 7806.0987,7687.5542 -24,-29 h -17 -18 l -42,-40 -43,-41 6,-14 5,-15 h 15 15 l 8,15 8,14 85,3 85,3 v 20 20 l -30,5 -29,5 33,26 34,27 -6,16 -6,16 -28,-1 h -28 z"
       id="path87508" />
    <path
       d="m 13671.1,7704.5542 -6,-16 h -50 -50 l -27,-25 -26,-24 6,-16 5,-15 h 31 31 l 5,15 6,15 h 39 38 l 8,14 8,14 25,4 25,3 v 20 20 l -31,3 -31,3 z"
       id="path87510" />
    <path
       d="m 19852.1,7706.5542 -5,-13 4,-12 5,-13 h 38 38 l 6,-16 6,-15 32,3 33,3 v 20 20 l -28,3 -28,3 -6,15 -5,14 h -43 -43 z"
       id="path87512" />
    <path
       d="m 13038.1,7673.5542 -7,-16 11,-11 11,-11 16,7 16,6 -3,17 -3,18 -18,3 -17,3 z"
       id="path87514" />
    <path
       d="m 21468.1,7673.5542 -7,-16 11,-11 11,-11 16,7 16,6 -3,17 -3,18 -18,3 -17,3 z"
       id="path87516" />
    <path
       d="m 23268.1,7673.5542 -7,-16 11,-11 11,-11 16,7 16,6 -3,17 -3,18 -18,3 -17,3 z"
       id="path87518" />
    <path
       d="m 25274.1,7663.5542 v -25 h 30 30 v -15 -15 h 25 25 v 25 25 h -14 -14 l -6,15 -5,15 h -36 -35 z"
       id="path87520" />
    <path
       d="m 13098.1,7643.5542 -7,-16 10,-10 11,-11 28,4 29,3 v 20 20 l -33,3 -32,3 z"
       id="path87522" />
    <path
       d="m 7938.0987,7613.5542 -7,-16 11,-11 11,-11 16,7 16,6 -3,17 -3,18 -18,3 -17,3 z"
       id="path87524" />
    <path
       d="m 13278.1,7613.5542 -7,-16 10,-10 10,-10 74,3 74,3 v 20 20 l -78,3 -77,3 z"
       id="path87526" />
    <path
       d="m 10968.1,7583.5542 -6,-15 h -22 -22 l -24,-30 -25,-29 -22,-1 h -22 l -8,-14 -8,-14 -25,-4 -25,-3 v -20 -20 l 33,-3 32,-3 6,15 6,16 h 24 25 l 5,15 6,15 h 20 20 l 39,39 39,39 v 16 16 h -20 -21 z"
       id="path87528" />
    <path
       d="m 15974.1,7566.5542 v -31 l 45,-44 45,-43 v -10 -10 h 25 25 v 25 25 h -10 -9 l -36,35 -35,36 v 24 25 h -25 -25 z"
       id="path87530" />
    <path
       d="m 20294.1,7573.5542 v -26 l 23,3 22,3 v 20 20 l -22,3 -23,3 z"
       id="path87532" />
    <path
       d="m 20358.1,7583.5542 -6,-14 7,-11 6,-10 h 20 19 v 25 25 h -20 -21 z"
       id="path87534" />
    <path
       d="m 20444.1,7573.5542 v -25 h 25 25 v 25 25 h -25 -25 z"
       id="path87536" />
    <path
       d="m 7608.0987,7553.5542 -6,-15 h -38 -38 l -5,-14 -6,-15 -28,-3 -28,-3 v -20 -20 l 44,-3 44,-3 9,15 9,16 h 22 22 l 24,25 23,25 -6,15 -5,15 h -16 -16 z"
       id="path87538" />
    <path
       d="m 14477.1,7554.5542 -8,-15 -115,-3 -115,-3 v -20 -20 h 140 140 v 35 35 l -17,3 -16,3 z"
       id="path87540" />
    <path
       d="m 21138.1,7553.5542 -6,-15 23,-25 24,-25 h 153 153 l -3,23 -3,22 -145,3 -145,3 -8,14 -8,15 h -15 -15 z"
       id="path87542" />
    <path
       d="m 23084.1,7513.5542 v -25 h 25 25 v 25 25 h -25 -25 z"
       id="path87544" />
    <path
       d="m 24291.1,7531.5542 -7,-6 v -23 -22 l -15,-6 -15,-5 v -16 -16 l 16,-6 17,-6 12,16 12,17 h 22 22 l 5,15 6,15 -23,25 -24,25 h -11 -11 z"
       id="path87546" />
    <path
       d="m 25484.1,7513.5542 v -25 h 25 25 v 25 25 h -25 -25 z"
       id="path87548" />
    <path
       d="m 31636.1,7516.5542 3,-23 23,-3 22,-3 v 25 26 h -26 -25 z"
       id="path87550" />
    <path
       d="m 33314.1,7513.5542 v -25 h 25 25 l 19,-19 19,-19 4,-24 3,-23 h 20 20 v 65 65 l -67,3 -68,3 z"
       id="path87552" />
    <path
       d="m 9828.0987,7493.5542 -7,-16 11,-11 11,-11 16,7 16,6 -3,17 -3,18 -18,3 -17,3 z"
       id="path87554" />
    <path
       d="m 28308.1,7493.5542 -7,-16 11,-11 11,-11 16,7 16,6 -3,17 -3,18 -18,3 -17,3 z"
       id="path87556" />
    <path
       d="m 7368.0987,7463.5542 -7,-16 10,-10 11,-11 28,4 29,3 v 20 20 l -33,3 -32,3 z"
       id="path87558" />
    <path
       d="m 31604.1,7466.5542 -1,-13 -29,-25 -30,-24 v -21 l -1,-20 -29,-25 -30,-24 v -22 -22 l -15,-6 -15,-5 v -16 -16 l 15,-5 15,-6 25,23 25,24 v 18 17 l 45,43 45,44 v 21 22 h 16 15 l -3,23 -3,22 -22,3 -23,3 z"
       id="path87560" />
    <path
       d="m 32886.1,7453.5542 -23,-24 3,-43 3,-43 h 20 20 l 3,25 4,25 14,8 14,8 v 34 35 h -17 -18 z"
       id="path87562" />
    <path
       d="m 10698.1,7433.5542 -7,-16 11,-11 11,-11 16,7 16,6 -3,17 -3,18 -18,3 -17,3 z"
       id="path87564" />
    <path
       d="m 28398.1,7433.5542 -6,-14 7,-11 6,-10 h 24 23 l 6,-15 5,-15 h 25 24 l 6,-16 6,-15 47,3 48,3 v 20 20 l -40,3 -40,3 -8,15 -8,14 h -23 -24 l -6,15 -5,15 h -31 -31 z"
       id="path87566" />
    <path
       d="m 10038.099,7403.5542 -7,-16 10,-10 11,-11 28,4 29,3 v 20 20 l -33,3 -32,3 z"
       id="path87568" />
    <path
       d="m 10551.1,7404.5542 -6,-16 -208,-2 -208.001,-3 v -20 -20 l 224.001,-3 224,-2 11,14 11,15 40,3 40,3 v 20 20 l -61,3 -62,3 z"
       id="path87570" />
    <path
       d="m 12464.1,7393.5542 v -25 h 25 25 v 25 25 h -25 -25 z"
       id="path87572" />
    <path
       d="m 16184.1,7363.5542 v -25 h 25 25 v 25 25 h -25 -25 z"
       id="path87574" />
    <path
       d="m 22244.1,7373.5542 v -15 h -15 -15 v -25 -25 h 25 25 v 15 15 h 15 15 v 25 25 h -25 -25 z"
       id="path87576" />
    <path
       d="m 12464.1,7333.5542 v -25 h 25 25 v 25 25 h -25 -25 z"
       id="path87578" />
    <path
       d="m 20897.1,7313.5542 -42,-45 h -11 -10 v -25 -25 h 25 25 v 10 9 l 35,36 36,35 h 43 44 l 6,-16 6,-15 32,3 33,3 3,23 3,22 h -29 -30 l -6,15 -5,15 h -58 -58 z"
       id="path87580" />
    <path
       d="m 12674.1,7288.5542 v -10 l -19,-19 -19,-19 -24,-4 -23,-3 v -20 -20 l 28,-3 28,-3 39,39 40,40 v 16 16 h -25 -25 z"
       id="path87582" />
    <path
       d="m 22214.1,7228.5542 v -70 h 25 25 v 70 70 h -25 -25 z"
       id="path87584" />
    <path
       d="m 12524.1,7242.5542 v -25 l 23,3 22,3 3,23 3,22 h -25 -26 z"
       id="path87586" />
    <path
       d="m 21111.1,7261.5542 -7,-6 v -53 -52 l -15,-6 -15,-5 v -21 -20 h 16 16 l 24,23 24,22 v 63 62 h -18 -19 z"
       id="path87588" />
    <path
       d="m 24348.1,7253.5542 -7,-16 11,-11 11,-11 16,7 16,6 -3,17 -3,18 -18,3 -17,3 z"
       id="path87590" />
    <path
       d="m 24407.1,7222.5542 -6,-17 16,-12 17,-12 v -11 -11 l -35,-35 -34,-34 -23,-4 -23,-3 v -20 -20 l 28,-3 28,-3 54,54 55,55 v 23 24 l -24,23 -24,22 h -11 -12 z"
       id="path87592" />
    <path
       d="m 25874.1,7213.5542 v -25 h 15 15 v -15 -15 h 25 25 v 25 25 h -15 -15 v 15 15 h -25 -25 z"
       id="path87594" />
    <path
       d="m 16394.1,7183.5542 v -25 h 15 15 v -15 -15 h 25 25 v 25 25 h -15 -15 v 15 15 h -25 -25 z"
       id="path87596" />
    <path
       d="m 23054.1,7183.5542 v -26 l 53,3 52,3 v 20 20 l -52,3 -53,3 z"
       id="path87598" />
    <path
       d="m 31398.1,7163.5542 -7,-16 11,-11 11,-11 16,7 16,6 -3,17 -3,18 -18,3 -17,3 z"
       id="path87600" />
    <path
       d="m 20864.1,7123.5542 v -25 h 13 l 12,-1 25,-29 24,-30 h 63 63 v 25 25 h -57 l -58,1 -25,29 -24,30 h -18 -18 z"
       id="path87602" />
    <path
       d="m 26024.1,7093.5542 v -25 h 25 25 v 25 25 h -25 -25 z"
       id="path87604" />
    <path
       d="m 22304.1,6943.5542 v -25 h 25 25 v 25 25 h -25 -25 z"
       id="path87606" />
    <path
       d="m 24074.1,6943.5542 v -25 h 25 25 v 25 25 h -25 -25 z"
       id="path87608" />
    <path
       d="m 22698.1,6923.5542 -7,-16 10,-10 10,-10 74,3 74,3 v 20 20 l -78,3 -77,3 z"
       id="path87610" />
    <path
       d="m 23958.1,6923.5542 -7,-16 10,-10 11,-11 28,4 29,3 v 20 20 l -33,3 -32,3 z"
       id="path87612" />
    <path
       d="m 23088.1,6893.5542 -7,-16 11,-11 11,-11 16,7 16,6 -3,17 -3,18 -18,3 -17,3 z"
       id="path87614" />
  </g>
</svg>
