<?xml version="1.0" encoding="UTF-8" standalone="no"?>
<svg
   version="1.0"
   width="53.057384pt"
   height="5.8733802pt"
   viewBox="0 0 3582.6999 47.398178"
   preserveAspectRatio="xMidYMid"
   id="svg113353"
   sodipodi:docname="patrolBig.svg"
   inkscape:version="1.2.1 (9c6d41e410, 2022-07-14, custom)"
   xmlns:inkscape="http://www.inkscape.org/namespaces/inkscape"
   xmlns:sodipodi="http://sodipodi.sourceforge.net/DTD/sodipodi-0.dtd"
   xmlns="http://www.w3.org/2000/svg"
   xmlns:svg="http://www.w3.org/2000/svg">
  <defs
     id="defs113357" />
  <sodipodi:namedview
     id="namedview113355"
     pagecolor="#ffffff"
     bordercolor="#000000"
     borderopacity="0.25"
     inkscape:showpageshadow="2"
     inkscape:pageopacity="0.0"
     inkscape:pagecheckerboard="0"
     inkscape:deskcolor="#d1d1d1"
     inkscape:document-units="pt"
     showgrid="false"
     inkscape:zoom="11.08333"
     inkscape:cx="53.594003"
     inkscape:cy="18.451134"
     inkscape:window-width="1920"
     inkscape:window-height="1011"
     inkscape:window-x="1920"
     inkscape:window-y="32"
     inkscape:window-maximized="1"
     inkscape:current-layer="g113351" />
  <metadata
     id="metadata100651">
Created by potrace 1.12, written by Peter Selinger 2001-2015
</metadata>
  <g
     transform="matrix(0.1,0,0,-0.1,-2252.8658,-4953.6958)"
     fill="#000000"
     stroke="none"
     id="g113351">
    <path
       d="m 40789.73,-47788.956 -6,-6 -442,-4 -442,-4 -5,-5 -6,-5 -16,8 -16,9 -47,-7 -47,-8 -16,9 -16,9 -72,-10 -72,-11 -650,-6 -650,-6 -115,3 -115,3 h -35 -35 l -250,-8 -250,-8 -60,-3 -60,-4 -200,-10 -200,-10 -105,-10 -105,-10 -140,-5 -140,-5 -210,-11 -210,-10 -100,-5 -100,-5 -30,1 -30,2 -100,-1 h -100 l -150,-12 -150,-11 -35,-5 -35,-4 -65,-4 -65,-4 -210,-2 -210,-3 -10,-8 -10,-7 -291,-7 -292,-7 -35,13 -35,12 -113,-22 -114,-22 -240,-9 -240,-8 -79,8 -79,9 -10,-6 -11,-7 -115,-9 -116,-10 -190,-1 -190,-1 -65,-13 -65,-12 -235,-16 -235,-16 -120,-8 -120,-7 -48,-13 -49,-13 -68,13 -69,13 -73,-11 -73,-11 -60,-6 -60,-7 -30,-8 -30,-9 -120,-5 -120,-5 -120,-4 -120,-3 -22,7 -22,8 -4,-12 -4,-12 -64,-1 -64,-1 -108,-22 -107,-22 -18,5 -18,6 -114,-15 -114,-15 h -91 -91 l -52,-15 -52,-16 -32,2 -33,2 -130,-16 -130,-17 -115,-11 -115,-11 -145,-7 -145,-7 -22,-12 -21,-12 -84,-4 -83,-3 -105,-12 -105,-12 -80,-10 -80,-10 -95,-9 -95,-9 -60,-11 -60,-10 -219,-20 -218,-20 -11,-7 -10,-6 -121,-9 -121,-8 -110,-8 -111,-9 -23,-13 -24,-12 -116,-8 -116,-8 -30,-10 -30,-10 -115,-17 -115,-17 -76,-14 -76,-14 h -32 -32 l -97,-19 -97,-19 -125,-22 -125,-21 -51,-15 -51,-14 h -29 -29 l -80,-20 -80,-20 h -41 -40 l -90,-20 -89,-20 -40,-10 -40,-10 -80,-16 -80,-16 -80,-18 -80,-19 -60,-11 -60,-12 -45,-13 -45,-14 -95,-16 -95,-17 -45,-13 -45,-14 -75,-22 -75,-21 -40,-10 -40,-10 -30,-13 -30,-13 -40,-7 -40,-6 -40,-13 -40,-14 -60,-17 -60,-18 -85,-30 -85,-30 -47,-4 -47,-5 -17,-19 -17,-19 h -21 -21 l -29,-15 -28,-15 h -14 -13 l -74,-34 -74,-34 -7,-11 -7,-11 h -25 -25 l -22,-14 -22,-15 -50,-11 -50,-11 -15,-14 -15,-13 -67,-25 -66,-26 -26,-16 -25,-17 -20,7 -19,6 -7,-21 -6,-20 -24,-6 -24,-6 -25,-42 -24,-42 -3,-77 -3,-77 34,-36 35,-36 56,-37 55,-38 50,-16 49,-15 65,-20 65,-21 115,-35 115,-36 53,-10 54,-10 45,-20 46,-20 h 9 10 l 31,-14 32,-14 110,-35 110,-35 60,-6 60,-7 63,-20 62,-19 63,-20 62,-20 h 30 30 l 75,-16 75,-15 45,-14 45,-13 37,-6 36,-7 49,-25 48,-26 130,-25 130,-25 45,-9 45,-8 35,-10 35,-11 h 30 31 l 9,-9 10,-9 80,-17 80,-17 35,-9 35,-9 140,-30 140,-30 90,-10 89,-11 46,-16 45,-16 70,-7 70,-8 85,-11 85,-12 46,-15 47,-14 h 28 29 l 35,-11 35,-10 90,-10 90,-9 69,-10 70,-10 30,-9 31,-10 95,-11 95,-12 70,-9 70,-8 90,-13 90,-13 15,-10 15,-10 h 85 85 l 100,-17 100,-17 90,-12 90,-12 85,-7 85,-8 35,-11 35,-11 h 80 80 l 38,-11 39,-10 71,-10 72,-9 135,-11 135,-10 145,-24 145,-24 54,-11 54,-10 h 51 51 l 100,-11 100,-10 50,-10 50,-10 95,-16 95,-15 185,-14 185,-14 90,-9 90,-10 65,-10 65,-11 h 70 70 l 70,-14 70,-14 120,-7 120,-6 35,-9 35,-9 105,-5 105,-5 265,-15 265,-16 35,-5 35,-5 150,-10 150,-10 210,-16 210,-17 125,-3 125,-2 155,-11 155,-11 180,-11 180,-12 130,-2 130,-2 160,-11 160,-12 450,-4 450,-5 15,-5 15,-5 325,-5 325,-5 55,-11 54,-10 181,-5 180,-5 370,-7 370,-8 325,3 325,3 345,-1 345,-1 35,-1 h 35 155 l 155,1 h 115 115 l 1200,6 1200,5 510,5 510,5 340,5 340,5 95,5 95,6 110,3 110,3 180,7 180,7 90,9 90,9 330,1 330,2 h 40 l 40,-1 60,10 60,9 455,6 455,7 105,4 105,5 28,-1 27,-1 23,-1 22,-1 85,11 86,10 249,6 250,5 230,5 230,6 45,6 45,6 105,-1 105,-2 86,15 86,15 164,10 164,10 85,4 85,4 135,16 135,15 139,1 h 139 l 86,10 86,10 90,11 90,12 150,8 150,8 215,14 215,13 11,6 10,7 154,7 155,6 25,2 25,1 15,10 15,10 115,1 h 115 l 90,17 90,16 120,6 120,5 90,11 90,10 80,9 80,9 240,21 240,21 62,10 62,11 11,-7 12,-7 186,12 187,12 44,14 45,14 h 101 102 l 54,10 54,11 145,14 145,15 h 70 70 l 60,9 60,9 95,12 95,11 65,14 65,14 110,6 110,6 9,10 10,9 h 40 40 l 64,16 64,16 57,-5 56,-4 120,22 120,23 40,12 40,12 242,2 242,1 12,12 13,13 -9,9 -10,9 -20,5 -20,4 30,-2 30,-3 135,33 135,33 71,6 70,7 55,14 54,15 h 40 l 40,1 20,15 19,14 57,-1 56,-2 31,23 31,23 58,-8 58,-7 h 22 23 l 31,26 31,27 35,14 35,15 h 52 51 l 51,24 51,24 44,-5 44,-5 95,31 94,31 h 33 33 l 53,26 52,25 79,9 78,9 42,21 42,20 h 40 39 l 135,31 135,31 40,18 40,18 52,12 52,12 12,14 11,14 h 47 47 l 56,30 56,31 74,18 73,19 48,7 47,6 133,55 132,55 20,10 20,10 40,24 40,25 h 41 41 l 18,20 18,20 h 26 27 l 19,14 20,13 38,12 37,13 5,26 6,27 21,64 21,63 -1,28 -1,28 -15,30 -15,30 -31,26 -32,26 h -26 -27 l -36,24 -36,24 -57,31 -56,31 h -18 -17 l -70,29 -70,29 -55,24 -55,25 -75,22 -75,23 -20,12 -20,13 -75,22 -75,23 -33,14 -33,14 h -15 -15 l -38,19 -38,20 -149,50 -149,51 -70,14 -70,15 -45,12 -45,12 -20,8 -20,7 -39,6 -38,5 -17,15 -16,14 -65,5 -65,5 -45,10 -45,9 -37,17 -37,16 h -83 -83 l -140,34 -140,34 -55,6 -55,6 -100,26 -100,25 -105,9 -106,8 -49,15 -50,15 -50,12 -50,12 -65,9 -65,9 -115,9 -116,10 -29,11 -28,11 -15,-6 -14,-5 -79,21 -79,21 -20,-5 -20,-5 -68,14 -67,14 -70,5 -70,6 -70,11 -70,11 -35,3 -35,3 -45,9 -45,10 -80,11 -80,11 h -85 -85 l -40,11 -40,11 -103,9 -102,8 -12,7 -12,8 -80,7 -81,7 -145,16 -145,16 -35,10 -35,10 h -62 -62 l -58,15 -57,15 h -68 -67 l -48,10 -48,10 -120,10 -120,11 -65,9 -65,10 -130,5 -130,5 -30,9 -30,10 -174,6 -173,6 -25,10 -24,9 -257,15 -257,15 -60,10 -60,11 -140,9 -140,9 -120,10 -120,10 -150,12 -150,11 -185,7 -185,7 -14,8 -13,9 -167,3 -166,3 -130,10 -130,11 -145,9 -145,10 -175,11 -175,11 -100,5 -100,5 -170,4 -170,4 -70,10 -70,10 -18,-5 -17,-5 -53,10 -52,11 -175,6 -175,7 -60,2 -60,2 -85,7 -85,8 -325,9 -325,9 -195,10 -195,10 -265,3 -266,3 -12,8 -12,7 -672,4 -673,5 -80,5 -80,5 -50,5 -50,5 -50,-8 -50,-8 -40,7 -40,7 -260,6 -260,7 -67,10 -67,11 -75,-12 -76,-11 -12,7 -13,8 -450,2 -450,2 h -340 -340 -15 l -15,-1 -35,7 -35,7 z m -940,-110 3,-2 -53,-56 -53,-56 -40,-7 -40,-7 -125,17 -125,16 h -23 -22 l -18,10 -17,9 -58,27 -58,26 4,11 4,12 249,5 249,5 60,-4 60,-4 z m 721,8 122,-6 9,-16 8,-16 12,-154 12,-154 -12,-7 -13,-8 -83,-7 -83,-7 -20,7 -20,6 -16,49 -16,49 -29,6 -29,6 -23,19 -24,18 -54,10 -55,10 -28,11 -28,11 h -57 -58 l -20,-15 -21,-14 -6,-38 -6,-38 -36,-38 -35,-37 v -20 -20 l 30,-42 30,-41 v -14 -13 h -10 -10 l -15,-37 -16,-38 5,-20 5,-20 35,-55 35,-55 12,-14 12,-14 116,6 116,5 86,46 87,46 5,29 6,29 16,16 16,16 62,-1 h 62 l 35,-12 35,-12 3,-25 4,-25 14,-16 15,-17 77,-10 77,-10 300,3 300,2 435,6 435,7 285,5 285,5 47,6 46,6 10,26 10,27 8,30 7,30 13,70 13,70 20,107 20,108 7,12 8,13 7,-25 7,-25 v -260 -260 l -7,-65 -6,-65 h -282 -282 l -10,-10 -11,-11 -3,-317 -4,-318 9,-5 9,-6 -6,-29 -7,-30 13,-15 13,-16 22,-8 22,-9 69,-1 68,-2 165,7 165,6 43,5 42,5 20,39 20,39 v 168 169 l -12,49 -13,50 5,100 5,100 17,3 16,3 50,-25 51,-26 6,-10 6,-10 h 23 22 l 13,-12 12,-13 88,2 88,1 54,23 54,23 50,32 50,33 21,23 21,23 17,32 16,32 -1,68 v 68 l -7,40 -7,40 5,60 6,60 -8,110 -8,110 6,18 5,17 h 15 14 v -30 -31 l 14,-22 14,-22 7,-70 6,-70 12,-48 11,-49 16,-8 16,-9 280,-1 279,-2 55,6 55,7 13,-1 12,-1 33,-1 32,-1 23,8 22,7 v -17 -18 l -35,-33 -35,-33 v -19 -19 l -21,-27 -20,-26 6,-10 6,-10 -10,-18 -10,-19 9,-49 9,-49 11,-48 12,-47 58,-59 59,-58 50,-17 50,-16 h 51 51 l 74,35 74,35 31,26 31,27 18,36 19,36 11,53 11,53 -6,42 -6,42 -14,46 -15,46 -24,23 -25,23 v 13 13 l -20,11 -20,11 v 7 8 l 93,-4 92,-4 150,-3 150,-2 41,7 42,7 16,-9 16,-9 v -32 -32 l -35,-170 -35,-170 v -45 -45 l -20,-43 -19,-42 -28,-10 -28,-10 -20,-12 -20,-12 -55,-29 -55,-29 -60,-36 -60,-36 -18,-15 -19,-16 h -344 -345 l -10,-15 -9,-15 2,-105 3,-105 -60,-30 -61,-30 -22,-15 -22,-15 v -86 -87 l -12,-10 -13,-10 -25,-7 -25,-7 -12,-10 -13,-10 10,-18 10,-19 38,-3 37,-3 5,-100 5,-100 8,-12 8,-13 h 18 19 l 12,-15 12,-15 38,-10 38,-10 6,-31 6,-31 v -38 -37 l 6,-47 7,-47 24,-16 24,-16 346,1 345,2 57,-45 57,-45 h 10 9 l 44,-35 44,-35 h 8 8 l 20,-29 21,-29 11,-64 10,-63 14,-90 13,-90 15,-50 14,-51 13,-23 12,-24 v -40 l -1,-40 -11,-11 -11,-11 -240,-1 -240,-1 -5,9 -6,9 26,37 25,37 14,35 13,35 -1,85 -1,85 -21,40 -21,40 -37,39 -37,40 -46,24 -46,25 -62,5 -63,5 -48,-12 -48,-12 -40,-27 -41,-26 -22,-31 -22,-30 -25,-52 -24,-52 8,-88 9,-88 21,-45 22,-45 11,-16 11,-16 -6,-17 -7,-17 -21,11 -20,11 -77,-1 -77,-2 -110,7 -110,7 -85,-9 -86,-9 -71,6 -71,5 -24,-5 -23,-6 -3,-19 -3,-20 -8,-20 -9,-20 -11,-75 -11,-75 -13,-89 -12,-89 -14,-5 -13,-4 -8,12 -8,12 3,342 2,341 -32,30 -31,30 -39,35 -40,36 -55,27 -55,26 -52,9 -53,9 -72,-12 -73,-13 -45,-18 -45,-17 -18,-16 -18,-15 -17,10 -17,11 -5,116 -6,116 -7,7 -7,7 -7,-7 -7,-7 -3,-136 -3,-136 -15,-24 -15,-23 h -85 -84 l -7,12 -7,12 30,25 30,26 22,42 21,42 32,31 33,31 -20,15 -19,14 16,28 17,28 -31,27 -30,27 6,23 6,22 6,21 5,21 -15,16 -16,16 h -171 -170 l -14,-5 -13,-5 -7,-48 -6,-48 -1,-67 v -67 l -27,3 -26,3 2,199 1,198 11,11 11,11 230,4 230,5 30,-13 30,-13 5,-21 5,-21 2,-122 3,-121 8,-8 7,-7 8,7 7,8 5,171 5,172 -12,14 -13,15 -147,3 -148,3 -110,10 -110,10 -30,5 -30,6 -34,-21 -34,-21 8,-122 8,-122 2,-245 2,-245 11,-28 12,-27 h 272 273 l 14,-9 15,-10 3,-43 4,-43 3,-300 3,-300 8,-23 8,-24 -29,4 -29,3 -8,40 -9,40 -25,105 -25,105 -9,60 -8,60 -14,45 -15,45 -13,28 -12,27 -26,8 -26,7 -550,-1 -550,-1 -65,-2 -65,-3 -462,7 -461,8 -24,-6 -23,-6 -18,-30 -17,-29 v -25 -25 l -12,-9 -13,-10 -85,-6 -85,-6 -17,13 -18,13 v 22 22 l -14,34 -15,35 h -14 -13 l -93,45 -92,45 -67,15 -67,16 -25,-6 -25,-7 -17,-15 -18,-16 v -40 -40 l -17,-19 -16,-18 h -13 -13 l -11,-19 -10,-20 v -28 -29 l 35,-34 35,-34 v -13 -13 l -24,-10 -24,-9 -12,-35 -11,-36 6,-20 6,-20 34,-26 34,-25 6,-30 7,-29 15,-15 14,-15 h 52 l 52,1 55,14 55,13 30,11 30,11 37,5 37,6 28,28 28,29 20,26 20,27 37,6 37,5 55,-7 56,-6 16,-17 17,-16 -6,-102 -7,-101 -6,-16 -6,-15 -16,-7 -17,-7 -400,-5 -400,-5 -62,61 -61,61 h -10 -9 l -16,18 -17,18 15,21 15,21 30,7 29,6 26,21 27,21 -7,56 -7,55 -14,20 -14,20 v 23 22 l -9,5 -9,6 -7,41 -7,41 -14,26 -14,27 v 26 25 l -12,29 -13,29 -30,59 -30,60 -26,20 -26,19 -271,-12 -272,-11 -217,7 -218,7 -27,-1 -28,-1 -47,-1 -48,-2 -31,-14 -31,-14 -36,-39 -35,-39 -5,-18 -5,-19 -21,-100 -22,-100 -9,-31 -10,-30 v -25 -25 l -9,-9 -8,-10 -12,-45 -12,-45 9,-25 10,-25 21,-19 21,-19 v -21 -21 l -25,-20 -25,-20 -58,-53 -57,-52 -30,-10 -30,-10 -270,4 -270,4 -86,1 -85,1 -18,13 -17,12 -4,116 -4,116 12,17 12,16 81,6 80,7 22,-12 22,-12 20,-39 20,-39 11,-6 10,-7 72,-19 72,-18 55,-20 55,-20 h 55 55 l 17,13 18,13 6,39 6,39 11,14 11,13 23,9 24,9 5,15 6,15 -6,36 -7,35 -25,9 -24,10 v 13 14 l 25,11 25,12 v 34 34 l -35,46 -35,46 v 41 40 l -10,20 -11,19 h -39 -39 l -28,-11 -28,-11 -65,-25 -65,-24 -75,-26 -75,-25 -12,-10 -13,-10 v -33 -32 l -19,-17 -20,-18 -84,3 -84,4 -17,14 -17,14 6,131 5,130 15,15 14,14 82,6 81,6 18,23 19,23 6,52 7,52 -4,197 -3,196 7,8 8,7 211,2 211,2 9,14 9,14 v 92 91 l 49,84 49,83 7,61 7,60 -16,77 -16,77 -22,42 -21,43 -13,16 -14,15 -10,70 -10,69 v 12 11 l -46,16 -47,16 -116,-6 -116,-6 -55,9 -55,9 2,24 2,25 5,200 5,200 -11,43 -11,43 -30,16 -31,15 -45,-6 -46,-6 -43,-9 -43,-9 -10,25 -9,24 v 39 39 l 10,6 9,6 -5,47 -6,47 -14,11 -14,11 v 16 16 l -10,6 -10,6 -6,-18 -6,-18 -8,-20 -7,-20 -13,-38 -12,-39 6,-46 7,-47 10,-53 10,-52 32,-16 31,-17 77,7 77,6 16,-16 16,-16 1,-166 1,-167 2,-50 1,-50 -245,-5 -245,-5 -12,9 -13,8 v 28 29 l -27,21 -28,22 -60,-6 -60,-6 -163,-10 -164,-9 -24,-16 -24,-15 -2,-28 -1,-27 1,-15 2,-15 5,-482 4,-483 10,-19 10,-19 33,-6 33,-6 213,-6 214,-6 24,6 24,6 20,39 20,40 217,-2 218,-2 3,-215 3,-215 -21,-17 -21,-17 -64,6 -64,6 -30,-12 -29,-13 -13,-51 -13,-52 2,-7 2,-7 5,-78 6,-78 v -289 -289 l -10,-10 -11,-11 -137,3 -137,2 -7,5 -7,4 -654,7 -653,6 -137,-2 -138,-3 v 17 17 l 65,63 65,64 v 11 10 l 26,39 26,39 14,6 14,6 -6,26 -7,27 18,14 19,13 h -6 -6 l 9,38 9,37 v 145 l 1,145 -6,193 -6,192 h 20 20 l 11,-20 11,-20 h 24 23 l 4,-11 4,-11 36,-13 36,-12 74,6 73,6 23,20 22,20 26,25 26,25 23,46 24,46 1,64 2,64 -1,15 -1,15 5,83 4,83 -14,77 -13,76 8,21 7,20 -3,305 -4,305 -16,55 -15,55 -10,15 -9,15 -9,20 -9,20 -28,27 -29,26 -45,18 -44,18 h -66 l -65,1 -54,-38 -53,-37 -9,6 -10,6 4,236 3,237 -13,90 -12,90 -11,40 -11,40 -8,20 -8,20 -29,60 -28,59 -59,56 -59,55 -25,13 -25,14 8,8 9,8 40,7 40,7 70,-3 70,-4 215,3 215,2 110,3 110,2 3,-70 3,-70 -12,-120 -12,-120 -7,-295 -8,-295 -16,-345 -17,-345 5,-50 6,-50 1,-520 1,-520 -1,-38 -1,-38 -17,-6 -18,-7 -33,-25 -33,-26 -26,-50 -25,-50 4,-100 5,-100 25,-40 26,-40 23,-21 24,-21 38,-21 38,-22 h 83 84 l 12,15 12,15 h 15 14 l 35,38 35,37 31,43 30,43 3,77 3,77 -26,54 -27,53 -22,24 -22,24 -12,43 -11,42 v 490 l -1,490 1,25 v 25 l -2,75 -3,75 -8,185 -8,185 -3,50 -2,50 -7,160 -6,160 -9,34 -9,34 9,125 10,125 -5,36 -5,36 -5,95 -4,95 -10,70 -10,70 6,70 5,70 3,3 3,3 208,4 209,4 190,11 190,12 39,1 40,2 9,-35 8,-35 1,-15 v -15 -100 -100 l -1,-56 -1,-57 15,-35 14,-35 33,-6 33,-7 18,1 h 17 l 69,2 70,2 20,-18 21,-19 v -17 -17 l 24,-23 25,-22 43,-9 43,-9 85,-17 85,-16 78,-4 77,-5 v 51 50 l 16,15 15,16 h 14 14 l 11,19 10,20 -10,26 -10,25 -24,10 -24,9 -7,11 -7,11 31,35 31,35 v 25 25 l -36,21 -36,21 6,31 7,31 v 20 20 l -22,18 -21,17 h -40 -39 l -77,-26 -77,-25 -10,-9 -10,-8 -54,-7 -53,-7 -22,-25 -21,-24 -15,-32 -15,-32 h -103 -104 l -14,20 -14,19 6,31 5,30 3,85 3,85 2,17 1,17 38,10 37,9 69,1 68,1 7,4 7,4 262,7 262,6 55,-43 55,-43 v -7 -8 l 41,-26 42,-26 23,-26 23,-27 1,-12 v -12 l -17,-5 -18,-6 -39,-33 -38,-33 11,-74 12,-74 8,-10 9,-11 12,-45 11,-45 26,-55 25,-55 30,-62 30,-61 72,-37 73,-37 274,10 274,10 218,-5 218,-5 45,12 44,13 v 8 8 l 45,32 45,32 19,36 18,37 8,33 7,33 18,32 19,31 14,60 15,60 23,62 24,63 -11,17 -10,17 -15,6 -14,7 -37,18 -38,18 v 12 11 l 53,55 52,54 73,60 73,60 17,7 17,7 h 221 l 221,1 z m 1815,-17 688,-4 8,-9 7,-8 -8,-104 -9,-105 -10,-10 -10,-10 v -36 -35 l -15,-49 -15,-49 v -39 -39 l -16,-32 -17,-32 -9,-6 -8,-5 -138,3 -137,3 h -289 l -290,-1 -7,-5 -8,-4 -638,-6 -638,-5 -13,9 -12,8 -9,134 -9,135 8,20 7,20 -9,25 -10,25 7,95 7,95 10,18 9,18 442,-6 442,-5 z m 972,-8 17,-16 -6,-15 -6,-15 -78,-5 -78,-4 -22,-8 -23,-7 v 30 31 l 19,13 18,13 h 71 71 z m 207,0 18,-9 -3,-22 -3,-22 -53,-3 -54,-3 -14,12 -14,11 v 19 18 l 17,10 17,9 36,-5 35,-6 z m -4747,-3 3,-10 -47,-23 -47,-22 -115,-14 -115,-14 -97,-7 -97,-6 -28,14 -28,15 -24,26 -25,26 10,10 9,9 85,3 85,3 h 214 214 z m 5041,-8 5,-9 -15,-16 -16,-15 -80,-5 -81,-5 -6,17 -6,16 6,15 5,15 91,-2 91,-1 z m -4747,-14 45,-16 15,-12 15,-12 77,-37 77,-36 6,-10 6,-10 h 14 13 l 99,-46 98,-45 50,-27 50,-26 38,-19 37,-19 v -12 -13 l -36,-104 -35,-104 -21,-40 -20,-40 -12,-23 -13,-22 -47,-37 -47,-36 h -497 l -497,-1 -30,16 -30,16 -17,19 -18,19 -51,100 -50,99 -25,65 -24,65 v 23 23 l 18,5 17,6 32,14 31,14 h 15 14 l 24,18 24,18 50,18 50,19 16,13 16,14 h 17 17 l 37,20 37,20 77,35 76,35 h 9 10 l 18,20 18,20 h 29 29 l 15,15 15,15 h 37 36 z m 5095,3 70,-4 275,-11 275,-11 265,-9 265,-9 h 25 25 l 217,-5 217,-4 15,-13 16,-12 v -33 -32 l -11,-54 -12,-54 -11,-69 -11,-70 -877,-1 -877,-2 -11,7 -11,7 -9,49 -10,49 -16,85 -16,85 -13,30 -14,30 -2,25 -1,25 1,9 1,8 83,-6 82,-6 z m 1941,-61 159,-6 43,-4 44,-4 33,-25 34,-26 6,-20 6,-20 41,-68 40,-67 23,-35 22,-35 31,-49 32,-49 v -32 -32 l -20,-18 -19,-17 -12,-57 -13,-56 -10,-8 -11,-7 -115,2 -115,1 -95,-52 -95,-52 -15,-9 -15,-10 -100,-56 -100,-56 -54,-30 -53,-30 -15,15 -15,15 10,33 11,34 6,55 7,55 13,50 14,50 11,95 12,95 13,75 14,75 6,55 6,55 15,75 15,75 16,17 16,18 7,-5 7,-4 z m -2780,-54 16,-36 1,-83 2,-84 -23,-19 -23,-18 -47,6 -47,5 -20,19 -20,19 -4,77 -3,77 17,33 18,32 24,8 25,9 34,-4 35,-4 z m 154,28 50,-11 12,-21 11,-22 1,-93 1,-94 -20,-15 -20,-15 -49,6 -49,5 -11,11 -10,10 2,106 3,106 10,19 10,19 h 4 4 z m 297,-11 10,-13 7,-96 7,-96 -19,-23 -19,-24 -57,2 -56,1 -22,12 -21,11 6,111 7,111 12,8 13,8 h 61 62 z m 2928,-3 170,-6 75,-11 75,-10 285,-3 285,-3 150,-6 150,-5 60,-10 60,-11 260,-15 260,-16 37,-10 37,-10 63,3 63,2 120,-8 120,-7 77,-14 78,-15 132,2 133,1 175,-3 175,-2 24,-10 25,-9 100,-9 101,-9 190,-11 190,-10 85,-6 85,-5 80,-10 80,-11 90,-3 90,-4 125,-11 125,-12 45,-3 45,-4 170,-15 170,-15 25,1 25,1 150,-18 150,-18 45,-2 45,-2 96,-11 96,-12 14,-5 14,-5 110,-10 110,-9 165,-15 165,-15 40,-11 40,-10 149,-11 149,-11 66,-33 66,-33 33,-37 32,-37 v -12 -12 l 41,-30 42,-29 66,-66 66,-66 23,-12 22,-12 v -10 -10 l 54,-50 55,-50 6,-20 6,-19 h 18 19 l 12,-15 12,-15 h 13 12 l 25,-35 25,-36 71,-59 70,-59 4,-58 3,-58 -5,-55 -5,-55 -200,2 -200,3 -87,2 -88,2 -136,-2 -137,-3 -18,17 -19,17 v 36 36 l -8,11 -7,10 -69,32 -69,32 -76,46 -75,46 -76,29 -75,29 -92,20 -92,19 -118,-9 -118,-9 -65,-20 -65,-21 -94,-12 -94,-12 -13,19 -14,19 v 37 38 l -26,20 -27,21 h -34 -34 l -19,-10 -18,-10 -21,-34 -21,-33 v -33 -33 l -55,-54 -55,-54 v -13 -13 l -21,-27 -21,-27 -14,-61 -15,-62 -11,-14 -12,-14 -131,7 -130,7 -13,13 -14,13 v 48 l -1,49 10,110 10,110 -14,42 -15,43 -25,20 -26,20 h -7 -8 l -94,43 -93,44 -39,6 -38,6 -17,14 -16,13 -45,18 -45,18 -27,14 -26,14 h -12 -13 l -66,31 -66,31 -40,18 -40,19 -60,26 -60,26 -30,14 -30,14 -56,25 -56,25 -149,11 -149,11 -130,9 -130,9 -112,1 h -113 v 25 25 h 10 11 l 7,19 7,19 80,91 80,92 7,32 6,32 -10,12 -10,13 h -22 -21 l -33,-40 -33,-40 -54,-83 -55,-82 -36,-48 -36,-47 -96,5 -97,5 -75,10 -75,10 -125,11 -125,10 -110,9 -110,9 -95,2 -95,1 -80,14 -80,13 -130,6 -130,7 -130,14 -130,14 -260,16 -260,16 -60,2 -60,3 -135,2 -135,2 -27,43 -28,44 v 8 9 l -40,58 -40,57 v 6 6 l -30,44 -29,44 -2,12 -1,13 1,14 1,13 23,-5 22,-6 z m -11546,-15 43,-20 39,-31 39,-31 v -13 -13 l -16,-6 -16,-6 h -41 -41 l -33,12 -33,12 v 21 21 l -12,12 -12,12 -13,-11 -13,-11 v -24 -23 l -20,-11 -21,-11 -42,3 -42,3 -13,28 -13,27 h -22 -22 l -18,-32 -18,-31 -84,7 -84,6 -7,-22 -8,-23 -1,-215 -2,-215 -3,-126 -2,-127 11,-19 10,-20 38,-29 38,-29 70,-25 70,-25 105,6 105,6 49,17 48,17 22,11 21,11 38,30 37,30 v 10 10 l 17,13 18,12 2,316 2,317 6,9 6,9 15,-6 15,-6 33,-66 33,-66 17,-105 18,-105 3,-319 4,-320 -11,-13 -10,-13 -442,1 h -442 l -42,-7 -42,-7 -23,16 -23,15 3,381 2,382 11,39 10,38 15,29 15,28 v 9 9 l 24,31 23,31 7,22 7,22 32,26 32,25 15,13 15,13 55,35 54,34 116,6 115,5 60,2 60,2 z m -569,-18 v -7 l -60,-65 -59,-64 -38,-76 -37,-75 -9,-60 -10,-60 2,-50 2,-50 2,-185 2,-185 -21,-3 -21,-3 -16,25 -16,24 -33,17 -33,17 -75,18 -74,18 -28,-14 -27,-14 h -20 -20 l -43,-29 -43,-30 -27,-30 -28,-29 v -9 -9 l -25,-34 -25,-34 v -15 l -1,-16 -24,-30 -24,-29 26,-35 26,-34 -19,-14 -19,-15 -100,6 -100,6 -177,6 -178,6 -28,-11 -28,-12 -31,-52 -31,-52 5,-186 6,-186 -12,-7 -12,-8 -104,-5 -105,-5 -6,16 -7,17 30,42 30,42 6,23 6,24 -6,14 -5,14 h -10 -9 l -42,-27 -42,-28 -20,-13 -20,-12 -22,-9 -21,-10 -7,-11 -7,-11 -44,-21 -45,-21 -27,20 -27,20 -3,15 -3,14 23,11 23,11 60,27 60,27 37,48 38,48 11,28 11,29 -1,49 -1,49 -8,11 -9,11 -7,35 -6,34 -32,33 -32,33 h -13 -12 l -20,21 -20,22 -65,3 -65,2 -9,6 -10,6 -43,65 -44,65 -18,6 -18,6 -24,-16 -25,-16 v -18 -18 l 15,-20 14,-19 1,-27 v -28 h -8 -8 l -37,19 -38,19 -35,27 -34,26 -58,30 -57,31 -15,12 -15,13 -65,33 -65,34 -37,19 -38,19 v 8 9 l -22,7 -23,6 -65,32 -65,31 h -65 l -65,1 -135,-8 -135,-8 -245,2 -245,1 -120,-3 -120,-2 -59,-36 -58,-37 -52,-29 -51,-29 -73,-37 -72,-38 -13,-10 -12,-11 -59,-30 -58,-31 h -14 -14 l -17,-20 -17,-20 h -11 -10 l -45,-39 -45,-39 -2,-613 -3,-614 16,-46 15,-47 81,-46 82,-46 h 11 12 l 18,-20 17,-19 37,-12 36,-12 35,-22 35,-21 50,-24 50,-24 39,-28 39,-28 h 9 10 l 78,-39 78,-40 493,-2 494,-2 40,12 40,12 45,24 45,24 33,16 32,15 19,19 18,18 71,33 71,33 17,18 17,19 h 18 17 l 29,23 28,23 72,47 71,47 h 10 10 l 12,-15 13,-16 -11,-22 -11,-22 -9,-36 -10,-36 11,-19 10,-19 11,-7 11,-8 h 18 17 l 19,19 19,19 7,43 6,44 17,33 17,34 40,-9 40,-8 79,1 78,1 9,15 9,16 25,6 25,6 14,28 14,27 21,23 20,24 12,53 12,53 -7,35 -7,35 -39,76 -39,76 h 10 9 v -10 -10 h 16 16 l 30,-17 29,-18 15,19 14,20 v 28 29 l -35,35 -35,35 v 25 26 l 150,-4 150,-3 25,27 24,27 h 93 93 l 10,-7 10,-7 13,-28 12,-28 v -43 -44 l -6,-30 -6,-30 -120,-4 -119,-3 -18,-24 -19,-24 -5,-60 -5,-60 9,-61 10,-61 17,-13 16,-12 191,-1 h 190 l 50,1 50,1 62,10 63,9 20,-12 20,-13 v -17 -16 l -6,-16 -6,-16 h -19 -19 l -20,-20 -20,-20 9,-18 9,-18 26,-14 26,-13 20,-42 20,-41 v -9 -8 l 36,-53 35,-54 h 13 14 l 5,-14 5,-13 49,-17 48,-17 22,-6 23,-5 72,17 72,18 34,24 35,23 h 7 7 l 11,25 12,25 h 15 15 l 8,-22 8,-23 -6,-165 -6,-165 8,-60 9,-60 16,-65 15,-65 14,-16 14,-16 v -15 -15 l 23,-27 22,-28 43,-45 42,-45 11,-20 11,-20 -10,-10 -10,-10 -149,11 -148,12 -55,3 -55,4 -245,10 -245,10 -15,6 -15,6 -215,4 -215,4 -110,10 -110,11 -250,11 -250,11 -280,20 -280,19 -120,4 -120,4 -65,11 -65,10 -170,11 -170,11 -129,5 -130,4 -35,10 -36,9 -179,11 -178,11 -102,20 -101,20 -115,9 -115,10 -190,20 -190,21 -150,15 -150,15 -85,8 -85,8 -50,12 -50,12 -105,8 -105,8 -90,16 -90,16 -85,11 -85,10 -80,11 -80,11 -50,8 -50,9 -155,16 -155,17 -70,8 -70,8 -30,10 -30,11 -105,11 -105,12 -75,8 -75,8 -100,12 -99,12 -9,5 -8,5 -127,20 -127,20 -50,8 -50,8 -70,11 -70,10 -60,15 -59,16 h -52 -53 l -28,11 -28,11 -105,9 -105,9 -67,14 -68,14 -20,-5 -20,-5 -25,16 -26,17 -34,-7 -35,-6 -17,6 -16,7 30,32 30,32 -9,33 -9,33 -25,9 -25,10 h -19 -18 l -31,-26 -31,-26 v -34 -34 h -5 -6 l -23,15 -24,16 -77,-3 -78,-3 -4,11 -4,11 40,7 40,6 15,22 16,22 v 17 16 l -21,27 -20,26 h -39 -38 l -20,-17 -21,-18 -3,-31 -2,-31 17,-18 18,-18 -10,-10 -10,-10 -48,17 -48,17 -35,9 -35,10 h -33 -33 l -32,17 -32,17 -80,3 -79,3 -56,19 -55,20 -40,6 -40,7 -70,23 -70,23 -50,7 -50,6 -70,15 -70,15 -33,15 -33,14 h -37 l -37,1 -19,14 -20,15 h -28 -28 l -87,30 -86,30 h -29 -29 l -47,20 -47,19 -43,11 -43,11 -44,-7 -44,-6 -27,21 -27,21 h -47 -48 l -38,16 -38,16 -50,9 -51,10 -45,8 -45,8 -48,13 -48,13 -36,18 -35,18 23,5 24,5 58,5 59,5 22,14 22,15 12,39 12,40 5,208 4,208 -21,30 -21,29 -66,-6 -65,-7 -48,-16 -49,-16 -9,-18 -10,-18 v -228 -229 l 15,-20 14,-19 1,-8 v -9 l -62,7 -63,8 -13,18 -13,19 h -14 -13 l -31,42 -31,42 v 13 14 l -21,40 -20,41 6,37 6,36 29,55 30,55 14,30 15,30 33,26 33,26 33,17 32,17 v 9 10 h 23 23 l 21,15 20,14 44,6 44,7 20,8 20,8 40,16 40,16 40,3 40,4 22,11 22,12 h 25 25 l 42,22 41,21 67,7 66,6 20,12 20,12 45,16 45,16 40,7 40,7 20,11 20,10 70,16 70,16 25,5 25,5 45,10 45,11 35,14 35,14 80,12 80,12 95,23 95,23 45,6 45,6 70,15 70,14 55,11 55,12 65,9 65,8 49,11 49,10 88,11 89,10 9,-5 9,-6 -14,-37 -13,-38 v -25 l -1,-25 33,-22 33,-23 h 20 l 19,1 27,24 28,24 v 14 13 l -12,12 -12,12 -10,32 -11,32 -24,6 -25,6 -4,12 -4,12 h 23 22 l 16,14 16,13 71,7 71,6 5,-6 6,-5 -14,-27 -13,-27 -6,-40 -7,-40 22,-28 21,-27 h 20 20 l 22,11 22,12 8,11 7,11 -6,50 -6,50 -14,22 -14,22 24,17 25,16 53,8 53,8 55,15 55,15 155,12 155,12 45,9 45,9 65,10 65,9 50,11 50,11 175,14 175,14 57,10 57,10 20,10 20,11 h 41 41 l 20,-11 21,-11 16,14 17,15 105,13 105,14 90,1 90,1 40,11 40,12 80,7 80,7 25,9 25,10 165,14 165,15 155,15 155,15 71,4 71,3 74,11 74,11 105,11 105,10 140,10 140,9 85,8 85,8 11,7 11,6 144,4 145,4 31,17 32,16 h 43 43 l 79,15 79,15 62,-6 62,-6 25,16 26,17 188,4 189,5 45,9 45,10 60,1 h 60 l 170,15 170,14 300,16 300,15 96,12 97,11 45,-12 46,-11 h 33 33 l 50,16 50,15 315,1 315,1 23,15 23,15 202,3 202,4 55,10 55,9 155,5 155,5 30,10 30,10 180,11 180,12 55,8 55,7 33,2 32,1 z m 3850,-1 v -9 l -31,-11 -32,-11 h -18 -19 v 14 15 l 18,4 17,5 33,1 32,1 z m 1155,-11 6,-10 h -20 -21 v 10 10 h 14 15 z m -4768,-153 11,-12 7,-71 7,-71 -16,-16 -16,-16 -47,-7 -46,-7 -26,9 -26,10 v 88 88 l 20,15 20,14 50,-6 50,-6 z m 185,-1 27,-6 5,-18 6,-17 4,-49 5,-49 -20,-38 -19,-39 h -10 -10 l -40,16 -41,16 -10,20 -10,19 6,65 7,65 21,14 21,15 16,-4 15,-4 z m 239,4 19,-11 v -45 -45 l 11,-21 11,-21 -24,-24 -24,-24 -62,-3 -62,-3 -11,13 -10,13 -1,77 v 78 l 18,13 18,13 h 49 48 z m 5339,-90 45,-10 23,-5 22,-5 v -19 -19 l -16,-6 -16,-6 h -88 -89 l -16,16 -16,16 4,12 4,11 24,12 24,13 h 25 25 z m -3099,-20 19,-11 v -19 -19 l -17,-5 -18,-6 -85,-2 -85,-2 -22,12 -23,13 v 9 9 l 10,6 10,6 42,8 43,9 53,1 53,1 z m 7552,-107 60,-18 49,-55 49,-55 -3,-25 -3,-25 h -40 -40 l 2,22 2,21 -14,12 -14,12 -21,-7 -20,-6 v -20 -20 l -16,-6 -16,-6 -38,22 -38,21 -25,-9 -25,-10 -7,-10 -6,-11 h -25 -25 l -6,15 -5,16 -29,15 -29,15 v 12 12 l 33,30 32,31 30,14 30,14 20,7 20,7 30,1 29,1 z m 1815,-31 12,-16 -3,-11 -4,-10 -84,3 -84,4 -8,8 -8,7 31,20 31,20 52,-5 52,-4 z m 469,-28 82,-14 h 63 l 63,1 40,-3 40,-3 3,-21 3,-21 -27,-33 -27,-32 -9,-47 -9,-46 -6,-42 -5,-41 21,-12 21,-11 9,5 8,5 5,58 6,58 18,38 18,37 h 17 17 l 6,-16 6,-16 v -36 -37 l 25,-30 24,-30 13,33 13,33 30,8 30,8 34,-13 33,-14 39,6 38,6 12,-26 12,-26 h 11 l 11,1 18,13 17,13 v 10 11 l 15,12 16,13 24,-11 23,-11 7,-55 7,-56 h 24 23 l 6,10 6,10 2,64 2,64 -16,19 -16,18 -17,34 -16,35 9,9 10,10 70,-17 71,-17 162,-10 163,-9 78,-9 79,-10 184,-3 184,-2 v -20 -21 l -37,-36 -38,-36 -13,-17 -14,-17 -9,-31 -9,-31 13,-26 12,-26 27,-3 26,-3 16,23 16,22 v 18 18 l 25,40 25,39 25,17 24,16 6,19 6,19 h 19 18 l 64,-67 63,-67 70,-68 70,-68 h 23 22 v 28 28 l -25,34 -25,34 -30,19 -30,19 v 8 9 l -45,32 -45,32 v 19 18 h 47 47 l 90,-14 91,-15 130,-12 130,-12 115,-7 115,-7 31,-11 32,-10 78,-39 79,-40 73,-28 72,-28 v -8 -7 l 53,-18 52,-17 20,-13 19,-14 h 19 18 l 49,-25 49,-25 48,-16 48,-16 16,-14 16,-14 h 19 19 l 30,-20 30,-20 h 21 21 l 29,-27 29,-26 2,-41 2,-41 5,-70 6,-70 5,-13 5,-14 -10,-38 -10,-38 -14,-5 -15,-6 -163,11 -163,10 -111,-6 -112,-5 -15,17 -15,17 -7,23 -7,23 -31,14 -32,14 -88,40 -87,41 h -13 -12 l -97,53 -97,54 -58,13 -58,13 -48,4 -47,5 -33,-12 -32,-11 -110,-15 -110,-16 -77,-8 -78,-9 -10,-6 -11,-7 -23,15 -23,16 -6,47 -5,48 -36,33 -36,33 h -30 -30 l -21,-21 -21,-21 -13,-33 -14,-32 5,-34 6,-34 -19,-16 -18,-16 -47,-17 -47,-17 -20,-32 -19,-32 -22,-70 -22,-70 -19,-130 -19,-130 v -50 -50 l 20,-95 20,-95 26,-55 26,-55 27,-55 27,-55 44,-12 44,-13 13,-13 13,-13 1,-44 1,-45 10,-33 10,-32 28,-15 29,-15 h 19 20 l 30,34 29,33 7,51 6,50 15,12 14,11 33,1 h 33 l 75,-6 75,-6 66,-5 66,-5 42,-15 43,-15 76,-6 77,-6 56,15 56,15 46,21 46,21 h 13 13 l 37,25 37,25 h 17 18 l 20,18 21,18 75,34 75,33 11,9 11,8 6,47 5,47 21,17 21,17 h 143 142 l 42,11 42,12 101,1 101,2 10,-14 10,-15 -6,-155 -6,-155 -6,-22 -5,-23 -77,-40 -76,-40 -40,-11 -40,-11 -105,-49 -105,-50 -28,-15 -29,-14 h -10 -11 l -71,-34 -71,-34 -100,-42 -100,-41 -10,-13 -10,-12 -50,-16 -50,-16 -128,-7 -128,-7 -167,-20 -167,-20 -82,-5 -83,-4 v 16 16 l 44,42 43,42 52,46 51,46 v 26 26 l -20,6 -20,6 -37,-33 -37,-33 -25,-25 -26,-26 -36,-39 -36,-40 -32,-27 -31,-28 h -20 -21 l -5,15 -6,15 h -14 -15 l -5,15 -6,16 -57,54 -56,55 h -17 -18 l -6,-25 -6,-26 33,-34 34,-35 h 13 12 v -24 -25 l 27,-3 26,-3 4,-11 4,-11 -43,-11 -43,-11 -225,-6 -225,-6 -45,-9 -45,-10 -155,-9 -155,-10 -47,-7 -48,-7 v 17 17 l 26,34 26,35 9,37 8,38 -10,33 -11,32 h -18 -18 l -9,-12 -10,-13 -10,-30 -10,-30 -21,-3 -21,-3 -17,28 -18,28 -15,13 -15,12 h -8 -9 l -14,-35 -15,-34 -29,10 -30,11 -12,14 -11,14 h -22 -21 l -30,-20 -30,-20 h -36 -37 l -6,-16 -6,-16 v -44 -44 h -13 -14 l -20,23 -21,22 -12,24 -13,25 -1,45 -1,46 -19,3 -20,4 -13,-18 -13,-18 v -40 -41 l 41,-74 40,-74 -6,-15 -5,-14 -34,6 -34,7 -7,-11 -6,-10 h -122 -122 l -41,-10 -42,-10 -98,-9 -98,-9 -13,5 -13,5 v 39 38 l 23,13 22,13 h 150 l 150,1 12,2 11,2 21,34 21,33 v 144 144 l 6,22 6,21 26,11 27,11 182,-4 183,-5 9,-5 9,-6 45,16 46,16 6,19 6,19 -6,145 -6,145 18,33 18,32 13,17 13,16 v 328 l -1,328 -31,32 -31,32 2,58 2,59 -1,103 -1,102 -21,21 -21,21 -82,-3 -81,-3 -156,2 -155,2 -18,13 -18,13 -2,156 -2,156 -13,16 -13,16 h -167 -166 l -14,9 -14,9 -8,58 -8,58 5,8 5,7 132,-5 132,-6 z m -3996,-22 17,-22 h 17 17 l 30,25 30,25 h 35 36 l 33,-25 33,-25 h 14 14 l 18,21 19,20 58,-4 59,-4 11,-11 10,-10 4,-48 3,-47 -15,-23 -16,-23 -35,-23 -36,-23 -30,-17 -30,-17 -18,9 -17,10 -9,37 -9,37 -31,19 -32,19 -57,-8 -56,-7 -19,-31 -20,-31 4,-28 4,-27 -13,-11 -13,-11 -48,23 -48,23 -27,19 -27,20 -16,39 -15,38 v 44 45 l 17,16 17,17 59,-4 60,-4 z m 10099,-19 21,5 107,-10 107,-10 30,-32 30,-33 35,-15 35,-15 90,-22 90,-22 20,1 h 20 l 39,41 39,41 51,-6 51,-7 60,-7 60,-8 35,-21 35,-20 70,-8 70,-8 51,1 51,2 29,-15 29,-15 h 40 41 l 19,-14 20,-14 45,-4 45,-5 110,-12 110,-12 66,-14 67,-15 h 28 29 l 95,-25 95,-25 h 55 55 l 25,-13 24,-12 2,-60 2,-59 18,-13 18,-13 h 19 18 l 21,11 20,11 14,35 15,34 -6,20 -6,19 h 63 63 l 15,-10 14,-9 -12,-45 -12,-45 6,-15 6,-15 16,-5 17,-4 29,-7 29,-6 8,13 9,13 v 22 22 l 12,7 12,8 81,-2 80,-3 45,-14 45,-14 90,-20 90,-19 63,-13 64,-12 36,-19 36,-18 h 26 27 l 59,-24 59,-24 50,-8 50,-7 45,-20 45,-19 74,-19 74,-19 h 41 41 l 27,-14 27,-14 31,-7 32,-7 64,-30 64,-30 5,-8 5,-8 33,-7 32,-7 60,-20 60,-20 7,-11 8,-12 -5,-13 -5,-13 14,-28 15,-27 27,-13 28,-12 12,15 11,16 h 20 21 l 5,-30 6,-30 33,-20 33,-20 h 47 47 l 25,11 25,12 45,-21 45,-22 11,-19 10,-20 v -24 -25 l -52,-44 -53,-45 -21,-11 -20,-11 -30,20 -29,19 h -30 -30 l -10,-8 -10,-7 -18,-27 -17,-27 v -19 -20 l -15,-12 -14,-12 -11,7 -10,6 v 18 17 l 12,12 12,12 -11,11 -10,10 -41,-11 -41,-10 -19,-25 -20,-25 h -21 -21 l -53,-27 -52,-27 -4,-10 -4,-9 -33,-37 -34,-38 -64,-12 -65,-12 -10,7 -11,6 v 20 19 l 26,10 25,10 h 24 24 l 16,30 15,29 v 36 36 l -11,22 -12,22 -11,7 -10,7 -49,6 -49,7 -26,14 -27,14 h -26 -26 l -34,-11 -34,-12 -13,-12 -13,-12 -1,-32 -1,-31 24,-26 24,-26 45,-26 45,-25 23,-20 22,-20 v -17 -17 l -24,-22 -24,-23 -84,-10 -83,-10 -45,-20 -45,-20 -75,-18 -75,-18 -115,-17 -115,-17 -47,-24 -48,-24 h -27 -28 l -44,-20 -43,-20 h -23 -23 l -33,-14 -34,-14 -74,-11 -73,-10 -50,35 -50,34 h -23 -24 l -20,-26 -21,-26 6,-39 6,-39 -28,-11 -29,-10 -47,-6 -47,-6 -10,40 -11,40 -24,11 -24,11 -26,-34 -26,-34 v -35 -35 l -17,-5 -18,-5 -75,-7 -75,-7 -20,-10 -20,-10 -57,-14 -58,-13 -62,-16 -63,-15 -57,-9 -56,-8 -13,-8 -14,-8 -45,-7 -45,-7 -107,-15 -107,-16 -37,-16 -36,-15 h -32 -31 l -70,-14 -70,-14 -28,-11 -28,-11 h -46 -45 l -135,-31 -135,-31 -27,26 -27,26 h -70 -71 l -49,-15 -49,-15 h -31 -31 l -18,-20 -18,-20 -11,-22 -12,-23 -49,-7 -50,-8 -92,-5 -93,-5 v 18 l 1,17 50,45 51,45 48,48 48,47 h 11 11 v 14 14 l 43,35 42,36 53,48 53,48 32,35 32,34 39,36 39,35 26,29 26,29 48,47 47,48 2,13 2,14 1,115 v 115 h 72 73 l 32,32 31,32 -16,24 -16,25 -37,6 -36,7 -40,-6 -39,-7 -14,12 -15,12 v 92 92 l 13,16 12,16 80,5 80,6 17,22 18,21 v 14 14 l -27,17 -27,18 -80,5 -81,5 v 125 125 l -34,42 -33,41 -44,28 -44,28 -5,17 -6,17 -25,17 -25,16 -52,52 -52,52 -40,29 -40,29 -20,18 -20,18 -37,33 -37,33 -23,21 -23,21 -21,11 -21,11 -24,35 -24,36 h -9 -9 l -33,35 -34,34 v 14 14 l 7,6 6,7 18,-16 18,-17 z m -5459,-14 20,-10 -3,-27 -3,-27 -35,3 -35,2 -40,1 -40,1 -33,-7 -33,-7 -22,24 -23,25 -14,5 -14,4 7,19 8,18 120,-6 120,-7 z m -12961,-14 v -15 h -10 -10 v 15 15 h 10 10 z m 13058,-43 4,-14 -18,4 -17,3 -5,13 -4,14 18,-4 17,-3 z m -11820,-51 -3,-36 h -20 -20 l -3,21 -3,20 11,28 10,28 16,-13 15,-12 z m 8502,15 v -15 l -10,-6 -10,-6 v 20 21 h 10 10 z m -9946,-16 h 33 l 9,-32 10,-33 16,-3 16,-3 12,35 12,36 22,6 23,5 33,-3 34,-3 16,-30 17,-30 16,-3 16,-3 9,33 8,33 74,3 73,3 8,-13 9,-13 v -49 -49 l -12,-39 -12,-40 -15,-7 -16,-6 -42,-28 -41,-28 -29,3 -28,3 v 22 l -1,21 -13,25 -13,25 h -67 -66 l -32,-14 -33,-13 -16,-40 -16,-41 h -15 -15 l -25,20 -26,20 h -12 -12 l -22,24 -22,23 3,83 3,83 35,13 35,12 13,-4 14,-4 z m 10384,-49 4,-23 -11,-11 -11,-11 v -14 -13 l -24,-32 -25,-32 -33,-17 -33,-16 -46,-11 -45,-10 -40,6 -39,6 -30,16 -30,16 -32,29 -33,30 v 28 28 h 13 14 l 19,21 19,21 35,-7 35,-7 45,-1 45,-1 27,8 27,8 7,-26 6,-25 13,-11 12,-10 16,6 16,6 6,29 7,29 16,10 17,10 15,-3 15,-2 z m -1687,9 19,-11 v -27 -28 l -12,-12 -12,-12 h -27 -27 l -6,16 -6,16 v 27 28 l 7,6 6,7 h 19 19 z m 3787,-15 13,-5 v -82 -83 -25 l 1,-25 -5,-238 -6,-238 23,-26 23,-27 240,-2 241,-2 20,-6 20,-7 3,-227 4,-227 -3,-63 -4,-63 -235,6 -236,6 -8,5 -8,5 -26,-7 -26,-6 -11,-22 -11,-21 v -126 l 1,-126 11,-21 11,-21 22,-7 21,-6 14,18 13,18 1,80 2,81 2,23 2,23 6,5 5,5 212,3 211,2 7,-11 7,-10 3,-20 3,-20 5,-92 5,-92 -28,-13 -28,-14 -212,1 -213,2 -9,-11 -9,-11 -31,-59 -31,-58 -1,-144 v -144 l -12,-7 -11,-7 -400,-1 -401,-2 -81,7 -81,6 -64,42 -64,42 -70,48 -70,47 -75,44 -75,43 -50,27 -50,27 -42,30 -43,29 -7,25 -7,25 v 62 62 l 15,17 14,17 195,-8 195,-7 112,1 113,1 136,-10 136,-9 23,12 22,12 36,32 36,31 19,39 19,38 12,36 11,35 34,33 34,33 18,-4 18,-3 38,41 37,40 9,25 10,24 -6,120 -5,120 -33,30 -32,30 -33,28 -34,27 h -15 -15 l -29,26 -28,27 6,37 6,38 -14,12 -15,11 6,15 6,15 -33,34 -33,34 -47,11 -47,11 -169,-6 -169,-7 -273,1 h -273 l -9,6 -10,6 v 88 87 l 13,16 12,16 64,27 63,26 37,23 36,22 68,32 67,31 v 9 10 l 32,11 31,11 31,23 31,23 60,35 60,34 30,5 30,5 460,-3 460,-2 z m -4636,-110 -4,-30 1,-60 v -60 l 18,-59 18,-58 43,-36 44,-36 51,-7 52,-7 40,18 40,18 43,42 42,43 v 16 16 l 32,27 33,27 -27,26 -28,26 v 8 9 l 32,6 32,6 8,-12 8,-13 -3,-250 -2,-250 -245,-3 -245,-3 -21,6 -21,5 1,107 1,108 -9,165 -9,166 12,37 13,38 26,-3 27,-3 z m 473,25 6,-10 -6,-20 -6,-20 h -35 -34 v 30 30 h 34 35 z m -11530,-53 13,-18 6,-62 6,-62 6,-199 5,-199 10,-19 10,-18 h 8 9 l 6,23 6,22 v 274 273 l 18,-7 17,-7 20,-6 20,-5 24,-19 24,-18 h 13 14 l 20,-20 19,-19 38,-19 38,-19 30,-16 30,-15 55,-25 55,-25 55,-24 55,-25 32,-12 32,-13 5,-13 5,-14 39,-20 40,-20 6,-16 6,-17 -6,-9 -5,-9 h -31 -31 l -46,28 -46,29 -45,6 -45,6 -38,-11 -38,-12 -39,-43 -38,-43 -33,-7 -34,-6 -7,-11 -7,-11 21,-22 21,-22 -13,-32 -14,-32 37,-29 37,-30 v -31 -32 l 11,-37 10,-38 23,-6 22,-5 10,2 9,1 10,-1 10,-1 13,-9 14,-8 -17,-34 -18,-33 6,-73 5,-73 21,-34 21,-33 v -26 -26 l -30,-16 -30,-15 -32,-36 -33,-35 -32,-31 -33,-32 v -60 -60 l 18,-20 19,-21 12,-58 12,-57 21,-11 20,-11 82,7 82,7 13,-15 12,-16 -20,-20 -21,-21 h -14 -13 l -139,-70 -138,-70 h -11 -11 l -62,-45 -62,-45 h -19 -20 l -5,18 -5,17 2,244 3,244 -17,20 -16,20 -16,-6 -17,-6 v -115 -114 l -6,-16 -6,-16 h -8 -8 l -5,78 -4,77 -20,67 -20,67 -42,70 -41,69 v 11 10 l -12,8 -13,8 -354,-3 -354,-3 -25,-10 -25,-10 17,-18 17,-18 -16,-13 -15,-12 v -48 -47 l -6,-33 -7,-32 -14,-5 -14,-6 -20,22 -20,21 h -8 -9 l -9,-12 -10,-13 3,-65 3,-65 6,-92 7,-93 h 9 10 l -6,-32 -6,-33 -3,-60 -3,-60 -27,-3 -28,-4 -22,19 -21,18 -31,22 -31,22 -37,15 -36,15 v 10 11 h -18 -18 l -69,46 -69,46 -57,29 -56,29 h -11 -11 l -38,47 -38,46 -3,121 -4,121 v 35 35 l -1,355 -1,355 v 42 l -1,42 24,25 24,26 h 13 13 l 27,25 27,25 h 16 16 l 12,19 12,19 50,17 51,17 v 9 9 l 26,10 26,10 69,45 69,45 48,25 47,25 18,13 18,12 9,-14 8,-15 7,-57 7,-56 -2,-79 -1,-79 3,-85 4,-85 7,-12 8,-13 h 16 16 l 19,-17 18,-16 v -89 -88 l 25,-10 26,-10 42,1 42,1 290,2 290,3 12,1 12,2 35,31 36,31 9,31 9,32 22,75 21,75 9,9 9,9 -5,66 -5,66 -21,68 -21,69 -21,31 -22,32 -13,32 -13,32 -18,6 -18,6 -5,13 -6,14 -299,1 -300,1 -14,5 -14,6 -47,-20 -47,-20 v -100 -99 l -15,-6 -16,-6 -7,18 -7,17 1,104 v 104 l 16,11 16,12 447,-1 h 447 z m 4656,0 -11,-11 -6,7 -6,6 7,10 6,11 11,-6 10,-6 z m -1256,-47 6,-10 -11,-20 -11,-20 h -34 -34 l -6,10 -6,10 6,20 6,20 h 39 39 z m -860,-10 6,-10 h 29 28 l 44,-19 43,-18 33,-41 32,-41 10,-26 10,-26 v -59 -59 l -21,-12 -21,-11 -9,9 -9,9 -4,69 -3,69 -19,6 -19,7 -37,-30 -37,-29 -27,6 -27,7 -28,30 -27,29 h -14 -14 l -37,-19 -37,-19 -30,11 -30,11 v 23 22 l 28,29 27,30 35,18 35,18 30,12 30,12 12,1 12,1 z m -3156,-24 12,-14 2,-60 1,-60 -13,-16 -14,-17 -106,3 -106,3 -7,45 -6,45 11,35 12,35 10,7 10,8 h 91 92 z m 446,-20 23,-29 23,-49 23,-50 -19,-14 -19,-14 h -23 -22 l -12,-21 -11,-21 7,-89 7,-88 18,-16 19,-17 19,7 20,6 7,-21 7,-21 -16,-24 -16,-24 v -20 -20 l -32,-17 -33,-17 -72,-5 -72,-5 -25,7 -26,6 v 65 64 l 30,16 29,15 h 35 34 l 16,6 16,6 v 13 13 l -22,6 -23,6 h -44 -44 l -19,17 -18,16 v 37 37 l 19,17 20,18 20,-7 20,-6 21,21 21,21 -4,12 -4,12 -47,7 -48,7 -6,6 -6,6 -4,64 -4,65 13,16 13,16 95,-4 94,-4 z m 4805,-10 v -14 l -6,-16 -6,-16 h -18 -19 l -6,10 -6,10 6,20 6,20 h 25 24 z m 11320,-121 75,-1 101,-2 101,-2 12,-24 13,-24 1,-111 1,-111 -7,-6 -6,-7 -221,-2 -221,-2 -8,16 -8,16 -5,95 -5,95 6,30 6,29 25,13 25,13 20,-7 20,-7 z m -11815,-5 -6,-10 h -11 -11 l -12,-17 -12,-16 -17,6 -16,6 v 9 9 l 23,11 22,11 h 23 l 23,1 z m 9885,-19 10,-20 v -55 -55 l -19,-11 -20,-10 h -43 -44 l -42,31 -42,31 v 8 8 l 38,23 37,23 50,22 50,22 7,1 7,1 z m -9675,-105 15,-41 5,-135 5,-135 v -12 -13 -12 l 1,-13 9,-215 9,-215 -3,-181 -4,-181 -19,-44 -20,-44 -21,-18 -21,-19 -18,4 -18,3 -3,50 -3,50 v 84 85 l -9,12 -10,11 15,13 15,12 v 23 22 l -39,11 -38,12 h -13 -13 l -44,-36 -45,-37 -51,6 -52,6 -20,-15 -20,-15 17,-13 18,-13 66,-6 66,-6 14,-12 14,-12 -5,-18 -6,-18 12,-19 13,-20 -17,-26 -17,-25 -35,-7 -35,-6 -24,6 -23,6 -6,42 -6,42 -18,14 -18,14 -263,-6 -262,-7 -10,26 -10,26 v 84 84 l -22,12 -23,13 -137,4 -138,5 v 6 7 l 28,12 27,12 22,13 23,14 30,42 30,41 7,60 6,59 -27,56 -28,55 -54,35 -54,35 h -43 l -42,-1 -49,-17 -49,-18 -4,-29 -4,-30 -5,-137 -5,-138 28,-26 28,-26 20,-9 20,-8 h -26 l -27,-1 -50,45 -51,46 -16,54 -15,54 6,58 7,58 23,37 23,36 20,7 19,6 5,13 6,14 33,16 33,17 h 140 140 72 72 l 6,18 5,18 -10,74 -11,73 12,28 11,27 14,5 13,5 258,2 258,1 17,9 17,9 3,48 3,47 50,-3 49,-2 11,-11 10,-10 v -58 -58 l -14,-16 -13,-17 h -50 -49 l -6,-16 -6,-17 18,-13 19,-14 h 28 29 l 39,-20 39,-20 h 39 39 l 17,19 17,19 -6,81 -5,82 10,18 10,19 -11,32 -11,32 11,25 12,26 29,-28 30,-28 z m 259,68 16,-6 v -18 -18 l -16,-13 -16,-13 -14,18 -13,19 10,18 10,19 h 4 3 z m -5217,-40 12,-16 -6,-32 -6,-31 -13,-14 -13,-14 -103,9 -103,9 v 50 50 l 55,6 55,6 55,-3 54,-3 z m 4818,-90 v -109 h -15 -15 l 3,49 3,49 -11,49 -12,48 12,16 13,15 11,-4 11,-4 z m -4307,94 10,-13 7,-33 7,-33 -12,-14 -12,-15 h -13 -13 l -11,46 -12,46 12,14 11,14 h 8 8 z m 2736,-10 11,-17 -11,-11 -11,-11 -128,-1 -127,-1 -9,14 -8,14 13,14 14,14 33,-12 32,-11 h 41 l 41,1 20,15 20,15 29,-3 29,-3 z m -3546,3 13,-8 -7,-39 -7,-39 -9,-12 -10,-13 -9,6 -9,5 v 48 48 l 7,6 6,7 h 6 6 z m 2028,-53 20,-23 19,-29 18,-30 -2,-70 -2,-70 -38,-45 -38,-46 -5,-14 -4,-14 -39,-1 -40,-2 -24,8 -23,8 27,26 27,25 -6,25 -6,24 16,31 16,32 -11,25 -12,24 10,12 10,12 2,65 2,64 4,7 4,8 27,-14 27,-14 z m -240,11 7,-12 3,-136 4,-136 6,-27 6,-28 h -15 -14 l -35,33 -35,32 -22,38 -23,38 5,42 5,42 14,37 14,38 24,25 23,25 h 13 13 z m 3808,-5 6,-15 -10,-20 -11,-19 h -24 -23 l -5,13 -4,12 10,23 10,22 h 23 22 z m -3714,-29 13,-15 -6,-50 -6,-49 9,-32 10,-33 -15,-23 -15,-23 h -10 -9 l -16,16 -17,17 3,86 3,87 -7,10 -6,11 6,7 6,6 h 22 23 z m 1924,-43 399,-2 17,-15 18,-16 5,-52 5,-52 -14,-22 -14,-22 -107,3 -108,3 -85,-10 -85,-9 -30,-18 -30,-19 -35,-36 -35,-37 -19,-10 -19,-10 -46,50 -46,49 -40,21 -40,20 -53,15 -52,16 -68,-13 -67,-14 -35,-17 -35,-18 -33,-24 -33,-25 -9,-24 -10,-24 h -15 -15 l -6,-27 -5,-28 -15,-35 -15,-35 2,-40 2,-40 12,-55 12,-55 16,-37 16,-38 44,-43 45,-43 52,-27 52,-27 h 93 94 l 5,9 6,8 30,7 31,6 54,55 54,56 6,20 6,19 h 20 19 l 10,-24 9,-23 25,-7 25,-6 3,-16 3,-17 45,-14 45,-15 177,-13 177,-12 16,-13 15,-12 v -47 -47 l -13,-18 -13,-17 -404,-6 -405,-6 h -75 l -75,-1 -215,8 -215,7 -9,9 -9,9 -4,465 -5,465 24,6 24,6 26,-10 26,-10 128,10 129,9 100,8 100,8 20,-6 20,-7 z m -1110,-15 17,-13 9,-39 9,-40 2,-153 1,-153 -13,-15 -13,-16 -36,6 -37,6 -7,-7 -7,-7 -50,1 -51,2 -14,12 -14,11 v 193 192 l 23,11 22,12 65,3 65,3 6,2 5,2 z m 3478,-17 18,-22 v -14 -14 l 25,-16 25,-17 208,7 207,6 103,2 104,3 5,-7 4,-8 h -12 -12 l -21,-19 -21,-20 -51,-48 -51,-48 -23,-60 -23,-60 -12,-63 -12,-63 16,-57 16,-57 33,-62 32,-63 27,-17 27,-18 23,-22 22,-23 h 16 16 l 26,-17 27,-18 h 113 112 l 13,13 12,12 h 29 28 l -3,-27 -3,-28 -55,-7 -55,-8 -390,1 -390,1 -30,10 -30,10 -28,-11 -28,-11 -15,-35 -14,-35 -8,-1 h -7 l -182,-4 -181,-4 -10,12 -9,12 -8,55 -7,55 -2,390 -1,391 16,24 16,25 179,-2 179,-2 z m 9088,3 325,-5 145,-2 145,-1 39,-20 40,-20 7,-15 8,-15 15,-35 14,-35 9,-26 8,-27 52,-41 52,-41 h 9 9 l 30,-47 30,-48 6,-62 5,-63 -20,-25 -19,-25 h -14 -14 l -34,-30 -35,-30 h -10 -10 l -24,-29 -24,-28 -19,-59 -18,-59 -10,-14 -11,-13 -26,-10 -25,-11 -95,-3 -95,-4 -390,-6 -390,-6 -53,-1 -52,-1 -18,17 -17,18 -2,404 -2,405 22,15 22,16 55,-6 55,-6 z m -9704,-30 -6,-15 -6,-26 -7,-27 -10,-12 -9,-13 h -25 -24 l -6,16 -6,16 9,36 9,36 25,6 25,6 18,-4 18,-5 z m -5274,0 18,-16 v -52 -52 l -19,-17 -19,-17 -83,2 -82,3 -17,16 -18,15 -5,45 -6,45 8,14 9,14 38,7 39,8 59,1 59,1 z m 14323,5 41,-2 12,8 12,7 25,-18 24,-18 1,-25 v -25 l -31,-32 -30,-33 h -14 -13 l -30,-25 -30,-25 h -9 -8 l -50,-45 -50,-44 13,-13 12,-12 23,21 22,22 21,19 21,19 26,7 25,6 19,7 18,7 -11,-15 -12,-14 -6,-30 -7,-30 -29,-17 -29,-16 -25,-39 -26,-39 6,-31 6,-32 20,-20 19,-21 h 14 14 l 11,20 11,20 h 44 45 l 14,-22 15,-23 3,-39 3,-38 -17,-11 -16,-11 -37,30 -37,29 -19,14 -20,14 -7,-7 -7,-8 26,-22 26,-22 18,-32 19,-32 h 8 8 v -20 -20 h -13 -13 l -47,30 -48,30 h -12 -12 l -55,50 -55,50 h -47 -47 l -6,-9 -5,-10 -62,-30 -61,-31 h -4 -3 v 19 20 l 10,6 9,6 17,36 17,35 31,13 31,13 59,7 59,7 13,5 12,5 7,15 6,16 -25,26 -24,26 -4,20 -3,20 -34,3 -35,4 -24,19 -25,19 h -12 -12 l -23,25 -23,25 h -8 -8 l -25,25 -25,25 h -25 -25 l -11,-21 -12,-21 13,-31 13,-32 19,-26 19,-26 -4,-24 -3,-24 -51,-3 -52,-3 -16,16 -16,16 v 43 43 l -35,10 -35,11 -47,-12 -48,-12 -3,-36 -3,-36 -16,-13 -15,-13 -14,19 -14,19 v 20 21 l 14,39 14,40 43,13 44,13 40,23 40,23 -3,52 -3,51 19,10 19,10 224,-3 224,-2 25,7 25,7 35,-4 35,-3 z m -7390,-47 5,-10 -10,-6 -10,-6 -10,6 -10,6 5,10 6,9 h 9 9 z m -140,-48 30,-5 50,-25 50,-25 36,-38 37,-39 27,-58 27,-58 v -57 l -1,-57 -11,-43 -12,-43 -21,-35 -20,-35 -35,-33 -35,-32 -47,-24 -47,-24 -50,-7 -50,-7 -50,15 -50,15 -29,15 -29,15 -44,49 -44,50 -18,49 -19,49 -1,70 v 70 l 19,52 19,52 58,55 59,55 30,15 31,14 40,10 40,9 15,-4 15,-4 z m -1475,-21 v -28 l -12,-12 -12,-12 h -23 -24 l -5,15 -6,15 6,25 6,25 h 35 35 z m 13850,-17 v -25 h -7 -8 l -14,9 -14,9 6,16 6,16 h 16 15 z m -120,-19 12,-15 -4,-23 -3,-23 -27,-3 -27,-3 -17,25 -16,26 12,15 12,15 h 23 23 z m -696,-2 16,-6 v -13 -12 l -20,-18 -19,-17 -16,6 -15,6 -6,15 -6,15 6,15 5,15 h 20 19 z m -15204,-28 46,-14 30,-18 31,-19 34,-30 35,-30 17,-46 17,-45 v -72 -73 l -34,-53 -34,-54 -35,-26 -34,-26 h -14 l -14,-1 -19,-14 -20,-15 h -58 -57 l -56,26 -55,26 -36,40 -36,40 -13,32 -13,31 -6,47 -7,46 11,7 10,6 v 38 39 l 15,12 15,12 v 17 17 l 46,38 46,39 56,17 57,18 15,1 15,1 z m -10725,-32 17,-26 -5,-122 -5,-121 -12,-60 -11,-59 -2,-2 -2,-2 -31,-6 -31,-7 -24,20 -24,19 3,173 3,174 5,17 5,17 27,4 27,4 21,2 22,1 z m 8939,-7 18,-13 -17,-17 -16,-17 h -19 -19 l -6,21 -7,21 13,9 14,9 h 11 10 z m 20064,-34 -3,-36 -12,-4 -12,-4 -7,25 -6,26 6,15 5,15 h 16 16 z m -29468,18 v -9 l -13,-5 -12,-5 -17,-48 -17,-49 v -73 -72 l 11,-28 11,-27 7,-37 7,-38 h -11 -12 l -10,10 -10,10 -55,21 -54,21 -30,7 -30,7 -17,34 -16,35 3,50 2,50 8,17 7,18 81,39 82,39 30,20 30,21 h 13 l 12,1 z m 13298,-18 3,-20 -31,-27 -32,-26 h -9 -9 l -6,24 -6,24 11,20 11,21 22,4 23,4 10,-2 10,-2 z m 9185,-6 9,-28 -6,-24 -6,-24 -37,-7 -36,-7 -14,18 -13,19 v 6 6 l 32,37 33,38 14,-3 14,-3 z m 8594,3 13,-25 v -92 -92 l -19,-10 -18,-10 -419,-3 -419,-2 -13,8 -12,7 v 83 83 l 19,17 18,17 229,3 229,2 55,20 55,20 h 135 l 134,-1 z m -2522,-2 7,-7 5,-103 5,-103 -20,-19 -21,-18 -78,-3 -78,-2 -37,9 -37,9 -16,22 -15,21 v 78 77 l 15,15 16,15 32,6 32,5 50,2 50,3 h 42 42 z m -6570,-28 18,-20 h 12 12 l 16,-18 17,-19 -7,-6 -6,-7 h -33 -33 l -21,30 -22,31 6,14 5,15 h 9 9 z m 4818,6 6,-15 -6,-36 -6,-37 27,-24 26,-25 v -14 -14 l -10,-6 -10,-6 6,-38 6,-38 -25,-29 -26,-29 -29,16 -30,17 -46,-5 -46,-6 -6,-22 -5,-22 3,-18 3,-18 -29,-8 -29,-8 -18,9 -17,10 -36,41 -35,42 10,19 10,19 27,10 27,11 35,-5 35,-4 14,-4 14,-4 4,12 5,13 -24,9 -23,9 -19,21 -19,21 18,6 18,7 18,-11 19,-12 h 20 20 l 20,-20 21,-21 8,5 8,6 -4,24 -5,25 11,34 12,34 -12,27 -12,26 18,20 18,20 h 17 18 z m 1411,-7 9,-8 8,-53 9,-53 -6,-35 -6,-36 -21,-14 -22,-14 -230,-4 -230,-4 -52,-2 -52,-1 -22,22 -22,22 v 76 76 l 22,23 22,23 292,-4 292,-5 z m -14831,-11 6,-21 -5,-9 -5,-8 h -25 -25 l -6,16 -6,17 18,13 19,14 h 12 12 z m -1588,-23 50,-36 7,-22 6,-22 1,-48 1,-48 -33,-33 -33,-33 -33,-11 -34,-12 h -23 -23 l -25,11 -25,12 -8,26 -9,26 4,98 4,99 31,14 32,13 30,1 h 30 z m -2210,5 18,-20 h 14 14 l 37,-25 37,-25 h 12 12 l 58,30 57,30 h 13 13 v -7 -6 l -26,-56 -27,-56 18,-50 17,-50 15,-17 15,-17 -4,-18 -4,-18 -19,3 -20,4 -20,19 -21,19 -32,6 -32,7 -6,8 -5,9 -10,-5 -9,-6 v -24 -24 l -12,-8 -13,-8 h -40 l -40,-1 -18,-8 -18,-8 -11,30 -12,31 -20,3 -20,3 -16,27 -15,28 22,21 22,22 15,-12 15,-12 3,-26 3,-26 12,-4 11,-4 7,31 7,30 35,15 35,15 h 23 23 l 16,6 16,6 v 14 14 h -7 -8 l -65,10 -65,11 -16,4 -15,5 -17,35 -17,36 v 14 15 h 23 24 z m 12115,5 12,-15 -12,-15 -12,-15 h -24 -24 v 20 19 l 18,10 17,10 6,1 h 7 z m -12327,-17 14,-23 2,-86 2,-86 -18,-22 -19,-23 -44,7 -45,7 -15,11 -16,12 -13,43 -12,43 7,57 7,57 16,12 16,12 52,1 h 53 z m 20541,0 16,-22 v -20 -20 l -27,-28 -26,-27 13,-16 12,-15 h -11 -12 l -27,17 -27,17 -3,2 -3,2 17,58 16,59 5,8 4,7 h 19 19 z m -16603,-68 19,-11 v -19 -20 l -37,-35 -38,-34 -17,-1 h -16 l -7,30 -6,30 6,19 6,19 32,16 32,16 h 3 3 z m 13975,-17 22,-28 24,22 23,22 18,-10 17,-10 v -21 -21 l -38,5 -38,6 -10,-21 -9,-20 -18,-11 -18,-11 -25,30 -24,30 v 17 17 l 16,15 15,16 h 12 11 z m 2194,2 23,-24 -13,-16 -12,-15 h -19 -19 v -14 -15 l -12,-7 -11,-7 -22,25 -22,26 -84,3 -84,4 v -20 -20 h 59 58 l 11,-16 11,-17 -18,-27 -18,-27 -40,6 -41,7 -29,24 -30,25 h -9 -10 l -15,-15 -15,-15 h -14 -14 l -10,19 -10,19 -26,6 -25,6 v 20 20 h 20 19 l 11,-21 11,-20 27,3 27,3 3,20 3,20 24,18 24,17 93,4 93,5 25,10 25,10 h 16 l 16,1 z m -7601,-7 50,-1 5,-12 4,-13 -55,-110 -56,-110 6,-16 6,-16 h 28 l 28,1 19,14 20,15 h 18 19 l 25,25 25,25 h 15 14 l 57,20 56,20 23,-6 23,-6 6,-19 6,-19 h 25 25 l 5,-15 6,-14 51,-27 52,-26 34,-18 34,-19 10,-10 11,-11 -17,-18 -16,-18 -342,1 -341,1 -14,19 -14,19 v 36 37 l -17,15 -18,15 -37,12 -36,12 -12,15 -12,14 h -19 -18 l -11,20 -11,21 -1,60 -1,60 11,11 12,12 9,-10 9,-9 9,-45 9,-45 27,-9 26,-10 38,10 38,9 15,30 16,30 17,33 18,33 19,-6 19,-6 z m 7124,-12 6,-14 -6,-6 -6,-6 h -24 -23 v 13 14 l 7,6 6,7 h 18 17 z m -18973,-7 45,-1 -65,-10 -65,-9 -25,7 -25,7 25,8 25,7 20,-4 20,-4 z m 11660,-4 v -15 h -19 -20 l -5,9 -5,8 6,7 6,6 h 19 18 z m 5206,-29 6,-14 -12,-22 -11,-21 -13,10 -13,11 5,25 4,25 h 14 15 z m -13522,-11 15,-16 -5,-14 -6,-15 h -12 -12 l -19,14 -19,14 13,16 13,16 h 9 8 z m 16384,-12 3,-23 h -22 -22 l -13,18 -13,17 -1,8 v 8 l 33,-3 32,-3 z m -2770,-56 -3,-32 h -20 -20 l -3,28 -3,29 17,19 18,20 9,-16 8,-15 z m -13688,-55 v -18 l -17,-16 -18,-17 -13,-15 -13,-16 h -8 -8 l -6,37 -6,37 11,13 10,13 h 34 34 z m 15273,1 15,-18 8,-30 7,-30 12,-20 13,-20 18,-50 18,-50 15,-24 15,-23 43,-19 43,-18 v -62 -61 l 34,-34 34,-34 h 35 35 l 31,35 31,35 5,28 6,27 7,25 7,25 25,11 25,12 140,-8 140,-8 85,-26 85,-26 h 36 36 l 49,15 49,15 h 37 37 l 108,60 108,60 h 12 13 l 40,29 40,29 33,6 33,6 28,29 27,28 17,33 17,33 190,3 190,3 48,15 48,14 72,-10 71,-11 56,11 56,12 h 62 62 v -49 -48 l -6,-46 -7,-47 -178,-182 -177,-183 -17,-15 -16,-15 -27,-28 -27,-27 -127,-133 -127,-132 -1,-11 v -10 l -29,-28 -29,-28 -89,-8 -88,-9 -155,-15 -155,-16 -95,-10 -95,-10 -85,-9 -85,-9 -115,-12 -115,-11 -107,-15 -107,-14 h -54 -55 l -143,-15 -144,-15 -108,-15 -108,-15 h -60 -60 l -21,11 -20,11 -11,-11 -12,-12 14,-8 14,-9 -31,-7 -32,-6 -54,6 -54,7 -93,-12 -94,-11 -40,-10 -40,-9 -120,-4 -120,-5 -90,-10 -90,-11 -100,-10 -100,-9 -120,-10 -120,-10 -60,-5 -60,-5 -95,-10 -95,-10 -160,-11 -160,-11 -90,-10 -90,-10 -185,-9 -185,-9 -120,-11 -120,-10 -135,-12 -135,-11 -135,-7 -135,-8 -60,-6 -60,-7 -15,11 -15,10 18,14 17,13 v 32 32 l -22,8 -23,9 -27,-14 -27,-14 -11,-21 -11,-20 16,-25 16,-25 -6,-9 -6,-10 h -102 l -102,1 34,18 34,18 -11,7 -11,6 6,35 6,34 -27,12 -26,12 -25,-11 -25,-12 -11,-27 -10,-27 5,-22 6,-23 20,-6 20,-6 -5,-9 -5,-8 h -105 l -105,-1 -10,-6 -9,-6 -133,-9 -133,-10 -90,-5 -90,-5 -103,-9 -104,-8 -24,5 -24,4 v 23 22 l 31,61 30,62 10,5 9,6 v 19 19 l 20,11 20,11 v 23 23 l 18,16 17,15 65,5 65,5 45,12 45,12 17,9 16,8 164,6 163,6 45,4 45,5 145,10 145,10 35,10 35,10 h 140 140 l 70,15 70,15 h 105 l 105,1 85,10 85,9 220,14 220,14 100,15 100,15 35,-3 35,-3 15,-1 15,-1 48,-44 47,-44 v -16 -16 l 25,-10 25,-10 v -14 -14 l 15,-6 15,-5 10,-25 9,-25 35,-16 36,-17 15,6 15,5 v 18 18 l -25,38 -26,37 h -11 -10 l -34,37 -34,37 v 7 8 l -30,18 -30,17 v 12 12 l 13,10 12,10 180,12 180,11 125,10 125,10 105,9 106,9 84,36 85,36 40,18 40,19 37,12 38,11 5,10 6,9 h 16 15 l 81,40 80,40 82,25 83,26 24,19 25,19 29,7 29,7 30,15 30,15 5,8 5,8 55,18 54,18 19,32 18,32 -10,158 -10,158 8,43 8,43 8,7 7,7 36,11 37,12 86,1 86,1 z m -19193,-12 v -10 l -10,-6 -10,-6 -10,6 -10,6 5,10 6,9 h 15 14 z m 3999,-5 12,-15 -3,-27 -3,-28 -34,-9 -34,-8 -9,9 -10,10 18,41 18,41 h 17 17 z m 16353,-28 -12,-12 v 24 24 l 12,-12 12,-12 z m -19975,-40 32,-19 29,-37 28,-37 12,-41 12,-41 v -26 -26 l -9,-5 -8,-6 -7,-32 -6,-32 -33,-31 -32,-30 -35,-14 -35,-14 -50,-4 -50,-4 -13,9 -13,9 9,34 9,34 40,-3 40,-2 13,15 12,15 -4,124 -4,124 -13,16 -13,16 h -29 -29 v 8 9 l 6,6 7,7 51,-1 51,-1 z m -1703,-24 16,-15 v -58 -59 l -12,-10 -13,-10 -90,-2 -90,-3 -16,2 -17,1 v 34 35 l -7,40 -7,40 7,11 6,10 h 104 104 z m 444,-9 30,-25 21,-40 21,-41 v -23 -24 l -14,-11 -14,-12 -13,3 -13,3 -14,-29 -15,-29 9,-86 9,-86 33,-11 32,-10 10,-10 11,-11 -33,-63 -33,-62 -23,-9 -23,-9 -84,-6 -84,-7 -11,27 -10,27 v 57 57 l 9,14 9,14 54,1 54,2 12,8 12,7 v 7 7 l -10,15 -9,15 -63,5 -62,5 -10,33 -9,32 11,25 12,25 h 54 55 l 16,16 16,16 -11,13 -11,13 -60,7 -59,7 -9,17 -8,16 -2,49 -1,49 6,19 5,18 h 89 88 z m 20812,10 12,-14 -7,-11 -6,-10 h -19 -18 l -6,16 -6,16 6,9 5,9 h 13 14 z m -19760,-41 10,-25 v -64 -64 l -10,-25 -9,-25 -20,-10 -20,-11 -25,10 -26,10 v 62 63 l 11,37 10,38 27,15 27,14 8,1 h 7 z m 17518,-2 3,-22 h -15 -16 v 26 26 l 13,-4 12,-5 z m -17419,-17 14,-28 -9,-66 -9,-66 -17,-3 -18,-3 -21,43 -21,43 22,58 22,58 11,-4 12,-3 z m 3658,-11 6,-15 -24,-25 -24,-26 -19,-10 -19,-10 -9,13 -9,14 6,30 5,29 13,8 12,8 h 28 28 z m -2824,-5 17,-10 v -37 -38 l -15,-22 -16,-22 -80,3 -79,3 -15,20 -14,19 -1,32 v 33 l 33,14 32,14 h 60 60 z m 2904,-45 6,-15 -11,-25 -12,-24 h -30 -31 l -6,17 -6,16 29,24 29,23 h 13 13 z m 9039,-35 6,-11 -10,-10 -10,-10 -21,12 -22,11 6,10 6,9 h 19 19 z m -9551,-9 6,-10 1,-62 v -63 l 16,-18 16,-17 -11,-11 -11,-11 -18,4 -19,3 -6,90 -6,90 4,8 4,7 h 9 9 z m 9820,-40 15,-29 v -34 -34 l -20,-18 -21,-19 -55,30 -55,29 -10,17 -9,17 11,28 10,28 12,7 12,8 h 47 47 z m -14933,-37 18,-16 v -23 -24 l -16,-39 -15,-39 15,-30 16,-31 -1,-91 -2,-91 19,-14 19,-14 40,-2 40,-3 20,1 20,1 70,1 70,1 h 20 l 20,1 140,-2 140,-1 53,-3 52,-4 10,-6 10,-6 26,28 26,28 30,45 31,45 9,35 9,35 9,33 8,34 6,6 6,6 13,-13 12,-12 4,-90 3,-91 -7,-55 -7,-54 -25,-10 -25,-9 -332,-6 -331,-6 -75,11 -75,11 h -40 -40 l -13,9 -14,8 -1,134 -1,134 2,20 3,20 -7,62 -7,62 6,15 6,16 h 7 7 z m 296,2 10,-10 6,-30 7,-30 -13,-18 -13,-18 h -93 l -93,-1 -14,12 -14,11 -7,32 -6,31 23,19 23,19 88,-4 87,-3 z m 552,-44 v -49 l -16,-6 -16,-6 h -8 -9 l -12,21 -11,21 7,34 6,34 h 29 30 z m 4702,32 18,-16 v -16 -16 l -39,-43 -39,-42 h -15 -16 l -6,21 -7,21 7,34 6,35 32,19 32,20 h 4 4 z m -760,-24 20,-11 -2,-141 -2,-142 1,-250 2,-251 -15,-54 -14,-55 -10,-26 -10,-25 -31,-46 -30,-45 -16,-13 -15,-12 v -13 -12 l -41,-34 -41,-34 -17,-18 -18,-17 -59,-21 -59,-21 -174,4 -174,5 -12,16 -12,17 -37,15 -36,15 v 10 9 l -30,17 -29,18 -10,28 -10,28 h -20 -21 v 17 16 l -14,16 -14,16 -17,45 -16,45 -14,52 -14,52 -5,387 -5,388 10,12 10,12 376,1 377,2 5,4 4,5 h 109 109 z m -1128,-30 26,-31 v -62 -62 l -43,-69 -43,-70 -39,-19 -40,-19 -66,-10 -67,-10 -34,21 -35,22 h -15 -14 l -43,44 -43,44 4,18 4,19 10,-2 9,-1 20,-4 20,-3 3,23 3,22 h 19 19 l 6,-10 6,-10 h 35 34 l 37,20 38,20 h 25 25 l 29,-15 28,-15 h 20 19 l -3,58 -3,57 -35,-1 -35,-1 -33,-14 -33,-14 -17,13 -17,12 -32,17 -32,16 -41,-16 -41,-16 -14,5 -13,5 -5,19 -5,18 7,10 6,11 55,3 55,3 127,2 127,2 z m 1962,-44 6,-15 -6,-25 -6,-25 h -36 -35 l -6,17 -6,16 27,24 27,23 h 15 15 z m -589,-54 44,-40 -3,-8 -3,-8 -20,3 -20,3 -37,16 -38,16 v 13 12 l 6,16 6,16 h 10 10 z m -4746,-30 29,-29 v -53 -52 l -17,-19 -16,-18 h -61 -61 l -35,6 -35,6 -13,26 -12,26 v 52 53 l 12,7 12,8 27,-2 27,-2 23,9 24,10 h 33 l 34,1 z m 5269,-75 v -34 l -34,-26 -35,-26 h -15 -16 v 44 45 l 16,15 15,16 h 35 34 z m 9490,-11 12,-15 h 15 15 l 31,-22 32,-21 25,-23 25,-23 70,-37 70,-36 40,-27 40,-27 46,-17 46,-18 24,-25 24,-26 -20,-12 -19,-11 -20,-21 -19,-21 -28,16 -27,15 -16,-13 -16,-13 v -18 -18 l -51,-43 -52,-43 -18,-41 -19,-40 v -29 -29 l 12,-41 12,-40 39,-38 39,-38 h 11 11 l 23,-21 22,-22 58,11 58,11 45,13 45,13 13,8 12,8 -1,147 -1,147 -7,25 -7,24 -32,10 -33,9 6,14 5,15 v 24 24 l 130,-2 131,-3 9,-15 10,-15 12,-40 12,-40 18,-27 19,-27 1,-33 1,-33 -54,-105 -54,-105 -56,-57 -57,-57 -48,-11 -49,-11 -196,-2 -197,-2 -20,18 -19,18 -7,46 -6,47 -16,55 -16,56 -10,20 -9,20 2,35 2,35 -21,108 -22,108 -10,19 -10,18 -6,58 -7,59 -6,5 -7,5 -13,70 -13,70 -5,33 -5,32 h 20 20 z m -3082,-31 22,-15 v -18 -17 l 36,-43 37,-42 -11,-11 -10,-10 -65,6 -65,7 -4,67 -5,67 5,13 4,12 h 17 17 z m -6344,-16 6,-23 v -26 -27 l -13,-10 -13,-11 -42,-7 -42,-6 -10,26 -10,27 v 5 4 h 11 12 l 38,35 39,35 h 9 9 z m 8746,-11 35,-12 47,-48 47,-48 6,-30 7,-31 -11,-11 -11,-11 -27,10 -27,9 -6,25 -6,25 -22,3 -22,3 -12,-25 -11,-26 h -25 -24 l -29,17 -29,17 -33,-12 -33,-12 h -22 -21 l -6,11 -7,10 -24,9 -24,9 7,18 6,18 31,33 31,34 25,11 25,10 45,7 45,7 20,-4 20,-5 z m -1569,-57 19,-11 v -20 -20 l -16,-6 -15,-6 -25,11 -24,12 v 13 13 l 12,12 12,12 h 9 8 z m -151,-32 11,-13 19,-31 18,-31 84,-5 83,-6 18,16 17,15 v 18 19 l 25,6 25,6 25,-6 26,-7 45,-46 44,-47 11,-39 10,-38 -3,-42 -3,-42 -64,-7 -64,-7 -19,10 -19,10 6,19 6,19 -11,21 -11,20 h -19 -19 l -11,-19 -10,-20 v -22 -22 l -17,-13 -18,-13 -22,-1 h -22 l -26,12 -25,11 v 17 18 l -18,23 -19,22 -17,-6 -16,-7 -7,-30 -6,-31 -18,-9 -18,-10 h -38 -39 l -17,13 -16,12 -1,60 -2,60 1,32 1,32 33,35 34,35 24,10 24,10 h 7 l 7,1 z m 1445,-204 14,-6 23,16 22,16 h 34 33 l 19,-10 20,-10 36,15 37,15 13,-11 14,-12 13,-26 12,-26 18,-3 17,-3 v 25 25 l 16,15 15,16 h 18 19 l 11,-14 11,-13 -6,-30 -6,-30 -34,-29 -34,-29 -25,-21 -26,-22 -77,-7 -77,-7 -25,10 -25,10 -44,40 -43,40 -13,48 -14,49 -12,31 -12,30 19,29 19,29 3,-72 3,-73 z m -8555,121 v -15 l -26,-6 -25,-7 -11,11 -10,10 6,11 7,11 h 30 29 z m 2825,-56 360,1 33,6 32,6 34,-6 33,-6 16,-38 17,-37 30,-40 29,-40 1,-20 v -20 l 21,-55 21,-55 25,-55 25,-56 -4,-34 -3,-35 -32,-3 -32,-3 -11,-15 -12,-14 h -18 -18 l -68,-31 -68,-30 -78,-25 -78,-25 -5,-10 -6,-9 h -17 -16 l -76,-34 -75,-34 -68,-21 -67,-21 h -37 -37 l -46,17 -45,16 -18,16 -18,15 -32,12 -32,12 -80,31 -80,31 -20,10 -20,9 -35,16 -35,15 -30,20 -30,20 -10,5 -10,5 -39,8 -39,8 -10,16 -11,16 11,39 11,38 32,105 32,105 8,20 8,20 13,35 12,35 15,17 14,17 36,12 35,12 51,7 51,8 50,-5 50,-4 z m 8850,-13 70,-1 3,-30 3,-30 -43,-13 -43,-13 -90,3 -90,3 -3,30 -3,30 38,17 38,17 25,-6 25,-6 z m 178,8 6,-7 -10,-19 -11,-20 -10,10 -11,11 6,15 6,16 h 9 9 z m -11783,-39 12,-15 -6,-15 -5,-15 h -41 -41 l -5,15 -6,15 12,15 12,15 h 28 28 z m 10595,-15 6,-10 h -63 -63 l 15,10 15,10 h 42 42 z m -137,-7 -18,-4 -17,4 -18,5 h 35 35 z m -10421,-109 14,-19 -3,-65 -4,-65 -8,-13 -7,-12 h -104 -103 l -16,6 -16,6 v 79 78 l 23,16 22,16 94,-4 94,-4 z m 10467,-30 16,-6 -6,-9 -5,-9 h -30 -29 v 9 9 l 13,5 12,5 7,1 6,1 z m -3892,-39 18,-30 20,-62 20,-62 v -33 l 1,-33 15,-40 15,-40 6,-77 6,-78 -16,-6 -15,-6 -434,-3 -433,-3 -70,1 -70,2 -90,-2 -90,-1 -375,-6 -375,-6 -92,-11 -92,-10 -35,6 -35,7 -13,16 -13,15 3,230 2,231 10,10 9,9 h 33 33 485 l 485,1 h 105 105 l 215,-2 215,-2 30,8 30,9 184,-1 185,-2 z m -6877,5 6,-20 -6,-21 -7,-20 -11,4 -12,4 -3,36 -3,37 h 15 15 z m 8355,-70 275,4 295,-2 295,-1 165,1 165,1 67,1 h 68 l 12,-12 12,-12 19,-63 18,-62 14,-75 14,-74 -10,-12 -10,-13 -62,-5 -62,-6 -365,-5 -365,-6 -220,-10 -220,-11 -190,-2 -190,-3 -77,-8 -77,-8 -6,37 -7,36 12,43 12,42 7,70 8,70 16,37 17,36 27,10 28,10 20,-6 20,-7 z m -3715,-40 15,-12 v -14 -13 l -17,-9 -18,-8 -91,-3 -91,-2 -12,15 -13,16 6,15 6,15 20,8 21,8 80,-2 79,-2 z m -3170,-10 6,-10 -11,-20 -11,-20 -67,1 -67,1 -30,7 -30,6 -3,17 -3,16 18,5 18,5 87,1 87,1 z m 5819,-24 33,-14 5,-64 5,-63 -12,-60 -12,-60 -40,-5 -40,-6 -30,8 -30,8 -7,52 -6,53 v 41 42 l 6,32 7,32 21,8 21,9 h 23 l 23,1 z m 237,4 19,-11 v -114 -114 l -22,-15 -22,-16 h -47 -47 l -12,15 -12,14 -2,118 -1,118 35,6 35,6 28,2 28,1 z m 220,-6 17,-5 6,-22 6,-22 v -85 l -1,-85 -12,-16 -12,-16 -51,-7 -50,-7 -22,18 -22,18 -2,113 -1,114 14,9 14,9 50,-6 50,-5 z m -7525,-34 h 34 v -14 -14 l -16,-6 -16,-6 h -42 -42 l -20,15 -19,15 15,10 15,11 29,-6 29,-5 z m 2178,-211 29,-14 5,-12 4,-13 h -65 -65 l -12,15 -13,15 6,7 7,6 22,12 23,11 15,-6 15,-7 z m 1171,1 6,-10 -15,-6 -16,-6 -17,6 -17,7 14,9 15,10 h 12 12 z m 92,-82 34,-12 -3,-21 -3,-20 -180,-1 h -180 l -60,6 -60,5 25,14 25,15 165,11 165,12 19,2 20,1 z m -1222,-14 120,-16 25,-3 25,-2 15,-2 15,-2 -15,-8 -15,-8 -219,1 -219,1 -4,12 -4,12 28,15 28,15 h 50 50 z"
       id="path113281" />
    <path
       d="m 41662.73,-48753.956 -45,-5 -7,-27 -7,-28 v -87 -88 l 10,-19 10,-19 10,17 10,17 v 67 67 l 14,33 13,32 h 9 9 l 31,-16 32,-15 v -15 -15 l -16,-6 -16,-6 7,-43 6,-43 -10,-20 -11,-19 52,-61 51,-61 h 9 10 l 25,-20 26,-20 h 47 48 l 51,26 51,27 v 8 7 l 26,31 26,31 h 23 24 l 7,-12 7,-11 -2,-136 -2,-136 -7,-55 -7,-55 -45,-7 -45,-6 -121,-2 -121,-2 -34,15 -34,15 -44,1 -45,1 -23,22 -23,21 v 31 31 l -9,13 -8,14 -7,-17 -6,-17 v -38 -39 l -12,-7 -11,-7 -131,-8 -131,-7 -45,-11 -45,-10 -30,-15 -30,-15 -108,10 -109,9 -259,3 -258,2 -18,-18 -18,-18 -3,-299 -3,-300 28,-25 28,-24 150,-1 h 150 l 165,11 165,10 50,1 50,1 50,-18 50,-18 153,-2 152,-1 10,-10 10,-10 4,-91 3,-91 15,-21 15,-21 7,56 6,56 -10,40 -11,40 16,24 15,24 h 56 56 l 28,20 29,20 45,9 45,8 122,-11 121,-12 13,-17 12,-17 6,-135 6,-136 -5,-14 -6,-15 h -12 -12 l -18,13 -18,13 -2,42 -2,42 -10,9 -9,9 -162,5 -162,5 -15,-11 -16,-12 -12,-55 -12,-55 -2,-50 -2,-50 -6,-26 -7,-26 40,-32 41,-33 v -14 -14 l 32,-20 32,-19 53,-7 53,-6 23,6 24,6 61,60 62,61 27,-3 28,-3 7,-59 8,-60 -14,-22 -15,-21 -33,-5 -33,-6 -215,5 -215,4 -7,12 -8,12 v 79 80 l -11,60 -11,61 -10,24 -9,24 -6,-7 -7,-6 -2,-73 -2,-72 -7,-106 -6,-106 24,-29 25,-29 h 285 285 l 21,19 20,18 -4,92 -4,91 -1,115 -1,115 2,163 2,164 -17,16 -17,17 -83,3 -84,4 -21,-11 -21,-12 -7,17 -6,17 9,13 9,13 28,40 29,40 19,86 20,87 -12,37 -11,36 -21,40 -21,40 -20,37 -21,37 9,8 8,8 h 101 102 l 13,29 14,29 -2,136 -2,136 -3,70 -4,70 -5,138 -5,139 -6,6 -6,6 h -257 l -257,1 z m 517,-88 3,-22 h -20 -20 l -6,10 -7,11 6,15 6,15 17,-3 18,-3 z m -411,-684 23,-21 v -18 -18 l -11,-6 -10,-7 -17,15 -17,14 -17,6 -18,6 v 19 19 l 7,6 6,7 h 16 15 z m -694,-19 10,-16 -37,-73 -36,-72 -5,-67 -4,-66 30,-83 30,-82 -3,-18 -3,-17 -40,-5 -40,-5 -245,8 -245,8 -8,8 -8,8 -5,209 -5,209 6,27 6,27 27,-1 27,-1 249,7 250,6 5,5 5,6 14,-3 15,-3 z m 484,10 11,-11 22,12 22,12 14,-6 14,-5 v -15 -15 l -30,-16 -29,-15 h -19 -19 l -17,19 -16,18 6,17 6,16 h 12 12 z m -113,-5 16,-6 v -12 -11 l -9,-14 -9,-15 -16,13 -16,13 v 19 19 h 9 9 z m -79,-29 v -20 l -19,-3 -18,-4 -10,10 -11,11 7,16 6,16 22,-3 23,-3 z m 438,-77 10,-15 -6,-24 -6,-25 -37,-17 -36,-18 -14,12 -14,11 v 16 15 l 38,33 37,33 9,-3 10,-2 z m -407,-13 27,-25 h 8 9 v -14 -14 l -15,-12 -15,-13 -41,18 -40,18 -15,-21 -15,-22 -10,5 -9,6 v 10 9 l 20,17 20,17 v 17 16 l 7,6 6,7 h 18 18 z m 242,9 9,-17 -5,-19 -5,-19 -40,-19 -41,-20 -7,7 -7,8 5,34 6,33 31,14 31,13 7,1 h 7 z m -468,-29 12,-15 h 18 18 l 12,-15 12,-14 -7,-11 -6,-10 h -19 -19 l -6,20 -6,20 -20,10 -19,11 v 9 10 h 9 9 z m 778,-9 4,-18 -10,-10 -10,-10 -21,7 -21,6 v 13 12 l 12,12 13,13 15,-3 15,-3 z m -162,-121 27,-25 h 8 9 v -11 -11 l -21,-29 -20,-29 h -32 -32 l -24,19 -24,18 20,14 20,14 7,33 8,32 h 13 14 z m -189,-15 23,-28 6,-15 5,-14 -14,-6 -15,-6 -35,17 -36,17 -6,14 -5,14 16,18 17,19 11,-1 h 11 z m -432,9 7,-10 12,4 11,4 23,7 22,7 v -15 -16 h -8 -7 l -10,-22 -10,-21 -18,-11 -18,-11 -35,38 -35,38 6,9 6,10 h 24 24 z m 246,-24 34,-26 -1,-9 -1,-10 -1,-20 -2,-20 h -21 -21 l -19,23 -19,22 -20,-25 -20,-25 -10,15 -10,15 v 13 13 l 15,5 15,6 v 12 12 l 12,12 12,12 h 11 11 z m 549,-31 14,-14 -16,-16 -16,-17 -26,28 -26,28 v 10 9 l 28,-7 27,-6 z m -493,-85 11,-11 -44,-45 -43,-46 -36,17 -35,17 v 21 21 l 34,-6 35,-6 19,6 20,5 5,19 5,19 h 9 9 z m 153,-58 v -19 l -16,-6 -16,-6 h -18 -18 l -6,16 -6,16 v 9 10 l 23,8 22,9 18,-10 17,-9 z m 170,14 v -15 h -24 -25 l -5,9 -5,8 6,7 6,6 h 24 23 z m 410,-525 v -20 h -25 -25 v 13 14 l 7,6 6,7 h 19 18 z"
       id="path113283" />
    <path
       d="m 39724.73,-48792.956 -42,-19 -58,-60 -58,-59 -27,-84 -28,-85 v -26 -25 l -14,-39 -14,-39 -7,-63 -7,-62 -9,-6 -9,-5 v -24 -24 l -25,-19 -24,-19 -31,-13 -31,-13 -7,8 -7,7 3,207 3,207 -10,26 -10,27 -41,11 -40,11 -10,-6 -10,-6 -463,-4 -462,-4 -33,-1 h -33 l -14,-33 -13,-32 4,-640 4,-640 4,-109 5,-109 16,-16 16,-16 h 537 537 l 11,7 10,7 -4,221 -4,220 16,6 15,6 42,-24 42,-23 38,-150 38,-150 15,-51 14,-51 26,-49 26,-49 12,-15 13,-16 52,-31 51,-32 48,-21 48,-22 71,4 70,5 42,26 43,27 h 9 9 l 71,70 71,71 v 20 20 l 15,15 15,15 2,82 2,82 -2,80 -1,80 -7,320 -6,320 -8,225 -9,225 -5,53 -5,52 -27,53 -26,52 -53,45 -53,45 -54,22 -53,22 h -85 l -85,1 z m 195,-76 44,-16 38,-19 38,-19 29,-38 30,-38 16,-31 16,-32 10,-108 10,-109 7,-122 6,-122 -37,-15 -37,-16 h -15 -14 l -42,19 -42,19 -49,21 -49,21 h -17 -18 l -74,39 -73,38 -83,5 -83,5 -10,10 -10,10 31,90 30,91 v 33 l 1,34 19,40 19,40 1,8 v 9 l 32,44 32,45 23,5 22,6 6,19 6,19 40,6 39,7 6,8 5,9 h 27 27 z m -1104,-191 16,-6 v -19 -19 l -27,-17 -28,-18 -7,-9 -6,-9 11,-18 11,-19 -12,-12 -12,-12 v -18 -17 l 42,-12 43,-11 46,-39 46,-38 28,-11 28,-11 49,17 48,16 41,39 41,39 h 18 18 l 12,15 12,15 -17,26 -17,26 6,15 6,15 -16,33 -16,34 7,10 6,11 h 34 34 l 6,-22 7,-21 4,-141 4,-141 5,-74 5,-74 -20,-35 -21,-34 -19,-56 -20,-56 v -87 -87 l 36,-76 37,-77 8,-117 8,-117 -14,-30 -14,-30 2,-83 2,-83 -15,-9 -15,-10 h -55 -55 l -13,9 -14,8 4,18 3,18 15,8 15,8 30,13 30,13 3,21 3,22 -30,10 -31,11 v 6 7 l 20,26 21,25 -31,32 -30,31 v 31 32 l -9,6 -10,6 -136,2 -136,2 -8,-5 -8,-5 -12,-22 -11,-22 v -21 -21 l -15,-23 -15,-23 11,-32 11,-33 -11,-11 -11,-11 v -16 -16 l 31,-33 30,-33 -3,-17 -3,-16 -92,-3 -92,-3 -11,21 -11,21 26,34 26,35 -16,31 -17,31 11,11 11,11 v 16 16 l -64,57 -64,57 -27,10 -26,10 h -34 -33 l -51,-40 -50,-40 -11,-20 -11,-20 h -14 -15 l -6,25 -6,25 6,43 6,42 -1,320 -2,320 -1,100 -1,100 h 10 10 l 3,-35 4,-35 15,-17 16,-18 h 148 149 l 17,26 17,26 -12,31 -12,31 16,25 16,24 -5,60 -5,59 -11,11 -11,11 v 18 19 l 23,9 22,9 h 67 l 66,1 z m -524,-33 v -9 l -15,-12 -15,-12 v 21 21 h 15 15 z m 1430,-424 v -23 l -16,-22 -15,-22 h -14 -14 l -6,10 -6,9 15,36 15,35 h 20 21 z m -305,-86 5,-10 -10,-6 -10,-6 -10,6 -10,6 5,10 6,9 h 9 9 z m 665,-11 65,-10 13,-18 13,-17 -2,-132 -3,-133 -5,-9 -6,-9 -58,-11 -59,-11 -30,-25 -31,-26 -15,3 -15,3 -11,17 -10,17 16,18 16,18 10,80 9,80 2,51 2,50 -22,27 -21,28 6,15 6,16 33,-6 32,-6 z m -665,-80 6,-10 -23,-9 -23,-9 -4,4 -4,4 13,15 12,15 h 9 8 z m 333,-11 3,-16 -36,-36 -36,-36 -25,15 -24,16 v 24 24 h 24 24 l 12,15 13,16 21,-3 21,-3 z m 99,-11 23,-21 v -13 -13 l -9,-5 -9,-6 -21,34 -21,33 v 7 6 h 7 7 z m -282,-13 v -20 l -19,-3 -19,-4 -8,13 -8,13 11,14 11,13 16,-3 16,-3 z m 161,-111 7,-26 -16,-16 -17,-16 -45,23 -46,23 17,19 17,19 h 38 39 z m -301,-33 5,-10 -10,-6 -10,-6 -10,6 -10,6 5,10 6,9 h 9 9 z m 410,-1 7,-11 -6,-16 -6,-15 -15,12 -15,12 v 14 14 h 14 15 z m -250,-114 18,-13 -16,-24 -17,-23 v -28 -28 h -18 -19 l -23,20 -23,20 18,37 18,38 11,7 11,8 h 11 10 z m 121,-11 25,-25 -3,-23 -3,-22 -17,-3 -18,-3 -30,33 -30,32 v 12 12 l 13,5 12,5 13,1 13,1 z m 458,-42 6,-18 -5,-197 -4,-197 -17,-51 -16,-50 -9,-6 -9,-5 v -20 -19 l -25,-12 -25,-11 -5,-17 -6,-18 -29,-12 -29,-12 -11,-13 -11,-14 -14,5 -13,5 -7,-10 -6,-11 h -60 -60 l -31,16 -31,16 -15,12 -15,11 -36,37 -36,36 -32,62 -33,61 -7,42 -6,41 -14,25 -13,26 v 22 21 l -17,30 -16,29 5,15 6,15 34,8 33,8 24,-3 24,-2 68,18 69,18 45,37 46,38 47,7 47,6 48,15 47,15 6,9 5,9 h 49 49 z m -1876,-444 -3,-10 h -10 -9 l -4,10 -4,11 h 17 17 z"
       id="path113285" />
    <path
       d="m 39773.73,-49010.956 -7,-18 1,-70 1,-70 7,-58 8,-58 22,-14 22,-14 53,-2 54,-2 22,25 22,25 7,104 7,104 -34,30 -35,30 -71,3 -71,3 z m 139,-84 20,-10 -7,-57 -6,-57 -10,-12 -10,-13 h -27 -27 l -12,12 -12,12 v 56 56 l 12,12 12,12 h 24 23 z"
       id="path113287" />
    <path
       d="m 39816.73,-50290.956 -20,-5 -12,-10 -13,-10 v -123 -122 l 20,-26 20,-25 29,-7 29,-6 51,17 52,17 14,33 14,34 -6,101 -6,100 -11,7 -11,7 -35,12 -35,13 -30,-1 -30,-1 z m 107,-85 4,-13 -5,-75 -6,-75 -31,-3 -31,-3 -17,16 -16,16 v 63 62 l 12,12 12,12 h 37 37 z"
       id="path113289" />
    <path
       d="m 43988.73,-48913.956 -25,-20 h -15 -16 l -20,-26 -21,-27 v -16 -17 l 12,-12 12,-12 -13,-35 -12,-34 10,-58 11,-57 v -70 -71 l -8,-13 -8,-12 -75,-21 -74,-21 -60,19 -60,18 h -76 -75 l -60,-30 -59,-29 -38,-30 -38,-30 -33,-46 -32,-45 -19,-60 -19,-60 1,-50 v -50 l 10,-45 9,-45 19,-35 18,-35 19,-25 20,-25 36,-42 36,-43 h 10 9 l 32,-25 32,-24 89,-6 89,-7 65,21 65,21 h 41 41 l 34,-11 34,-11 18,-21 18,-20 -6,-51 -5,-51 -2,-90 -1,-90 1,-61 2,-61 60,-17 61,-17 34,11 34,11 85,-9 85,-10 41,8 42,8 14,14 14,14 1,229 v 230 l -10,28 -11,27 -32,2 -33,2 -53,-3 -53,-3 -15,13 -15,12 25,26 24,26 22,45 23,45 8,70 7,70 -10,50 -11,50 -19,42 -19,42 -56,51 -55,50 6,15 6,16 64,-7 64,-7 56,7 57,8 15,24 16,24 -1,227 -2,227 -10,12 -10,12 -33,6 -34,7 -12,14 -12,15 h -24 -23 l -6,-20 -6,-20 -42,1 -42,2 -21,-7 -22,-7 -30,26 -30,25 h -5 -4 z m 230,-126 6,-17 -18,-13 -19,-14 h -61 -61 l -12,12 -11,11 10,19 10,18 h 75 75 z m -24,-178 89,-5 13,-11 13,-10 6,-41 6,-40 -10,-39 -10,-38 -170,-2 -169,-1 -7,46 -6,46 5,40 5,41 6,5 5,5 33,7 33,8 35,-3 35,-3 z m -210,-291 69,-18 5,-13 5,-14 39,-22 39,-22 24,-50 24,-51 12,-61 12,-60 -21,-70 -20,-69 -58,-56 -58,-56 -20,-8 -20,-7 -82,-5 -83,-4 v 29 29 l 20,26 20,25 30,67 30,67 v 56 l -1,57 -24,69 -23,69 -31,41 -31,40 v 7 8 l 15,15 16,15 22,-8 22,-9 z m -463,-2 v -6 l -17,-19 -16,-18 h -9 -8 v 19 19 l 13,5 12,5 13,1 12,1 z m 24,-156 18,-13 -6,-32 -7,-31 -13,-10 -13,-11 -10,12 -11,13 -6,22 -7,22 11,21 11,20 h 7 8 z m 161,-48 v -24 l -29,-3 -29,-4 -8,14 -9,13 v 7 7 l 15,15 16,15 22,-8 22,-8 z m 3,-91 12,-12 -11,-13 -11,-13 h -19 -19 v 18 19 l 7,6 6,7 h 12 11 z m -328,-6 v -9 l -24,-23 -25,-23 -15,6 -16,6 v 8 8 l 28,17 27,16 13,1 12,1 z m 138,-14 12,-12 v -13 -13 h -25 -24 l -11,19 -10,20 v 5 6 h 23 23 z m 163,-128 19,-11 v -24 -25 h -17 l -18,1 -24,19 -23,20 6,15 5,15 h 16 16 z m -163,-42 32,-9 v -29 -30 h -18 -18 l -32,31 -32,31 v 15 15 l 18,-7 17,-7 z m 720,-160 63,-2 11,-13 11,-14 1,-63 1,-63 -14,-16 -13,-17 h -157 -156 l -11,8 -12,7 -6,70 -7,70 10,14 10,15 48,7 48,7 55,-4 55,-5 z m -24,-350 10,-28 -7,-7 -7,-7 -67,1 -66,1 -14,18 -13,18 15,16 15,17 62,-1 62,-1 z"
       id="path113291" />
    <path
       d="m 41616.73,-49094.956 -6,-17 3,-38 3,-39 h 10 10 l 3,37 3,38 -10,17 -10,18 z"
       id="path113293" />
    <path
       d="m 46139.73,-48090.956 -13,-28 -35,-5 -35,-6 -30,-15 -30,-14 -3,-162 -2,-161 14,-15 15,-14 40,-7 41,-6 16,-25 16,-25 h 17 16 l 13,20 12,20 h 18 18 l 12,-12 12,-12 3,5 3,4 45,60 44,61 19,56 19,56 -23,53 -23,54 -33,38 -34,37 v 24 25 l -12,7 -11,7 -12,-16 -12,-17 h -10 -10 l -18,20 -18,20 h -8 -8 z"
       id="path113295" />
    <path
       d="m 47512.73,-48132.956 -21,-21 v -35 -35 l 26,-17 26,-17 27,15 26,15 9,27 10,27 -21,28 -20,27 -21,3 -21,3 z"
       id="path113297" />
    <path
       d="m 47763.73,-48125.956 -12,-12 v -43 -43 l 20,-20 20,-20 h 24 25 l 15,22 16,22 v 31 32 l -23,21 -23,22 h -25 -25 z"
       id="path113299" />
    <path
       d="m 29234.73,-49107.956 -33,-15 v -55 -55 l -16,-15 -15,-16 -22,5 -22,5 -55,5 -55,5 -75,10 -75,11 -95,16 -95,17 h -75 l -75,1 -55,-18 -56,-18 -54,-28 -55,-28 -115,-62 -115,-62 -27,-30 -28,-29 v -30 -30 l -23,-14 -22,-15 -68,11 -68,11 -105,-18 -106,-18 -271,8 -272,8 h -31 l -31,1 -36,-23 -37,-23 v -37 -38 l 18,-15 17,-16 42,-21 42,-21 h 20 20 l 7,11 6,11 33,14 33,13 269,-1 268,-1 135,2 135,2 18,-13 19,-14 3,-54 2,-55 -14,-27 -14,-28 h -112 -113 l -52,-15 -52,-16 -283,2 -282,1 -37,10 -36,11 -43,-24 -44,-24 -3,-19 -4,-19 12,-23 13,-23 33,-16 33,-16 153,11 153,11 190,-6 190,-6 109,-15 109,-14 18,5 18,6 21,-11 20,-11 v -24 -25 l 36,-40 36,-39 53,-26 54,-25 23,-11 23,-10 36,-22 36,-22 44,-29 44,-30 50,-13 49,-13 h 91 90 l 85,10 85,9 115,15 115,16 h 46 47 l 13,-16 13,-16 -2,-44 -2,-43 46,-30 45,-31 h 19 19 l 25,10 25,9 16,24 15,24 4,52 4,53 8,7 9,7 41,32 41,31 30,58 31,58 16,58 16,57 17,58 17,57 -1,165 v 165 l -22,80 -21,80 -13,45 -13,45 -26,41 -26,41 -39,6 -38,7 -22,15 -21,15 1,55 1,55 -14,15 -15,14 -55,6 -55,5 z m -564,-255 15,-9 -12,-15 -12,-14 2,-40 1,-40 -7,-11 -7,-12 h -14 -13 l -6,17 -7,16 6,46 6,46 4,13 4,12 h 13 13 z m 24,-226 17,-7 v -11 -10 l -17,-19 -16,-18 h -32 -31 l -12,12 -12,12 v 21 22 l 5,5 6,5 37,-2 37,-3 z m 194,-5 h 12 l 6,-20 6,-20 9,5 9,6 9,-18 9,-18 -4,-12 -5,-13 h -13 -14 l -6,21 -7,21 -28,-5 -28,-6 -16,18 -16,18 v 10 11 l 13,6 12,5 20,-4 20,-5 z m 168,-146 25,-16 v -21 -20 l -17,-19 -16,-18 h -27 -27 l -12,26 -11,25 6,12 7,12 15,18 15,17 h 9 9 z m -119,-81 -6,-6 -6,6 -6,6 7,18 8,18 4,-18 5,-19 z m 244,7 v -10 h -20 -20 v 10 10 h 20 20 z m -496,-22 -7,-23 -11,-8 -11,-7 -30,2 -30,3 v 14 14 l 35,13 35,12 13,1 13,1 z m 194,-28 42,-20 v -15 -14 l -10,-6 -9,-6 -31,16 -31,16 -40,-20 -40,-21 -5,14 -6,15 34,30 33,30 11,1 h 10 z m 362,4 v -16 l -12,4 -12,4 -4,12 -4,12 h 16 16 z m -346,-130 16,-6 v -9 -8 l -30,-16 -29,-15 h -19 -20 l -12,15 -12,15 6,15 5,15 h 40 39 z m 131,-38 18,-13 -6,-17 -6,-16 h -19 -18 l -19,14 -18,13 6,17 6,16 h 19 18 z"
       id="path113301" />
    <path
       d="m 25022.73,-49473.956 -29,-41 -7,-82 -6,-82 3,-55 3,-55 -13,-132 -14,-133 17,-38 17,-38 34,-23 34,-23 37,7 37,7 36,18 37,19 25,33 25,33 9,25 8,25 1,110 2,110 8,91 8,92 -7,26 -6,26 -62,60 -61,60 h -53 -54 z m 133,-109 27,-28 1,-49 1,-49 -3,-105 -3,-105 -12,-25 -13,-25 -20,-18 -21,-19 -20,7 -21,6 -6,25 -6,25 7,42 7,42 4,75 5,75 -1,58 -1,58 6,19 6,20 h 18 17 z"
       id="path113303" />
    <path
       d="m 24431.73,-49590.956 -15,-6 -74,-74 -73,-74 6,-44 7,-43 -11,-7 -10,-6 v -19 -19 l 28,-30 27,-29 19,-27 18,-27 34,-14 33,-14 h 120 119 l 16,6 15,6 11,34 12,34 31,16 32,16 18,16 17,15 v 33 32 l 17,30 17,30 -18,21 -19,21 h -54 -55 l -21,27 -22,26 -36,39 -37,38 -68,-1 -69,-1 z"
       id="path113305" />
    <path
       d="m 26067.73,-49662.956 -6,-8 -30,-7 -31,-6 -16,-37 -16,-38 v -32 l 1,-32 12,-36 12,-37 46,-29 46,-29 h 30 31 l 33,20 33,20 15,35 14,34 v 35 36 l -16,38 -15,39 -22,11 -22,10 -34,11 -34,11 h -13 -13 z"
       id="path113307" />
    <path
       d="m 54903.73,-49240.956 -9,-18 -7,-42 -6,-42 17,-9 18,-9 25,6 25,7 3,38 3,38 -16,24 -15,24 h -15 -14 z"
       id="path113309" />
    <path
       d="m 55121.73,-49384.956 v -20 l 10,6 10,6 v 15 14 h -10 -10 z"
       id="path113311" />
    <path
       d="m 57346.73,-49391.956 -20,-3 -33,-11 -33,-10 -30,-25 -31,-26 -9,-24 -9,-24 14,-34 14,-33 20,-11 20,-11 55,-6 54,-6 71,37 70,37 17,18 17,18 5,39 5,38 -14,18 -14,19 -74,2 -75,2 z m 5,-102 v -10 h -15 -15 v 10 10 h 15 15 z"
       id="path113313" />
    <path
       d="m 55146.73,-49454.956 -40,-21 -8,-7 -7,-7 -4,-49 -4,-48 14,-33 14,-33 37,-10 38,-11 h 38 38 l 30,32 29,32 v 29 28 l -20,39 -20,40 -23,14 -22,15 -25,6 -25,6 z"
       id="path113315" />
    <path
       d="m 56286.73,-49615.956 -30,-11 -12,-10 -13,-9 v -44 -43 l 22,-21 23,-21 20,-4 20,-4 83,-4 83,-5 13,-11 13,-11 16,6 15,6 27,40 27,40 -7,35 -6,34 -20,20 -19,19 h -43 -43 l -21,-15 -22,-16 -38,21 -38,20 -10,-1 -10,-1 z"
       id="path113317" />
    <path
       d="m 55164.73,-49816.956 -21,-12 -21,-27 -21,-26 v -42 -43 l 19,-31 20,-31 45,-14 46,-13 26,6 26,7 23,23 24,24 6,36 7,36 -13,46 -14,47 -32,14 -32,13 h -33 l -33,-1 z"
       id="path113319" />
    <path
       d="m 47753.73,-49592.956 -43,-7 -22,-22 -22,-22 -3,-139 -3,-139 17,-34 17,-33 9,-6 9,-6 46,7 46,7 14,19 13,18 v 171 171 l -12,12 -12,12 -5,-1 -6,-2 z m 12,-99 5,-9 5,-101 5,-102 -20,-10 -19,-11 -5,13 -5,13 -2,30 -2,30 2,78 2,77 h 14 15 z"
       id="path113321" />
    <path
       d="m 35134.73,-49485.956 -7,-13 -6,-44 -5,-44 -32,-17 -33,-17 -16,-14 -16,-14 5,-175 6,-175 26,-22 26,-23 h 14 15 l 25,-50 25,-50 h 33 32 l 12,8 11,7 7,28 7,27 h 33 33 l 12,15 13,16 244,-3 243,-2 19,16 19,16 7,77 8,78 -5,124 -5,124 -9,9 -10,10 -99,10 -100,10 -202,-4 -203,-3 -6,36 -6,36 -5,18 -4,17 h -49 -49 z m 684,-179 22,-8 3,-133 3,-133 -3,-12 -4,-11 -16,-7 -17,-8 -174,-2 -174,-2 -18,18 -18,18 2,83 1,83 -7,23 -8,22 h -14 -14 l 5,-105 4,-104 -19,-10 -19,-11 -7,18 -6,17 v 124 124 l 9,9 10,10 21,-14 21,-13 20,20 20,20 177,-4 178,-3 z m -599,-81 3,-18 -40,-6 -41,-7 v -8 -8 l 20,-11 20,-11 48,3 47,3 3,-22 3,-23 h -13 -14 l -12,12 -11,11 -16,-13 -15,-12 -28,5 -28,6 -12,-19 -12,-19 6,-14 5,-13 -25,-12 -25,-11 -5,7 -4,7 -1,89 -1,88 6,10 6,9 66,-3 67,-3 z m 67,-228 -6,-10 h -39 -39 l -6,10 -6,10 h 51 51 z"
       id="path113323" />
    <path
       d="m 45753.73,-49448.956 -32,-14 -19,-44 -19,-44 -44,-7 -43,-7 -22,-15 -23,-14 v -58 -58 l 14,-20 14,-19 5,5 5,5 6,64 6,63 5,9 6,8 32,-6 32,-6 7,-10 6,-10 -1,-156 -2,-156 -37,-3 -37,-3 -9,18 -9,18 -1,55 -2,54 -11,11 -10,10 -10,-15 -9,-15 5,-78 5,-78 5,-10 6,-9 h 33 33 l 34,-23 34,-23 3,-29 3,-30 17,-12 16,-13 h 22 23 l 15,22 16,22 v 28 28 l 25,12 25,11 86,-9 87,-9 20,-27 20,-27 -1,-30 -1,-29 19,-17 19,-17 38,7 38,6 22,15 22,14 3,27 3,28 33,11 32,10 12,12 12,12 h 25 25 l 46,17 45,16 33,24 32,24 -1,132 -1,132 -5,34 -6,33 -36,14 -36,15 -18,10 -18,10 -42,9 -42,9 -39,10 -39,10 -24,30 -24,31 -40,10 -41,11 -23,-15 -23,-15 -7,-28 -7,-28 -10,-12 -10,-13 h -103 -103 l -10,13 -10,12 -11,43 -12,42 h -7 l -7,-1 z m 513,-155 76,-30 h 23 23 l 34,-23 34,-23 v -109 -110 l -75,-25 -75,-26 -20,-11 -20,-11 -65,-7 -65,-6 -35,19 -35,19 -37,53 -38,53 v 57 57 l 20,26 20,25 v 11 10 l 33,25 34,26 h 15 16 l 12,15 12,15 h 19 18 z m -296,-9 10,-19 -29,-53 -29,-54 3,-50 3,-50 17,-32 17,-33 -6,-11 -7,-11 -30,29 -29,28 5,28 6,28 -30,6 -30,6 -6,8 -5,8 28,7 28,6 13,4 13,4 -7,22 -7,23 -11,8 -11,7 -45,-5 -45,-6 -25,9 -25,10 18,7 18,8 50,-6 51,-6 24,26 24,26 v 18 17 l 13,5 12,5 7,1 7,1 z m -149,0 v -10 l -10,-6 -11,-7 -15,6 -15,6 6,10 6,10 h 20 19 z m 80,-7 v -16 l -27,7 -28,6 -9,10 -10,9 h 37 37 z"
       id="path113325" />
    <path
       d="m 37645.73,-49558.956 -49,-24 -31,-41 -32,-41 -17,-87 -16,-87 11,-30 11,-30 26,-38 26,-38 46,-31 46,-31 52,-5 52,-4 61,18 61,18 34,38 34,37 19,38 19,38 1,65 2,64 -22,46 -22,45 -30,33 -31,32 -53,20 -53,20 h -47 -48 z m 167,-55 h 20 l 35,-26 34,-27 21,-46 21,-46 -5,-41 -4,-41 -32,-47 -32,-46 -39,-20 -39,-20 h -41 -42 l -54,36 -55,37 -6,29 -6,28 -8,6 -9,5 v 41 41 l 31,54 31,55 17,5 16,6 15,13 15,12 25,4 25,4 23,-8 23,-8 z"
       id="path113327" />
    <path
       d="m 33992.73,-49620.956 -9,-18 -3,-140 -3,-140 17,-31 16,-31 38,-7 38,-6 h 35 36 l 21,15 21,15 12,34 11,34 -4,114 -4,114 -14,30 -14,29 -92,3 -92,3 z m 167,-143 2,-75 1,-24 1,-25 -18,-13 -18,-13 h -32 -32 l -11,14 -11,13 6,44 6,45 -10,36 -10,36 15,22 15,21 46,-3 47,-3 z"
       id="path113329" />
    <path
       d="m 35039.73,-50558.956 -5,-5 -59,-1 -59,-1 -62,-20 -62,-19 -38,-28 -38,-29 -21,-20 -21,-20 3,-164 4,-163 v -160 -160 l -2,-15 -1,-15 14,-33 14,-33 23,-6 22,-5 28,7 27,7 34,-1 35,-1 16,-15 17,-15 h 19 20 l 13,13 12,12 77,-4 77,-3 20,1 h 20 l 98,4 98,3 8,13 8,12 -4,267 -3,267 -5,13 -5,13 -29,-15 -28,-15 -65,-7 -65,-6 -19,38 -19,38 -11,3 -10,3 -15,-32 -14,-33 -26,-9 -26,-9 -34,7 -34,6 -17,30 -17,30 h -14 -13 l -18,-36 -17,-37 -60,6 -60,5 -14,12 -15,12 v 69 69 h 8 9 l 44,30 44,30 h 22 22 l 39,-41 38,-42 63,-3 63,-4 29,17 29,17 1,11 1,10 -1,21 -2,21 16,13 15,13 45,-20 44,-19 42,-37 41,-38 -6,-29 -5,-30 19,-10 19,-10 13,28 14,27 -11,35 -10,35 -18,27 -18,27 -40,20 -40,21 h -13 -14 l -12,15 -12,15 h -27 -27 l -9,9 -10,8 -41,7 -41,6 z m 12,-84 v -20 l 10,-6 10,-6 v -15 -14 h -44 -45 l -15,16 -16,15 v 13 12 l 12,12 12,12 h 38 38 z m -169,-508 14,-16 -3,-91 -2,-91 -6,-17 -5,-18 h -58 -58 l -18,20 -18,19 v 81 l -1,80 12,12 13,13 42,11 42,11 16,2 17,1 z m 202,-5 22,-23 -2,-60 -3,-60 -3,-26 -2,-26 -14,-16 -13,-17 h -25 -24 l -29,15 -29,15 -7,47 -7,48 v 48 l 1,47 12,15 12,15 h 45 44 z m 237,-14 15,-15 1,-74 2,-75 -20,-25 -19,-25 h -37 -37 l -24,13 -23,12 -15,40 -15,40 -1,15 -1,15 2,37 2,37 16,16 16,16 62,-7 61,-6 z"
       id="path113331" />
    <path
       d="m 23556.73,-49123.956 -6,-10 h 20 21 v 10 10 h -14 -15 z"
       id="path113339" />
    <path
       d="m 23482.73,-49153.956 -13,-7 17,-7 17,-6 h 9 9 v 9 9 l -13,5 -14,5 z"
       id="path113341" />
    <path
       d="m 55856.73,-51055.956 -5,-13 8,-45 8,-45 h 9 8 l 12,52 12,53 -5,5 -5,5 h -19 -19 z"
       id="path113345" />
    <path
       d="m 56953.73,-51119.956 -22,-15 v -19 -19 l 29,-20 29,-21 16,16 16,15 v 24 23 l -6,16 -6,16 h -17 -17 z"
       id="path113347" />
  </g>
</svg>
